%TF.GenerationSoftware,KiCad,Pcbnew,(6.0.7)*%
%TF.CreationDate,2023-02-13T15:53:41-05:00*%
%TF.ProjectId,joycon,6a6f7963-6f6e-42e6-9b69-6361645f7063,rev?*%
%TF.SameCoordinates,Original*%
%TF.FileFunction,Legend,Top*%
%TF.FilePolarity,Positive*%
%FSLAX46Y46*%
G04 Gerber Fmt 4.6, Leading zero omitted, Abs format (unit mm)*
G04 Created by KiCad (PCBNEW (6.0.7)) date 2023-02-13 15:53:41*
%MOMM*%
%LPD*%
G01*
G04 APERTURE LIST*
%ADD10C,0.125000*%
%ADD11C,0.100000*%
%ADD12C,0.150000*%
%ADD13C,0.254000*%
%ADD14C,0.120000*%
G04 APERTURE END LIST*
D10*
X148615447Y-102010400D02*
X148567828Y-101986590D01*
X148496400Y-101986590D01*
X148424971Y-102010400D01*
X148377352Y-102058019D01*
X148353542Y-102105638D01*
X148329733Y-102200876D01*
X148329733Y-102272304D01*
X148353542Y-102367542D01*
X148377352Y-102415161D01*
X148424971Y-102462780D01*
X148496400Y-102486590D01*
X148544019Y-102486590D01*
X148615447Y-102462780D01*
X148639257Y-102438971D01*
X148639257Y-102272304D01*
X148544019Y-102272304D01*
X148853542Y-102486590D02*
X148853542Y-101986590D01*
X149139257Y-102486590D01*
X149139257Y-101986590D01*
X149377352Y-102486590D02*
X149377352Y-101986590D01*
X149496400Y-101986590D01*
X149567828Y-102010400D01*
X149615447Y-102058019D01*
X149639257Y-102105638D01*
X149663066Y-102200876D01*
X149663066Y-102272304D01*
X149639257Y-102367542D01*
X149615447Y-102415161D01*
X149567828Y-102462780D01*
X149496400Y-102486590D01*
X149377352Y-102486590D01*
D11*
X132219047Y-89278571D02*
X132195238Y-89302380D01*
X132123809Y-89326190D01*
X132076190Y-89326190D01*
X132004761Y-89302380D01*
X131957142Y-89254761D01*
X131933333Y-89207142D01*
X131909523Y-89111904D01*
X131909523Y-89040476D01*
X131933333Y-88945238D01*
X131957142Y-88897619D01*
X132004761Y-88850000D01*
X132076190Y-88826190D01*
X132123809Y-88826190D01*
X132195238Y-88850000D01*
X132219047Y-88873809D01*
X132504761Y-89326190D02*
X132457142Y-89302380D01*
X132433333Y-89254761D01*
X132433333Y-88826190D01*
X132885714Y-89302380D02*
X132838095Y-89326190D01*
X132742857Y-89326190D01*
X132695238Y-89302380D01*
X132671428Y-89254761D01*
X132671428Y-89064285D01*
X132695238Y-89016666D01*
X132742857Y-88992857D01*
X132838095Y-88992857D01*
X132885714Y-89016666D01*
X132909523Y-89064285D01*
X132909523Y-89111904D01*
X132671428Y-89159523D01*
X133338095Y-89326190D02*
X133338095Y-89064285D01*
X133314285Y-89016666D01*
X133266666Y-88992857D01*
X133171428Y-88992857D01*
X133123809Y-89016666D01*
X133338095Y-89302380D02*
X133290476Y-89326190D01*
X133171428Y-89326190D01*
X133123809Y-89302380D01*
X133100000Y-89254761D01*
X133100000Y-89207142D01*
X133123809Y-89159523D01*
X133171428Y-89135714D01*
X133290476Y-89135714D01*
X133338095Y-89111904D01*
X133576190Y-89326190D02*
X133576190Y-88992857D01*
X133576190Y-89088095D02*
X133600000Y-89040476D01*
X133623809Y-89016666D01*
X133671428Y-88992857D01*
X133719047Y-88992857D01*
X134147619Y-88850000D02*
X134100000Y-88826190D01*
X134028571Y-88826190D01*
X133957142Y-88850000D01*
X133909523Y-88897619D01*
X133885714Y-88945238D01*
X133861904Y-89040476D01*
X133861904Y-89111904D01*
X133885714Y-89207142D01*
X133909523Y-89254761D01*
X133957142Y-89302380D01*
X134028571Y-89326190D01*
X134076190Y-89326190D01*
X134147619Y-89302380D01*
X134171428Y-89278571D01*
X134171428Y-89111904D01*
X134076190Y-89111904D01*
X134600000Y-89326190D02*
X134600000Y-89064285D01*
X134576190Y-89016666D01*
X134528571Y-88992857D01*
X134433333Y-88992857D01*
X134385714Y-89016666D01*
X134600000Y-89302380D02*
X134552380Y-89326190D01*
X134433333Y-89326190D01*
X134385714Y-89302380D01*
X134361904Y-89254761D01*
X134361904Y-89207142D01*
X134385714Y-89159523D01*
X134433333Y-89135714D01*
X134552380Y-89135714D01*
X134600000Y-89111904D01*
X135052380Y-88992857D02*
X135052380Y-89326190D01*
X134838095Y-88992857D02*
X134838095Y-89254761D01*
X134861904Y-89302380D01*
X134909523Y-89326190D01*
X134980952Y-89326190D01*
X135028571Y-89302380D01*
X135052380Y-89278571D01*
X135290476Y-88992857D02*
X135290476Y-89326190D01*
X135290476Y-89040476D02*
X135314285Y-89016666D01*
X135361904Y-88992857D01*
X135433333Y-88992857D01*
X135480952Y-89016666D01*
X135504761Y-89064285D01*
X135504761Y-89326190D01*
X135671428Y-88992857D02*
X135861904Y-88992857D01*
X135742857Y-88826190D02*
X135742857Y-89254761D01*
X135766666Y-89302380D01*
X135814285Y-89326190D01*
X135861904Y-89326190D01*
X136100000Y-89326190D02*
X136052380Y-89302380D01*
X136028571Y-89254761D01*
X136028571Y-88826190D01*
X136480952Y-89302380D02*
X136433333Y-89326190D01*
X136338095Y-89326190D01*
X136290476Y-89302380D01*
X136266666Y-89254761D01*
X136266666Y-89064285D01*
X136290476Y-89016666D01*
X136338095Y-88992857D01*
X136433333Y-88992857D01*
X136480952Y-89016666D01*
X136504761Y-89064285D01*
X136504761Y-89111904D01*
X136266666Y-89159523D01*
X136647619Y-88992857D02*
X136838095Y-88992857D01*
X136719047Y-88826190D02*
X136719047Y-89254761D01*
X136742857Y-89302380D01*
X136790476Y-89326190D01*
X136838095Y-89326190D01*
X137385714Y-89135714D02*
X137766666Y-89135714D01*
X138671428Y-89326190D02*
X138504761Y-89088095D01*
X138385714Y-89326190D02*
X138385714Y-88826190D01*
X138576190Y-88826190D01*
X138623809Y-88850000D01*
X138647619Y-88873809D01*
X138671428Y-88921428D01*
X138671428Y-88992857D01*
X138647619Y-89040476D01*
X138623809Y-89064285D01*
X138576190Y-89088095D01*
X138385714Y-89088095D01*
X138885714Y-89326190D02*
X138885714Y-88826190D01*
X139052380Y-88826190D02*
X139338095Y-88826190D01*
X139195238Y-89326190D02*
X139195238Y-88826190D01*
D10*
X148558333Y-94341190D02*
X148725000Y-94841190D01*
X148891666Y-94341190D01*
X149058333Y-94841190D02*
X149058333Y-94341190D01*
X149177380Y-94341190D01*
X149248809Y-94365000D01*
X149296428Y-94412619D01*
X149320238Y-94460238D01*
X149344047Y-94555476D01*
X149344047Y-94626904D01*
X149320238Y-94722142D01*
X149296428Y-94769761D01*
X149248809Y-94817380D01*
X149177380Y-94841190D01*
X149058333Y-94841190D01*
X149558333Y-94841190D02*
X149558333Y-94341190D01*
X149677380Y-94341190D01*
X149748809Y-94365000D01*
X149796428Y-94412619D01*
X149820238Y-94460238D01*
X149844047Y-94555476D01*
X149844047Y-94626904D01*
X149820238Y-94722142D01*
X149796428Y-94769761D01*
X149748809Y-94817380D01*
X149677380Y-94841190D01*
X149558333Y-94841190D01*
D11*
X136371390Y-107871390D02*
X136371390Y-107371390D01*
X136561866Y-107371390D01*
X136609485Y-107395200D01*
X136633295Y-107419009D01*
X136657104Y-107466628D01*
X136657104Y-107538057D01*
X136633295Y-107585676D01*
X136609485Y-107609485D01*
X136561866Y-107633295D01*
X136371390Y-107633295D01*
X137157104Y-107823771D02*
X137133295Y-107847580D01*
X137061866Y-107871390D01*
X137014247Y-107871390D01*
X136942819Y-107847580D01*
X136895200Y-107799961D01*
X136871390Y-107752342D01*
X136847580Y-107657104D01*
X136847580Y-107585676D01*
X136871390Y-107490438D01*
X136895200Y-107442819D01*
X136942819Y-107395200D01*
X137014247Y-107371390D01*
X137061866Y-107371390D01*
X137133295Y-107395200D01*
X137157104Y-107419009D01*
X137538057Y-107609485D02*
X137609485Y-107633295D01*
X137633295Y-107657104D01*
X137657104Y-107704723D01*
X137657104Y-107776152D01*
X137633295Y-107823771D01*
X137609485Y-107847580D01*
X137561866Y-107871390D01*
X137371390Y-107871390D01*
X137371390Y-107371390D01*
X137538057Y-107371390D01*
X137585676Y-107395200D01*
X137609485Y-107419009D01*
X137633295Y-107466628D01*
X137633295Y-107514247D01*
X137609485Y-107561866D01*
X137585676Y-107585676D01*
X137538057Y-107609485D01*
X137371390Y-107609485D01*
X138180914Y-107538057D02*
X138371390Y-107538057D01*
X138252342Y-107871390D02*
X138252342Y-107442819D01*
X138276152Y-107395200D01*
X138323771Y-107371390D01*
X138371390Y-107371390D01*
X138609485Y-107871390D02*
X138561866Y-107847580D01*
X138538057Y-107823771D01*
X138514247Y-107776152D01*
X138514247Y-107633295D01*
X138538057Y-107585676D01*
X138561866Y-107561866D01*
X138609485Y-107538057D01*
X138680914Y-107538057D01*
X138728533Y-107561866D01*
X138752342Y-107585676D01*
X138776152Y-107633295D01*
X138776152Y-107776152D01*
X138752342Y-107823771D01*
X138728533Y-107847580D01*
X138680914Y-107871390D01*
X138609485Y-107871390D01*
X138990438Y-107871390D02*
X138990438Y-107538057D01*
X138990438Y-107633295D02*
X139014247Y-107585676D01*
X139038057Y-107561866D01*
X139085676Y-107538057D01*
X139133295Y-107538057D01*
X139823771Y-107371390D02*
X139823771Y-107728533D01*
X139799961Y-107799961D01*
X139752342Y-107847580D01*
X139680914Y-107871390D01*
X139633295Y-107871390D01*
X140133295Y-107871390D02*
X140085676Y-107847580D01*
X140061866Y-107823771D01*
X140038057Y-107776152D01*
X140038057Y-107633295D01*
X140061866Y-107585676D01*
X140085676Y-107561866D01*
X140133295Y-107538057D01*
X140204723Y-107538057D01*
X140252342Y-107561866D01*
X140276152Y-107585676D01*
X140299961Y-107633295D01*
X140299961Y-107776152D01*
X140276152Y-107823771D01*
X140252342Y-107847580D01*
X140204723Y-107871390D01*
X140133295Y-107871390D01*
X140466628Y-107538057D02*
X140585676Y-107871390D01*
X140704723Y-107538057D02*
X140585676Y-107871390D01*
X140538057Y-107990438D01*
X140514247Y-108014247D01*
X140466628Y-108038057D01*
X140871390Y-107847580D02*
X140919009Y-107871390D01*
X141014247Y-107871390D01*
X141061866Y-107847580D01*
X141085676Y-107799961D01*
X141085676Y-107776152D01*
X141061866Y-107728533D01*
X141014247Y-107704723D01*
X140942819Y-107704723D01*
X140895200Y-107680914D01*
X140871390Y-107633295D01*
X140871390Y-107609485D01*
X140895200Y-107561866D01*
X140942819Y-107538057D01*
X141014247Y-107538057D01*
X141061866Y-107561866D01*
X141228533Y-107538057D02*
X141419009Y-107538057D01*
X141299961Y-107371390D02*
X141299961Y-107799961D01*
X141323771Y-107847580D01*
X141371390Y-107871390D01*
X141419009Y-107871390D01*
X141585676Y-107871390D02*
X141585676Y-107538057D01*
X141585676Y-107371390D02*
X141561866Y-107395200D01*
X141585676Y-107419009D01*
X141609485Y-107395200D01*
X141585676Y-107371390D01*
X141585676Y-107419009D01*
X142038057Y-107847580D02*
X141990438Y-107871390D01*
X141895200Y-107871390D01*
X141847580Y-107847580D01*
X141823771Y-107823771D01*
X141799961Y-107776152D01*
X141799961Y-107633295D01*
X141823771Y-107585676D01*
X141847580Y-107561866D01*
X141895200Y-107538057D01*
X141990438Y-107538057D01*
X142038057Y-107561866D01*
X142252342Y-107871390D02*
X142252342Y-107371390D01*
X142299961Y-107680914D02*
X142442819Y-107871390D01*
X142442819Y-107538057D02*
X142252342Y-107728533D01*
D12*
X148939285Y-97559761D02*
X149082142Y-97607380D01*
X149320238Y-97607380D01*
X149415476Y-97559761D01*
X149463095Y-97512142D01*
X149510714Y-97416904D01*
X149510714Y-97321666D01*
X149463095Y-97226428D01*
X149415476Y-97178809D01*
X149320238Y-97131190D01*
X149129761Y-97083571D01*
X149034523Y-97035952D01*
X148986904Y-96988333D01*
X148939285Y-96893095D01*
X148939285Y-96797857D01*
X148986904Y-96702619D01*
X149034523Y-96655000D01*
X149129761Y-96607380D01*
X149367857Y-96607380D01*
X149510714Y-96655000D01*
X148891666Y-104227380D02*
X149558333Y-105227380D01*
X149558333Y-104227380D02*
X148891666Y-105227380D01*
X149225000Y-99671190D02*
X149225000Y-100147380D01*
X148891666Y-99147380D02*
X149225000Y-99671190D01*
X149558333Y-99147380D01*
%TO.C,REF\u002A\u002A*%
X122237666Y-110942380D02*
X121904333Y-110466190D01*
X121666238Y-110942380D02*
X121666238Y-109942380D01*
X122047190Y-109942380D01*
X122142428Y-109990000D01*
X122190047Y-110037619D01*
X122237666Y-110132857D01*
X122237666Y-110275714D01*
X122190047Y-110370952D01*
X122142428Y-110418571D01*
X122047190Y-110466190D01*
X121666238Y-110466190D01*
X122666238Y-110418571D02*
X122999571Y-110418571D01*
X123142428Y-110942380D02*
X122666238Y-110942380D01*
X122666238Y-109942380D01*
X123142428Y-109942380D01*
X123904333Y-110418571D02*
X123571000Y-110418571D01*
X123571000Y-110942380D02*
X123571000Y-109942380D01*
X124047190Y-109942380D01*
X124571000Y-109942380D02*
X124571000Y-110180476D01*
X124332904Y-110085238D02*
X124571000Y-110180476D01*
X124809095Y-110085238D01*
X124428142Y-110370952D02*
X124571000Y-110180476D01*
X124713857Y-110370952D01*
X125332904Y-109942380D02*
X125332904Y-110180476D01*
X125094809Y-110085238D02*
X125332904Y-110180476D01*
X125571000Y-110085238D01*
X125190047Y-110370952D02*
X125332904Y-110180476D01*
X125475761Y-110370952D01*
X147409066Y-85923380D02*
X147075733Y-85447190D01*
X146837638Y-85923380D02*
X146837638Y-84923380D01*
X147218590Y-84923380D01*
X147313828Y-84971000D01*
X147361447Y-85018619D01*
X147409066Y-85113857D01*
X147409066Y-85256714D01*
X147361447Y-85351952D01*
X147313828Y-85399571D01*
X147218590Y-85447190D01*
X146837638Y-85447190D01*
X147837638Y-85399571D02*
X148170971Y-85399571D01*
X148313828Y-85923380D02*
X147837638Y-85923380D01*
X147837638Y-84923380D01*
X148313828Y-84923380D01*
X149075733Y-85399571D02*
X148742400Y-85399571D01*
X148742400Y-85923380D02*
X148742400Y-84923380D01*
X149218590Y-84923380D01*
X149742400Y-84923380D02*
X149742400Y-85161476D01*
X149504304Y-85066238D02*
X149742400Y-85161476D01*
X149980495Y-85066238D01*
X149599542Y-85351952D02*
X149742400Y-85161476D01*
X149885257Y-85351952D01*
X150504304Y-84923380D02*
X150504304Y-85161476D01*
X150266209Y-85066238D02*
X150504304Y-85161476D01*
X150742400Y-85066238D01*
X150361447Y-85351952D02*
X150504304Y-85161476D01*
X150647161Y-85351952D01*
%TO.C,J2*%
X143176666Y-93432380D02*
X143176666Y-94146666D01*
X143129047Y-94289523D01*
X143033809Y-94384761D01*
X142890952Y-94432380D01*
X142795714Y-94432380D01*
X143605238Y-93527619D02*
X143652857Y-93480000D01*
X143748095Y-93432380D01*
X143986190Y-93432380D01*
X144081428Y-93480000D01*
X144129047Y-93527619D01*
X144176666Y-93622857D01*
X144176666Y-93718095D01*
X144129047Y-93860952D01*
X143557619Y-94432380D01*
X144176666Y-94432380D01*
D13*
%TO.C,J1*%
X133440523Y-99483333D02*
X134347666Y-99483333D01*
X134529095Y-99543809D01*
X134650047Y-99664761D01*
X134710523Y-99846190D01*
X134710523Y-99967142D01*
X134710523Y-98213333D02*
X134710523Y-98939047D01*
X134710523Y-98576190D02*
X133440523Y-98576190D01*
X133621952Y-98697142D01*
X133742904Y-98818095D01*
X133803380Y-98939047D01*
D14*
%TO.C,J2*%
X146685000Y-93285000D02*
X148015000Y-93285000D01*
X148015000Y-93285000D02*
X148015000Y-94615000D01*
X145355000Y-106105000D02*
X148015000Y-106105000D01*
X145355000Y-95885000D02*
X148015000Y-95885000D01*
X145355000Y-95885000D02*
X145355000Y-106105000D01*
X148015000Y-95885000D02*
X148015000Y-106105000D01*
D11*
%TO.C,J1*%
X132086000Y-97860000D02*
X132086000Y-100260000D01*
X136186000Y-98060000D02*
X136186000Y-98060000D01*
X135686000Y-101160000D02*
X135686000Y-100660000D01*
X133686000Y-101160000D02*
X135686000Y-101160000D01*
X133686000Y-96960000D02*
X135686000Y-96960000D01*
X136086000Y-98060000D02*
X136086000Y-98060000D01*
X135686000Y-96960000D02*
X135686000Y-97460000D01*
X136086000Y-98060000D02*
G75*
G03*
X136186000Y-98060000I50000J0D01*
G01*
X136186000Y-98060000D02*
G75*
G03*
X136086000Y-98060000I-50000J0D01*
G01*
%TD*%
M02*
