M48
INCH,TZ
T1C0.0394
%
G90
G05
T1
X47000Y-29000
X47000Y-31000
X47000Y-32831
X47000Y-34661
X47000Y-36492
X47000Y-38323
X47000Y-40339
X47000Y-42169
X47000Y-44000
X48000Y-29000
X48000Y-31000
X48000Y-32831
X48000Y-34661
X48000Y-36492
X48000Y-38323
X48000Y-40339
X48000Y-42169
X48000Y-44000
X49000Y-29000
X49000Y-31000
X49000Y-32831
X49000Y-34661
X49000Y-36492
X49000Y-38323
X49000Y-40339
X49000Y-42169
X49000Y-44000
X49833Y-25030
X50000Y-29000
X50000Y-31000
X50000Y-32831
X50000Y-34661
X50000Y-36492
X50000Y-38323
X50000Y-40339
X50000Y-42169
X50000Y-44000
X50252Y-48031
X50833Y-25030
X51000Y-29000
X51000Y-31000
X51000Y-32831
X51000Y-34661
X51000Y-36492
X51000Y-38323
X51000Y-40339
X51000Y-42169
X51000Y-44000
X51252Y-48031
X51833Y-25030
X52000Y-29000
X52000Y-31000
X52000Y-32831
X52000Y-34661
X52000Y-36492
X52000Y-38323
X52000Y-40339
X52000Y-42169
X52000Y-44000
X52252Y-48031
X52833Y-25030
X53000Y-29000
X53000Y-31000
X53000Y-32831
X53000Y-34661
X53000Y-36492
X53000Y-38323
X53000Y-40339
X53000Y-42169
X53000Y-44000
X53252Y-48031
X53833Y-25030
X54000Y-29000
X54000Y-31000
X54000Y-32831
X54000Y-34661
X54000Y-36492
X54000Y-38323
X54000Y-40339
X54000Y-42169
X54000Y-44000
X54252Y-48031
X54833Y-25030
X55000Y-29000
X55000Y-31000
X55000Y-32831
X55000Y-34661
X55000Y-36492
X55000Y-38323
X55000Y-40339
X55000Y-42169
X55000Y-44000
X56000Y-29000
X56000Y-31000
X56000Y-32831
X56000Y-34661
X56000Y-36492
X56000Y-38323
X56000Y-40339
X56000Y-42169
X56000Y-44000
X60278Y-22998
X60278Y-23998
X60278Y-24998
X60278Y-25998
X60278Y-26998
X60278Y-27998
X60278Y-28998
X60278Y-29998
X60278Y-30998
X60278Y-31998
X60278Y-32998
X60278Y-33998
X60278Y-34998
X60278Y-35998
X60278Y-36998
X60278Y-37998
X60278Y-38998
X60278Y-39998
X60278Y-40998
X60278Y-41998
X60278Y-42998
X60278Y-43998
X60278Y-44998
X60278Y-45998
X60278Y-46998
X60278Y-47998
X60278Y-48998
T0
M30
