%TF.GenerationSoftware,KiCad,Pcbnew,(6.0.7)*%
%TF.CreationDate,2022-11-21T17:26:44-05:00*%
%TF.ProjectId,upper_v3,75707065-725f-4763-932e-6b696361645f,rev?*%
%TF.SameCoordinates,Original*%
%TF.FileFunction,Soldermask,Top*%
%TF.FilePolarity,Negative*%
%FSLAX46Y46*%
G04 Gerber Fmt 4.6, Leading zero omitted, Abs format (unit mm)*
G04 Created by KiCad (PCBNEW (6.0.7)) date 2022-11-21 17:26:44*
%MOMM*%
%LPD*%
G01*
G04 APERTURE LIST*
%ADD10R,1.700000X1.700000*%
%ADD11O,1.700000X1.700000*%
G04 APERTURE END LIST*
D10*
%TO.C,J2*%
X119380000Y-73660000D03*
D11*
X121920000Y-73660000D03*
X124460000Y-73660000D03*
X127000000Y-73660000D03*
X129540000Y-73660000D03*
X132080000Y-73660000D03*
X134620000Y-73660000D03*
X137160000Y-73660000D03*
X139700000Y-73660000D03*
X142240000Y-73660000D03*
%TD*%
D10*
%TO.C,J10*%
X119380000Y-111760000D03*
D11*
X121920000Y-111760000D03*
X124460000Y-111760000D03*
X127000000Y-111760000D03*
X129540000Y-111760000D03*
X132080000Y-111760000D03*
X134620000Y-111760000D03*
X137160000Y-111760000D03*
X139700000Y-111760000D03*
X142240000Y-111760000D03*
%TD*%
D10*
%TO.C,J5*%
X119380000Y-78740000D03*
D11*
X121920000Y-78740000D03*
X124460000Y-78740000D03*
X127000000Y-78740000D03*
X129540000Y-78740000D03*
X132080000Y-78740000D03*
X134620000Y-78740000D03*
X137160000Y-78740000D03*
X139700000Y-78740000D03*
X142240000Y-78740000D03*
%TD*%
D10*
%TO.C,J11*%
X119380000Y-107110000D03*
D11*
X121920000Y-107110000D03*
X124460000Y-107110000D03*
X127000000Y-107110000D03*
X129540000Y-107110000D03*
X132080000Y-107110000D03*
X134620000Y-107110000D03*
X137160000Y-107110000D03*
X139700000Y-107110000D03*
X142240000Y-107110000D03*
%TD*%
D10*
%TO.C,J3*%
X126575000Y-63575000D03*
D11*
X129115000Y-63575000D03*
X131655000Y-63575000D03*
X134195000Y-63575000D03*
X136735000Y-63575000D03*
X139275000Y-63575000D03*
%TD*%
D10*
%TO.C,J7*%
X119380000Y-88040000D03*
D11*
X121920000Y-88040000D03*
X124460000Y-88040000D03*
X127000000Y-88040000D03*
X129540000Y-88040000D03*
X132080000Y-88040000D03*
X134620000Y-88040000D03*
X137160000Y-88040000D03*
X139700000Y-88040000D03*
X142240000Y-88040000D03*
%TD*%
D10*
%TO.C,J6*%
X119380000Y-97340000D03*
D11*
X121920000Y-97340000D03*
X124460000Y-97340000D03*
X127000000Y-97340000D03*
X129540000Y-97340000D03*
X132080000Y-97340000D03*
X134620000Y-97340000D03*
X137160000Y-97340000D03*
X139700000Y-97340000D03*
X142240000Y-97340000D03*
%TD*%
D10*
%TO.C,J1*%
X153105000Y-58415000D03*
D11*
X153105000Y-60955000D03*
X153105000Y-63495000D03*
X153105000Y-66035000D03*
X153105000Y-68575000D03*
X153105000Y-71115000D03*
X153105000Y-73655000D03*
X153105000Y-76195000D03*
X153105000Y-78735000D03*
X153105000Y-81275000D03*
X153105000Y-83815000D03*
X153105000Y-86355000D03*
X153105000Y-88895000D03*
X153105000Y-91435000D03*
X153105000Y-93975000D03*
X153105000Y-96515000D03*
X153105000Y-99055000D03*
X153105000Y-101595000D03*
X153105000Y-104135000D03*
X153105000Y-106675000D03*
X153105000Y-109215000D03*
X153105000Y-111755000D03*
X153105000Y-114295000D03*
X153105000Y-116835000D03*
X153105000Y-119375000D03*
X153105000Y-121915000D03*
X153105000Y-124455000D03*
%TD*%
D10*
%TO.C,J9*%
X119380000Y-92690000D03*
D11*
X121920000Y-92690000D03*
X124460000Y-92690000D03*
X127000000Y-92690000D03*
X129540000Y-92690000D03*
X132080000Y-92690000D03*
X134620000Y-92690000D03*
X137160000Y-92690000D03*
X139700000Y-92690000D03*
X142240000Y-92690000D03*
%TD*%
D10*
%TO.C,J4*%
X137800000Y-122000000D03*
D11*
X135260000Y-122000000D03*
X132720000Y-122000000D03*
X130180000Y-122000000D03*
X127640000Y-122000000D03*
%TD*%
D10*
%TO.C,J12*%
X119380000Y-102460000D03*
D11*
X121920000Y-102460000D03*
X124460000Y-102460000D03*
X127000000Y-102460000D03*
X129540000Y-102460000D03*
X132080000Y-102460000D03*
X134620000Y-102460000D03*
X137160000Y-102460000D03*
X139700000Y-102460000D03*
X142240000Y-102460000D03*
%TD*%
D10*
%TO.C,J8*%
X119380000Y-83390000D03*
D11*
X121920000Y-83390000D03*
X124460000Y-83390000D03*
X127000000Y-83390000D03*
X129540000Y-83390000D03*
X132080000Y-83390000D03*
X134620000Y-83390000D03*
X137160000Y-83390000D03*
X139700000Y-83390000D03*
X142240000Y-83390000D03*
%TD*%
M02*
