%TF.GenerationSoftware,KiCad,Pcbnew,(6.0.8)*%
%TF.CreationDate,2022-11-23T11:07:29-05:00*%
%TF.ProjectId,lower_v3,6c6f7765-725f-4763-932e-6b696361645f,rev?*%
%TF.SameCoordinates,Original*%
%TF.FileFunction,Copper,L2,Bot*%
%TF.FilePolarity,Positive*%
%FSLAX46Y46*%
G04 Gerber Fmt 4.6, Leading zero omitted, Abs format (unit mm)*
G04 Created by KiCad (PCBNEW (6.0.8)) date 2022-11-23 11:07:29*
%MOMM*%
%LPD*%
G01*
G04 APERTURE LIST*
%TA.AperFunction,Profile*%
%ADD10C,0.100000*%
%TD*%
%TA.AperFunction,ComponentPad*%
%ADD11R,1.700000X1.700000*%
%TD*%
%TA.AperFunction,ComponentPad*%
%ADD12O,1.700000X1.700000*%
%TD*%
%TA.AperFunction,ComponentPad*%
%ADD13R,2.000000X2.000000*%
%TD*%
%TA.AperFunction,ComponentPad*%
%ADD14C,2.000000*%
%TD*%
%TA.AperFunction,Conductor*%
%ADD15C,0.250000*%
%TD*%
G04 APERTURE END LIST*
D10*
X154940000Y-138430000D02*
X114300000Y-138430000D01*
X114300000Y-138430000D02*
X114300000Y-73660000D01*
X114300000Y-73660000D02*
X154940000Y-73660000D01*
X154940000Y-73660000D02*
X154940000Y-138430000D01*
D11*
%TO.P,J2,1,Pin_1*%
%TO.N,Net-(J3-Pad11)*%
X137160000Y-77470000D03*
D12*
%TO.P,J2,2,Pin_2*%
%TO.N,Net-(U1-Pad28)*%
X134620000Y-77470000D03*
%TO.P,J2,3,Pin_3*%
%TO.N,Net-(U1-Pad27)*%
X132080000Y-77470000D03*
%TO.P,J2,4,Pin_4*%
%TO.N,Net-(U1-Pad5)*%
X129540000Y-77470000D03*
%TO.P,J2,5,Pin_5*%
%TO.N,Net-(U1-Pad4)*%
X127000000Y-77470000D03*
%TO.P,J2,6,Pin_6*%
%TO.N,GND*%
X124460000Y-77470000D03*
%TD*%
D13*
%TO.P,U1,1,3V3*%
%TO.N,Net-(J1-Pad1)*%
X118110000Y-91165000D03*
D14*
%TO.P,U1,2,GND*%
%TO.N,GND*%
X118110000Y-93705000D03*
%TO.P,U1,3,D15*%
%TO.N,unconnected-(U1-Pad3)*%
X118110000Y-96245000D03*
%TO.P,U1,4,D2*%
%TO.N,Net-(U1-Pad4)*%
X118110000Y-98785000D03*
%TO.P,U1,5,D4*%
%TO.N,Net-(U1-Pad5)*%
X118110000Y-101325000D03*
%TO.P,U1,6,RX2*%
%TO.N,unconnected-(U1-Pad6)*%
X118110000Y-103865000D03*
%TO.P,U1,7,TX2*%
%TO.N,unconnected-(U1-Pad7)*%
X118110000Y-106405000D03*
%TO.P,U1,8,D5*%
%TO.N,Net-(J1-Pad5)*%
X118110000Y-108945000D03*
%TO.P,U1,9,D18*%
%TO.N,Net-(J1-Pad4)*%
X118110000Y-111485000D03*
%TO.P,U1,10,D19*%
%TO.N,Net-(J1-Pad3)*%
X118110000Y-114025000D03*
%TO.P,U1,11,D21*%
%TO.N,Net-(J1-Pad2)*%
X118110000Y-116565000D03*
%TO.P,U1,12,RX0*%
%TO.N,unconnected-(U1-Pad12)*%
X118110000Y-119105000D03*
%TO.P,U1,13,TX0*%
%TO.N,unconnected-(U1-Pad13)*%
X118110000Y-121645000D03*
%TO.P,U1,14,D22*%
%TO.N,unconnected-(U1-Pad14)*%
X118110000Y-124185000D03*
%TO.P,U1,15,D23*%
%TO.N,unconnected-(U1-Pad15)*%
X118110000Y-126725000D03*
%TO.P,U1,16,EN*%
%TO.N,unconnected-(U1-Pad16)*%
X143510000Y-127000000D03*
%TO.P,U1,17,VP*%
%TO.N,unconnected-(U1-Pad17)*%
X143510000Y-124460000D03*
%TO.P,U1,18,VN*%
%TO.N,unconnected-(U1-Pad18)*%
X143510000Y-121645000D03*
%TO.P,U1,19,D34*%
%TO.N,Net-(J3-Pad19)*%
X143510000Y-119105000D03*
%TO.P,U1,20,D35*%
%TO.N,Net-(J3-Pad16)*%
X143510000Y-116565000D03*
%TO.P,U1,21,D32*%
%TO.N,Net-(J3-Pad13)*%
X143510000Y-114025000D03*
%TO.P,U1,22,D33*%
%TO.N,Net-(J3-Pad10)*%
X143510000Y-111485000D03*
%TO.P,U1,23,D25*%
%TO.N,Net-(J3-Pad7)*%
X143510000Y-108945000D03*
%TO.P,U1,24,D26*%
%TO.N,unconnected-(U1-Pad24)*%
X143510000Y-106405000D03*
%TO.P,U1,25,D27*%
%TO.N,Net-(J3-Pad5)*%
X143510000Y-103865000D03*
%TO.P,U1,26,D14*%
%TO.N,Net-(J3-Pad2)*%
X143510000Y-101325000D03*
%TO.P,U1,27,D12*%
%TO.N,Net-(U1-Pad27)*%
X143510000Y-98785000D03*
%TO.P,U1,28,D13*%
%TO.N,Net-(U1-Pad28)*%
X143510000Y-96245000D03*
%TO.P,U1,29,GND*%
%TO.N,GND*%
X143510000Y-93705000D03*
%TO.P,U1,30,VIN*%
%TO.N,unconnected-(U1-Pad30)*%
X143510000Y-91165000D03*
%TD*%
D11*
%TO.P,J1,1,Pin_1*%
%TO.N,Net-(J1-Pad1)*%
X125730000Y-135890000D03*
D12*
%TO.P,J1,2,Pin_2*%
%TO.N,Net-(J1-Pad2)*%
X128270000Y-135890000D03*
%TO.P,J1,3,Pin_3*%
%TO.N,Net-(J1-Pad3)*%
X130810000Y-135890000D03*
%TO.P,J1,4,Pin_4*%
%TO.N,Net-(J1-Pad4)*%
X133350000Y-135890000D03*
%TO.P,J1,5,Pin_5*%
%TO.N,Net-(J1-Pad5)*%
X135890000Y-135890000D03*
%TD*%
D11*
%TO.P,J3,1,Pin_1*%
%TO.N,GND*%
X151130000Y-78740000D03*
D12*
%TO.P,J3,2,Pin_2*%
%TO.N,Net-(J3-Pad2)*%
X151130000Y-81280000D03*
%TO.P,J3,3,Pin_3*%
%TO.N,Net-(J1-Pad1)*%
X151130000Y-83820000D03*
%TO.P,J3,4,Pin_4*%
%TO.N,GND*%
X151130000Y-86360000D03*
%TO.P,J3,5,Pin_5*%
%TO.N,Net-(J3-Pad5)*%
X151130000Y-88900000D03*
%TO.P,J3,6,Pin_6*%
%TO.N,Net-(J1-Pad1)*%
X151130000Y-91440000D03*
%TO.P,J3,7,Pin_7*%
%TO.N,Net-(J3-Pad7)*%
X151130000Y-93980000D03*
%TO.P,J3,8,Pin_8*%
%TO.N,Net-(J3-Pad11)*%
X151130000Y-96520000D03*
%TO.P,J3,9,Pin_9*%
%TO.N,GND*%
X151130000Y-99060000D03*
%TO.P,J3,10,Pin_10*%
%TO.N,Net-(J3-Pad10)*%
X151130000Y-101600000D03*
%TO.P,J3,11,Pin_11*%
%TO.N,Net-(J3-Pad11)*%
X151130000Y-104140000D03*
%TO.P,J3,12,Pin_12*%
%TO.N,GND*%
X151130000Y-106680000D03*
%TO.P,J3,13,Pin_13*%
%TO.N,Net-(J3-Pad13)*%
X151130000Y-109220000D03*
%TO.P,J3,14,Pin_14*%
%TO.N,Net-(J3-Pad11)*%
X151130000Y-111760000D03*
%TO.P,J3,15,Pin_15*%
%TO.N,GND*%
X151130000Y-114300000D03*
%TO.P,J3,16,Pin_16*%
%TO.N,Net-(J3-Pad16)*%
X151130000Y-116840000D03*
%TO.P,J3,17,Pin_17*%
%TO.N,Net-(J3-Pad11)*%
X151130000Y-119380000D03*
%TO.P,J3,18,Pin_18*%
%TO.N,GND*%
X151130000Y-121920000D03*
%TO.P,J3,19,Pin_19*%
%TO.N,Net-(J3-Pad19)*%
X151130000Y-124460000D03*
%TO.P,J3,20,Pin_20*%
%TO.N,Net-(J3-Pad11)*%
X151130000Y-127000000D03*
%TO.P,J3,21,Pin_21*%
%TO.N,GND*%
X151130000Y-129540000D03*
%TD*%
D11*
%TO.P,J4,1,Pin_1*%
%TO.N,Net-(J3-Pad11)*%
X144780000Y-77470000D03*
D12*
%TO.P,J4,2,Pin_2*%
%TO.N,GND*%
X142240000Y-77470000D03*
%TD*%
D15*
%TO.N,GND*%
X124460000Y-87355000D02*
X118110000Y-93705000D01*
X124460000Y-77470000D02*
X124460000Y-87355000D01*
X149860000Y-74930000D02*
X151130000Y-76200000D01*
X151130000Y-129540000D02*
X153670000Y-127000000D01*
X144780000Y-74930000D02*
X149860000Y-74930000D01*
X153670000Y-83820000D02*
X153670000Y-88335000D01*
X153670000Y-111195000D02*
X153670000Y-111760000D01*
X153670000Y-127000000D02*
X153670000Y-118815000D01*
X153670000Y-78740000D02*
X153670000Y-80715000D01*
X141164999Y-85284999D02*
X141164999Y-78545001D01*
X128270000Y-81280000D02*
X124460000Y-77470000D01*
X151130000Y-121920000D02*
X153670000Y-119380000D01*
X151130000Y-114300000D02*
X153670000Y-111760000D01*
X153670000Y-95955000D02*
X153670000Y-103575000D01*
X153670000Y-103575000D02*
X153670000Y-111195000D01*
X153670000Y-80715000D02*
X153670000Y-83820000D01*
X151130000Y-86360000D02*
X153670000Y-83820000D01*
X138430000Y-81280000D02*
X128270000Y-81280000D01*
X142240000Y-77470000D02*
X144780000Y-74930000D01*
X141164999Y-78545001D02*
X142240000Y-77470000D01*
X144835000Y-92380000D02*
X144835000Y-88955000D01*
X151130000Y-106680000D02*
X153670000Y-104140000D01*
X153670000Y-111760000D02*
X153670000Y-118815000D01*
X142240000Y-77470000D02*
X138430000Y-81280000D01*
X153670000Y-88335000D02*
X153670000Y-95955000D01*
X151130000Y-76200000D02*
X153670000Y-78740000D01*
X151130000Y-78740000D02*
X151130000Y-76200000D01*
X143510000Y-93705000D02*
X144835000Y-92380000D01*
X144835000Y-88955000D02*
X141164999Y-85284999D01*
%TO.N,Net-(J3-Pad11)*%
X147037500Y-115287500D02*
X147037500Y-115852500D01*
X147037500Y-92427500D02*
X147037500Y-92992500D01*
X146755000Y-77470000D02*
X147037500Y-77752500D01*
X147037500Y-100612500D02*
X147037500Y-108232500D01*
X151130000Y-96520000D02*
X147037500Y-92427500D01*
X147037500Y-115852500D02*
X147037500Y-122907500D01*
X147037500Y-108232500D02*
X150565000Y-111760000D01*
X151130000Y-119380000D02*
X147037500Y-115287500D01*
X147037500Y-77752500D02*
X147037500Y-85372500D01*
X147037500Y-85372500D02*
X147037500Y-92427500D01*
X147037500Y-92992500D02*
X147037500Y-100612500D01*
X144780000Y-77470000D02*
X146755000Y-77470000D01*
X147037500Y-100612500D02*
X150565000Y-104140000D01*
X151130000Y-111760000D02*
X150565000Y-111760000D01*
X147037500Y-108232500D02*
X147037500Y-115287500D01*
X151130000Y-127000000D02*
X147037500Y-122907500D01*
%TD*%
%TA.AperFunction,Conductor*%
%TO.N,GND*%
G36*
X154373621Y-74188502D02*
G01*
X154420114Y-74242158D01*
X154431500Y-74294500D01*
X154431500Y-137795500D01*
X154411498Y-137863621D01*
X154357842Y-137910114D01*
X154305500Y-137921500D01*
X114934500Y-137921500D01*
X114866379Y-137901498D01*
X114819886Y-137847842D01*
X114808500Y-137795500D01*
X114808500Y-136788134D01*
X124371500Y-136788134D01*
X124378255Y-136850316D01*
X124429385Y-136986705D01*
X124516739Y-137103261D01*
X124633295Y-137190615D01*
X124769684Y-137241745D01*
X124831866Y-137248500D01*
X126628134Y-137248500D01*
X126690316Y-137241745D01*
X126826705Y-137190615D01*
X126943261Y-137103261D01*
X127030615Y-136986705D01*
X127052799Y-136927529D01*
X127074598Y-136869382D01*
X127117240Y-136812618D01*
X127183802Y-136787918D01*
X127253150Y-136803126D01*
X127287817Y-136831114D01*
X127316250Y-136863938D01*
X127488126Y-137006632D01*
X127681000Y-137119338D01*
X127889692Y-137199030D01*
X127894760Y-137200061D01*
X127894763Y-137200062D01*
X128002017Y-137221883D01*
X128108597Y-137243567D01*
X128113772Y-137243757D01*
X128113774Y-137243757D01*
X128326673Y-137251564D01*
X128326677Y-137251564D01*
X128331837Y-137251753D01*
X128336957Y-137251097D01*
X128336959Y-137251097D01*
X128548288Y-137224025D01*
X128548289Y-137224025D01*
X128553416Y-137223368D01*
X128558366Y-137221883D01*
X128762429Y-137160661D01*
X128762434Y-137160659D01*
X128767384Y-137159174D01*
X128967994Y-137060896D01*
X129149860Y-136931173D01*
X129308096Y-136773489D01*
X129438453Y-136592077D01*
X129439776Y-136593028D01*
X129486645Y-136549857D01*
X129556580Y-136537625D01*
X129622026Y-136565144D01*
X129649875Y-136596994D01*
X129709987Y-136695088D01*
X129856250Y-136863938D01*
X130028126Y-137006632D01*
X130221000Y-137119338D01*
X130429692Y-137199030D01*
X130434760Y-137200061D01*
X130434763Y-137200062D01*
X130542017Y-137221883D01*
X130648597Y-137243567D01*
X130653772Y-137243757D01*
X130653774Y-137243757D01*
X130866673Y-137251564D01*
X130866677Y-137251564D01*
X130871837Y-137251753D01*
X130876957Y-137251097D01*
X130876959Y-137251097D01*
X131088288Y-137224025D01*
X131088289Y-137224025D01*
X131093416Y-137223368D01*
X131098366Y-137221883D01*
X131302429Y-137160661D01*
X131302434Y-137160659D01*
X131307384Y-137159174D01*
X131507994Y-137060896D01*
X131689860Y-136931173D01*
X131848096Y-136773489D01*
X131978453Y-136592077D01*
X131979776Y-136593028D01*
X132026645Y-136549857D01*
X132096580Y-136537625D01*
X132162026Y-136565144D01*
X132189875Y-136596994D01*
X132249987Y-136695088D01*
X132396250Y-136863938D01*
X132568126Y-137006632D01*
X132761000Y-137119338D01*
X132969692Y-137199030D01*
X132974760Y-137200061D01*
X132974763Y-137200062D01*
X133082017Y-137221883D01*
X133188597Y-137243567D01*
X133193772Y-137243757D01*
X133193774Y-137243757D01*
X133406673Y-137251564D01*
X133406677Y-137251564D01*
X133411837Y-137251753D01*
X133416957Y-137251097D01*
X133416959Y-137251097D01*
X133628288Y-137224025D01*
X133628289Y-137224025D01*
X133633416Y-137223368D01*
X133638366Y-137221883D01*
X133842429Y-137160661D01*
X133842434Y-137160659D01*
X133847384Y-137159174D01*
X134047994Y-137060896D01*
X134229860Y-136931173D01*
X134388096Y-136773489D01*
X134518453Y-136592077D01*
X134519776Y-136593028D01*
X134566645Y-136549857D01*
X134636580Y-136537625D01*
X134702026Y-136565144D01*
X134729875Y-136596994D01*
X134789987Y-136695088D01*
X134936250Y-136863938D01*
X135108126Y-137006632D01*
X135301000Y-137119338D01*
X135509692Y-137199030D01*
X135514760Y-137200061D01*
X135514763Y-137200062D01*
X135622017Y-137221883D01*
X135728597Y-137243567D01*
X135733772Y-137243757D01*
X135733774Y-137243757D01*
X135946673Y-137251564D01*
X135946677Y-137251564D01*
X135951837Y-137251753D01*
X135956957Y-137251097D01*
X135956959Y-137251097D01*
X136168288Y-137224025D01*
X136168289Y-137224025D01*
X136173416Y-137223368D01*
X136178366Y-137221883D01*
X136382429Y-137160661D01*
X136382434Y-137160659D01*
X136387384Y-137159174D01*
X136587994Y-137060896D01*
X136769860Y-136931173D01*
X136928096Y-136773489D01*
X137058453Y-136592077D01*
X137079320Y-136549857D01*
X137155136Y-136396453D01*
X137155137Y-136396451D01*
X137157430Y-136391811D01*
X137222370Y-136178069D01*
X137251529Y-135956590D01*
X137253156Y-135890000D01*
X137234852Y-135667361D01*
X137180431Y-135450702D01*
X137091354Y-135245840D01*
X136970014Y-135058277D01*
X136819670Y-134893051D01*
X136815619Y-134889852D01*
X136815615Y-134889848D01*
X136648414Y-134757800D01*
X136648410Y-134757798D01*
X136644359Y-134754598D01*
X136448789Y-134646638D01*
X136443920Y-134644914D01*
X136443916Y-134644912D01*
X136243087Y-134573795D01*
X136243083Y-134573794D01*
X136238212Y-134572069D01*
X136233119Y-134571162D01*
X136233116Y-134571161D01*
X136023373Y-134533800D01*
X136023367Y-134533799D01*
X136018284Y-134532894D01*
X135944452Y-134531992D01*
X135800081Y-134530228D01*
X135800079Y-134530228D01*
X135794911Y-134530165D01*
X135574091Y-134563955D01*
X135361756Y-134633357D01*
X135163607Y-134736507D01*
X135159474Y-134739610D01*
X135159471Y-134739612D01*
X134989100Y-134867530D01*
X134984965Y-134870635D01*
X134981393Y-134874373D01*
X134873729Y-134987037D01*
X134830629Y-135032138D01*
X134723201Y-135189621D01*
X134668293Y-135234621D01*
X134597768Y-135242792D01*
X134534021Y-135211538D01*
X134513324Y-135187054D01*
X134432822Y-135062617D01*
X134432820Y-135062614D01*
X134430014Y-135058277D01*
X134279670Y-134893051D01*
X134275619Y-134889852D01*
X134275615Y-134889848D01*
X134108414Y-134757800D01*
X134108410Y-134757798D01*
X134104359Y-134754598D01*
X133908789Y-134646638D01*
X133903920Y-134644914D01*
X133903916Y-134644912D01*
X133703087Y-134573795D01*
X133703083Y-134573794D01*
X133698212Y-134572069D01*
X133693119Y-134571162D01*
X133693116Y-134571161D01*
X133483373Y-134533800D01*
X133483367Y-134533799D01*
X133478284Y-134532894D01*
X133404452Y-134531992D01*
X133260081Y-134530228D01*
X133260079Y-134530228D01*
X133254911Y-134530165D01*
X133034091Y-134563955D01*
X132821756Y-134633357D01*
X132623607Y-134736507D01*
X132619474Y-134739610D01*
X132619471Y-134739612D01*
X132449100Y-134867530D01*
X132444965Y-134870635D01*
X132441393Y-134874373D01*
X132333729Y-134987037D01*
X132290629Y-135032138D01*
X132183201Y-135189621D01*
X132128293Y-135234621D01*
X132057768Y-135242792D01*
X131994021Y-135211538D01*
X131973324Y-135187054D01*
X131892822Y-135062617D01*
X131892820Y-135062614D01*
X131890014Y-135058277D01*
X131739670Y-134893051D01*
X131735619Y-134889852D01*
X131735615Y-134889848D01*
X131568414Y-134757800D01*
X131568410Y-134757798D01*
X131564359Y-134754598D01*
X131368789Y-134646638D01*
X131363920Y-134644914D01*
X131363916Y-134644912D01*
X131163087Y-134573795D01*
X131163083Y-134573794D01*
X131158212Y-134572069D01*
X131153119Y-134571162D01*
X131153116Y-134571161D01*
X130943373Y-134533800D01*
X130943367Y-134533799D01*
X130938284Y-134532894D01*
X130864452Y-134531992D01*
X130720081Y-134530228D01*
X130720079Y-134530228D01*
X130714911Y-134530165D01*
X130494091Y-134563955D01*
X130281756Y-134633357D01*
X130083607Y-134736507D01*
X130079474Y-134739610D01*
X130079471Y-134739612D01*
X129909100Y-134867530D01*
X129904965Y-134870635D01*
X129901393Y-134874373D01*
X129793729Y-134987037D01*
X129750629Y-135032138D01*
X129643201Y-135189621D01*
X129588293Y-135234621D01*
X129517768Y-135242792D01*
X129454021Y-135211538D01*
X129433324Y-135187054D01*
X129352822Y-135062617D01*
X129352820Y-135062614D01*
X129350014Y-135058277D01*
X129199670Y-134893051D01*
X129195619Y-134889852D01*
X129195615Y-134889848D01*
X129028414Y-134757800D01*
X129028410Y-134757798D01*
X129024359Y-134754598D01*
X128828789Y-134646638D01*
X128823920Y-134644914D01*
X128823916Y-134644912D01*
X128623087Y-134573795D01*
X128623083Y-134573794D01*
X128618212Y-134572069D01*
X128613119Y-134571162D01*
X128613116Y-134571161D01*
X128403373Y-134533800D01*
X128403367Y-134533799D01*
X128398284Y-134532894D01*
X128324452Y-134531992D01*
X128180081Y-134530228D01*
X128180079Y-134530228D01*
X128174911Y-134530165D01*
X127954091Y-134563955D01*
X127741756Y-134633357D01*
X127543607Y-134736507D01*
X127539474Y-134739610D01*
X127539471Y-134739612D01*
X127369100Y-134867530D01*
X127364965Y-134870635D01*
X127308537Y-134929684D01*
X127284283Y-134955064D01*
X127222759Y-134990494D01*
X127151846Y-134987037D01*
X127094060Y-134945791D01*
X127075207Y-134912243D01*
X127033767Y-134801703D01*
X127030615Y-134793295D01*
X126943261Y-134676739D01*
X126826705Y-134589385D01*
X126690316Y-134538255D01*
X126628134Y-134531500D01*
X124831866Y-134531500D01*
X124769684Y-134538255D01*
X124633295Y-134589385D01*
X124516739Y-134676739D01*
X124429385Y-134793295D01*
X124378255Y-134929684D01*
X124371500Y-134991866D01*
X124371500Y-136788134D01*
X114808500Y-136788134D01*
X114808500Y-130084733D01*
X116517822Y-130084733D01*
X116517975Y-130089121D01*
X116517975Y-130089127D01*
X116527040Y-130348699D01*
X116527625Y-130365458D01*
X116528387Y-130369781D01*
X116528388Y-130369788D01*
X116552164Y-130504624D01*
X116576402Y-130642087D01*
X116663203Y-130909235D01*
X116786340Y-131161702D01*
X116788795Y-131165341D01*
X116788798Y-131165347D01*
X116861890Y-131273710D01*
X116943415Y-131394576D01*
X117131371Y-131603322D01*
X117346550Y-131783879D01*
X117584764Y-131932731D01*
X117841375Y-132046982D01*
X118111390Y-132124407D01*
X118115740Y-132125018D01*
X118115743Y-132125019D01*
X118218690Y-132139487D01*
X118389552Y-132163500D01*
X118600146Y-132163500D01*
X118602332Y-132163347D01*
X118602336Y-132163347D01*
X118805827Y-132149118D01*
X118805832Y-132149117D01*
X118810212Y-132148811D01*
X119084970Y-132090409D01*
X119089099Y-132088906D01*
X119089103Y-132088905D01*
X119344781Y-131995846D01*
X119344785Y-131995844D01*
X119348926Y-131994337D01*
X119596942Y-131862464D01*
X119701896Y-131786211D01*
X119820629Y-131699947D01*
X119820632Y-131699944D01*
X119824192Y-131697358D01*
X120026252Y-131502231D01*
X120199188Y-131280882D01*
X120201384Y-131277078D01*
X120201389Y-131277071D01*
X120337435Y-131041431D01*
X120339636Y-131037619D01*
X120444862Y-130777176D01*
X120445928Y-130772901D01*
X120511753Y-130508893D01*
X120511754Y-130508888D01*
X120512817Y-130504624D01*
X120520996Y-130426812D01*
X120541719Y-130229636D01*
X120541719Y-130229633D01*
X120542178Y-130225267D01*
X120537118Y-130080364D01*
X120532529Y-129948939D01*
X120532528Y-129948933D01*
X120532375Y-129944542D01*
X120512692Y-129832910D01*
X120508294Y-129807966D01*
X149798257Y-129807966D01*
X149828565Y-129942446D01*
X149831645Y-129952275D01*
X149911770Y-130149603D01*
X149916413Y-130158794D01*
X150027694Y-130340388D01*
X150033777Y-130348699D01*
X150173213Y-130509667D01*
X150180580Y-130516883D01*
X150344434Y-130652916D01*
X150352881Y-130658831D01*
X150536756Y-130766279D01*
X150546042Y-130770729D01*
X150745001Y-130846703D01*
X150754899Y-130849579D01*
X150858250Y-130870606D01*
X150872299Y-130869410D01*
X150876000Y-130859065D01*
X150876000Y-130858517D01*
X151384000Y-130858517D01*
X151388064Y-130872359D01*
X151401478Y-130874393D01*
X151408184Y-130873534D01*
X151418262Y-130871392D01*
X151622255Y-130810191D01*
X151631842Y-130806433D01*
X151823095Y-130712739D01*
X151831945Y-130707464D01*
X152005328Y-130583792D01*
X152013200Y-130577139D01*
X152164052Y-130426812D01*
X152170730Y-130418965D01*
X152295003Y-130246020D01*
X152300313Y-130237183D01*
X152394670Y-130046267D01*
X152398469Y-130036672D01*
X152460377Y-129832910D01*
X152462555Y-129822837D01*
X152463986Y-129811962D01*
X152461775Y-129797778D01*
X152448617Y-129794000D01*
X151402115Y-129794000D01*
X151386876Y-129798475D01*
X151385671Y-129799865D01*
X151384000Y-129807548D01*
X151384000Y-130858517D01*
X150876000Y-130858517D01*
X150876000Y-129812115D01*
X150871525Y-129796876D01*
X150870135Y-129795671D01*
X150862452Y-129794000D01*
X149813225Y-129794000D01*
X149799694Y-129797973D01*
X149798257Y-129807966D01*
X120508294Y-129807966D01*
X120484360Y-129672236D01*
X120483598Y-129667913D01*
X120396797Y-129400765D01*
X120273660Y-129148298D01*
X120271205Y-129144659D01*
X120271202Y-129144653D01*
X120190935Y-129025653D01*
X120116585Y-128915424D01*
X119928629Y-128706678D01*
X119895307Y-128678717D01*
X119813476Y-128610053D01*
X119713450Y-128526121D01*
X119475236Y-128377269D01*
X119218625Y-128263018D01*
X119066981Y-128219535D01*
X118995667Y-128199086D01*
X118935698Y-128161082D01*
X118905796Y-128096690D01*
X118915453Y-128026353D01*
X118964563Y-127970534D01*
X118995197Y-127951762D01*
X118995202Y-127951758D01*
X118999416Y-127949176D01*
X119179969Y-127794969D01*
X119334176Y-127614416D01*
X119336755Y-127610208D01*
X119336759Y-127610202D01*
X119455654Y-127416183D01*
X119458240Y-127411963D01*
X119507507Y-127293023D01*
X119547211Y-127197167D01*
X119547212Y-127197165D01*
X119549105Y-127192594D01*
X119595343Y-127000000D01*
X141996835Y-127000000D01*
X142015465Y-127236711D01*
X142070895Y-127467594D01*
X142072788Y-127472165D01*
X142072789Y-127472167D01*
X142129965Y-127610202D01*
X142161760Y-127686963D01*
X142164346Y-127691183D01*
X142283241Y-127885202D01*
X142283245Y-127885208D01*
X142285824Y-127889416D01*
X142440031Y-128069969D01*
X142620584Y-128224176D01*
X142624792Y-128226755D01*
X142624798Y-128226759D01*
X142796025Y-128331687D01*
X142823037Y-128348240D01*
X142827607Y-128350133D01*
X142827611Y-128350135D01*
X142954081Y-128402520D01*
X143042406Y-128439105D01*
X143122609Y-128458360D01*
X143268476Y-128493380D01*
X143268482Y-128493381D01*
X143273289Y-128494535D01*
X143510000Y-128513165D01*
X143746711Y-128494535D01*
X143751518Y-128493381D01*
X143751524Y-128493380D01*
X143897391Y-128458360D01*
X143977594Y-128439105D01*
X144065919Y-128402520D01*
X144192389Y-128350135D01*
X144192393Y-128350133D01*
X144196963Y-128348240D01*
X144223975Y-128331687D01*
X144395202Y-128226759D01*
X144395208Y-128226755D01*
X144399416Y-128224176D01*
X144579969Y-128069969D01*
X144734176Y-127889416D01*
X144736755Y-127885208D01*
X144736759Y-127885202D01*
X144855654Y-127691183D01*
X144858240Y-127686963D01*
X144890036Y-127610202D01*
X144947211Y-127472167D01*
X144947212Y-127472165D01*
X144949105Y-127467594D01*
X145004535Y-127236711D01*
X145023165Y-127000000D01*
X145004535Y-126763289D01*
X145001275Y-126749707D01*
X144967252Y-126607994D01*
X144949105Y-126532406D01*
X144877937Y-126360590D01*
X144860135Y-126317611D01*
X144860133Y-126317607D01*
X144858240Y-126313037D01*
X144821347Y-126252833D01*
X144736759Y-126114798D01*
X144736755Y-126114792D01*
X144734176Y-126110584D01*
X144579969Y-125930031D01*
X144576213Y-125926823D01*
X144576208Y-125926818D01*
X144457944Y-125825811D01*
X144419134Y-125766361D01*
X144418628Y-125695366D01*
X144457944Y-125634189D01*
X144576208Y-125533182D01*
X144576213Y-125533177D01*
X144579969Y-125529969D01*
X144734176Y-125349416D01*
X144736755Y-125345208D01*
X144736759Y-125345202D01*
X144855654Y-125151183D01*
X144858240Y-125146963D01*
X144890036Y-125070202D01*
X144947211Y-124932167D01*
X144947212Y-124932165D01*
X144949105Y-124927594D01*
X145004535Y-124696711D01*
X145023165Y-124460000D01*
X145004535Y-124223289D01*
X145001275Y-124209707D01*
X144950260Y-123997218D01*
X144949105Y-123992406D01*
X144877937Y-123820590D01*
X144860135Y-123777611D01*
X144860133Y-123777607D01*
X144858240Y-123773037D01*
X144821347Y-123712833D01*
X144736759Y-123574798D01*
X144736755Y-123574792D01*
X144734176Y-123570584D01*
X144579969Y-123390031D01*
X144399416Y-123235824D01*
X144395203Y-123233242D01*
X144395193Y-123233235D01*
X144275574Y-123159932D01*
X144227943Y-123107285D01*
X144216336Y-123037243D01*
X144244439Y-122972046D01*
X144275574Y-122945068D01*
X144395193Y-122871765D01*
X144395203Y-122871758D01*
X144399416Y-122869176D01*
X144579969Y-122714969D01*
X144734176Y-122534416D01*
X144736755Y-122530208D01*
X144736759Y-122530202D01*
X144855654Y-122336183D01*
X144858240Y-122331963D01*
X144911726Y-122202837D01*
X144947211Y-122117167D01*
X144947212Y-122117165D01*
X144949105Y-122112594D01*
X145004535Y-121881711D01*
X145023165Y-121645000D01*
X145004535Y-121408289D01*
X144949105Y-121177406D01*
X144947211Y-121172833D01*
X144860135Y-120962611D01*
X144860133Y-120962607D01*
X144858240Y-120958037D01*
X144855654Y-120953817D01*
X144736759Y-120759798D01*
X144736755Y-120759792D01*
X144734176Y-120755584D01*
X144579969Y-120575031D01*
X144576213Y-120571823D01*
X144576208Y-120571818D01*
X144457944Y-120470811D01*
X144419134Y-120411361D01*
X144418628Y-120340366D01*
X144457944Y-120279189D01*
X144576208Y-120178182D01*
X144576213Y-120178177D01*
X144579969Y-120174969D01*
X144734176Y-119994416D01*
X144736755Y-119990208D01*
X144736759Y-119990202D01*
X144855654Y-119796183D01*
X144858240Y-119791963D01*
X144907507Y-119673023D01*
X144947211Y-119577167D01*
X144947212Y-119577165D01*
X144949105Y-119572594D01*
X145002101Y-119351851D01*
X145003380Y-119346524D01*
X145003381Y-119346518D01*
X145004535Y-119341711D01*
X145023165Y-119105000D01*
X145004535Y-118868289D01*
X144949105Y-118637406D01*
X144947211Y-118632833D01*
X144860135Y-118422611D01*
X144860133Y-118422607D01*
X144858240Y-118418037D01*
X144839141Y-118386870D01*
X144736759Y-118219798D01*
X144736755Y-118219792D01*
X144734176Y-118215584D01*
X144579969Y-118035031D01*
X144576213Y-118031823D01*
X144576208Y-118031818D01*
X144457944Y-117930811D01*
X144419134Y-117871361D01*
X144418628Y-117800366D01*
X144457944Y-117739189D01*
X144576208Y-117638182D01*
X144576213Y-117638177D01*
X144579969Y-117634969D01*
X144734176Y-117454416D01*
X144736755Y-117450208D01*
X144736759Y-117450202D01*
X144855654Y-117256183D01*
X144858240Y-117251963D01*
X144907507Y-117133023D01*
X144947211Y-117037167D01*
X144947212Y-117037165D01*
X144949105Y-117032594D01*
X145000868Y-116816987D01*
X145003380Y-116806524D01*
X145003381Y-116806518D01*
X145004535Y-116801711D01*
X145023165Y-116565000D01*
X145004535Y-116328289D01*
X144949105Y-116097406D01*
X144947211Y-116092833D01*
X144860135Y-115882611D01*
X144860133Y-115882607D01*
X144858240Y-115878037D01*
X144839141Y-115846870D01*
X144736759Y-115679798D01*
X144736755Y-115679792D01*
X144734176Y-115675584D01*
X144579969Y-115495031D01*
X144576213Y-115491823D01*
X144576208Y-115491818D01*
X144457944Y-115390811D01*
X144419134Y-115331361D01*
X144418628Y-115260366D01*
X144457944Y-115199189D01*
X144576208Y-115098182D01*
X144576213Y-115098177D01*
X144579969Y-115094969D01*
X144734176Y-114914416D01*
X144736755Y-114910208D01*
X144736759Y-114910202D01*
X144855654Y-114716183D01*
X144858240Y-114711963D01*
X144911726Y-114582837D01*
X144947211Y-114497167D01*
X144947212Y-114497165D01*
X144949105Y-114492594D01*
X145004535Y-114261711D01*
X145023165Y-114025000D01*
X145004535Y-113788289D01*
X144949105Y-113557406D01*
X144947211Y-113552833D01*
X144860135Y-113342611D01*
X144860133Y-113342607D01*
X144858240Y-113338037D01*
X144855654Y-113333817D01*
X144736759Y-113139798D01*
X144736755Y-113139792D01*
X144734176Y-113135584D01*
X144579969Y-112955031D01*
X144576213Y-112951823D01*
X144576208Y-112951818D01*
X144457944Y-112850811D01*
X144419134Y-112791361D01*
X144418628Y-112720366D01*
X144457944Y-112659189D01*
X144576208Y-112558182D01*
X144576213Y-112558177D01*
X144579969Y-112554969D01*
X144734176Y-112374416D01*
X144736755Y-112370208D01*
X144736759Y-112370202D01*
X144855654Y-112176183D01*
X144858240Y-112171963D01*
X144907507Y-112053023D01*
X144947211Y-111957167D01*
X144947212Y-111957165D01*
X144949105Y-111952594D01*
X144969847Y-111866199D01*
X145003380Y-111726524D01*
X145003381Y-111726518D01*
X145004535Y-111721711D01*
X145023165Y-111485000D01*
X145004535Y-111248289D01*
X144949105Y-111017406D01*
X144947211Y-111012833D01*
X144860135Y-110802611D01*
X144860133Y-110802607D01*
X144858240Y-110798037D01*
X144839141Y-110766870D01*
X144736759Y-110599798D01*
X144736755Y-110599792D01*
X144734176Y-110595584D01*
X144579969Y-110415031D01*
X144576213Y-110411823D01*
X144576208Y-110411818D01*
X144457944Y-110310811D01*
X144419134Y-110251361D01*
X144418628Y-110180366D01*
X144457944Y-110119189D01*
X144576208Y-110018182D01*
X144576213Y-110018177D01*
X144579969Y-110014969D01*
X144734176Y-109834416D01*
X144736755Y-109830208D01*
X144736759Y-109830202D01*
X144855654Y-109636183D01*
X144858240Y-109631963D01*
X144907507Y-109513023D01*
X144947211Y-109417167D01*
X144947212Y-109417165D01*
X144949105Y-109412594D01*
X145002101Y-109191851D01*
X145003380Y-109186524D01*
X145003381Y-109186518D01*
X145004535Y-109181711D01*
X145023165Y-108945000D01*
X145004535Y-108708289D01*
X144949105Y-108477406D01*
X144947211Y-108472833D01*
X144860135Y-108262611D01*
X144860133Y-108262607D01*
X144858240Y-108258037D01*
X144839141Y-108226870D01*
X144736759Y-108059798D01*
X144736755Y-108059792D01*
X144734176Y-108055584D01*
X144579969Y-107875031D01*
X144576213Y-107871823D01*
X144576208Y-107871818D01*
X144457944Y-107770811D01*
X144419134Y-107711361D01*
X144418628Y-107640366D01*
X144457944Y-107579189D01*
X144576208Y-107478182D01*
X144576213Y-107478177D01*
X144579969Y-107474969D01*
X144734176Y-107294416D01*
X144736755Y-107290208D01*
X144736759Y-107290202D01*
X144855654Y-107096183D01*
X144858240Y-107091963D01*
X144911726Y-106962837D01*
X144947211Y-106877167D01*
X144947212Y-106877165D01*
X144949105Y-106872594D01*
X145004535Y-106641711D01*
X145023165Y-106405000D01*
X145004535Y-106168289D01*
X144949105Y-105937406D01*
X144947211Y-105932833D01*
X144860135Y-105722611D01*
X144860133Y-105722607D01*
X144858240Y-105718037D01*
X144855654Y-105713817D01*
X144736759Y-105519798D01*
X144736755Y-105519792D01*
X144734176Y-105515584D01*
X144579969Y-105335031D01*
X144576213Y-105331823D01*
X144576208Y-105331818D01*
X144457944Y-105230811D01*
X144419134Y-105171361D01*
X144418628Y-105100366D01*
X144457944Y-105039189D01*
X144576208Y-104938182D01*
X144576213Y-104938177D01*
X144579969Y-104934969D01*
X144734176Y-104754416D01*
X144736755Y-104750208D01*
X144736759Y-104750202D01*
X144855654Y-104556183D01*
X144858240Y-104551963D01*
X144907507Y-104433023D01*
X144947211Y-104337167D01*
X144947212Y-104337165D01*
X144949105Y-104332594D01*
X144969847Y-104246199D01*
X145003380Y-104106524D01*
X145003381Y-104106518D01*
X145004535Y-104101711D01*
X145023165Y-103865000D01*
X145004535Y-103628289D01*
X144949105Y-103397406D01*
X144947211Y-103392833D01*
X144860135Y-103182611D01*
X144860133Y-103182607D01*
X144858240Y-103178037D01*
X144839141Y-103146870D01*
X144736759Y-102979798D01*
X144736755Y-102979792D01*
X144734176Y-102975584D01*
X144579969Y-102795031D01*
X144576213Y-102791823D01*
X144576208Y-102791818D01*
X144457944Y-102690811D01*
X144419134Y-102631361D01*
X144418628Y-102560366D01*
X144457944Y-102499189D01*
X144576208Y-102398182D01*
X144576213Y-102398177D01*
X144579969Y-102394969D01*
X144734176Y-102214416D01*
X144736755Y-102210208D01*
X144736759Y-102210202D01*
X144855654Y-102016183D01*
X144858240Y-102011963D01*
X144907507Y-101893023D01*
X144947211Y-101797167D01*
X144947212Y-101797165D01*
X144949105Y-101792594D01*
X145002101Y-101571851D01*
X145003380Y-101566524D01*
X145003381Y-101566518D01*
X145004535Y-101561711D01*
X145023165Y-101325000D01*
X145004535Y-101088289D01*
X144949105Y-100857406D01*
X144947211Y-100852833D01*
X144860135Y-100642611D01*
X144860133Y-100642607D01*
X144858240Y-100638037D01*
X144839141Y-100606870D01*
X144736759Y-100439798D01*
X144736755Y-100439792D01*
X144734176Y-100435584D01*
X144579969Y-100255031D01*
X144576213Y-100251823D01*
X144576208Y-100251818D01*
X144457944Y-100150811D01*
X144419134Y-100091361D01*
X144418628Y-100020366D01*
X144457944Y-99959189D01*
X144576208Y-99858182D01*
X144576213Y-99858177D01*
X144579969Y-99854969D01*
X144734176Y-99674416D01*
X144736755Y-99670208D01*
X144736759Y-99670202D01*
X144855654Y-99476183D01*
X144858240Y-99471963D01*
X144911726Y-99342837D01*
X144947211Y-99257167D01*
X144947212Y-99257165D01*
X144949105Y-99252594D01*
X145004535Y-99021711D01*
X145023165Y-98785000D01*
X145004535Y-98548289D01*
X144949105Y-98317406D01*
X144947211Y-98312833D01*
X144860135Y-98102611D01*
X144860133Y-98102607D01*
X144858240Y-98098037D01*
X144855654Y-98093817D01*
X144736759Y-97899798D01*
X144736755Y-97899792D01*
X144734176Y-97895584D01*
X144579969Y-97715031D01*
X144576213Y-97711823D01*
X144576208Y-97711818D01*
X144457944Y-97610811D01*
X144419134Y-97551361D01*
X144418628Y-97480366D01*
X144457944Y-97419189D01*
X144576208Y-97318182D01*
X144576213Y-97318177D01*
X144579969Y-97314969D01*
X144734176Y-97134416D01*
X144736755Y-97130208D01*
X144736759Y-97130202D01*
X144855654Y-96936183D01*
X144858240Y-96931963D01*
X144907507Y-96813023D01*
X144947211Y-96717167D01*
X144947212Y-96717165D01*
X144949105Y-96712594D01*
X145002101Y-96491851D01*
X145003380Y-96486524D01*
X145003381Y-96486518D01*
X145004535Y-96481711D01*
X145023165Y-96245000D01*
X145004535Y-96008289D01*
X144949105Y-95777406D01*
X144947211Y-95772833D01*
X144860135Y-95562611D01*
X144860133Y-95562607D01*
X144858240Y-95558037D01*
X144839141Y-95526870D01*
X144736759Y-95359798D01*
X144736755Y-95359792D01*
X144734176Y-95355584D01*
X144579969Y-95175031D01*
X144576213Y-95171823D01*
X144576208Y-95171818D01*
X144423384Y-95041294D01*
X144384574Y-94981844D01*
X144382360Y-94947442D01*
X144374123Y-94928333D01*
X143522812Y-94077022D01*
X143508868Y-94069408D01*
X143507035Y-94069539D01*
X143500420Y-94073790D01*
X142648920Y-94925290D01*
X142639740Y-94942102D01*
X142625980Y-95005350D01*
X142597224Y-95040775D01*
X142470616Y-95148909D01*
X142440031Y-95175031D01*
X142285824Y-95355584D01*
X142283245Y-95359792D01*
X142283241Y-95359798D01*
X142180859Y-95526870D01*
X142161760Y-95558037D01*
X142159867Y-95562607D01*
X142159865Y-95562611D01*
X142072789Y-95772833D01*
X142070895Y-95777406D01*
X142015465Y-96008289D01*
X141996835Y-96245000D01*
X142015465Y-96481711D01*
X142016619Y-96486518D01*
X142016620Y-96486524D01*
X142017899Y-96491851D01*
X142070895Y-96712594D01*
X142072788Y-96717165D01*
X142072789Y-96717167D01*
X142112494Y-96813023D01*
X142161760Y-96931963D01*
X142164346Y-96936183D01*
X142283241Y-97130202D01*
X142283245Y-97130208D01*
X142285824Y-97134416D01*
X142440031Y-97314969D01*
X142443787Y-97318177D01*
X142443792Y-97318182D01*
X142562056Y-97419189D01*
X142600866Y-97478639D01*
X142601372Y-97549634D01*
X142562056Y-97610811D01*
X142443792Y-97711818D01*
X142443787Y-97711823D01*
X142440031Y-97715031D01*
X142285824Y-97895584D01*
X142283245Y-97899792D01*
X142283241Y-97899798D01*
X142164346Y-98093817D01*
X142161760Y-98098037D01*
X142159867Y-98102607D01*
X142159865Y-98102611D01*
X142072789Y-98312833D01*
X142070895Y-98317406D01*
X142015465Y-98548289D01*
X141996835Y-98785000D01*
X142015465Y-99021711D01*
X142070895Y-99252594D01*
X142072788Y-99257165D01*
X142072789Y-99257167D01*
X142108275Y-99342837D01*
X142161760Y-99471963D01*
X142164346Y-99476183D01*
X142283241Y-99670202D01*
X142283245Y-99670208D01*
X142285824Y-99674416D01*
X142440031Y-99854969D01*
X142443787Y-99858177D01*
X142443792Y-99858182D01*
X142562056Y-99959189D01*
X142600866Y-100018639D01*
X142601372Y-100089634D01*
X142562056Y-100150811D01*
X142443792Y-100251818D01*
X142443787Y-100251823D01*
X142440031Y-100255031D01*
X142285824Y-100435584D01*
X142283245Y-100439792D01*
X142283241Y-100439798D01*
X142180859Y-100606870D01*
X142161760Y-100638037D01*
X142159867Y-100642607D01*
X142159865Y-100642611D01*
X142072789Y-100852833D01*
X142070895Y-100857406D01*
X142015465Y-101088289D01*
X141996835Y-101325000D01*
X142015465Y-101561711D01*
X142016619Y-101566518D01*
X142016620Y-101566524D01*
X142017899Y-101571851D01*
X142070895Y-101792594D01*
X142072788Y-101797165D01*
X142072789Y-101797167D01*
X142112494Y-101893023D01*
X142161760Y-102011963D01*
X142164346Y-102016183D01*
X142283241Y-102210202D01*
X142283245Y-102210208D01*
X142285824Y-102214416D01*
X142440031Y-102394969D01*
X142443787Y-102398177D01*
X142443792Y-102398182D01*
X142562056Y-102499189D01*
X142600866Y-102558639D01*
X142601372Y-102629634D01*
X142562056Y-102690811D01*
X142443792Y-102791818D01*
X142443787Y-102791823D01*
X142440031Y-102795031D01*
X142285824Y-102975584D01*
X142283245Y-102979792D01*
X142283241Y-102979798D01*
X142180859Y-103146870D01*
X142161760Y-103178037D01*
X142159867Y-103182607D01*
X142159865Y-103182611D01*
X142072789Y-103392833D01*
X142070895Y-103397406D01*
X142015465Y-103628289D01*
X141996835Y-103865000D01*
X142015465Y-104101711D01*
X142016619Y-104106518D01*
X142016620Y-104106524D01*
X142050153Y-104246199D01*
X142070895Y-104332594D01*
X142072788Y-104337165D01*
X142072789Y-104337167D01*
X142112494Y-104433023D01*
X142161760Y-104551963D01*
X142164346Y-104556183D01*
X142283241Y-104750202D01*
X142283245Y-104750208D01*
X142285824Y-104754416D01*
X142440031Y-104934969D01*
X142443787Y-104938177D01*
X142443792Y-104938182D01*
X142562056Y-105039189D01*
X142600866Y-105098639D01*
X142601372Y-105169634D01*
X142562056Y-105230811D01*
X142443792Y-105331818D01*
X142443787Y-105331823D01*
X142440031Y-105335031D01*
X142285824Y-105515584D01*
X142283245Y-105519792D01*
X142283241Y-105519798D01*
X142164346Y-105713817D01*
X142161760Y-105718037D01*
X142159867Y-105722607D01*
X142159865Y-105722611D01*
X142072789Y-105932833D01*
X142070895Y-105937406D01*
X142015465Y-106168289D01*
X141996835Y-106405000D01*
X142015465Y-106641711D01*
X142070895Y-106872594D01*
X142072788Y-106877165D01*
X142072789Y-106877167D01*
X142108275Y-106962837D01*
X142161760Y-107091963D01*
X142164346Y-107096183D01*
X142283241Y-107290202D01*
X142283245Y-107290208D01*
X142285824Y-107294416D01*
X142440031Y-107474969D01*
X142443787Y-107478177D01*
X142443792Y-107478182D01*
X142562056Y-107579189D01*
X142600866Y-107638639D01*
X142601372Y-107709634D01*
X142562056Y-107770811D01*
X142443792Y-107871818D01*
X142443787Y-107871823D01*
X142440031Y-107875031D01*
X142285824Y-108055584D01*
X142283245Y-108059792D01*
X142283241Y-108059798D01*
X142180859Y-108226870D01*
X142161760Y-108258037D01*
X142159867Y-108262607D01*
X142159865Y-108262611D01*
X142072789Y-108472833D01*
X142070895Y-108477406D01*
X142015465Y-108708289D01*
X141996835Y-108945000D01*
X142015465Y-109181711D01*
X142016619Y-109186518D01*
X142016620Y-109186524D01*
X142017899Y-109191851D01*
X142070895Y-109412594D01*
X142072788Y-109417165D01*
X142072789Y-109417167D01*
X142112494Y-109513023D01*
X142161760Y-109631963D01*
X142164346Y-109636183D01*
X142283241Y-109830202D01*
X142283245Y-109830208D01*
X142285824Y-109834416D01*
X142440031Y-110014969D01*
X142443787Y-110018177D01*
X142443792Y-110018182D01*
X142562056Y-110119189D01*
X142600866Y-110178639D01*
X142601372Y-110249634D01*
X142562056Y-110310811D01*
X142443792Y-110411818D01*
X142443787Y-110411823D01*
X142440031Y-110415031D01*
X142285824Y-110595584D01*
X142283245Y-110599792D01*
X142283241Y-110599798D01*
X142180859Y-110766870D01*
X142161760Y-110798037D01*
X142159867Y-110802607D01*
X142159865Y-110802611D01*
X142072789Y-111012833D01*
X142070895Y-111017406D01*
X142015465Y-111248289D01*
X141996835Y-111485000D01*
X142015465Y-111721711D01*
X142016619Y-111726518D01*
X142016620Y-111726524D01*
X142050153Y-111866199D01*
X142070895Y-111952594D01*
X142072788Y-111957165D01*
X142072789Y-111957167D01*
X142112494Y-112053023D01*
X142161760Y-112171963D01*
X142164346Y-112176183D01*
X142283241Y-112370202D01*
X142283245Y-112370208D01*
X142285824Y-112374416D01*
X142440031Y-112554969D01*
X142443787Y-112558177D01*
X142443792Y-112558182D01*
X142562056Y-112659189D01*
X142600866Y-112718639D01*
X142601372Y-112789634D01*
X142562056Y-112850811D01*
X142443792Y-112951818D01*
X142443787Y-112951823D01*
X142440031Y-112955031D01*
X142285824Y-113135584D01*
X142283245Y-113139792D01*
X142283241Y-113139798D01*
X142164346Y-113333817D01*
X142161760Y-113338037D01*
X142159867Y-113342607D01*
X142159865Y-113342611D01*
X142072789Y-113552833D01*
X142070895Y-113557406D01*
X142015465Y-113788289D01*
X141996835Y-114025000D01*
X142015465Y-114261711D01*
X142070895Y-114492594D01*
X142072788Y-114497165D01*
X142072789Y-114497167D01*
X142108275Y-114582837D01*
X142161760Y-114711963D01*
X142164346Y-114716183D01*
X142283241Y-114910202D01*
X142283245Y-114910208D01*
X142285824Y-114914416D01*
X142440031Y-115094969D01*
X142443787Y-115098177D01*
X142443792Y-115098182D01*
X142562056Y-115199189D01*
X142600866Y-115258639D01*
X142601372Y-115329634D01*
X142562056Y-115390811D01*
X142443792Y-115491818D01*
X142443787Y-115491823D01*
X142440031Y-115495031D01*
X142285824Y-115675584D01*
X142283245Y-115679792D01*
X142283241Y-115679798D01*
X142180859Y-115846870D01*
X142161760Y-115878037D01*
X142159867Y-115882607D01*
X142159865Y-115882611D01*
X142072789Y-116092833D01*
X142070895Y-116097406D01*
X142015465Y-116328289D01*
X141996835Y-116565000D01*
X142015465Y-116801711D01*
X142016619Y-116806518D01*
X142016620Y-116806524D01*
X142019132Y-116816987D01*
X142070895Y-117032594D01*
X142072788Y-117037165D01*
X142072789Y-117037167D01*
X142112494Y-117133023D01*
X142161760Y-117251963D01*
X142164346Y-117256183D01*
X142283241Y-117450202D01*
X142283245Y-117450208D01*
X142285824Y-117454416D01*
X142440031Y-117634969D01*
X142443787Y-117638177D01*
X142443792Y-117638182D01*
X142562056Y-117739189D01*
X142600866Y-117798639D01*
X142601372Y-117869634D01*
X142562056Y-117930811D01*
X142443792Y-118031818D01*
X142443787Y-118031823D01*
X142440031Y-118035031D01*
X142285824Y-118215584D01*
X142283245Y-118219792D01*
X142283241Y-118219798D01*
X142180859Y-118386870D01*
X142161760Y-118418037D01*
X142159867Y-118422607D01*
X142159865Y-118422611D01*
X142072789Y-118632833D01*
X142070895Y-118637406D01*
X142015465Y-118868289D01*
X141996835Y-119105000D01*
X142015465Y-119341711D01*
X142016619Y-119346518D01*
X142016620Y-119346524D01*
X142017899Y-119351851D01*
X142070895Y-119572594D01*
X142072788Y-119577165D01*
X142072789Y-119577167D01*
X142112494Y-119673023D01*
X142161760Y-119791963D01*
X142164346Y-119796183D01*
X142283241Y-119990202D01*
X142283245Y-119990208D01*
X142285824Y-119994416D01*
X142440031Y-120174969D01*
X142443787Y-120178177D01*
X142443792Y-120178182D01*
X142562056Y-120279189D01*
X142600866Y-120338639D01*
X142601372Y-120409634D01*
X142562056Y-120470811D01*
X142443792Y-120571818D01*
X142443787Y-120571823D01*
X142440031Y-120575031D01*
X142285824Y-120755584D01*
X142283245Y-120759792D01*
X142283241Y-120759798D01*
X142164346Y-120953817D01*
X142161760Y-120958037D01*
X142159867Y-120962607D01*
X142159865Y-120962611D01*
X142072789Y-121172833D01*
X142070895Y-121177406D01*
X142015465Y-121408289D01*
X141996835Y-121645000D01*
X142015465Y-121881711D01*
X142070895Y-122112594D01*
X142072788Y-122117165D01*
X142072789Y-122117167D01*
X142108275Y-122202837D01*
X142161760Y-122331963D01*
X142164346Y-122336183D01*
X142283241Y-122530202D01*
X142283245Y-122530208D01*
X142285824Y-122534416D01*
X142440031Y-122714969D01*
X142620584Y-122869176D01*
X142624797Y-122871758D01*
X142624807Y-122871765D01*
X142744426Y-122945068D01*
X142792057Y-122997715D01*
X142803664Y-123067757D01*
X142775561Y-123132954D01*
X142744426Y-123159932D01*
X142624807Y-123233235D01*
X142624797Y-123233242D01*
X142620584Y-123235824D01*
X142440031Y-123390031D01*
X142285824Y-123570584D01*
X142283245Y-123574792D01*
X142283241Y-123574798D01*
X142198653Y-123712833D01*
X142161760Y-123773037D01*
X142159867Y-123777607D01*
X142159865Y-123777611D01*
X142142063Y-123820590D01*
X142070895Y-123992406D01*
X142069740Y-123997218D01*
X142018726Y-124209707D01*
X142015465Y-124223289D01*
X141996835Y-124460000D01*
X142015465Y-124696711D01*
X142070895Y-124927594D01*
X142072788Y-124932165D01*
X142072789Y-124932167D01*
X142129965Y-125070202D01*
X142161760Y-125146963D01*
X142164346Y-125151183D01*
X142283241Y-125345202D01*
X142283245Y-125345208D01*
X142285824Y-125349416D01*
X142440031Y-125529969D01*
X142443787Y-125533177D01*
X142443792Y-125533182D01*
X142562056Y-125634189D01*
X142600866Y-125693639D01*
X142601372Y-125764634D01*
X142562056Y-125825811D01*
X142443792Y-125926818D01*
X142443787Y-125926823D01*
X142440031Y-125930031D01*
X142285824Y-126110584D01*
X142283245Y-126114792D01*
X142283241Y-126114798D01*
X142198653Y-126252833D01*
X142161760Y-126313037D01*
X142159867Y-126317607D01*
X142159865Y-126317611D01*
X142142063Y-126360590D01*
X142070895Y-126532406D01*
X142052748Y-126607994D01*
X142018726Y-126749707D01*
X142015465Y-126763289D01*
X141996835Y-127000000D01*
X119595343Y-127000000D01*
X119596148Y-126996646D01*
X119603380Y-126966524D01*
X119603381Y-126966518D01*
X119604535Y-126961711D01*
X119623165Y-126725000D01*
X119604535Y-126488289D01*
X119549105Y-126257406D01*
X119547211Y-126252833D01*
X119460135Y-126042611D01*
X119460133Y-126042607D01*
X119458240Y-126038037D01*
X119439141Y-126006870D01*
X119336759Y-125839798D01*
X119336755Y-125839792D01*
X119334176Y-125835584D01*
X119179969Y-125655031D01*
X119176213Y-125651823D01*
X119176208Y-125651818D01*
X119057944Y-125550811D01*
X119019134Y-125491361D01*
X119018628Y-125420366D01*
X119057944Y-125359189D01*
X119176208Y-125258182D01*
X119176213Y-125258177D01*
X119179969Y-125254969D01*
X119334176Y-125074416D01*
X119336755Y-125070208D01*
X119336759Y-125070202D01*
X119455654Y-124876183D01*
X119458240Y-124871963D01*
X119507507Y-124753023D01*
X119547211Y-124657167D01*
X119547212Y-124657165D01*
X119549105Y-124652594D01*
X119596148Y-124456646D01*
X119603380Y-124426524D01*
X119603381Y-124426518D01*
X119604535Y-124421711D01*
X119623165Y-124185000D01*
X119604535Y-123948289D01*
X119549105Y-123717406D01*
X119547211Y-123712833D01*
X119460135Y-123502611D01*
X119460133Y-123502607D01*
X119458240Y-123498037D01*
X119439141Y-123466870D01*
X119336759Y-123299798D01*
X119336755Y-123299792D01*
X119334176Y-123295584D01*
X119179969Y-123115031D01*
X119176213Y-123111823D01*
X119176208Y-123111818D01*
X119057944Y-123010811D01*
X119019134Y-122951361D01*
X119018628Y-122880366D01*
X119057944Y-122819189D01*
X119176208Y-122718182D01*
X119176213Y-122718177D01*
X119179969Y-122714969D01*
X119334176Y-122534416D01*
X119336755Y-122530208D01*
X119336759Y-122530202D01*
X119455654Y-122336183D01*
X119458240Y-122331963D01*
X119511726Y-122202837D01*
X119547211Y-122117167D01*
X119547212Y-122117165D01*
X119549105Y-122112594D01*
X119604535Y-121881711D01*
X119623165Y-121645000D01*
X119604535Y-121408289D01*
X119549105Y-121177406D01*
X119547211Y-121172833D01*
X119460135Y-120962611D01*
X119460133Y-120962607D01*
X119458240Y-120958037D01*
X119455654Y-120953817D01*
X119336759Y-120759798D01*
X119336755Y-120759792D01*
X119334176Y-120755584D01*
X119179969Y-120575031D01*
X119176213Y-120571823D01*
X119176208Y-120571818D01*
X119057944Y-120470811D01*
X119019134Y-120411361D01*
X119018628Y-120340366D01*
X119057944Y-120279189D01*
X119176208Y-120178182D01*
X119176213Y-120178177D01*
X119179969Y-120174969D01*
X119334176Y-119994416D01*
X119336755Y-119990208D01*
X119336759Y-119990202D01*
X119455654Y-119796183D01*
X119458240Y-119791963D01*
X119507507Y-119673023D01*
X119547211Y-119577167D01*
X119547212Y-119577165D01*
X119549105Y-119572594D01*
X119602101Y-119351851D01*
X119603380Y-119346524D01*
X119603381Y-119346518D01*
X119604535Y-119341711D01*
X119623165Y-119105000D01*
X119604535Y-118868289D01*
X119549105Y-118637406D01*
X119547211Y-118632833D01*
X119460135Y-118422611D01*
X119460133Y-118422607D01*
X119458240Y-118418037D01*
X119439141Y-118386870D01*
X119336759Y-118219798D01*
X119336755Y-118219792D01*
X119334176Y-118215584D01*
X119179969Y-118035031D01*
X119176213Y-118031823D01*
X119176208Y-118031818D01*
X119057944Y-117930811D01*
X119019134Y-117871361D01*
X119018628Y-117800366D01*
X119057944Y-117739189D01*
X119176208Y-117638182D01*
X119176213Y-117638177D01*
X119179969Y-117634969D01*
X119334176Y-117454416D01*
X119336755Y-117450208D01*
X119336759Y-117450202D01*
X119455654Y-117256183D01*
X119458240Y-117251963D01*
X119507507Y-117133023D01*
X119547211Y-117037167D01*
X119547212Y-117037165D01*
X119549105Y-117032594D01*
X119600868Y-116816987D01*
X119603380Y-116806524D01*
X119603381Y-116806518D01*
X119604535Y-116801711D01*
X119623165Y-116565000D01*
X119604535Y-116328289D01*
X119549105Y-116097406D01*
X119547211Y-116092833D01*
X119460135Y-115882611D01*
X119460133Y-115882607D01*
X119458240Y-115878037D01*
X119439141Y-115846870D01*
X119336759Y-115679798D01*
X119336755Y-115679792D01*
X119334176Y-115675584D01*
X119179969Y-115495031D01*
X119176213Y-115491823D01*
X119176208Y-115491818D01*
X119057944Y-115390811D01*
X119019134Y-115331361D01*
X119018628Y-115260366D01*
X119057944Y-115199189D01*
X119176208Y-115098182D01*
X119176213Y-115098177D01*
X119179969Y-115094969D01*
X119334176Y-114914416D01*
X119336755Y-114910208D01*
X119336759Y-114910202D01*
X119455654Y-114716183D01*
X119458240Y-114711963D01*
X119511726Y-114582837D01*
X119547211Y-114497167D01*
X119547212Y-114497165D01*
X119549105Y-114492594D01*
X119604535Y-114261711D01*
X119623165Y-114025000D01*
X119604535Y-113788289D01*
X119549105Y-113557406D01*
X119547211Y-113552833D01*
X119460135Y-113342611D01*
X119460133Y-113342607D01*
X119458240Y-113338037D01*
X119455654Y-113333817D01*
X119336759Y-113139798D01*
X119336755Y-113139792D01*
X119334176Y-113135584D01*
X119179969Y-112955031D01*
X119176213Y-112951823D01*
X119176208Y-112951818D01*
X119057944Y-112850811D01*
X119019134Y-112791361D01*
X119018628Y-112720366D01*
X119057944Y-112659189D01*
X119176208Y-112558182D01*
X119176213Y-112558177D01*
X119179969Y-112554969D01*
X119334176Y-112374416D01*
X119336755Y-112370208D01*
X119336759Y-112370202D01*
X119455654Y-112176183D01*
X119458240Y-112171963D01*
X119507507Y-112053023D01*
X119547211Y-111957167D01*
X119547212Y-111957165D01*
X119549105Y-111952594D01*
X119569847Y-111866199D01*
X119603380Y-111726524D01*
X119603381Y-111726518D01*
X119604535Y-111721711D01*
X119623165Y-111485000D01*
X119604535Y-111248289D01*
X119549105Y-111017406D01*
X119547211Y-111012833D01*
X119460135Y-110802611D01*
X119460133Y-110802607D01*
X119458240Y-110798037D01*
X119439141Y-110766870D01*
X119336759Y-110599798D01*
X119336755Y-110599792D01*
X119334176Y-110595584D01*
X119179969Y-110415031D01*
X119176213Y-110411823D01*
X119176208Y-110411818D01*
X119057944Y-110310811D01*
X119019134Y-110251361D01*
X119018628Y-110180366D01*
X119057944Y-110119189D01*
X119176208Y-110018182D01*
X119176213Y-110018177D01*
X119179969Y-110014969D01*
X119334176Y-109834416D01*
X119336755Y-109830208D01*
X119336759Y-109830202D01*
X119455654Y-109636183D01*
X119458240Y-109631963D01*
X119507507Y-109513023D01*
X119547211Y-109417167D01*
X119547212Y-109417165D01*
X119549105Y-109412594D01*
X119602101Y-109191851D01*
X119603380Y-109186524D01*
X119603381Y-109186518D01*
X119604535Y-109181711D01*
X119623165Y-108945000D01*
X119604535Y-108708289D01*
X119549105Y-108477406D01*
X119547211Y-108472833D01*
X119460135Y-108262611D01*
X119460133Y-108262607D01*
X119458240Y-108258037D01*
X119439141Y-108226870D01*
X119336759Y-108059798D01*
X119336755Y-108059792D01*
X119334176Y-108055584D01*
X119179969Y-107875031D01*
X119176213Y-107871823D01*
X119176208Y-107871818D01*
X119057944Y-107770811D01*
X119019134Y-107711361D01*
X119018628Y-107640366D01*
X119057944Y-107579189D01*
X119176208Y-107478182D01*
X119176213Y-107478177D01*
X119179969Y-107474969D01*
X119334176Y-107294416D01*
X119336755Y-107290208D01*
X119336759Y-107290202D01*
X119455654Y-107096183D01*
X119458240Y-107091963D01*
X119511726Y-106962837D01*
X119547211Y-106877167D01*
X119547212Y-106877165D01*
X119549105Y-106872594D01*
X119604535Y-106641711D01*
X119623165Y-106405000D01*
X119604535Y-106168289D01*
X119549105Y-105937406D01*
X119547211Y-105932833D01*
X119460135Y-105722611D01*
X119460133Y-105722607D01*
X119458240Y-105718037D01*
X119455654Y-105713817D01*
X119336759Y-105519798D01*
X119336755Y-105519792D01*
X119334176Y-105515584D01*
X119179969Y-105335031D01*
X119176213Y-105331823D01*
X119176208Y-105331818D01*
X119057944Y-105230811D01*
X119019134Y-105171361D01*
X119018628Y-105100366D01*
X119057944Y-105039189D01*
X119176208Y-104938182D01*
X119176213Y-104938177D01*
X119179969Y-104934969D01*
X119334176Y-104754416D01*
X119336755Y-104750208D01*
X119336759Y-104750202D01*
X119455654Y-104556183D01*
X119458240Y-104551963D01*
X119507507Y-104433023D01*
X119547211Y-104337167D01*
X119547212Y-104337165D01*
X119549105Y-104332594D01*
X119569847Y-104246199D01*
X119603380Y-104106524D01*
X119603381Y-104106518D01*
X119604535Y-104101711D01*
X119623165Y-103865000D01*
X119604535Y-103628289D01*
X119549105Y-103397406D01*
X119547211Y-103392833D01*
X119460135Y-103182611D01*
X119460133Y-103182607D01*
X119458240Y-103178037D01*
X119439141Y-103146870D01*
X119336759Y-102979798D01*
X119336755Y-102979792D01*
X119334176Y-102975584D01*
X119179969Y-102795031D01*
X119176213Y-102791823D01*
X119176208Y-102791818D01*
X119057944Y-102690811D01*
X119019134Y-102631361D01*
X119018628Y-102560366D01*
X119057944Y-102499189D01*
X119176208Y-102398182D01*
X119176213Y-102398177D01*
X119179969Y-102394969D01*
X119334176Y-102214416D01*
X119336755Y-102210208D01*
X119336759Y-102210202D01*
X119455654Y-102016183D01*
X119458240Y-102011963D01*
X119507507Y-101893023D01*
X119547211Y-101797167D01*
X119547212Y-101797165D01*
X119549105Y-101792594D01*
X119602101Y-101571851D01*
X119603380Y-101566524D01*
X119603381Y-101566518D01*
X119604535Y-101561711D01*
X119623165Y-101325000D01*
X119604535Y-101088289D01*
X119549105Y-100857406D01*
X119547211Y-100852833D01*
X119460135Y-100642611D01*
X119460133Y-100642607D01*
X119458240Y-100638037D01*
X119439141Y-100606870D01*
X119336759Y-100439798D01*
X119336755Y-100439792D01*
X119334176Y-100435584D01*
X119179969Y-100255031D01*
X119176213Y-100251823D01*
X119176208Y-100251818D01*
X119057944Y-100150811D01*
X119019134Y-100091361D01*
X119018628Y-100020366D01*
X119057944Y-99959189D01*
X119176208Y-99858182D01*
X119176213Y-99858177D01*
X119179969Y-99854969D01*
X119334176Y-99674416D01*
X119336755Y-99670208D01*
X119336759Y-99670202D01*
X119455654Y-99476183D01*
X119458240Y-99471963D01*
X119511726Y-99342837D01*
X119547211Y-99257167D01*
X119547212Y-99257165D01*
X119549105Y-99252594D01*
X119604535Y-99021711D01*
X119623165Y-98785000D01*
X119604535Y-98548289D01*
X119549105Y-98317406D01*
X119547211Y-98312833D01*
X119460135Y-98102611D01*
X119460133Y-98102607D01*
X119458240Y-98098037D01*
X119455654Y-98093817D01*
X119336759Y-97899798D01*
X119336755Y-97899792D01*
X119334176Y-97895584D01*
X119179969Y-97715031D01*
X119176213Y-97711823D01*
X119176208Y-97711818D01*
X119057944Y-97610811D01*
X119019134Y-97551361D01*
X119018628Y-97480366D01*
X119057944Y-97419189D01*
X119176208Y-97318182D01*
X119176213Y-97318177D01*
X119179969Y-97314969D01*
X119334176Y-97134416D01*
X119336755Y-97130208D01*
X119336759Y-97130202D01*
X119455654Y-96936183D01*
X119458240Y-96931963D01*
X119507507Y-96813023D01*
X119547211Y-96717167D01*
X119547212Y-96717165D01*
X119549105Y-96712594D01*
X119602101Y-96491851D01*
X119603380Y-96486524D01*
X119603381Y-96486518D01*
X119604535Y-96481711D01*
X119623165Y-96245000D01*
X119604535Y-96008289D01*
X119549105Y-95777406D01*
X119547211Y-95772833D01*
X119460135Y-95562611D01*
X119460133Y-95562607D01*
X119458240Y-95558037D01*
X119439141Y-95526870D01*
X119336759Y-95359798D01*
X119336755Y-95359792D01*
X119334176Y-95355584D01*
X119179969Y-95175031D01*
X119176213Y-95171823D01*
X119176208Y-95171818D01*
X119023384Y-95041294D01*
X118984574Y-94981844D01*
X118982360Y-94947442D01*
X118974123Y-94928333D01*
X118122812Y-94077022D01*
X118108868Y-94069408D01*
X118107035Y-94069539D01*
X118100420Y-94073790D01*
X117248920Y-94925290D01*
X117239740Y-94942102D01*
X117225980Y-95005350D01*
X117197224Y-95040775D01*
X117070616Y-95148909D01*
X117040031Y-95175031D01*
X116885824Y-95355584D01*
X116883245Y-95359792D01*
X116883241Y-95359798D01*
X116780859Y-95526870D01*
X116761760Y-95558037D01*
X116759867Y-95562607D01*
X116759865Y-95562611D01*
X116672789Y-95772833D01*
X116670895Y-95777406D01*
X116615465Y-96008289D01*
X116596835Y-96245000D01*
X116615465Y-96481711D01*
X116616619Y-96486518D01*
X116616620Y-96486524D01*
X116617899Y-96491851D01*
X116670895Y-96712594D01*
X116672788Y-96717165D01*
X116672789Y-96717167D01*
X116712494Y-96813023D01*
X116761760Y-96931963D01*
X116764346Y-96936183D01*
X116883241Y-97130202D01*
X116883245Y-97130208D01*
X116885824Y-97134416D01*
X117040031Y-97314969D01*
X117043787Y-97318177D01*
X117043792Y-97318182D01*
X117162056Y-97419189D01*
X117200866Y-97478639D01*
X117201372Y-97549634D01*
X117162056Y-97610811D01*
X117043792Y-97711818D01*
X117043787Y-97711823D01*
X117040031Y-97715031D01*
X116885824Y-97895584D01*
X116883245Y-97899792D01*
X116883241Y-97899798D01*
X116764346Y-98093817D01*
X116761760Y-98098037D01*
X116759867Y-98102607D01*
X116759865Y-98102611D01*
X116672789Y-98312833D01*
X116670895Y-98317406D01*
X116615465Y-98548289D01*
X116596835Y-98785000D01*
X116615465Y-99021711D01*
X116670895Y-99252594D01*
X116672788Y-99257165D01*
X116672789Y-99257167D01*
X116708275Y-99342837D01*
X116761760Y-99471963D01*
X116764346Y-99476183D01*
X116883241Y-99670202D01*
X116883245Y-99670208D01*
X116885824Y-99674416D01*
X117040031Y-99854969D01*
X117043787Y-99858177D01*
X117043792Y-99858182D01*
X117162056Y-99959189D01*
X117200866Y-100018639D01*
X117201372Y-100089634D01*
X117162056Y-100150811D01*
X117043792Y-100251818D01*
X117043787Y-100251823D01*
X117040031Y-100255031D01*
X116885824Y-100435584D01*
X116883245Y-100439792D01*
X116883241Y-100439798D01*
X116780859Y-100606870D01*
X116761760Y-100638037D01*
X116759867Y-100642607D01*
X116759865Y-100642611D01*
X116672789Y-100852833D01*
X116670895Y-100857406D01*
X116615465Y-101088289D01*
X116596835Y-101325000D01*
X116615465Y-101561711D01*
X116616619Y-101566518D01*
X116616620Y-101566524D01*
X116617899Y-101571851D01*
X116670895Y-101792594D01*
X116672788Y-101797165D01*
X116672789Y-101797167D01*
X116712494Y-101893023D01*
X116761760Y-102011963D01*
X116764346Y-102016183D01*
X116883241Y-102210202D01*
X116883245Y-102210208D01*
X116885824Y-102214416D01*
X117040031Y-102394969D01*
X117043787Y-102398177D01*
X117043792Y-102398182D01*
X117162056Y-102499189D01*
X117200866Y-102558639D01*
X117201372Y-102629634D01*
X117162056Y-102690811D01*
X117043792Y-102791818D01*
X117043787Y-102791823D01*
X117040031Y-102795031D01*
X116885824Y-102975584D01*
X116883245Y-102979792D01*
X116883241Y-102979798D01*
X116780859Y-103146870D01*
X116761760Y-103178037D01*
X116759867Y-103182607D01*
X116759865Y-103182611D01*
X116672789Y-103392833D01*
X116670895Y-103397406D01*
X116615465Y-103628289D01*
X116596835Y-103865000D01*
X116615465Y-104101711D01*
X116616619Y-104106518D01*
X116616620Y-104106524D01*
X116650153Y-104246199D01*
X116670895Y-104332594D01*
X116672788Y-104337165D01*
X116672789Y-104337167D01*
X116712494Y-104433023D01*
X116761760Y-104551963D01*
X116764346Y-104556183D01*
X116883241Y-104750202D01*
X116883245Y-104750208D01*
X116885824Y-104754416D01*
X117040031Y-104934969D01*
X117043787Y-104938177D01*
X117043792Y-104938182D01*
X117162056Y-105039189D01*
X117200866Y-105098639D01*
X117201372Y-105169634D01*
X117162056Y-105230811D01*
X117043792Y-105331818D01*
X117043787Y-105331823D01*
X117040031Y-105335031D01*
X116885824Y-105515584D01*
X116883245Y-105519792D01*
X116883241Y-105519798D01*
X116764346Y-105713817D01*
X116761760Y-105718037D01*
X116759867Y-105722607D01*
X116759865Y-105722611D01*
X116672789Y-105932833D01*
X116670895Y-105937406D01*
X116615465Y-106168289D01*
X116596835Y-106405000D01*
X116615465Y-106641711D01*
X116670895Y-106872594D01*
X116672788Y-106877165D01*
X116672789Y-106877167D01*
X116708275Y-106962837D01*
X116761760Y-107091963D01*
X116764346Y-107096183D01*
X116883241Y-107290202D01*
X116883245Y-107290208D01*
X116885824Y-107294416D01*
X117040031Y-107474969D01*
X117043787Y-107478177D01*
X117043792Y-107478182D01*
X117162056Y-107579189D01*
X117200866Y-107638639D01*
X117201372Y-107709634D01*
X117162056Y-107770811D01*
X117043792Y-107871818D01*
X117043787Y-107871823D01*
X117040031Y-107875031D01*
X116885824Y-108055584D01*
X116883245Y-108059792D01*
X116883241Y-108059798D01*
X116780859Y-108226870D01*
X116761760Y-108258037D01*
X116759867Y-108262607D01*
X116759865Y-108262611D01*
X116672789Y-108472833D01*
X116670895Y-108477406D01*
X116615465Y-108708289D01*
X116596835Y-108945000D01*
X116615465Y-109181711D01*
X116616619Y-109186518D01*
X116616620Y-109186524D01*
X116617899Y-109191851D01*
X116670895Y-109412594D01*
X116672788Y-109417165D01*
X116672789Y-109417167D01*
X116712494Y-109513023D01*
X116761760Y-109631963D01*
X116764346Y-109636183D01*
X116883241Y-109830202D01*
X116883245Y-109830208D01*
X116885824Y-109834416D01*
X117040031Y-110014969D01*
X117043787Y-110018177D01*
X117043792Y-110018182D01*
X117162056Y-110119189D01*
X117200866Y-110178639D01*
X117201372Y-110249634D01*
X117162056Y-110310811D01*
X117043792Y-110411818D01*
X117043787Y-110411823D01*
X117040031Y-110415031D01*
X116885824Y-110595584D01*
X116883245Y-110599792D01*
X116883241Y-110599798D01*
X116780859Y-110766870D01*
X116761760Y-110798037D01*
X116759867Y-110802607D01*
X116759865Y-110802611D01*
X116672789Y-111012833D01*
X116670895Y-111017406D01*
X116615465Y-111248289D01*
X116596835Y-111485000D01*
X116615465Y-111721711D01*
X116616619Y-111726518D01*
X116616620Y-111726524D01*
X116650153Y-111866199D01*
X116670895Y-111952594D01*
X116672788Y-111957165D01*
X116672789Y-111957167D01*
X116712494Y-112053023D01*
X116761760Y-112171963D01*
X116764346Y-112176183D01*
X116883241Y-112370202D01*
X116883245Y-112370208D01*
X116885824Y-112374416D01*
X117040031Y-112554969D01*
X117043787Y-112558177D01*
X117043792Y-112558182D01*
X117162056Y-112659189D01*
X117200866Y-112718639D01*
X117201372Y-112789634D01*
X117162056Y-112850811D01*
X117043792Y-112951818D01*
X117043787Y-112951823D01*
X117040031Y-112955031D01*
X116885824Y-113135584D01*
X116883245Y-113139792D01*
X116883241Y-113139798D01*
X116764346Y-113333817D01*
X116761760Y-113338037D01*
X116759867Y-113342607D01*
X116759865Y-113342611D01*
X116672789Y-113552833D01*
X116670895Y-113557406D01*
X116615465Y-113788289D01*
X116596835Y-114025000D01*
X116615465Y-114261711D01*
X116670895Y-114492594D01*
X116672788Y-114497165D01*
X116672789Y-114497167D01*
X116708275Y-114582837D01*
X116761760Y-114711963D01*
X116764346Y-114716183D01*
X116883241Y-114910202D01*
X116883245Y-114910208D01*
X116885824Y-114914416D01*
X117040031Y-115094969D01*
X117043787Y-115098177D01*
X117043792Y-115098182D01*
X117162056Y-115199189D01*
X117200866Y-115258639D01*
X117201372Y-115329634D01*
X117162056Y-115390811D01*
X117043792Y-115491818D01*
X117043787Y-115491823D01*
X117040031Y-115495031D01*
X116885824Y-115675584D01*
X116883245Y-115679792D01*
X116883241Y-115679798D01*
X116780859Y-115846870D01*
X116761760Y-115878037D01*
X116759867Y-115882607D01*
X116759865Y-115882611D01*
X116672789Y-116092833D01*
X116670895Y-116097406D01*
X116615465Y-116328289D01*
X116596835Y-116565000D01*
X116615465Y-116801711D01*
X116616619Y-116806518D01*
X116616620Y-116806524D01*
X116619132Y-116816987D01*
X116670895Y-117032594D01*
X116672788Y-117037165D01*
X116672789Y-117037167D01*
X116712494Y-117133023D01*
X116761760Y-117251963D01*
X116764346Y-117256183D01*
X116883241Y-117450202D01*
X116883245Y-117450208D01*
X116885824Y-117454416D01*
X117040031Y-117634969D01*
X117043787Y-117638177D01*
X117043792Y-117638182D01*
X117162056Y-117739189D01*
X117200866Y-117798639D01*
X117201372Y-117869634D01*
X117162056Y-117930811D01*
X117043792Y-118031818D01*
X117043787Y-118031823D01*
X117040031Y-118035031D01*
X116885824Y-118215584D01*
X116883245Y-118219792D01*
X116883241Y-118219798D01*
X116780859Y-118386870D01*
X116761760Y-118418037D01*
X116759867Y-118422607D01*
X116759865Y-118422611D01*
X116672789Y-118632833D01*
X116670895Y-118637406D01*
X116615465Y-118868289D01*
X116596835Y-119105000D01*
X116615465Y-119341711D01*
X116616619Y-119346518D01*
X116616620Y-119346524D01*
X116617899Y-119351851D01*
X116670895Y-119572594D01*
X116672788Y-119577165D01*
X116672789Y-119577167D01*
X116712494Y-119673023D01*
X116761760Y-119791963D01*
X116764346Y-119796183D01*
X116883241Y-119990202D01*
X116883245Y-119990208D01*
X116885824Y-119994416D01*
X117040031Y-120174969D01*
X117043787Y-120178177D01*
X117043792Y-120178182D01*
X117162056Y-120279189D01*
X117200866Y-120338639D01*
X117201372Y-120409634D01*
X117162056Y-120470811D01*
X117043792Y-120571818D01*
X117043787Y-120571823D01*
X117040031Y-120575031D01*
X116885824Y-120755584D01*
X116883245Y-120759792D01*
X116883241Y-120759798D01*
X116764346Y-120953817D01*
X116761760Y-120958037D01*
X116759867Y-120962607D01*
X116759865Y-120962611D01*
X116672789Y-121172833D01*
X116670895Y-121177406D01*
X116615465Y-121408289D01*
X116596835Y-121645000D01*
X116615465Y-121881711D01*
X116670895Y-122112594D01*
X116672788Y-122117165D01*
X116672789Y-122117167D01*
X116708275Y-122202837D01*
X116761760Y-122331963D01*
X116764346Y-122336183D01*
X116883241Y-122530202D01*
X116883245Y-122530208D01*
X116885824Y-122534416D01*
X117040031Y-122714969D01*
X117043787Y-122718177D01*
X117043792Y-122718182D01*
X117162056Y-122819189D01*
X117200866Y-122878639D01*
X117201372Y-122949634D01*
X117162056Y-123010811D01*
X117043792Y-123111818D01*
X117043787Y-123111823D01*
X117040031Y-123115031D01*
X116885824Y-123295584D01*
X116883245Y-123299792D01*
X116883241Y-123299798D01*
X116780859Y-123466870D01*
X116761760Y-123498037D01*
X116759867Y-123502607D01*
X116759865Y-123502611D01*
X116672789Y-123712833D01*
X116670895Y-123717406D01*
X116615465Y-123948289D01*
X116596835Y-124185000D01*
X116615465Y-124421711D01*
X116616619Y-124426518D01*
X116616620Y-124426524D01*
X116623852Y-124456646D01*
X116670895Y-124652594D01*
X116672788Y-124657165D01*
X116672789Y-124657167D01*
X116712494Y-124753023D01*
X116761760Y-124871963D01*
X116764346Y-124876183D01*
X116883241Y-125070202D01*
X116883245Y-125070208D01*
X116885824Y-125074416D01*
X117040031Y-125254969D01*
X117043787Y-125258177D01*
X117043792Y-125258182D01*
X117162056Y-125359189D01*
X117200866Y-125418639D01*
X117201372Y-125489634D01*
X117162056Y-125550811D01*
X117043792Y-125651818D01*
X117043787Y-125651823D01*
X117040031Y-125655031D01*
X116885824Y-125835584D01*
X116883245Y-125839792D01*
X116883241Y-125839798D01*
X116780859Y-126006870D01*
X116761760Y-126038037D01*
X116759867Y-126042607D01*
X116759865Y-126042611D01*
X116672789Y-126252833D01*
X116670895Y-126257406D01*
X116615465Y-126488289D01*
X116596835Y-126725000D01*
X116615465Y-126961711D01*
X116616619Y-126966518D01*
X116616620Y-126966524D01*
X116623852Y-126996646D01*
X116670895Y-127192594D01*
X116672788Y-127197165D01*
X116672789Y-127197167D01*
X116712494Y-127293023D01*
X116761760Y-127411963D01*
X116764346Y-127416183D01*
X116883241Y-127610202D01*
X116883245Y-127610208D01*
X116885824Y-127614416D01*
X117040031Y-127794969D01*
X117220584Y-127949176D01*
X117224792Y-127951755D01*
X117224798Y-127951759D01*
X117375601Y-128044171D01*
X117423037Y-128073240D01*
X117427607Y-128075133D01*
X117427611Y-128075135D01*
X117504354Y-128106922D01*
X117594406Y-128144223D01*
X117649686Y-128188770D01*
X117672107Y-128256133D01*
X117654549Y-128324925D01*
X117605341Y-128371882D01*
X117512662Y-128421161D01*
X117463058Y-128447536D01*
X117459499Y-128450122D01*
X117459497Y-128450123D01*
X117325827Y-128547240D01*
X117235808Y-128612642D01*
X117033748Y-128807769D01*
X116860812Y-129029118D01*
X116858616Y-129032922D01*
X116858611Y-129032929D01*
X116744794Y-129230067D01*
X116720364Y-129272381D01*
X116615138Y-129532824D01*
X116614073Y-129537097D01*
X116614072Y-129537099D01*
X116548904Y-129798475D01*
X116547183Y-129805376D01*
X116546724Y-129809744D01*
X116546723Y-129809749D01*
X116522873Y-130036672D01*
X116517822Y-130084733D01*
X114808500Y-130084733D01*
X114808500Y-93709930D01*
X116597725Y-93709930D01*
X116615572Y-93936699D01*
X116617115Y-93946446D01*
X116670217Y-94167627D01*
X116673266Y-94177012D01*
X116760313Y-94387163D01*
X116764795Y-94395958D01*
X116867432Y-94563445D01*
X116877890Y-94572907D01*
X116886666Y-94569124D01*
X118020905Y-93434885D01*
X118083217Y-93400859D01*
X118154032Y-93405924D01*
X118199095Y-93434885D01*
X119330290Y-94566080D01*
X119342670Y-94572840D01*
X119350320Y-94567113D01*
X119455205Y-94395958D01*
X119459687Y-94387163D01*
X119546734Y-94177012D01*
X119549783Y-94167627D01*
X119602885Y-93946446D01*
X119604428Y-93936699D01*
X119622275Y-93709930D01*
X141997725Y-93709930D01*
X142015572Y-93936699D01*
X142017115Y-93946446D01*
X142070217Y-94167627D01*
X142073266Y-94177012D01*
X142160313Y-94387163D01*
X142164795Y-94395958D01*
X142267432Y-94563445D01*
X142277890Y-94572907D01*
X142286666Y-94569124D01*
X143137978Y-93717812D01*
X143144356Y-93706132D01*
X143874408Y-93706132D01*
X143874539Y-93707965D01*
X143878790Y-93714580D01*
X144730290Y-94566080D01*
X144742670Y-94572840D01*
X144750320Y-94567113D01*
X144855205Y-94395958D01*
X144859687Y-94387163D01*
X144946734Y-94177012D01*
X144949783Y-94167627D01*
X145002885Y-93946446D01*
X145004428Y-93936699D01*
X145022275Y-93709930D01*
X145022275Y-93700070D01*
X145004428Y-93473301D01*
X145002885Y-93463554D01*
X144949783Y-93242373D01*
X144946734Y-93232988D01*
X144859687Y-93022837D01*
X144855205Y-93014042D01*
X144752568Y-92846555D01*
X144742110Y-92837093D01*
X144733334Y-92840876D01*
X143882022Y-93692188D01*
X143874408Y-93706132D01*
X143144356Y-93706132D01*
X143145592Y-93703868D01*
X143145461Y-93702035D01*
X143141210Y-93695420D01*
X142289710Y-92843920D01*
X142277330Y-92837160D01*
X142269680Y-92842887D01*
X142164795Y-93014042D01*
X142160313Y-93022837D01*
X142073266Y-93232988D01*
X142070217Y-93242373D01*
X142017115Y-93463554D01*
X142015572Y-93473301D01*
X141997725Y-93700070D01*
X141997725Y-93709930D01*
X119622275Y-93709930D01*
X119622275Y-93700070D01*
X119604428Y-93473301D01*
X119602885Y-93463554D01*
X119549783Y-93242373D01*
X119546734Y-93232988D01*
X119459687Y-93022837D01*
X119455205Y-93014042D01*
X119336357Y-92820101D01*
X119330557Y-92812117D01*
X119324381Y-92804886D01*
X119295349Y-92740096D01*
X119305953Y-92669896D01*
X119352177Y-92617312D01*
X119356705Y-92615615D01*
X119378240Y-92599476D01*
X119466081Y-92533642D01*
X119473261Y-92528261D01*
X119560615Y-92411705D01*
X119611745Y-92275316D01*
X119618500Y-92213134D01*
X119618500Y-91165000D01*
X141996835Y-91165000D01*
X142015465Y-91401711D01*
X142016619Y-91406518D01*
X142016620Y-91406524D01*
X142017899Y-91411851D01*
X142070895Y-91632594D01*
X142072788Y-91637165D01*
X142072789Y-91637167D01*
X142112494Y-91733023D01*
X142161760Y-91851963D01*
X142164346Y-91856183D01*
X142283241Y-92050202D01*
X142283245Y-92050208D01*
X142285824Y-92054416D01*
X142440031Y-92234969D01*
X142443787Y-92238177D01*
X142443792Y-92238182D01*
X142596616Y-92368706D01*
X142635426Y-92428156D01*
X142637640Y-92462558D01*
X142645877Y-92481667D01*
X143497188Y-93332978D01*
X143511132Y-93340592D01*
X143512965Y-93340461D01*
X143519580Y-93336210D01*
X144371080Y-92484710D01*
X144380260Y-92467898D01*
X144394020Y-92404650D01*
X144422776Y-92369225D01*
X144576213Y-92238177D01*
X144579969Y-92234969D01*
X144734176Y-92054416D01*
X144736755Y-92050208D01*
X144736759Y-92050202D01*
X144855654Y-91856183D01*
X144858240Y-91851963D01*
X144907507Y-91733023D01*
X144947211Y-91637167D01*
X144947212Y-91637165D01*
X144949105Y-91632594D01*
X145002101Y-91411851D01*
X145003380Y-91406524D01*
X145003381Y-91406518D01*
X145004535Y-91401711D01*
X145023165Y-91165000D01*
X145004535Y-90928289D01*
X144949105Y-90697406D01*
X144947211Y-90692833D01*
X144860135Y-90482611D01*
X144860133Y-90482607D01*
X144858240Y-90478037D01*
X144839141Y-90446870D01*
X144736759Y-90279798D01*
X144736755Y-90279792D01*
X144734176Y-90275584D01*
X144579969Y-90095031D01*
X144399416Y-89940824D01*
X144395208Y-89938245D01*
X144395202Y-89938241D01*
X144201183Y-89819346D01*
X144196963Y-89816760D01*
X144192393Y-89814867D01*
X144192389Y-89814865D01*
X143982167Y-89727789D01*
X143982165Y-89727788D01*
X143977594Y-89725895D01*
X143897391Y-89706640D01*
X143751524Y-89671620D01*
X143751518Y-89671619D01*
X143746711Y-89670465D01*
X143510000Y-89651835D01*
X143273289Y-89670465D01*
X143268482Y-89671619D01*
X143268476Y-89671620D01*
X143122609Y-89706640D01*
X143042406Y-89725895D01*
X143037835Y-89727788D01*
X143037833Y-89727789D01*
X142827611Y-89814865D01*
X142827607Y-89814867D01*
X142823037Y-89816760D01*
X142818817Y-89819346D01*
X142624798Y-89938241D01*
X142624792Y-89938245D01*
X142620584Y-89940824D01*
X142440031Y-90095031D01*
X142285824Y-90275584D01*
X142283245Y-90279792D01*
X142283241Y-90279798D01*
X142180859Y-90446870D01*
X142161760Y-90478037D01*
X142159867Y-90482607D01*
X142159865Y-90482611D01*
X142072789Y-90692833D01*
X142070895Y-90697406D01*
X142015465Y-90928289D01*
X141996835Y-91165000D01*
X119618500Y-91165000D01*
X119618500Y-90116866D01*
X119611745Y-90054684D01*
X119560615Y-89918295D01*
X119473261Y-89801739D01*
X119356705Y-89714385D01*
X119220316Y-89663255D01*
X119158134Y-89656500D01*
X117061866Y-89656500D01*
X116999684Y-89663255D01*
X116863295Y-89714385D01*
X116746739Y-89801739D01*
X116659385Y-89918295D01*
X116608255Y-90054684D01*
X116601500Y-90116866D01*
X116601500Y-92213134D01*
X116608255Y-92275316D01*
X116659385Y-92411705D01*
X116746739Y-92528261D01*
X116753919Y-92533642D01*
X116841761Y-92599476D01*
X116863295Y-92615615D01*
X116863450Y-92615673D01*
X116910463Y-92662791D01*
X116925478Y-92732182D01*
X116900594Y-92798675D01*
X116895619Y-92804886D01*
X116889443Y-92812117D01*
X116883643Y-92820101D01*
X116764795Y-93014042D01*
X116760313Y-93022837D01*
X116673266Y-93232988D01*
X116670217Y-93242373D01*
X116617115Y-93463554D01*
X116615572Y-93473301D01*
X116597725Y-93700070D01*
X116597725Y-93709930D01*
X114808500Y-93709930D01*
X114808500Y-83134733D01*
X116517822Y-83134733D01*
X116517975Y-83139121D01*
X116517975Y-83139127D01*
X116526587Y-83385720D01*
X116527625Y-83415458D01*
X116528387Y-83419781D01*
X116528388Y-83419788D01*
X116552164Y-83554624D01*
X116576402Y-83692087D01*
X116663203Y-83959235D01*
X116786340Y-84211702D01*
X116788795Y-84215341D01*
X116788798Y-84215347D01*
X116857268Y-84316857D01*
X116943415Y-84444576D01*
X117131371Y-84653322D01*
X117346550Y-84833879D01*
X117584764Y-84982731D01*
X117841375Y-85096982D01*
X118111390Y-85174407D01*
X118115740Y-85175018D01*
X118115743Y-85175019D01*
X118218690Y-85189487D01*
X118389552Y-85213500D01*
X118600146Y-85213500D01*
X118602332Y-85213347D01*
X118602336Y-85213347D01*
X118805827Y-85199118D01*
X118805832Y-85199117D01*
X118810212Y-85198811D01*
X119084970Y-85140409D01*
X119089099Y-85138906D01*
X119089103Y-85138905D01*
X119344781Y-85045846D01*
X119344785Y-85045844D01*
X119348926Y-85044337D01*
X119596942Y-84912464D01*
X119663412Y-84864171D01*
X119820629Y-84749947D01*
X119820632Y-84749944D01*
X119824192Y-84747358D01*
X120026252Y-84552231D01*
X120199188Y-84330882D01*
X120201384Y-84327078D01*
X120201389Y-84327071D01*
X120337435Y-84091431D01*
X120339636Y-84087619D01*
X120444862Y-83827176D01*
X120446651Y-83820000D01*
X120511753Y-83558893D01*
X120511754Y-83558888D01*
X120512817Y-83554624D01*
X120534397Y-83349305D01*
X120541719Y-83279636D01*
X120541719Y-83279633D01*
X120542178Y-83275267D01*
X120538706Y-83175840D01*
X120537271Y-83134733D01*
X141027822Y-83134733D01*
X141027975Y-83139121D01*
X141027975Y-83139127D01*
X141036587Y-83385720D01*
X141037625Y-83415458D01*
X141038387Y-83419781D01*
X141038388Y-83419788D01*
X141062164Y-83554624D01*
X141086402Y-83692087D01*
X141173203Y-83959235D01*
X141296340Y-84211702D01*
X141298795Y-84215341D01*
X141298798Y-84215347D01*
X141367268Y-84316857D01*
X141453415Y-84444576D01*
X141641371Y-84653322D01*
X141856550Y-84833879D01*
X142094764Y-84982731D01*
X142351375Y-85096982D01*
X142621390Y-85174407D01*
X142625740Y-85175018D01*
X142625743Y-85175019D01*
X142728690Y-85189487D01*
X142899552Y-85213500D01*
X143110146Y-85213500D01*
X143112332Y-85213347D01*
X143112336Y-85213347D01*
X143315827Y-85199118D01*
X143315832Y-85199117D01*
X143320212Y-85198811D01*
X143594970Y-85140409D01*
X143599099Y-85138906D01*
X143599103Y-85138905D01*
X143854781Y-85045846D01*
X143854785Y-85045844D01*
X143858926Y-85044337D01*
X144106942Y-84912464D01*
X144173412Y-84864171D01*
X144330629Y-84749947D01*
X144330632Y-84749944D01*
X144334192Y-84747358D01*
X144536252Y-84552231D01*
X144709188Y-84330882D01*
X144711384Y-84327078D01*
X144711389Y-84327071D01*
X144847435Y-84091431D01*
X144849636Y-84087619D01*
X144954862Y-83827176D01*
X144956651Y-83820000D01*
X145021753Y-83558893D01*
X145021754Y-83558888D01*
X145022817Y-83554624D01*
X145044397Y-83349305D01*
X145051719Y-83279636D01*
X145051719Y-83279633D01*
X145052178Y-83275267D01*
X145048706Y-83175840D01*
X145042529Y-82998939D01*
X145042528Y-82998933D01*
X145042375Y-82994542D01*
X145041271Y-82988277D01*
X144994360Y-82722236D01*
X144993598Y-82717913D01*
X144906797Y-82450765D01*
X144881668Y-82399242D01*
X144812408Y-82257240D01*
X144783660Y-82198298D01*
X144781205Y-82194659D01*
X144781202Y-82194653D01*
X144640650Y-81986277D01*
X144626585Y-81965424D01*
X144566795Y-81899020D01*
X144526900Y-81854713D01*
X144438629Y-81756678D01*
X144223450Y-81576121D01*
X143985236Y-81427269D01*
X143804029Y-81346590D01*
X143732639Y-81314805D01*
X143732637Y-81314804D01*
X143728625Y-81313018D01*
X143458610Y-81235593D01*
X143454260Y-81234982D01*
X143454257Y-81234981D01*
X143351310Y-81220513D01*
X143180448Y-81196500D01*
X142969854Y-81196500D01*
X142967668Y-81196653D01*
X142967664Y-81196653D01*
X142764173Y-81210882D01*
X142764168Y-81210883D01*
X142759788Y-81211189D01*
X142485030Y-81269591D01*
X142480901Y-81271094D01*
X142480897Y-81271095D01*
X142225219Y-81364154D01*
X142225215Y-81364156D01*
X142221074Y-81365663D01*
X141973058Y-81497536D01*
X141969499Y-81500122D01*
X141969497Y-81500123D01*
X141864895Y-81576121D01*
X141745808Y-81662642D01*
X141543748Y-81857769D01*
X141370812Y-82079118D01*
X141368616Y-82082922D01*
X141368611Y-82082929D01*
X141272135Y-82250031D01*
X141230364Y-82322381D01*
X141125138Y-82582824D01*
X141124073Y-82587097D01*
X141124072Y-82587099D01*
X141065243Y-82823051D01*
X141057183Y-82855376D01*
X141056724Y-82859744D01*
X141056723Y-82859749D01*
X141042556Y-82994542D01*
X141027822Y-83134733D01*
X120537271Y-83134733D01*
X120532529Y-82998939D01*
X120532528Y-82998933D01*
X120532375Y-82994542D01*
X120531271Y-82988277D01*
X120484360Y-82722236D01*
X120483598Y-82717913D01*
X120396797Y-82450765D01*
X120371668Y-82399242D01*
X120302408Y-82257240D01*
X120273660Y-82198298D01*
X120271205Y-82194659D01*
X120271202Y-82194653D01*
X120130650Y-81986277D01*
X120116585Y-81965424D01*
X120056795Y-81899020D01*
X120016900Y-81854713D01*
X119928629Y-81756678D01*
X119713450Y-81576121D01*
X119475236Y-81427269D01*
X119294029Y-81346590D01*
X119222639Y-81314805D01*
X119222637Y-81314804D01*
X119218625Y-81313018D01*
X118948610Y-81235593D01*
X118944260Y-81234982D01*
X118944257Y-81234981D01*
X118841310Y-81220513D01*
X118670448Y-81196500D01*
X118459854Y-81196500D01*
X118457668Y-81196653D01*
X118457664Y-81196653D01*
X118254173Y-81210882D01*
X118254168Y-81210883D01*
X118249788Y-81211189D01*
X117975030Y-81269591D01*
X117970901Y-81271094D01*
X117970897Y-81271095D01*
X117715219Y-81364154D01*
X117715215Y-81364156D01*
X117711074Y-81365663D01*
X117463058Y-81497536D01*
X117459499Y-81500122D01*
X117459497Y-81500123D01*
X117354895Y-81576121D01*
X117235808Y-81662642D01*
X117033748Y-81857769D01*
X116860812Y-82079118D01*
X116858616Y-82082922D01*
X116858611Y-82082929D01*
X116762135Y-82250031D01*
X116720364Y-82322381D01*
X116615138Y-82582824D01*
X116614073Y-82587097D01*
X116614072Y-82587099D01*
X116555243Y-82823051D01*
X116547183Y-82855376D01*
X116546724Y-82859744D01*
X116546723Y-82859749D01*
X116532556Y-82994542D01*
X116517822Y-83134733D01*
X114808500Y-83134733D01*
X114808500Y-77737966D01*
X123128257Y-77737966D01*
X123158565Y-77872446D01*
X123161645Y-77882275D01*
X123241770Y-78079603D01*
X123246413Y-78088794D01*
X123357694Y-78270388D01*
X123363777Y-78278699D01*
X123503213Y-78439667D01*
X123510580Y-78446883D01*
X123674434Y-78582916D01*
X123682881Y-78588831D01*
X123866756Y-78696279D01*
X123876042Y-78700729D01*
X124075001Y-78776703D01*
X124084899Y-78779579D01*
X124188250Y-78800606D01*
X124202299Y-78799410D01*
X124206000Y-78789065D01*
X124206000Y-78788517D01*
X124714000Y-78788517D01*
X124718064Y-78802359D01*
X124731478Y-78804393D01*
X124738184Y-78803534D01*
X124748262Y-78801392D01*
X124952255Y-78740191D01*
X124961842Y-78736433D01*
X125153095Y-78642739D01*
X125161945Y-78637464D01*
X125335328Y-78513792D01*
X125343200Y-78507139D01*
X125494052Y-78356812D01*
X125500730Y-78348965D01*
X125628022Y-78171819D01*
X125629279Y-78172722D01*
X125676373Y-78129362D01*
X125746311Y-78117145D01*
X125811751Y-78144678D01*
X125839579Y-78176511D01*
X125857310Y-78205445D01*
X125899987Y-78275088D01*
X126046250Y-78443938D01*
X126218126Y-78586632D01*
X126411000Y-78699338D01*
X126619692Y-78779030D01*
X126624760Y-78780061D01*
X126624763Y-78780062D01*
X126719862Y-78799410D01*
X126838597Y-78823567D01*
X126843772Y-78823757D01*
X126843774Y-78823757D01*
X127056673Y-78831564D01*
X127056677Y-78831564D01*
X127061837Y-78831753D01*
X127066957Y-78831097D01*
X127066959Y-78831097D01*
X127278288Y-78804025D01*
X127278289Y-78804025D01*
X127283416Y-78803368D01*
X127288366Y-78801883D01*
X127492429Y-78740661D01*
X127492434Y-78740659D01*
X127497384Y-78739174D01*
X127697994Y-78640896D01*
X127879860Y-78511173D01*
X128038096Y-78353489D01*
X128168453Y-78172077D01*
X128169776Y-78173028D01*
X128216645Y-78129857D01*
X128286580Y-78117625D01*
X128352026Y-78145144D01*
X128379875Y-78176994D01*
X128395852Y-78203066D01*
X128439987Y-78275088D01*
X128586250Y-78443938D01*
X128758126Y-78586632D01*
X128951000Y-78699338D01*
X129159692Y-78779030D01*
X129164760Y-78780061D01*
X129164763Y-78780062D01*
X129259862Y-78799410D01*
X129378597Y-78823567D01*
X129383772Y-78823757D01*
X129383774Y-78823757D01*
X129596673Y-78831564D01*
X129596677Y-78831564D01*
X129601837Y-78831753D01*
X129606957Y-78831097D01*
X129606959Y-78831097D01*
X129818288Y-78804025D01*
X129818289Y-78804025D01*
X129823416Y-78803368D01*
X129828366Y-78801883D01*
X130032429Y-78740661D01*
X130032434Y-78740659D01*
X130037384Y-78739174D01*
X130237994Y-78640896D01*
X130419860Y-78511173D01*
X130578096Y-78353489D01*
X130708453Y-78172077D01*
X130709776Y-78173028D01*
X130756645Y-78129857D01*
X130826580Y-78117625D01*
X130892026Y-78145144D01*
X130919875Y-78176994D01*
X130935852Y-78203066D01*
X130979987Y-78275088D01*
X131126250Y-78443938D01*
X131298126Y-78586632D01*
X131491000Y-78699338D01*
X131699692Y-78779030D01*
X131704760Y-78780061D01*
X131704763Y-78780062D01*
X131799862Y-78799410D01*
X131918597Y-78823567D01*
X131923772Y-78823757D01*
X131923774Y-78823757D01*
X132136673Y-78831564D01*
X132136677Y-78831564D01*
X132141837Y-78831753D01*
X132146957Y-78831097D01*
X132146959Y-78831097D01*
X132358288Y-78804025D01*
X132358289Y-78804025D01*
X132363416Y-78803368D01*
X132368366Y-78801883D01*
X132572429Y-78740661D01*
X132572434Y-78740659D01*
X132577384Y-78739174D01*
X132777994Y-78640896D01*
X132959860Y-78511173D01*
X133118096Y-78353489D01*
X133248453Y-78172077D01*
X133249776Y-78173028D01*
X133296645Y-78129857D01*
X133366580Y-78117625D01*
X133432026Y-78145144D01*
X133459875Y-78176994D01*
X133475852Y-78203066D01*
X133519987Y-78275088D01*
X133666250Y-78443938D01*
X133838126Y-78586632D01*
X134031000Y-78699338D01*
X134239692Y-78779030D01*
X134244760Y-78780061D01*
X134244763Y-78780062D01*
X134339862Y-78799410D01*
X134458597Y-78823567D01*
X134463772Y-78823757D01*
X134463774Y-78823757D01*
X134676673Y-78831564D01*
X134676677Y-78831564D01*
X134681837Y-78831753D01*
X134686957Y-78831097D01*
X134686959Y-78831097D01*
X134898288Y-78804025D01*
X134898289Y-78804025D01*
X134903416Y-78803368D01*
X134908366Y-78801883D01*
X135112429Y-78740661D01*
X135112434Y-78740659D01*
X135117384Y-78739174D01*
X135317994Y-78640896D01*
X135499860Y-78511173D01*
X135608091Y-78403319D01*
X135670462Y-78369404D01*
X135741268Y-78374592D01*
X135798030Y-78417238D01*
X135815012Y-78448341D01*
X135829130Y-78486000D01*
X135859385Y-78566705D01*
X135946739Y-78683261D01*
X136063295Y-78770615D01*
X136199684Y-78821745D01*
X136261866Y-78828500D01*
X138058134Y-78828500D01*
X138120316Y-78821745D01*
X138256705Y-78770615D01*
X138373261Y-78683261D01*
X138460615Y-78566705D01*
X138511745Y-78430316D01*
X138518500Y-78368134D01*
X138518500Y-77737966D01*
X140908257Y-77737966D01*
X140938565Y-77872446D01*
X140941645Y-77882275D01*
X141021770Y-78079603D01*
X141026413Y-78088794D01*
X141137694Y-78270388D01*
X141143777Y-78278699D01*
X141283213Y-78439667D01*
X141290580Y-78446883D01*
X141454434Y-78582916D01*
X141462881Y-78588831D01*
X141646756Y-78696279D01*
X141656042Y-78700729D01*
X141855001Y-78776703D01*
X141864899Y-78779579D01*
X141968250Y-78800606D01*
X141982299Y-78799410D01*
X141986000Y-78789065D01*
X141986000Y-78788517D01*
X142494000Y-78788517D01*
X142498064Y-78802359D01*
X142511478Y-78804393D01*
X142518184Y-78803534D01*
X142528262Y-78801392D01*
X142732255Y-78740191D01*
X142741842Y-78736433D01*
X142933095Y-78642739D01*
X142941945Y-78637464D01*
X143115328Y-78513792D01*
X143123193Y-78507145D01*
X143227897Y-78402805D01*
X143290268Y-78368889D01*
X143361075Y-78374077D01*
X143417837Y-78416723D01*
X143434819Y-78447826D01*
X143449130Y-78486000D01*
X143479385Y-78566705D01*
X143566739Y-78683261D01*
X143683295Y-78770615D01*
X143819684Y-78821745D01*
X143881866Y-78828500D01*
X145678134Y-78828500D01*
X145740316Y-78821745D01*
X145876705Y-78770615D01*
X145993261Y-78683261D01*
X146080615Y-78566705D01*
X146131745Y-78430316D01*
X146138500Y-78368134D01*
X146138500Y-78229500D01*
X146158502Y-78161379D01*
X146212158Y-78114886D01*
X146264500Y-78103500D01*
X146278000Y-78103500D01*
X146346121Y-78123502D01*
X146392614Y-78177158D01*
X146404000Y-78229500D01*
X146404000Y-92348733D01*
X146403473Y-92359916D01*
X146401798Y-92367409D01*
X146402047Y-92375335D01*
X146402047Y-92375336D01*
X146403938Y-92435486D01*
X146404000Y-92439445D01*
X146404000Y-100533733D01*
X146403473Y-100544916D01*
X146401798Y-100552409D01*
X146402047Y-100560335D01*
X146402047Y-100560336D01*
X146403938Y-100620486D01*
X146404000Y-100624445D01*
X146404000Y-108153733D01*
X146403473Y-108164916D01*
X146401798Y-108172409D01*
X146402047Y-108180335D01*
X146402047Y-108180336D01*
X146403938Y-108240486D01*
X146404000Y-108244445D01*
X146404000Y-115208733D01*
X146403473Y-115219916D01*
X146401798Y-115227409D01*
X146402047Y-115235335D01*
X146402047Y-115235336D01*
X146403938Y-115295486D01*
X146404000Y-115299445D01*
X146404000Y-122828733D01*
X146403473Y-122839916D01*
X146401798Y-122847409D01*
X146402047Y-122855335D01*
X146402047Y-122855336D01*
X146403938Y-122915486D01*
X146404000Y-122919445D01*
X146404000Y-122947356D01*
X146404497Y-122951290D01*
X146404497Y-122951291D01*
X146404505Y-122951356D01*
X146405438Y-122963193D01*
X146406827Y-123007389D01*
X146412478Y-123026839D01*
X146416487Y-123046200D01*
X146419026Y-123066297D01*
X146421945Y-123073668D01*
X146421945Y-123073670D01*
X146435304Y-123107412D01*
X146439149Y-123118642D01*
X146451482Y-123161093D01*
X146455515Y-123167912D01*
X146455517Y-123167917D01*
X146461793Y-123178528D01*
X146470488Y-123196276D01*
X146477948Y-123215117D01*
X146482610Y-123221533D01*
X146482610Y-123221534D01*
X146503936Y-123250887D01*
X146510452Y-123260807D01*
X146532958Y-123298862D01*
X146547279Y-123313183D01*
X146560119Y-123328216D01*
X146572028Y-123344607D01*
X146578134Y-123349658D01*
X146606105Y-123372798D01*
X146614884Y-123380788D01*
X149779777Y-126545682D01*
X149813803Y-126607994D01*
X149812100Y-126668446D01*
X149790989Y-126744570D01*
X149767251Y-126966695D01*
X149767548Y-126971848D01*
X149767548Y-126971851D01*
X149773011Y-127066590D01*
X149780110Y-127189715D01*
X149781247Y-127194761D01*
X149781248Y-127194767D01*
X149781789Y-127197167D01*
X149829222Y-127407639D01*
X149913266Y-127614616D01*
X150029987Y-127805088D01*
X150176250Y-127973938D01*
X150348126Y-128116632D01*
X150395341Y-128144222D01*
X150421955Y-128159774D01*
X150470679Y-128211412D01*
X150483750Y-128281195D01*
X150457019Y-128346967D01*
X150416562Y-128380327D01*
X150408457Y-128384546D01*
X150399738Y-128390036D01*
X150229433Y-128517905D01*
X150221726Y-128524748D01*
X150074590Y-128678717D01*
X150068104Y-128686727D01*
X149948098Y-128862649D01*
X149943000Y-128871623D01*
X149853338Y-129064783D01*
X149849775Y-129074470D01*
X149794389Y-129274183D01*
X149795912Y-129282607D01*
X149808292Y-129286000D01*
X152448344Y-129286000D01*
X152461875Y-129282027D01*
X152463180Y-129272947D01*
X152421214Y-129105875D01*
X152417894Y-129096124D01*
X152332972Y-128900814D01*
X152328105Y-128891739D01*
X152212426Y-128712926D01*
X152206136Y-128704757D01*
X152062806Y-128547240D01*
X152055273Y-128540215D01*
X151888139Y-128408222D01*
X151879556Y-128402520D01*
X151842602Y-128382120D01*
X151792631Y-128331687D01*
X151777859Y-128262245D01*
X151802975Y-128195839D01*
X151830327Y-128169232D01*
X151865390Y-128144222D01*
X152009860Y-128041173D01*
X152168096Y-127883489D01*
X152227594Y-127800689D01*
X152295435Y-127706277D01*
X152298453Y-127702077D01*
X152308184Y-127682389D01*
X152395136Y-127506453D01*
X152395137Y-127506451D01*
X152397430Y-127501811D01*
X152462370Y-127288069D01*
X152491529Y-127066590D01*
X152493156Y-127000000D01*
X152474852Y-126777361D01*
X152420431Y-126560702D01*
X152331354Y-126355840D01*
X152210014Y-126168277D01*
X152059670Y-126003051D01*
X152055619Y-125999852D01*
X152055615Y-125999848D01*
X151888414Y-125867800D01*
X151888410Y-125867798D01*
X151884359Y-125864598D01*
X151843053Y-125841796D01*
X151793084Y-125791364D01*
X151778312Y-125721921D01*
X151803428Y-125655516D01*
X151830780Y-125628909D01*
X151874603Y-125597650D01*
X152009860Y-125501173D01*
X152019707Y-125491361D01*
X152164435Y-125347137D01*
X152168096Y-125343489D01*
X152298453Y-125162077D01*
X152308184Y-125142389D01*
X152395136Y-124966453D01*
X152395137Y-124966451D01*
X152397430Y-124961811D01*
X152429900Y-124854940D01*
X152460865Y-124753023D01*
X152460865Y-124753021D01*
X152462370Y-124748069D01*
X152491529Y-124526590D01*
X152493156Y-124460000D01*
X152474852Y-124237361D01*
X152420431Y-124020702D01*
X152331354Y-123815840D01*
X152210014Y-123628277D01*
X152059670Y-123463051D01*
X152055619Y-123459852D01*
X152055615Y-123459848D01*
X151888414Y-123327800D01*
X151888410Y-123327798D01*
X151884359Y-123324598D01*
X151842569Y-123301529D01*
X151792598Y-123251097D01*
X151777826Y-123181654D01*
X151802942Y-123115248D01*
X151830294Y-123088641D01*
X152005328Y-122963792D01*
X152013200Y-122957139D01*
X152164052Y-122806812D01*
X152170730Y-122798965D01*
X152295003Y-122626020D01*
X152300313Y-122617183D01*
X152394670Y-122426267D01*
X152398469Y-122416672D01*
X152460377Y-122212910D01*
X152462555Y-122202837D01*
X152463986Y-122191962D01*
X152461775Y-122177778D01*
X152448617Y-122174000D01*
X149813225Y-122174000D01*
X149799694Y-122177973D01*
X149798257Y-122187966D01*
X149828565Y-122322446D01*
X149831645Y-122332275D01*
X149911770Y-122529603D01*
X149916413Y-122538794D01*
X150027694Y-122720388D01*
X150033777Y-122728699D01*
X150173213Y-122889667D01*
X150180580Y-122896883D01*
X150344434Y-123032916D01*
X150352881Y-123038831D01*
X150421969Y-123079203D01*
X150470693Y-123130842D01*
X150483764Y-123200625D01*
X150457033Y-123266396D01*
X150416584Y-123299752D01*
X150403607Y-123306507D01*
X150399474Y-123309610D01*
X150399471Y-123309612D01*
X150229100Y-123437530D01*
X150224965Y-123440635D01*
X150070629Y-123602138D01*
X150067715Y-123606410D01*
X150067714Y-123606411D01*
X149988716Y-123722218D01*
X149944743Y-123786680D01*
X149929003Y-123820590D01*
X149867437Y-123953223D01*
X149850688Y-123989305D01*
X149790989Y-124204570D01*
X149767251Y-124426695D01*
X149767548Y-124431853D01*
X149767422Y-124437024D01*
X149765914Y-124436987D01*
X149751410Y-124499485D01*
X149700518Y-124548988D01*
X149630942Y-124563118D01*
X149564771Y-124537389D01*
X149552574Y-124526670D01*
X148738738Y-123712833D01*
X147707905Y-122682000D01*
X147673879Y-122619688D01*
X147671000Y-122592905D01*
X147671000Y-117121094D01*
X147691002Y-117052973D01*
X147744658Y-117006480D01*
X147814932Y-116996376D01*
X147879512Y-117025870D01*
X147886094Y-117031998D01*
X148863004Y-118008909D01*
X149779777Y-118925682D01*
X149813803Y-118987994D01*
X149812100Y-119048446D01*
X149790989Y-119124570D01*
X149767251Y-119346695D01*
X149767548Y-119351848D01*
X149767548Y-119351851D01*
X149773011Y-119446590D01*
X149780110Y-119569715D01*
X149781247Y-119574761D01*
X149781248Y-119574767D01*
X149781789Y-119577167D01*
X149829222Y-119787639D01*
X149913266Y-119994616D01*
X150029987Y-120185088D01*
X150176250Y-120353938D01*
X150348126Y-120496632D01*
X150421955Y-120539774D01*
X150470679Y-120591412D01*
X150483750Y-120661195D01*
X150457019Y-120726967D01*
X150416562Y-120760327D01*
X150408457Y-120764546D01*
X150399738Y-120770036D01*
X150229433Y-120897905D01*
X150221726Y-120904748D01*
X150074590Y-121058717D01*
X150068104Y-121066727D01*
X149948098Y-121242649D01*
X149943000Y-121251623D01*
X149853338Y-121444783D01*
X149849775Y-121454470D01*
X149794389Y-121654183D01*
X149795912Y-121662607D01*
X149808292Y-121666000D01*
X152448344Y-121666000D01*
X152461875Y-121662027D01*
X152463180Y-121652947D01*
X152421214Y-121485875D01*
X152417894Y-121476124D01*
X152332972Y-121280814D01*
X152328105Y-121271739D01*
X152212426Y-121092926D01*
X152206136Y-121084757D01*
X152062806Y-120927240D01*
X152055273Y-120920215D01*
X151888139Y-120788222D01*
X151879556Y-120782520D01*
X151842602Y-120762120D01*
X151792631Y-120711687D01*
X151777859Y-120642245D01*
X151802975Y-120575839D01*
X151830327Y-120549232D01*
X151853797Y-120532491D01*
X152009860Y-120421173D01*
X152019707Y-120411361D01*
X152164435Y-120267137D01*
X152168096Y-120263489D01*
X152227594Y-120180689D01*
X152295435Y-120086277D01*
X152298453Y-120082077D01*
X152341778Y-119994416D01*
X152395136Y-119886453D01*
X152395137Y-119886451D01*
X152397430Y-119881811D01*
X152462370Y-119668069D01*
X152491529Y-119446590D01*
X152493156Y-119380000D01*
X152474852Y-119157361D01*
X152420431Y-118940702D01*
X152331354Y-118735840D01*
X152210014Y-118548277D01*
X152059670Y-118383051D01*
X152055619Y-118379852D01*
X152055615Y-118379848D01*
X151888414Y-118247800D01*
X151888410Y-118247798D01*
X151884359Y-118244598D01*
X151843053Y-118221796D01*
X151793084Y-118171364D01*
X151778312Y-118101921D01*
X151803428Y-118035516D01*
X151830780Y-118008909D01*
X151874603Y-117977650D01*
X152009860Y-117881173D01*
X152019707Y-117871361D01*
X152164435Y-117727137D01*
X152168096Y-117723489D01*
X152298453Y-117542077D01*
X152341778Y-117454416D01*
X152395136Y-117346453D01*
X152395137Y-117346451D01*
X152397430Y-117341811D01*
X152429900Y-117234940D01*
X152460865Y-117133023D01*
X152460865Y-117133021D01*
X152462370Y-117128069D01*
X152491529Y-116906590D01*
X152493156Y-116840000D01*
X152474852Y-116617361D01*
X152420431Y-116400702D01*
X152331354Y-116195840D01*
X152210014Y-116008277D01*
X152059670Y-115843051D01*
X152055619Y-115839852D01*
X152055615Y-115839848D01*
X151888414Y-115707800D01*
X151888410Y-115707798D01*
X151884359Y-115704598D01*
X151842569Y-115681529D01*
X151792598Y-115631097D01*
X151777826Y-115561654D01*
X151802942Y-115495248D01*
X151830294Y-115468641D01*
X152005328Y-115343792D01*
X152013200Y-115337139D01*
X152164052Y-115186812D01*
X152170730Y-115178965D01*
X152295003Y-115006020D01*
X152300313Y-114997183D01*
X152394670Y-114806267D01*
X152398469Y-114796672D01*
X152460377Y-114592910D01*
X152462555Y-114582837D01*
X152463986Y-114571962D01*
X152461775Y-114557778D01*
X152448617Y-114554000D01*
X149813225Y-114554000D01*
X149799694Y-114557973D01*
X149798257Y-114567966D01*
X149828565Y-114702446D01*
X149831645Y-114712275D01*
X149911770Y-114909603D01*
X149916413Y-114918794D01*
X150027694Y-115100388D01*
X150033777Y-115108699D01*
X150173213Y-115269667D01*
X150180580Y-115276883D01*
X150344434Y-115412916D01*
X150352881Y-115418831D01*
X150421969Y-115459203D01*
X150470693Y-115510842D01*
X150483764Y-115580625D01*
X150457033Y-115646396D01*
X150416584Y-115679752D01*
X150403607Y-115686507D01*
X150399474Y-115689610D01*
X150399471Y-115689612D01*
X150375247Y-115707800D01*
X150224965Y-115820635D01*
X150070629Y-115982138D01*
X150067715Y-115986410D01*
X150067714Y-115986411D01*
X149988716Y-116102218D01*
X149944743Y-116166680D01*
X149929003Y-116200590D01*
X149867437Y-116333223D01*
X149850688Y-116369305D01*
X149790989Y-116584570D01*
X149767251Y-116806695D01*
X149767548Y-116811853D01*
X149767422Y-116817024D01*
X149765914Y-116816987D01*
X149751410Y-116879485D01*
X149700518Y-116928988D01*
X149630942Y-116943118D01*
X149564771Y-116917389D01*
X149552574Y-116906670D01*
X148738738Y-116092833D01*
X147707905Y-115062000D01*
X147673879Y-114999688D01*
X147671000Y-114972905D01*
X147671000Y-110066094D01*
X147691002Y-109997973D01*
X147744658Y-109951480D01*
X147814932Y-109941376D01*
X147879512Y-109970870D01*
X147886095Y-109976999D01*
X149741361Y-111832265D01*
X149775387Y-111894577D01*
X149778057Y-111914107D01*
X149780110Y-111949715D01*
X149829222Y-112167639D01*
X149913266Y-112374616D01*
X150029987Y-112565088D01*
X150176250Y-112733938D01*
X150348126Y-112876632D01*
X150421955Y-112919774D01*
X150470679Y-112971412D01*
X150483750Y-113041195D01*
X150457019Y-113106967D01*
X150416562Y-113140327D01*
X150408457Y-113144546D01*
X150399738Y-113150036D01*
X150229433Y-113277905D01*
X150221726Y-113284748D01*
X150074590Y-113438717D01*
X150068104Y-113446727D01*
X149948098Y-113622649D01*
X149943000Y-113631623D01*
X149853338Y-113824783D01*
X149849775Y-113834470D01*
X149794389Y-114034183D01*
X149795912Y-114042607D01*
X149808292Y-114046000D01*
X152448344Y-114046000D01*
X152461875Y-114042027D01*
X152463180Y-114032947D01*
X152421214Y-113865875D01*
X152417894Y-113856124D01*
X152332972Y-113660814D01*
X152328105Y-113651739D01*
X152212426Y-113472926D01*
X152206136Y-113464757D01*
X152062806Y-113307240D01*
X152055273Y-113300215D01*
X151888139Y-113168222D01*
X151879556Y-113162520D01*
X151842602Y-113142120D01*
X151792631Y-113091687D01*
X151777859Y-113022245D01*
X151802975Y-112955839D01*
X151830327Y-112929232D01*
X151853797Y-112912491D01*
X152009860Y-112801173D01*
X152019707Y-112791361D01*
X152164435Y-112647137D01*
X152168096Y-112643489D01*
X152227594Y-112560689D01*
X152295435Y-112466277D01*
X152298453Y-112462077D01*
X152341778Y-112374416D01*
X152395136Y-112266453D01*
X152395137Y-112266451D01*
X152397430Y-112261811D01*
X152462370Y-112048069D01*
X152491529Y-111826590D01*
X152493156Y-111760000D01*
X152474852Y-111537361D01*
X152420431Y-111320702D01*
X152331354Y-111115840D01*
X152210014Y-110928277D01*
X152059670Y-110763051D01*
X152055619Y-110759852D01*
X152055615Y-110759848D01*
X151888414Y-110627800D01*
X151888410Y-110627798D01*
X151884359Y-110624598D01*
X151843053Y-110601796D01*
X151793084Y-110551364D01*
X151778312Y-110481921D01*
X151803428Y-110415516D01*
X151830780Y-110388909D01*
X151904070Y-110336632D01*
X152009860Y-110261173D01*
X152019707Y-110251361D01*
X152164435Y-110107137D01*
X152168096Y-110103489D01*
X152175888Y-110092646D01*
X152295435Y-109926277D01*
X152298453Y-109922077D01*
X152341778Y-109834416D01*
X152395136Y-109726453D01*
X152395137Y-109726451D01*
X152397430Y-109721811D01*
X152462370Y-109508069D01*
X152491529Y-109286590D01*
X152493156Y-109220000D01*
X152474852Y-108997361D01*
X152420431Y-108780702D01*
X152331354Y-108575840D01*
X152210014Y-108388277D01*
X152059670Y-108223051D01*
X152055619Y-108219852D01*
X152055615Y-108219848D01*
X151888414Y-108087800D01*
X151888410Y-108087798D01*
X151884359Y-108084598D01*
X151842569Y-108061529D01*
X151792598Y-108011097D01*
X151777826Y-107941654D01*
X151802942Y-107875248D01*
X151830294Y-107848641D01*
X152005328Y-107723792D01*
X152013200Y-107717139D01*
X152164052Y-107566812D01*
X152170730Y-107558965D01*
X152295003Y-107386020D01*
X152300313Y-107377183D01*
X152394670Y-107186267D01*
X152398469Y-107176672D01*
X152460377Y-106972910D01*
X152462555Y-106962837D01*
X152463986Y-106951962D01*
X152461775Y-106937778D01*
X152448617Y-106934000D01*
X149813225Y-106934000D01*
X149799694Y-106937973D01*
X149798257Y-106947966D01*
X149828565Y-107082446D01*
X149831645Y-107092275D01*
X149911770Y-107289603D01*
X149916413Y-107298794D01*
X150027694Y-107480388D01*
X150033777Y-107488699D01*
X150173213Y-107649667D01*
X150180580Y-107656883D01*
X150344434Y-107792916D01*
X150352881Y-107798831D01*
X150421969Y-107839203D01*
X150470693Y-107890842D01*
X150483764Y-107960625D01*
X150457033Y-108026396D01*
X150416584Y-108059752D01*
X150403607Y-108066507D01*
X150399474Y-108069610D01*
X150399471Y-108069612D01*
X150229100Y-108197530D01*
X150224965Y-108200635D01*
X150070629Y-108362138D01*
X150067715Y-108366410D01*
X150067714Y-108366411D01*
X149988716Y-108482218D01*
X149944743Y-108546680D01*
X149929003Y-108580590D01*
X149867437Y-108713223D01*
X149850688Y-108749305D01*
X149790989Y-108964570D01*
X149767251Y-109186695D01*
X149767548Y-109191848D01*
X149767548Y-109191851D01*
X149773011Y-109286590D01*
X149780110Y-109409715D01*
X149781247Y-109414761D01*
X149781248Y-109414767D01*
X149781789Y-109417167D01*
X149829222Y-109627639D01*
X149913266Y-109834616D01*
X149915965Y-109839020D01*
X149954869Y-109902506D01*
X149973407Y-109971040D01*
X149951951Y-110038716D01*
X149897311Y-110084049D01*
X149826837Y-110092646D01*
X149758341Y-110057436D01*
X147707905Y-108007000D01*
X147673879Y-107944688D01*
X147671000Y-107917905D01*
X147671000Y-102446094D01*
X147691002Y-102377973D01*
X147744658Y-102331480D01*
X147814932Y-102321376D01*
X147879512Y-102350870D01*
X147886095Y-102356999D01*
X149741361Y-104212265D01*
X149775387Y-104274577D01*
X149778057Y-104294107D01*
X149780110Y-104329715D01*
X149829222Y-104547639D01*
X149913266Y-104754616D01*
X150029987Y-104945088D01*
X150176250Y-105113938D01*
X150348126Y-105256632D01*
X150421955Y-105299774D01*
X150470679Y-105351412D01*
X150483750Y-105421195D01*
X150457019Y-105486967D01*
X150416562Y-105520327D01*
X150408457Y-105524546D01*
X150399738Y-105530036D01*
X150229433Y-105657905D01*
X150221726Y-105664748D01*
X150074590Y-105818717D01*
X150068104Y-105826727D01*
X149948098Y-106002649D01*
X149943000Y-106011623D01*
X149853338Y-106204783D01*
X149849775Y-106214470D01*
X149794389Y-106414183D01*
X149795912Y-106422607D01*
X149808292Y-106426000D01*
X152448344Y-106426000D01*
X152461875Y-106422027D01*
X152463180Y-106412947D01*
X152421214Y-106245875D01*
X152417894Y-106236124D01*
X152332972Y-106040814D01*
X152328105Y-106031739D01*
X152212426Y-105852926D01*
X152206136Y-105844757D01*
X152062806Y-105687240D01*
X152055273Y-105680215D01*
X151888139Y-105548222D01*
X151879556Y-105542520D01*
X151842602Y-105522120D01*
X151792631Y-105471687D01*
X151777859Y-105402245D01*
X151802975Y-105335839D01*
X151830327Y-105309232D01*
X151853797Y-105292491D01*
X152009860Y-105181173D01*
X152019707Y-105171361D01*
X152164435Y-105027137D01*
X152168096Y-105023489D01*
X152227594Y-104940689D01*
X152295435Y-104846277D01*
X152298453Y-104842077D01*
X152341778Y-104754416D01*
X152395136Y-104646453D01*
X152395137Y-104646451D01*
X152397430Y-104641811D01*
X152462370Y-104428069D01*
X152491529Y-104206590D01*
X152493156Y-104140000D01*
X152474852Y-103917361D01*
X152420431Y-103700702D01*
X152331354Y-103495840D01*
X152210014Y-103308277D01*
X152059670Y-103143051D01*
X152055619Y-103139852D01*
X152055615Y-103139848D01*
X151888414Y-103007800D01*
X151888410Y-103007798D01*
X151884359Y-103004598D01*
X151843053Y-102981796D01*
X151793084Y-102931364D01*
X151778312Y-102861921D01*
X151803428Y-102795516D01*
X151830780Y-102768909D01*
X151904070Y-102716632D01*
X152009860Y-102641173D01*
X152019707Y-102631361D01*
X152164435Y-102487137D01*
X152168096Y-102483489D01*
X152175888Y-102472646D01*
X152295435Y-102306277D01*
X152298453Y-102302077D01*
X152341778Y-102214416D01*
X152395136Y-102106453D01*
X152395137Y-102106451D01*
X152397430Y-102101811D01*
X152462370Y-101888069D01*
X152491529Y-101666590D01*
X152493156Y-101600000D01*
X152474852Y-101377361D01*
X152420431Y-101160702D01*
X152331354Y-100955840D01*
X152210014Y-100768277D01*
X152059670Y-100603051D01*
X152055619Y-100599852D01*
X152055615Y-100599848D01*
X151888414Y-100467800D01*
X151888410Y-100467798D01*
X151884359Y-100464598D01*
X151842569Y-100441529D01*
X151792598Y-100391097D01*
X151777826Y-100321654D01*
X151802942Y-100255248D01*
X151830294Y-100228641D01*
X152005328Y-100103792D01*
X152013200Y-100097139D01*
X152164052Y-99946812D01*
X152170730Y-99938965D01*
X152295003Y-99766020D01*
X152300313Y-99757183D01*
X152394670Y-99566267D01*
X152398469Y-99556672D01*
X152460377Y-99352910D01*
X152462555Y-99342837D01*
X152463986Y-99331962D01*
X152461775Y-99317778D01*
X152448617Y-99314000D01*
X149813225Y-99314000D01*
X149799694Y-99317973D01*
X149798257Y-99327966D01*
X149828565Y-99462446D01*
X149831645Y-99472275D01*
X149911770Y-99669603D01*
X149916413Y-99678794D01*
X150027694Y-99860388D01*
X150033777Y-99868699D01*
X150173213Y-100029667D01*
X150180580Y-100036883D01*
X150344434Y-100172916D01*
X150352881Y-100178831D01*
X150421969Y-100219203D01*
X150470693Y-100270842D01*
X150483764Y-100340625D01*
X150457033Y-100406396D01*
X150416584Y-100439752D01*
X150403607Y-100446507D01*
X150399474Y-100449610D01*
X150399471Y-100449612D01*
X150229100Y-100577530D01*
X150224965Y-100580635D01*
X150070629Y-100742138D01*
X150067715Y-100746410D01*
X150067714Y-100746411D01*
X149988716Y-100862218D01*
X149944743Y-100926680D01*
X149929003Y-100960590D01*
X149867437Y-101093223D01*
X149850688Y-101129305D01*
X149790989Y-101344570D01*
X149767251Y-101566695D01*
X149767548Y-101571848D01*
X149767548Y-101571851D01*
X149773011Y-101666590D01*
X149780110Y-101789715D01*
X149781247Y-101794761D01*
X149781248Y-101794767D01*
X149781789Y-101797167D01*
X149829222Y-102007639D01*
X149913266Y-102214616D01*
X149915965Y-102219020D01*
X149954869Y-102282506D01*
X149973407Y-102351040D01*
X149951951Y-102418716D01*
X149897311Y-102464049D01*
X149826837Y-102472646D01*
X149758341Y-102437436D01*
X147707905Y-100387000D01*
X147673879Y-100324688D01*
X147671000Y-100297905D01*
X147671000Y-94261094D01*
X147691002Y-94192973D01*
X147744658Y-94146480D01*
X147814932Y-94136376D01*
X147879512Y-94165870D01*
X147886094Y-94171998D01*
X148863004Y-95148909D01*
X149779777Y-96065682D01*
X149813803Y-96127994D01*
X149812100Y-96188446D01*
X149790989Y-96264570D01*
X149767251Y-96486695D01*
X149767548Y-96491848D01*
X149767548Y-96491851D01*
X149773011Y-96586590D01*
X149780110Y-96709715D01*
X149781247Y-96714761D01*
X149781248Y-96714767D01*
X149781789Y-96717167D01*
X149829222Y-96927639D01*
X149913266Y-97134616D01*
X150029987Y-97325088D01*
X150176250Y-97493938D01*
X150348126Y-97636632D01*
X150421955Y-97679774D01*
X150470679Y-97731412D01*
X150483750Y-97801195D01*
X150457019Y-97866967D01*
X150416562Y-97900327D01*
X150408457Y-97904546D01*
X150399738Y-97910036D01*
X150229433Y-98037905D01*
X150221726Y-98044748D01*
X150074590Y-98198717D01*
X150068104Y-98206727D01*
X149948098Y-98382649D01*
X149943000Y-98391623D01*
X149853338Y-98584783D01*
X149849775Y-98594470D01*
X149794389Y-98794183D01*
X149795912Y-98802607D01*
X149808292Y-98806000D01*
X152448344Y-98806000D01*
X152461875Y-98802027D01*
X152463180Y-98792947D01*
X152421214Y-98625875D01*
X152417894Y-98616124D01*
X152332972Y-98420814D01*
X152328105Y-98411739D01*
X152212426Y-98232926D01*
X152206136Y-98224757D01*
X152062806Y-98067240D01*
X152055273Y-98060215D01*
X151888139Y-97928222D01*
X151879556Y-97922520D01*
X151842602Y-97902120D01*
X151792631Y-97851687D01*
X151777859Y-97782245D01*
X151802975Y-97715839D01*
X151830327Y-97689232D01*
X151853797Y-97672491D01*
X152009860Y-97561173D01*
X152019707Y-97551361D01*
X152164435Y-97407137D01*
X152168096Y-97403489D01*
X152227594Y-97320689D01*
X152295435Y-97226277D01*
X152298453Y-97222077D01*
X152341778Y-97134416D01*
X152395136Y-97026453D01*
X152395137Y-97026451D01*
X152397430Y-97021811D01*
X152462370Y-96808069D01*
X152491529Y-96586590D01*
X152493156Y-96520000D01*
X152474852Y-96297361D01*
X152420431Y-96080702D01*
X152331354Y-95875840D01*
X152210014Y-95688277D01*
X152059670Y-95523051D01*
X152055619Y-95519852D01*
X152055615Y-95519848D01*
X151888414Y-95387800D01*
X151888410Y-95387798D01*
X151884359Y-95384598D01*
X151843053Y-95361796D01*
X151793084Y-95311364D01*
X151778312Y-95241921D01*
X151803428Y-95175516D01*
X151830780Y-95148909D01*
X151874603Y-95117650D01*
X152009860Y-95021173D01*
X152025739Y-95005350D01*
X152106079Y-94925290D01*
X152168096Y-94863489D01*
X152298453Y-94682077D01*
X152354278Y-94569124D01*
X152395136Y-94486453D01*
X152395137Y-94486451D01*
X152397430Y-94481811D01*
X152429900Y-94374940D01*
X152460865Y-94273023D01*
X152460865Y-94273021D01*
X152462370Y-94268069D01*
X152491529Y-94046590D01*
X152493156Y-93980000D01*
X152474852Y-93757361D01*
X152420431Y-93540702D01*
X152331354Y-93335840D01*
X152291906Y-93274862D01*
X152212822Y-93152617D01*
X152212820Y-93152614D01*
X152210014Y-93148277D01*
X152059670Y-92983051D01*
X152055619Y-92979852D01*
X152055615Y-92979848D01*
X151888414Y-92847800D01*
X151888410Y-92847798D01*
X151884359Y-92844598D01*
X151843053Y-92821796D01*
X151793084Y-92771364D01*
X151778312Y-92701921D01*
X151803428Y-92635516D01*
X151830780Y-92608909D01*
X151874603Y-92577650D01*
X152009860Y-92481173D01*
X152023182Y-92467898D01*
X152102179Y-92389176D01*
X152168096Y-92323489D01*
X152227594Y-92240689D01*
X152295435Y-92146277D01*
X152298453Y-92142077D01*
X152341778Y-92054416D01*
X152395136Y-91946453D01*
X152395137Y-91946451D01*
X152397430Y-91941811D01*
X152462370Y-91728069D01*
X152491529Y-91506590D01*
X152493156Y-91440000D01*
X152474852Y-91217361D01*
X152420431Y-91000702D01*
X152331354Y-90795840D01*
X152210014Y-90608277D01*
X152059670Y-90443051D01*
X152055619Y-90439852D01*
X152055615Y-90439848D01*
X151888414Y-90307800D01*
X151888410Y-90307798D01*
X151884359Y-90304598D01*
X151843053Y-90281796D01*
X151793084Y-90231364D01*
X151778312Y-90161921D01*
X151803428Y-90095516D01*
X151830780Y-90068909D01*
X151874603Y-90037650D01*
X152009860Y-89941173D01*
X152168096Y-89783489D01*
X152227594Y-89700689D01*
X152295435Y-89606277D01*
X152298453Y-89602077D01*
X152397430Y-89401811D01*
X152462370Y-89188069D01*
X152491529Y-88966590D01*
X152493156Y-88900000D01*
X152474852Y-88677361D01*
X152420431Y-88460702D01*
X152331354Y-88255840D01*
X152210014Y-88068277D01*
X152059670Y-87903051D01*
X152055619Y-87899852D01*
X152055615Y-87899848D01*
X151888414Y-87767800D01*
X151888410Y-87767798D01*
X151884359Y-87764598D01*
X151842569Y-87741529D01*
X151792598Y-87691097D01*
X151777826Y-87621654D01*
X151802942Y-87555248D01*
X151830294Y-87528641D01*
X152005328Y-87403792D01*
X152013200Y-87397139D01*
X152164052Y-87246812D01*
X152170730Y-87238965D01*
X152295003Y-87066020D01*
X152300313Y-87057183D01*
X152394670Y-86866267D01*
X152398469Y-86856672D01*
X152460377Y-86652910D01*
X152462555Y-86642837D01*
X152463986Y-86631962D01*
X152461775Y-86617778D01*
X152448617Y-86614000D01*
X149813225Y-86614000D01*
X149799694Y-86617973D01*
X149798257Y-86627966D01*
X149828565Y-86762446D01*
X149831645Y-86772275D01*
X149911770Y-86969603D01*
X149916413Y-86978794D01*
X150027694Y-87160388D01*
X150033777Y-87168699D01*
X150173213Y-87329667D01*
X150180580Y-87336883D01*
X150344434Y-87472916D01*
X150352881Y-87478831D01*
X150421969Y-87519203D01*
X150470693Y-87570842D01*
X150483764Y-87640625D01*
X150457033Y-87706396D01*
X150416584Y-87739752D01*
X150403607Y-87746507D01*
X150399474Y-87749610D01*
X150399471Y-87749612D01*
X150375247Y-87767800D01*
X150224965Y-87880635D01*
X150070629Y-88042138D01*
X149944743Y-88226680D01*
X149850688Y-88429305D01*
X149790989Y-88644570D01*
X149767251Y-88866695D01*
X149767548Y-88871848D01*
X149767548Y-88871851D01*
X149773011Y-88966590D01*
X149780110Y-89089715D01*
X149781247Y-89094761D01*
X149781248Y-89094767D01*
X149801119Y-89182939D01*
X149829222Y-89307639D01*
X149913266Y-89514616D01*
X149915965Y-89519020D01*
X150006052Y-89666029D01*
X150029987Y-89705088D01*
X150176250Y-89873938D01*
X150348126Y-90016632D01*
X150418595Y-90057811D01*
X150421445Y-90059476D01*
X150470169Y-90111114D01*
X150483240Y-90180897D01*
X150456509Y-90246669D01*
X150416055Y-90280027D01*
X150403607Y-90286507D01*
X150399474Y-90289610D01*
X150399471Y-90289612D01*
X150375247Y-90307800D01*
X150224965Y-90420635D01*
X150070629Y-90582138D01*
X150067715Y-90586410D01*
X150067714Y-90586411D01*
X149988716Y-90702218D01*
X149944743Y-90766680D01*
X149929003Y-90800590D01*
X149867437Y-90933223D01*
X149850688Y-90969305D01*
X149790989Y-91184570D01*
X149767251Y-91406695D01*
X149767548Y-91411848D01*
X149767548Y-91411851D01*
X149773011Y-91506590D01*
X149780110Y-91629715D01*
X149781247Y-91634761D01*
X149781248Y-91634767D01*
X149781789Y-91637167D01*
X149829222Y-91847639D01*
X149913266Y-92054616D01*
X149964019Y-92137438D01*
X150010406Y-92213134D01*
X150029987Y-92245088D01*
X150176250Y-92413938D01*
X150348126Y-92556632D01*
X150418595Y-92597811D01*
X150421445Y-92599476D01*
X150470169Y-92651114D01*
X150483240Y-92720897D01*
X150456509Y-92786669D01*
X150416055Y-92820027D01*
X150403607Y-92826507D01*
X150399474Y-92829610D01*
X150399471Y-92829612D01*
X150375247Y-92847800D01*
X150224965Y-92960635D01*
X150070629Y-93122138D01*
X149944743Y-93306680D01*
X149850688Y-93509305D01*
X149790989Y-93724570D01*
X149767251Y-93946695D01*
X149767548Y-93951853D01*
X149767422Y-93957024D01*
X149765914Y-93956987D01*
X149751410Y-94019485D01*
X149700518Y-94068988D01*
X149630942Y-94083118D01*
X149564771Y-94057389D01*
X149552574Y-94046670D01*
X148738893Y-93232988D01*
X147707905Y-92202000D01*
X147673879Y-92139688D01*
X147671000Y-92112905D01*
X147671000Y-83786695D01*
X149767251Y-83786695D01*
X149767548Y-83791848D01*
X149767548Y-83791851D01*
X149773011Y-83886590D01*
X149780110Y-84009715D01*
X149781247Y-84014761D01*
X149781248Y-84014767D01*
X149796747Y-84083539D01*
X149829222Y-84227639D01*
X149913266Y-84434616D01*
X150029987Y-84625088D01*
X150176250Y-84793938D01*
X150348126Y-84936632D01*
X150421955Y-84979774D01*
X150470679Y-85031412D01*
X150483750Y-85101195D01*
X150457019Y-85166967D01*
X150416562Y-85200327D01*
X150408457Y-85204546D01*
X150399738Y-85210036D01*
X150229433Y-85337905D01*
X150221726Y-85344748D01*
X150074590Y-85498717D01*
X150068104Y-85506727D01*
X149948098Y-85682649D01*
X149943000Y-85691623D01*
X149853338Y-85884783D01*
X149849775Y-85894470D01*
X149794389Y-86094183D01*
X149795912Y-86102607D01*
X149808292Y-86106000D01*
X152448344Y-86106000D01*
X152461875Y-86102027D01*
X152463180Y-86092947D01*
X152421214Y-85925875D01*
X152417894Y-85916124D01*
X152332972Y-85720814D01*
X152328105Y-85711739D01*
X152212426Y-85532926D01*
X152206136Y-85524757D01*
X152062806Y-85367240D01*
X152055273Y-85360215D01*
X151888139Y-85228222D01*
X151879556Y-85222520D01*
X151842602Y-85202120D01*
X151792631Y-85151687D01*
X151777859Y-85082245D01*
X151802975Y-85015839D01*
X151830327Y-84989232D01*
X151853797Y-84972491D01*
X152009860Y-84861173D01*
X152034910Y-84836211D01*
X152164435Y-84707137D01*
X152168096Y-84703489D01*
X152204145Y-84653322D01*
X152295435Y-84526277D01*
X152298453Y-84522077D01*
X152391235Y-84334347D01*
X152395136Y-84326453D01*
X152395137Y-84326451D01*
X152397430Y-84321811D01*
X152430884Y-84211702D01*
X152460865Y-84113023D01*
X152460865Y-84113021D01*
X152462370Y-84108069D01*
X152491529Y-83886590D01*
X152493156Y-83820000D01*
X152474852Y-83597361D01*
X152420431Y-83380702D01*
X152331354Y-83175840D01*
X152210014Y-82988277D01*
X152059670Y-82823051D01*
X152055619Y-82819852D01*
X152055615Y-82819848D01*
X151888414Y-82687800D01*
X151888410Y-82687798D01*
X151884359Y-82684598D01*
X151843053Y-82661796D01*
X151793084Y-82611364D01*
X151778312Y-82541921D01*
X151803428Y-82475516D01*
X151830780Y-82448909D01*
X151874603Y-82417650D01*
X152009860Y-82321173D01*
X152168096Y-82163489D01*
X152227594Y-82080689D01*
X152295435Y-81986277D01*
X152298453Y-81982077D01*
X152306684Y-81965424D01*
X152395136Y-81786453D01*
X152395137Y-81786451D01*
X152397430Y-81781811D01*
X152434423Y-81660053D01*
X152460865Y-81573023D01*
X152460865Y-81573021D01*
X152462370Y-81568069D01*
X152491529Y-81346590D01*
X152493156Y-81280000D01*
X152474852Y-81057361D01*
X152420431Y-80840702D01*
X152331354Y-80635840D01*
X152210014Y-80448277D01*
X152206540Y-80444459D01*
X152206533Y-80444450D01*
X152062435Y-80286088D01*
X152031383Y-80222242D01*
X152039779Y-80151744D01*
X152084956Y-80096976D01*
X152111400Y-80083307D01*
X152218052Y-80043325D01*
X152233649Y-80034786D01*
X152335724Y-79958285D01*
X152348285Y-79945724D01*
X152424786Y-79843649D01*
X152433324Y-79828054D01*
X152478478Y-79707606D01*
X152482105Y-79692351D01*
X152487631Y-79641486D01*
X152488000Y-79634672D01*
X152488000Y-79012115D01*
X152483525Y-78996876D01*
X152482135Y-78995671D01*
X152474452Y-78994000D01*
X149790116Y-78994000D01*
X149774877Y-78998475D01*
X149773672Y-78999865D01*
X149772001Y-79007548D01*
X149772001Y-79634669D01*
X149772371Y-79641490D01*
X149777895Y-79692352D01*
X149781521Y-79707604D01*
X149826676Y-79828054D01*
X149835214Y-79843649D01*
X149911715Y-79945724D01*
X149924276Y-79958285D01*
X150026351Y-80034786D01*
X150041946Y-80043324D01*
X150150827Y-80084142D01*
X150207591Y-80126784D01*
X150232291Y-80193345D01*
X150217083Y-80262694D01*
X150197691Y-80289175D01*
X150074200Y-80418401D01*
X150070629Y-80422138D01*
X149944743Y-80606680D01*
X149850688Y-80809305D01*
X149790989Y-81024570D01*
X149767251Y-81246695D01*
X149767548Y-81251848D01*
X149767548Y-81251851D01*
X149774230Y-81367733D01*
X149780110Y-81469715D01*
X149781247Y-81474761D01*
X149781248Y-81474767D01*
X149801119Y-81562939D01*
X149829222Y-81687639D01*
X149913266Y-81894616D01*
X149915965Y-81899020D01*
X150026329Y-82079118D01*
X150029987Y-82085088D01*
X150176250Y-82253938D01*
X150348126Y-82396632D01*
X150418595Y-82437811D01*
X150421445Y-82439476D01*
X150470169Y-82491114D01*
X150483240Y-82560897D01*
X150456509Y-82626669D01*
X150416055Y-82660027D01*
X150403607Y-82666507D01*
X150399474Y-82669610D01*
X150399471Y-82669612D01*
X150229100Y-82797530D01*
X150224965Y-82800635D01*
X150070629Y-82962138D01*
X149944743Y-83146680D01*
X149850688Y-83349305D01*
X149790989Y-83564570D01*
X149767251Y-83786695D01*
X147671000Y-83786695D01*
X147671000Y-78467885D01*
X149772000Y-78467885D01*
X149776475Y-78483124D01*
X149777865Y-78484329D01*
X149785548Y-78486000D01*
X150857885Y-78486000D01*
X150873124Y-78481525D01*
X150874329Y-78480135D01*
X150876000Y-78472452D01*
X150876000Y-78467885D01*
X151384000Y-78467885D01*
X151388475Y-78483124D01*
X151389865Y-78484329D01*
X151397548Y-78486000D01*
X152469884Y-78486000D01*
X152485123Y-78481525D01*
X152486328Y-78480135D01*
X152487999Y-78472452D01*
X152487999Y-77845331D01*
X152487629Y-77838510D01*
X152482105Y-77787648D01*
X152478479Y-77772396D01*
X152433324Y-77651946D01*
X152424786Y-77636351D01*
X152348285Y-77534276D01*
X152335724Y-77521715D01*
X152233649Y-77445214D01*
X152218054Y-77436676D01*
X152097606Y-77391522D01*
X152082351Y-77387895D01*
X152031486Y-77382369D01*
X152024672Y-77382000D01*
X151402115Y-77382000D01*
X151386876Y-77386475D01*
X151385671Y-77387865D01*
X151384000Y-77395548D01*
X151384000Y-78467885D01*
X150876000Y-78467885D01*
X150876000Y-77400116D01*
X150871525Y-77384877D01*
X150870135Y-77383672D01*
X150862452Y-77382001D01*
X150235331Y-77382001D01*
X150228510Y-77382371D01*
X150177648Y-77387895D01*
X150162396Y-77391521D01*
X150041946Y-77436676D01*
X150026351Y-77445214D01*
X149924276Y-77521715D01*
X149911715Y-77534276D01*
X149835214Y-77636351D01*
X149826676Y-77651946D01*
X149781522Y-77772394D01*
X149777895Y-77787649D01*
X149772369Y-77838514D01*
X149772000Y-77845328D01*
X149772000Y-78467885D01*
X147671000Y-78467885D01*
X147671000Y-77831263D01*
X147671527Y-77820079D01*
X147673201Y-77812591D01*
X147671062Y-77744532D01*
X147671000Y-77740575D01*
X147671000Y-77712644D01*
X147670494Y-77708638D01*
X147669561Y-77696792D01*
X147668422Y-77660537D01*
X147668173Y-77652610D01*
X147662522Y-77633158D01*
X147658514Y-77613806D01*
X147656967Y-77601563D01*
X147655974Y-77593703D01*
X147653056Y-77586332D01*
X147639700Y-77552597D01*
X147635855Y-77541370D01*
X147633794Y-77534276D01*
X147623518Y-77498907D01*
X147619484Y-77492085D01*
X147619481Y-77492079D01*
X147613206Y-77481468D01*
X147604510Y-77463718D01*
X147599972Y-77452256D01*
X147599969Y-77452251D01*
X147597052Y-77444883D01*
X147571073Y-77409125D01*
X147564557Y-77399207D01*
X147546075Y-77367957D01*
X147542042Y-77361137D01*
X147527718Y-77346813D01*
X147514876Y-77331778D01*
X147502972Y-77315393D01*
X147468906Y-77287211D01*
X147460127Y-77279222D01*
X147258652Y-77077747D01*
X147251112Y-77069461D01*
X147247000Y-77062982D01*
X147197348Y-77016356D01*
X147194507Y-77013602D01*
X147174770Y-76993865D01*
X147171573Y-76991385D01*
X147162551Y-76983680D01*
X147130321Y-76953414D01*
X147123375Y-76949595D01*
X147123372Y-76949593D01*
X147112566Y-76943652D01*
X147096047Y-76932801D01*
X147095583Y-76932441D01*
X147080041Y-76920386D01*
X147072772Y-76917241D01*
X147072768Y-76917238D01*
X147039463Y-76902826D01*
X147028813Y-76897609D01*
X146990060Y-76876305D01*
X146970437Y-76871267D01*
X146951734Y-76864863D01*
X146940420Y-76859967D01*
X146940419Y-76859967D01*
X146933145Y-76856819D01*
X146925322Y-76855580D01*
X146925312Y-76855577D01*
X146889476Y-76849901D01*
X146877856Y-76847495D01*
X146842711Y-76838472D01*
X146842710Y-76838472D01*
X146835030Y-76836500D01*
X146814776Y-76836500D01*
X146795065Y-76834949D01*
X146782886Y-76833020D01*
X146775057Y-76831780D01*
X146767165Y-76832526D01*
X146731039Y-76835941D01*
X146719181Y-76836500D01*
X146264500Y-76836500D01*
X146196379Y-76816498D01*
X146149886Y-76762842D01*
X146138500Y-76710500D01*
X146138500Y-76571866D01*
X146131745Y-76509684D01*
X146080615Y-76373295D01*
X145993261Y-76256739D01*
X145876705Y-76169385D01*
X145740316Y-76118255D01*
X145678134Y-76111500D01*
X143881866Y-76111500D01*
X143819684Y-76118255D01*
X143683295Y-76169385D01*
X143566739Y-76256739D01*
X143479385Y-76373295D01*
X143476233Y-76381703D01*
X143476232Y-76381705D01*
X143434722Y-76492433D01*
X143392081Y-76549198D01*
X143325519Y-76573898D01*
X143256170Y-76558691D01*
X143223546Y-76533004D01*
X143172799Y-76477234D01*
X143165273Y-76470215D01*
X142998139Y-76338222D01*
X142989552Y-76332517D01*
X142803117Y-76229599D01*
X142793705Y-76225369D01*
X142592959Y-76154280D01*
X142582988Y-76151646D01*
X142511837Y-76138972D01*
X142498540Y-76140432D01*
X142494000Y-76154989D01*
X142494000Y-78788517D01*
X141986000Y-78788517D01*
X141986000Y-77742115D01*
X141981525Y-77726876D01*
X141980135Y-77725671D01*
X141972452Y-77724000D01*
X140923225Y-77724000D01*
X140909694Y-77727973D01*
X140908257Y-77737966D01*
X138518500Y-77737966D01*
X138518500Y-77204183D01*
X140904389Y-77204183D01*
X140905912Y-77212607D01*
X140918292Y-77216000D01*
X141967885Y-77216000D01*
X141983124Y-77211525D01*
X141984329Y-77210135D01*
X141986000Y-77202452D01*
X141986000Y-76153102D01*
X141982082Y-76139758D01*
X141967806Y-76137771D01*
X141929324Y-76143660D01*
X141919288Y-76146051D01*
X141716868Y-76212212D01*
X141707359Y-76216209D01*
X141518463Y-76314542D01*
X141509738Y-76320036D01*
X141339433Y-76447905D01*
X141331726Y-76454748D01*
X141184590Y-76608717D01*
X141178104Y-76616727D01*
X141058098Y-76792649D01*
X141053000Y-76801623D01*
X140963338Y-76994783D01*
X140959775Y-77004470D01*
X140904389Y-77204183D01*
X138518500Y-77204183D01*
X138518500Y-76571866D01*
X138511745Y-76509684D01*
X138460615Y-76373295D01*
X138373261Y-76256739D01*
X138256705Y-76169385D01*
X138120316Y-76118255D01*
X138058134Y-76111500D01*
X136261866Y-76111500D01*
X136199684Y-76118255D01*
X136063295Y-76169385D01*
X135946739Y-76256739D01*
X135859385Y-76373295D01*
X135856233Y-76381703D01*
X135814919Y-76491907D01*
X135772277Y-76548671D01*
X135705716Y-76573371D01*
X135636367Y-76558163D01*
X135603743Y-76532476D01*
X135553151Y-76476875D01*
X135553142Y-76476866D01*
X135549670Y-76473051D01*
X135545619Y-76469852D01*
X135545615Y-76469848D01*
X135378414Y-76337800D01*
X135378410Y-76337798D01*
X135374359Y-76334598D01*
X135338028Y-76314542D01*
X135322136Y-76305769D01*
X135178789Y-76226638D01*
X135173920Y-76224914D01*
X135173916Y-76224912D01*
X134973087Y-76153795D01*
X134973083Y-76153794D01*
X134968212Y-76152069D01*
X134963119Y-76151162D01*
X134963116Y-76151161D01*
X134753373Y-76113800D01*
X134753367Y-76113799D01*
X134748284Y-76112894D01*
X134674452Y-76111992D01*
X134530081Y-76110228D01*
X134530079Y-76110228D01*
X134524911Y-76110165D01*
X134304091Y-76143955D01*
X134091756Y-76213357D01*
X133893607Y-76316507D01*
X133889474Y-76319610D01*
X133889471Y-76319612D01*
X133806771Y-76381705D01*
X133714965Y-76450635D01*
X133689546Y-76477234D01*
X133621280Y-76548671D01*
X133560629Y-76612138D01*
X133453201Y-76769621D01*
X133398293Y-76814621D01*
X133327768Y-76822792D01*
X133264021Y-76791538D01*
X133243324Y-76767054D01*
X133162822Y-76642617D01*
X133162820Y-76642614D01*
X133160014Y-76638277D01*
X133009670Y-76473051D01*
X133005619Y-76469852D01*
X133005615Y-76469848D01*
X132838414Y-76337800D01*
X132838410Y-76337798D01*
X132834359Y-76334598D01*
X132798028Y-76314542D01*
X132782136Y-76305769D01*
X132638789Y-76226638D01*
X132633920Y-76224914D01*
X132633916Y-76224912D01*
X132433087Y-76153795D01*
X132433083Y-76153794D01*
X132428212Y-76152069D01*
X132423119Y-76151162D01*
X132423116Y-76151161D01*
X132213373Y-76113800D01*
X132213367Y-76113799D01*
X132208284Y-76112894D01*
X132134452Y-76111992D01*
X131990081Y-76110228D01*
X131990079Y-76110228D01*
X131984911Y-76110165D01*
X131764091Y-76143955D01*
X131551756Y-76213357D01*
X131353607Y-76316507D01*
X131349474Y-76319610D01*
X131349471Y-76319612D01*
X131266771Y-76381705D01*
X131174965Y-76450635D01*
X131149546Y-76477234D01*
X131081280Y-76548671D01*
X131020629Y-76612138D01*
X130913201Y-76769621D01*
X130858293Y-76814621D01*
X130787768Y-76822792D01*
X130724021Y-76791538D01*
X130703324Y-76767054D01*
X130622822Y-76642617D01*
X130622820Y-76642614D01*
X130620014Y-76638277D01*
X130469670Y-76473051D01*
X130465619Y-76469852D01*
X130465615Y-76469848D01*
X130298414Y-76337800D01*
X130298410Y-76337798D01*
X130294359Y-76334598D01*
X130258028Y-76314542D01*
X130242136Y-76305769D01*
X130098789Y-76226638D01*
X130093920Y-76224914D01*
X130093916Y-76224912D01*
X129893087Y-76153795D01*
X129893083Y-76153794D01*
X129888212Y-76152069D01*
X129883119Y-76151162D01*
X129883116Y-76151161D01*
X129673373Y-76113800D01*
X129673367Y-76113799D01*
X129668284Y-76112894D01*
X129594452Y-76111992D01*
X129450081Y-76110228D01*
X129450079Y-76110228D01*
X129444911Y-76110165D01*
X129224091Y-76143955D01*
X129011756Y-76213357D01*
X128813607Y-76316507D01*
X128809474Y-76319610D01*
X128809471Y-76319612D01*
X128726771Y-76381705D01*
X128634965Y-76450635D01*
X128609546Y-76477234D01*
X128541280Y-76548671D01*
X128480629Y-76612138D01*
X128373201Y-76769621D01*
X128318293Y-76814621D01*
X128247768Y-76822792D01*
X128184021Y-76791538D01*
X128163324Y-76767054D01*
X128082822Y-76642617D01*
X128082820Y-76642614D01*
X128080014Y-76638277D01*
X127929670Y-76473051D01*
X127925619Y-76469852D01*
X127925615Y-76469848D01*
X127758414Y-76337800D01*
X127758410Y-76337798D01*
X127754359Y-76334598D01*
X127718028Y-76314542D01*
X127702136Y-76305769D01*
X127558789Y-76226638D01*
X127553920Y-76224914D01*
X127553916Y-76224912D01*
X127353087Y-76153795D01*
X127353083Y-76153794D01*
X127348212Y-76152069D01*
X127343119Y-76151162D01*
X127343116Y-76151161D01*
X127133373Y-76113800D01*
X127133367Y-76113799D01*
X127128284Y-76112894D01*
X127054452Y-76111992D01*
X126910081Y-76110228D01*
X126910079Y-76110228D01*
X126904911Y-76110165D01*
X126684091Y-76143955D01*
X126471756Y-76213357D01*
X126273607Y-76316507D01*
X126269474Y-76319610D01*
X126269471Y-76319612D01*
X126186771Y-76381705D01*
X126094965Y-76450635D01*
X126069546Y-76477234D01*
X126001280Y-76548671D01*
X125940629Y-76612138D01*
X125937720Y-76616403D01*
X125937714Y-76616411D01*
X125925404Y-76634457D01*
X125833204Y-76769618D01*
X125832898Y-76770066D01*
X125777987Y-76815069D01*
X125707462Y-76823240D01*
X125643715Y-76791986D01*
X125623018Y-76767502D01*
X125542426Y-76642926D01*
X125536136Y-76634757D01*
X125392806Y-76477240D01*
X125385273Y-76470215D01*
X125218139Y-76338222D01*
X125209552Y-76332517D01*
X125023117Y-76229599D01*
X125013705Y-76225369D01*
X124812959Y-76154280D01*
X124802988Y-76151646D01*
X124731837Y-76138972D01*
X124718540Y-76140432D01*
X124714000Y-76154989D01*
X124714000Y-78788517D01*
X124206000Y-78788517D01*
X124206000Y-77742115D01*
X124201525Y-77726876D01*
X124200135Y-77725671D01*
X124192452Y-77724000D01*
X123143225Y-77724000D01*
X123129694Y-77727973D01*
X123128257Y-77737966D01*
X114808500Y-77737966D01*
X114808500Y-77204183D01*
X123124389Y-77204183D01*
X123125912Y-77212607D01*
X123138292Y-77216000D01*
X124187885Y-77216000D01*
X124203124Y-77211525D01*
X124204329Y-77210135D01*
X124206000Y-77202452D01*
X124206000Y-76153102D01*
X124202082Y-76139758D01*
X124187806Y-76137771D01*
X124149324Y-76143660D01*
X124139288Y-76146051D01*
X123936868Y-76212212D01*
X123927359Y-76216209D01*
X123738463Y-76314542D01*
X123729738Y-76320036D01*
X123559433Y-76447905D01*
X123551726Y-76454748D01*
X123404590Y-76608717D01*
X123398104Y-76616727D01*
X123278098Y-76792649D01*
X123273000Y-76801623D01*
X123183338Y-76994783D01*
X123179775Y-77004470D01*
X123124389Y-77204183D01*
X114808500Y-77204183D01*
X114808500Y-74294500D01*
X114828502Y-74226379D01*
X114882158Y-74179886D01*
X114934500Y-74168500D01*
X154305500Y-74168500D01*
X154373621Y-74188502D01*
G37*
%TD.AperFunction*%
%TD*%
M02*
