%TF.GenerationSoftware,KiCad,Pcbnew,(6.0.8)*%
%TF.CreationDate,2022-11-23T11:07:29-05:00*%
%TF.ProjectId,lower_v3,6c6f7765-725f-4763-932e-6b696361645f,rev?*%
%TF.SameCoordinates,Original*%
%TF.FileFunction,Soldermask,Top*%
%TF.FilePolarity,Negative*%
%FSLAX46Y46*%
G04 Gerber Fmt 4.6, Leading zero omitted, Abs format (unit mm)*
G04 Created by KiCad (PCBNEW (6.0.8)) date 2022-11-23 11:07:29*
%MOMM*%
%LPD*%
G01*
G04 APERTURE LIST*
%TA.AperFunction,Profile*%
%ADD10C,0.100000*%
%TD*%
%ADD11R,1.700000X1.700000*%
%ADD12O,1.700000X1.700000*%
%ADD13C,3.000000*%
%ADD14R,2.000000X2.000000*%
%ADD15C,2.000000*%
G04 APERTURE END LIST*
D10*
X154940000Y-138430000D02*
X114300000Y-138430000D01*
X114300000Y-138430000D02*
X114300000Y-73660000D01*
X114300000Y-73660000D02*
X154940000Y-73660000D01*
X154940000Y-73660000D02*
X154940000Y-138430000D01*
D11*
%TO.C,J2*%
X137160000Y-77470000D03*
D12*
X134620000Y-77470000D03*
X132080000Y-77470000D03*
X129540000Y-77470000D03*
X127000000Y-77470000D03*
X124460000Y-77470000D03*
%TD*%
D13*
%TO.C,U1*%
X118530000Y-130155000D03*
X143040000Y-83205000D03*
X118530000Y-83205000D03*
D14*
X118110000Y-91165000D03*
D15*
X118110000Y-93705000D03*
X118110000Y-96245000D03*
X118110000Y-98785000D03*
X118110000Y-101325000D03*
X118110000Y-103865000D03*
X118110000Y-106405000D03*
X118110000Y-108945000D03*
X118110000Y-111485000D03*
X118110000Y-114025000D03*
X118110000Y-116565000D03*
X118110000Y-119105000D03*
X118110000Y-121645000D03*
X118110000Y-124185000D03*
X118110000Y-126725000D03*
X143510000Y-127000000D03*
X143510000Y-124460000D03*
X143510000Y-121645000D03*
X143510000Y-119105000D03*
X143510000Y-116565000D03*
X143510000Y-114025000D03*
X143510000Y-111485000D03*
X143510000Y-108945000D03*
X143510000Y-106405000D03*
X143510000Y-103865000D03*
X143510000Y-101325000D03*
X143510000Y-98785000D03*
X143510000Y-96245000D03*
X143510000Y-93705000D03*
X143510000Y-91165000D03*
%TD*%
D11*
%TO.C,J1*%
X125730000Y-135890000D03*
D12*
X128270000Y-135890000D03*
X130810000Y-135890000D03*
X133350000Y-135890000D03*
X135890000Y-135890000D03*
%TD*%
D11*
%TO.C,J3*%
X151130000Y-78740000D03*
D12*
X151130000Y-81280000D03*
X151130000Y-83820000D03*
X151130000Y-86360000D03*
X151130000Y-88900000D03*
X151130000Y-91440000D03*
X151130000Y-93980000D03*
X151130000Y-96520000D03*
X151130000Y-99060000D03*
X151130000Y-101600000D03*
X151130000Y-104140000D03*
X151130000Y-106680000D03*
X151130000Y-109220000D03*
X151130000Y-111760000D03*
X151130000Y-114300000D03*
X151130000Y-116840000D03*
X151130000Y-119380000D03*
X151130000Y-121920000D03*
X151130000Y-124460000D03*
X151130000Y-127000000D03*
X151130000Y-129540000D03*
%TD*%
D11*
%TO.C,J4*%
X144780000Y-77470000D03*
D12*
X142240000Y-77470000D03*
%TD*%
M02*
