%TF.GenerationSoftware,KiCad,Pcbnew,(6.0.8)*%
%TF.CreationDate,2022-11-23T11:07:29-05:00*%
%TF.ProjectId,lower_v3,6c6f7765-725f-4763-932e-6b696361645f,rev?*%
%TF.SameCoordinates,Original*%
%TF.FileFunction,Legend,Bot*%
%TF.FilePolarity,Positive*%
%FSLAX46Y46*%
G04 Gerber Fmt 4.6, Leading zero omitted, Abs format (unit mm)*
G04 Created by KiCad (PCBNEW (6.0.8)) date 2022-11-23 11:07:29*
%MOMM*%
%LPD*%
G01*
G04 APERTURE LIST*
%ADD10C,0.150000*%
%TA.AperFunction,Profile*%
%ADD11C,0.100000*%
%TD*%
G04 APERTURE END LIST*
D10*
X123142190Y-135215380D02*
X122523142Y-135215380D01*
X122856476Y-135596333D01*
X122713619Y-135596333D01*
X122618380Y-135643952D01*
X122570761Y-135691571D01*
X122523142Y-135786809D01*
X122523142Y-136024904D01*
X122570761Y-136120142D01*
X122618380Y-136167761D01*
X122713619Y-136215380D01*
X122999333Y-136215380D01*
X123094571Y-136167761D01*
X123142190Y-136120142D01*
X122094571Y-136120142D02*
X122046952Y-136167761D01*
X122094571Y-136215380D01*
X122142190Y-136167761D01*
X122094571Y-136120142D01*
X122094571Y-136215380D01*
X121713619Y-135215380D02*
X121094571Y-135215380D01*
X121427904Y-135596333D01*
X121285047Y-135596333D01*
X121189809Y-135643952D01*
X121142190Y-135691571D01*
X121094571Y-135786809D01*
X121094571Y-136024904D01*
X121142190Y-136120142D01*
X121189809Y-136167761D01*
X121285047Y-136215380D01*
X121570761Y-136215380D01*
X121666000Y-136167761D01*
X121713619Y-136120142D01*
X120808857Y-135215380D02*
X120475523Y-136215380D01*
X120142190Y-135215380D01*
X149224904Y-106180000D02*
X149320142Y-106132380D01*
X149463000Y-106132380D01*
X149605857Y-106180000D01*
X149701095Y-106275238D01*
X149748714Y-106370476D01*
X149796333Y-106560952D01*
X149796333Y-106703809D01*
X149748714Y-106894285D01*
X149701095Y-106989523D01*
X149605857Y-107084761D01*
X149463000Y-107132380D01*
X149367761Y-107132380D01*
X149224904Y-107084761D01*
X149177285Y-107037142D01*
X149177285Y-106703809D01*
X149367761Y-106703809D01*
X148748714Y-107132380D02*
X148748714Y-106132380D01*
X148177285Y-107132380D01*
X148177285Y-106132380D01*
X147701095Y-107132380D02*
X147701095Y-106132380D01*
X147463000Y-106132380D01*
X147320142Y-106180000D01*
X147224904Y-106275238D01*
X147177285Y-106370476D01*
X147129666Y-106560952D01*
X147129666Y-106703809D01*
X147177285Y-106894285D01*
X147224904Y-106989523D01*
X147320142Y-107084761D01*
X147463000Y-107132380D01*
X147701095Y-107132380D01*
X149224904Y-129167000D02*
X149320142Y-129119380D01*
X149463000Y-129119380D01*
X149605857Y-129167000D01*
X149701095Y-129262238D01*
X149748714Y-129357476D01*
X149796333Y-129547952D01*
X149796333Y-129690809D01*
X149748714Y-129881285D01*
X149701095Y-129976523D01*
X149605857Y-130071761D01*
X149463000Y-130119380D01*
X149367761Y-130119380D01*
X149224904Y-130071761D01*
X149177285Y-130024142D01*
X149177285Y-129690809D01*
X149367761Y-129690809D01*
X148748714Y-130119380D02*
X148748714Y-129119380D01*
X148177285Y-130119380D01*
X148177285Y-129119380D01*
X147701095Y-130119380D02*
X147701095Y-129119380D01*
X147463000Y-129119380D01*
X147320142Y-129167000D01*
X147224904Y-129262238D01*
X147177285Y-129357476D01*
X147129666Y-129547952D01*
X147129666Y-129690809D01*
X147177285Y-129881285D01*
X147224904Y-129976523D01*
X147320142Y-130071761D01*
X147463000Y-130119380D01*
X147701095Y-130119380D01*
X148780476Y-126198380D02*
X149256666Y-126198380D01*
X149304285Y-126674571D01*
X149256666Y-126626952D01*
X149161428Y-126579333D01*
X148923333Y-126579333D01*
X148828095Y-126626952D01*
X148780476Y-126674571D01*
X148732857Y-126769809D01*
X148732857Y-127007904D01*
X148780476Y-127103142D01*
X148828095Y-127150761D01*
X148923333Y-127198380D01*
X149161428Y-127198380D01*
X149256666Y-127150761D01*
X149304285Y-127103142D01*
X148447142Y-126198380D02*
X148113809Y-127198380D01*
X147780476Y-126198380D01*
X148653476Y-95464380D02*
X149129666Y-95464380D01*
X149177285Y-95940571D01*
X149129666Y-95892952D01*
X149034428Y-95845333D01*
X148796333Y-95845333D01*
X148701095Y-95892952D01*
X148653476Y-95940571D01*
X148605857Y-96035809D01*
X148605857Y-96273904D01*
X148653476Y-96369142D01*
X148701095Y-96416761D01*
X148796333Y-96464380D01*
X149034428Y-96464380D01*
X149129666Y-96416761D01*
X149177285Y-96369142D01*
X148320142Y-95464380D02*
X147986809Y-96464380D01*
X147653476Y-95464380D01*
X145224476Y-79335380D02*
X145700666Y-79335380D01*
X145748285Y-79811571D01*
X145700666Y-79763952D01*
X145605428Y-79716333D01*
X145367333Y-79716333D01*
X145272095Y-79763952D01*
X145224476Y-79811571D01*
X145176857Y-79906809D01*
X145176857Y-80144904D01*
X145224476Y-80240142D01*
X145272095Y-80287761D01*
X145367333Y-80335380D01*
X145605428Y-80335380D01*
X145700666Y-80287761D01*
X145748285Y-80240142D01*
X144891142Y-79335380D02*
X144557809Y-80335380D01*
X144224476Y-79335380D01*
X137604476Y-79335380D02*
X138080666Y-79335380D01*
X138128285Y-79811571D01*
X138080666Y-79763952D01*
X137985428Y-79716333D01*
X137747333Y-79716333D01*
X137652095Y-79763952D01*
X137604476Y-79811571D01*
X137556857Y-79906809D01*
X137556857Y-80144904D01*
X137604476Y-80240142D01*
X137652095Y-80287761D01*
X137747333Y-80335380D01*
X137985428Y-80335380D01*
X138080666Y-80287761D01*
X138128285Y-80240142D01*
X137271142Y-79335380D02*
X136937809Y-80335380D01*
X136604476Y-79335380D01*
X141350904Y-93226000D02*
X141446142Y-93178380D01*
X141589000Y-93178380D01*
X141731857Y-93226000D01*
X141827095Y-93321238D01*
X141874714Y-93416476D01*
X141922333Y-93606952D01*
X141922333Y-93749809D01*
X141874714Y-93940285D01*
X141827095Y-94035523D01*
X141731857Y-94130761D01*
X141589000Y-94178380D01*
X141493761Y-94178380D01*
X141350904Y-94130761D01*
X141303285Y-94083142D01*
X141303285Y-93749809D01*
X141493761Y-93749809D01*
X140874714Y-94178380D02*
X140874714Y-93178380D01*
X140303285Y-94178380D01*
X140303285Y-93178380D01*
X139827095Y-94178380D02*
X139827095Y-93178380D01*
X139589000Y-93178380D01*
X139446142Y-93226000D01*
X139350904Y-93321238D01*
X139303285Y-93416476D01*
X139255666Y-93606952D01*
X139255666Y-93749809D01*
X139303285Y-93940285D01*
X139350904Y-94035523D01*
X139446142Y-94130761D01*
X139589000Y-94178380D01*
X139827095Y-94178380D01*
X154050904Y-75700000D02*
X154146142Y-75652380D01*
X154289000Y-75652380D01*
X154431857Y-75700000D01*
X154527095Y-75795238D01*
X154574714Y-75890476D01*
X154622333Y-76080952D01*
X154622333Y-76223809D01*
X154574714Y-76414285D01*
X154527095Y-76509523D01*
X154431857Y-76604761D01*
X154289000Y-76652380D01*
X154193761Y-76652380D01*
X154050904Y-76604761D01*
X154003285Y-76557142D01*
X154003285Y-76223809D01*
X154193761Y-76223809D01*
X153574714Y-76652380D02*
X153574714Y-75652380D01*
X153003285Y-76652380D01*
X153003285Y-75652380D01*
X152527095Y-76652380D02*
X152527095Y-75652380D01*
X152289000Y-75652380D01*
X152146142Y-75700000D01*
X152050904Y-75795238D01*
X152003285Y-75890476D01*
X151955666Y-76080952D01*
X151955666Y-76223809D01*
X152003285Y-76414285D01*
X152050904Y-76509523D01*
X152146142Y-76604761D01*
X152289000Y-76652380D01*
X152527095Y-76652380D01*
X124713904Y-79383000D02*
X124809142Y-79335380D01*
X124952000Y-79335380D01*
X125094857Y-79383000D01*
X125190095Y-79478238D01*
X125237714Y-79573476D01*
X125285333Y-79763952D01*
X125285333Y-79906809D01*
X125237714Y-80097285D01*
X125190095Y-80192523D01*
X125094857Y-80287761D01*
X124952000Y-80335380D01*
X124856761Y-80335380D01*
X124713904Y-80287761D01*
X124666285Y-80240142D01*
X124666285Y-79906809D01*
X124856761Y-79906809D01*
X124237714Y-80335380D02*
X124237714Y-79335380D01*
X123666285Y-80335380D01*
X123666285Y-79335380D01*
X123190095Y-80335380D02*
X123190095Y-79335380D01*
X122952000Y-79335380D01*
X122809142Y-79383000D01*
X122713904Y-79478238D01*
X122666285Y-79573476D01*
X122618666Y-79763952D01*
X122618666Y-79906809D01*
X122666285Y-80097285D01*
X122713904Y-80192523D01*
X122809142Y-80287761D01*
X122952000Y-80335380D01*
X123190095Y-80335380D01*
D11*
X154940000Y-138430000D02*
X114300000Y-138430000D01*
X114300000Y-138430000D02*
X114300000Y-73660000D01*
X114300000Y-73660000D02*
X154940000Y-73660000D01*
X154940000Y-73660000D02*
X154940000Y-138430000D01*
M02*
