M48
INCH,TZ
T1C0.0394
T2C0.0402
%
G90
G05
T1
X49000Y-30500
X49500Y-53500
X50000Y-30500
X50500Y-53500
X51000Y-30500
X51500Y-53500
X52000Y-30500
X52500Y-53500
X53000Y-30500
X53500Y-53500
X54000Y-30500
X56000Y-30500
X57000Y-30500
X59500Y-31000
X59500Y-32000
X59500Y-33000
X59500Y-34000
X59500Y-35000
X59500Y-36000
X59500Y-37000
X59500Y-38000
X59500Y-39000
X59500Y-40000
X59500Y-41000
X59500Y-42000
X59500Y-43000
X59500Y-44000
X59500Y-45000
X59500Y-46000
X59500Y-47000
X59500Y-48000
X59500Y-49000
X59500Y-50000
X59500Y-51000
T2
X46500Y-35892
X46500Y-36892
X46500Y-37892
X46500Y-38892
X46500Y-39892
X46500Y-40892
X46500Y-41892
X46500Y-42892
X46500Y-43892
X46500Y-44892
X46500Y-45892
X46500Y-46892
X46500Y-47892
X46500Y-48892
X46500Y-49892
X56500Y-35892
X56500Y-36892
X56500Y-37892
X56500Y-38892
X56500Y-39892
X56500Y-40892
X56500Y-41892
X56500Y-42892
X56500Y-43892
X56500Y-44892
X56500Y-45892
X56500Y-46892
X56500Y-47892
X56500Y-49000
X56500Y-50000
T0
M30
