%TF.GenerationSoftware,KiCad,Pcbnew,(6.0.8)*%
%TF.CreationDate,2022-11-23T10:53:18-05:00*%
%TF.ProjectId,upper_v3,75707065-725f-4763-932e-6b696361645f,rev?*%
%TF.SameCoordinates,Original*%
%TF.FileFunction,Legend,Top*%
%TF.FilePolarity,Positive*%
%FSLAX46Y46*%
G04 Gerber Fmt 4.6, Leading zero omitted, Abs format (unit mm)*
G04 Created by KiCad (PCBNEW (6.0.8)) date 2022-11-23 10:53:18*
%MOMM*%
%LPD*%
G01*
G04 APERTURE LIST*
%ADD10C,0.150000*%
%ADD11C,0.300000*%
%ADD12C,0.125000*%
%ADD13C,0.120000*%
G04 APERTURE END LIST*
D10*
X138874523Y-60412380D02*
X138398333Y-60412380D01*
X138350714Y-60888571D01*
X138398333Y-60840952D01*
X138493571Y-60793333D01*
X138731666Y-60793333D01*
X138826904Y-60840952D01*
X138874523Y-60888571D01*
X138922142Y-60983809D01*
X138922142Y-61221904D01*
X138874523Y-61317142D01*
X138826904Y-61364761D01*
X138731666Y-61412380D01*
X138493571Y-61412380D01*
X138398333Y-61364761D01*
X138350714Y-61317142D01*
X139207857Y-60412380D02*
X139541190Y-61412380D01*
X139874523Y-60412380D01*
X125603095Y-60460000D02*
X125507857Y-60412380D01*
X125365000Y-60412380D01*
X125222142Y-60460000D01*
X125126904Y-60555238D01*
X125079285Y-60650476D01*
X125031666Y-60840952D01*
X125031666Y-60983809D01*
X125079285Y-61174285D01*
X125126904Y-61269523D01*
X125222142Y-61364761D01*
X125365000Y-61412380D01*
X125460238Y-61412380D01*
X125603095Y-61364761D01*
X125650714Y-61317142D01*
X125650714Y-60983809D01*
X125460238Y-60983809D01*
X126079285Y-61412380D02*
X126079285Y-60412380D01*
X126650714Y-61412380D01*
X126650714Y-60412380D01*
X127126904Y-61412380D02*
X127126904Y-60412380D01*
X127365000Y-60412380D01*
X127507857Y-60460000D01*
X127603095Y-60555238D01*
X127650714Y-60650476D01*
X127698333Y-60840952D01*
X127698333Y-60983809D01*
X127650714Y-61174285D01*
X127603095Y-61269523D01*
X127507857Y-61364761D01*
X127365000Y-61412380D01*
X127126904Y-61412380D01*
X126158809Y-123912380D02*
X126777857Y-123912380D01*
X126444523Y-124293333D01*
X126587380Y-124293333D01*
X126682619Y-124340952D01*
X126730238Y-124388571D01*
X126777857Y-124483809D01*
X126777857Y-124721904D01*
X126730238Y-124817142D01*
X126682619Y-124864761D01*
X126587380Y-124912380D01*
X126301666Y-124912380D01*
X126206428Y-124864761D01*
X126158809Y-124817142D01*
X127206428Y-124817142D02*
X127254047Y-124864761D01*
X127206428Y-124912380D01*
X127158809Y-124864761D01*
X127206428Y-124817142D01*
X127206428Y-124912380D01*
X127587380Y-123912380D02*
X128206428Y-123912380D01*
X127873095Y-124293333D01*
X128015952Y-124293333D01*
X128111190Y-124340952D01*
X128158809Y-124388571D01*
X128206428Y-124483809D01*
X128206428Y-124721904D01*
X128158809Y-124817142D01*
X128111190Y-124864761D01*
X128015952Y-124912380D01*
X127730238Y-124912380D01*
X127635000Y-124864761D01*
X127587380Y-124817142D01*
X128492142Y-123912380D02*
X128825476Y-124912380D01*
X129158809Y-123912380D01*
X147764523Y-56602380D02*
X147288333Y-56602380D01*
X147240714Y-57078571D01*
X147288333Y-57030952D01*
X147383571Y-56983333D01*
X147621666Y-56983333D01*
X147716904Y-57030952D01*
X147764523Y-57078571D01*
X147812142Y-57173809D01*
X147812142Y-57411904D01*
X147764523Y-57507142D01*
X147716904Y-57554761D01*
X147621666Y-57602380D01*
X147383571Y-57602380D01*
X147288333Y-57554761D01*
X147240714Y-57507142D01*
X148097857Y-56602380D02*
X148431190Y-57602380D01*
X148764523Y-56602380D01*
X119189523Y-75652380D02*
X118713333Y-75652380D01*
X118665714Y-76128571D01*
X118713333Y-76080952D01*
X118808571Y-76033333D01*
X119046666Y-76033333D01*
X119141904Y-76080952D01*
X119189523Y-76128571D01*
X119237142Y-76223809D01*
X119237142Y-76461904D01*
X119189523Y-76557142D01*
X119141904Y-76604761D01*
X119046666Y-76652380D01*
X118808571Y-76652380D01*
X118713333Y-76604761D01*
X118665714Y-76557142D01*
X119522857Y-75652380D02*
X119856190Y-76652380D01*
X120189523Y-75652380D01*
D11*
X120170000Y-59098571D02*
X119670000Y-58384285D01*
X119312857Y-59098571D02*
X119312857Y-57598571D01*
X119884285Y-57598571D01*
X120027142Y-57670000D01*
X120098571Y-57741428D01*
X120170000Y-57884285D01*
X120170000Y-58098571D01*
X120098571Y-58241428D01*
X120027142Y-58312857D01*
X119884285Y-58384285D01*
X119312857Y-58384285D01*
X121384285Y-59027142D02*
X121241428Y-59098571D01*
X120955714Y-59098571D01*
X120812857Y-59027142D01*
X120741428Y-58884285D01*
X120741428Y-58312857D01*
X120812857Y-58170000D01*
X120955714Y-58098571D01*
X121241428Y-58098571D01*
X121384285Y-58170000D01*
X121455714Y-58312857D01*
X121455714Y-58455714D01*
X120741428Y-58598571D01*
X121955714Y-58098571D02*
X122312857Y-59098571D01*
X122670000Y-58098571D01*
X123241428Y-58955714D02*
X123312857Y-59027142D01*
X123241428Y-59098571D01*
X123170000Y-59027142D01*
X123241428Y-58955714D01*
X123241428Y-59098571D01*
X123884285Y-58670000D02*
X124598571Y-58670000D01*
X123741428Y-59098571D02*
X124241428Y-57598571D01*
X124741428Y-59098571D01*
D10*
X139509523Y-75652380D02*
X139033333Y-75652380D01*
X138985714Y-76128571D01*
X139033333Y-76080952D01*
X139128571Y-76033333D01*
X139366666Y-76033333D01*
X139461904Y-76080952D01*
X139509523Y-76128571D01*
X139557142Y-76223809D01*
X139557142Y-76461904D01*
X139509523Y-76557142D01*
X139461904Y-76604761D01*
X139366666Y-76652380D01*
X139128571Y-76652380D01*
X139033333Y-76604761D01*
X138985714Y-76557142D01*
X139842857Y-75652380D02*
X140176190Y-76652380D01*
X140509523Y-75652380D01*
D12*
X126095238Y-76426190D02*
X126095238Y-75926190D01*
X126214285Y-75926190D01*
X126285714Y-75950000D01*
X126333333Y-75997619D01*
X126357142Y-76045238D01*
X126380952Y-76140476D01*
X126380952Y-76211904D01*
X126357142Y-76307142D01*
X126333333Y-76354761D01*
X126285714Y-76402380D01*
X126214285Y-76426190D01*
X126095238Y-76426190D01*
X126690476Y-75926190D02*
X126785714Y-75926190D01*
X126833333Y-75950000D01*
X126880952Y-75997619D01*
X126904761Y-76092857D01*
X126904761Y-76259523D01*
X126880952Y-76354761D01*
X126833333Y-76402380D01*
X126785714Y-76426190D01*
X126690476Y-76426190D01*
X126642857Y-76402380D01*
X126595238Y-76354761D01*
X126571428Y-76259523D01*
X126571428Y-76092857D01*
X126595238Y-75997619D01*
X126642857Y-75950000D01*
X126690476Y-75926190D01*
X127119047Y-76426190D02*
X127119047Y-75926190D01*
X127285714Y-76283333D01*
X127452380Y-75926190D01*
X127452380Y-76426190D01*
X127690476Y-76164285D02*
X127857142Y-76164285D01*
X127928571Y-76426190D02*
X127690476Y-76426190D01*
X127690476Y-75926190D01*
X127928571Y-75926190D01*
D10*
X141478095Y-75700000D02*
X141382857Y-75652380D01*
X141240000Y-75652380D01*
X141097142Y-75700000D01*
X141001904Y-75795238D01*
X140954285Y-75890476D01*
X140906666Y-76080952D01*
X140906666Y-76223809D01*
X140954285Y-76414285D01*
X141001904Y-76509523D01*
X141097142Y-76604761D01*
X141240000Y-76652380D01*
X141335238Y-76652380D01*
X141478095Y-76604761D01*
X141525714Y-76557142D01*
X141525714Y-76223809D01*
X141335238Y-76223809D01*
X141954285Y-76652380D02*
X141954285Y-75652380D01*
X142525714Y-76652380D01*
X142525714Y-75652380D01*
X143001904Y-76652380D02*
X143001904Y-75652380D01*
X143240000Y-75652380D01*
X143382857Y-75700000D01*
X143478095Y-75795238D01*
X143525714Y-75890476D01*
X143573333Y-76080952D01*
X143573333Y-76223809D01*
X143525714Y-76414285D01*
X143478095Y-76509523D01*
X143382857Y-76604761D01*
X143240000Y-76652380D01*
X143001904Y-76652380D01*
X121158095Y-75700000D02*
X121062857Y-75652380D01*
X120920000Y-75652380D01*
X120777142Y-75700000D01*
X120681904Y-75795238D01*
X120634285Y-75890476D01*
X120586666Y-76080952D01*
X120586666Y-76223809D01*
X120634285Y-76414285D01*
X120681904Y-76509523D01*
X120777142Y-76604761D01*
X120920000Y-76652380D01*
X121015238Y-76652380D01*
X121158095Y-76604761D01*
X121205714Y-76557142D01*
X121205714Y-76223809D01*
X121015238Y-76223809D01*
X121634285Y-76652380D02*
X121634285Y-75652380D01*
X122205714Y-76652380D01*
X122205714Y-75652380D01*
X122681904Y-76652380D02*
X122681904Y-75652380D01*
X122920000Y-75652380D01*
X123062857Y-75700000D01*
X123158095Y-75795238D01*
X123205714Y-75890476D01*
X123253333Y-76080952D01*
X123253333Y-76223809D01*
X123205714Y-76414285D01*
X123158095Y-76509523D01*
X123062857Y-76604761D01*
X122920000Y-76652380D01*
X122681904Y-76652380D01*
D12*
X133715238Y-76426190D02*
X133715238Y-75926190D01*
X133834285Y-75926190D01*
X133905714Y-75950000D01*
X133953333Y-75997619D01*
X133977142Y-76045238D01*
X134000952Y-76140476D01*
X134000952Y-76211904D01*
X133977142Y-76307142D01*
X133953333Y-76354761D01*
X133905714Y-76402380D01*
X133834285Y-76426190D01*
X133715238Y-76426190D01*
X134310476Y-75926190D02*
X134405714Y-75926190D01*
X134453333Y-75950000D01*
X134500952Y-75997619D01*
X134524761Y-76092857D01*
X134524761Y-76259523D01*
X134500952Y-76354761D01*
X134453333Y-76402380D01*
X134405714Y-76426190D01*
X134310476Y-76426190D01*
X134262857Y-76402380D01*
X134215238Y-76354761D01*
X134191428Y-76259523D01*
X134191428Y-76092857D01*
X134215238Y-75997619D01*
X134262857Y-75950000D01*
X134310476Y-75926190D01*
X134739047Y-76426190D02*
X134739047Y-75926190D01*
X134905714Y-76283333D01*
X135072380Y-75926190D01*
X135072380Y-76426190D01*
X135310476Y-76164285D02*
X135477142Y-76164285D01*
X135548571Y-76426190D02*
X135310476Y-76426190D01*
X135310476Y-75926190D01*
X135548571Y-75926190D01*
D10*
%TO.C,10*%
X119138095Y-81854523D02*
X118412380Y-81854523D01*
X118775238Y-81854523D02*
X118775238Y-80584523D01*
X118654285Y-80765952D01*
X118533333Y-80886904D01*
X118412380Y-80947380D01*
X119924285Y-80584523D02*
X120045238Y-80584523D01*
X120166190Y-80645000D01*
X120226666Y-80705476D01*
X120287142Y-80826428D01*
X120347619Y-81068333D01*
X120347619Y-81370714D01*
X120287142Y-81612619D01*
X120226666Y-81733571D01*
X120166190Y-81794047D01*
X120045238Y-81854523D01*
X119924285Y-81854523D01*
X119803333Y-81794047D01*
X119742857Y-81733571D01*
X119682380Y-81612619D01*
X119621904Y-81370714D01*
X119621904Y-81068333D01*
X119682380Y-80826428D01*
X119742857Y-80705476D01*
X119803333Y-80645000D01*
X119924285Y-80584523D01*
%TO.C,106*%
X133773333Y-104714523D02*
X133047619Y-104714523D01*
X133410476Y-104714523D02*
X133410476Y-103444523D01*
X133289523Y-103625952D01*
X133168571Y-103746904D01*
X133047619Y-103807380D01*
X134559523Y-103444523D02*
X134680476Y-103444523D01*
X134801428Y-103505000D01*
X134861904Y-103565476D01*
X134922380Y-103686428D01*
X134982857Y-103928333D01*
X134982857Y-104230714D01*
X134922380Y-104472619D01*
X134861904Y-104593571D01*
X134801428Y-104654047D01*
X134680476Y-104714523D01*
X134559523Y-104714523D01*
X134438571Y-104654047D01*
X134378095Y-104593571D01*
X134317619Y-104472619D01*
X134257142Y-104230714D01*
X134257142Y-103928333D01*
X134317619Y-103686428D01*
X134378095Y-103565476D01*
X134438571Y-103505000D01*
X134559523Y-103444523D01*
X136071428Y-103444523D02*
X135829523Y-103444523D01*
X135708571Y-103505000D01*
X135648095Y-103565476D01*
X135527142Y-103746904D01*
X135466666Y-103988809D01*
X135466666Y-104472619D01*
X135527142Y-104593571D01*
X135587619Y-104654047D01*
X135708571Y-104714523D01*
X135950476Y-104714523D01*
X136071428Y-104654047D01*
X136131904Y-104593571D01*
X136192380Y-104472619D01*
X136192380Y-104170238D01*
X136131904Y-104049285D01*
X136071428Y-103988809D01*
X135950476Y-103928333D01*
X135708571Y-103928333D01*
X135587619Y-103988809D01*
X135527142Y-104049285D01*
X135466666Y-104170238D01*
%TO.C,148*%
X138853333Y-114874523D02*
X138127619Y-114874523D01*
X138490476Y-114874523D02*
X138490476Y-113604523D01*
X138369523Y-113785952D01*
X138248571Y-113906904D01*
X138127619Y-113967380D01*
X139941904Y-114027857D02*
X139941904Y-114874523D01*
X139639523Y-113544047D02*
X139337142Y-114451190D01*
X140123333Y-114451190D01*
X140788571Y-114148809D02*
X140667619Y-114088333D01*
X140607142Y-114027857D01*
X140546666Y-113906904D01*
X140546666Y-113846428D01*
X140607142Y-113725476D01*
X140667619Y-113665000D01*
X140788571Y-113604523D01*
X141030476Y-113604523D01*
X141151428Y-113665000D01*
X141211904Y-113725476D01*
X141272380Y-113846428D01*
X141272380Y-113906904D01*
X141211904Y-114027857D01*
X141151428Y-114088333D01*
X141030476Y-114148809D01*
X140788571Y-114148809D01*
X140667619Y-114209285D01*
X140607142Y-114269761D01*
X140546666Y-114390714D01*
X140546666Y-114632619D01*
X140607142Y-114753571D01*
X140667619Y-114814047D01*
X140788571Y-114874523D01*
X141030476Y-114874523D01*
X141151428Y-114814047D01*
X141211904Y-114753571D01*
X141272380Y-114632619D01*
X141272380Y-114390714D01*
X141211904Y-114269761D01*
X141151428Y-114209285D01*
X141030476Y-114148809D01*
%TO.C,114*%
X128693333Y-107254523D02*
X127967619Y-107254523D01*
X128330476Y-107254523D02*
X128330476Y-105984523D01*
X128209523Y-106165952D01*
X128088571Y-106286904D01*
X127967619Y-106347380D01*
X129902857Y-107254523D02*
X129177142Y-107254523D01*
X129540000Y-107254523D02*
X129540000Y-105984523D01*
X129419047Y-106165952D01*
X129298095Y-106286904D01*
X129177142Y-106347380D01*
X130991428Y-106407857D02*
X130991428Y-107254523D01*
X130689047Y-105924047D02*
X130386666Y-106831190D01*
X131172857Y-106831190D01*
%TO.C,103*%
X126153333Y-104714523D02*
X125427619Y-104714523D01*
X125790476Y-104714523D02*
X125790476Y-103444523D01*
X125669523Y-103625952D01*
X125548571Y-103746904D01*
X125427619Y-103807380D01*
X126939523Y-103444523D02*
X127060476Y-103444523D01*
X127181428Y-103505000D01*
X127241904Y-103565476D01*
X127302380Y-103686428D01*
X127362857Y-103928333D01*
X127362857Y-104230714D01*
X127302380Y-104472619D01*
X127241904Y-104593571D01*
X127181428Y-104654047D01*
X127060476Y-104714523D01*
X126939523Y-104714523D01*
X126818571Y-104654047D01*
X126758095Y-104593571D01*
X126697619Y-104472619D01*
X126637142Y-104230714D01*
X126637142Y-103928333D01*
X126697619Y-103686428D01*
X126758095Y-103565476D01*
X126818571Y-103505000D01*
X126939523Y-103444523D01*
X127786190Y-103444523D02*
X128572380Y-103444523D01*
X128149047Y-103928333D01*
X128330476Y-103928333D01*
X128451428Y-103988809D01*
X128511904Y-104049285D01*
X128572380Y-104170238D01*
X128572380Y-104472619D01*
X128511904Y-104593571D01*
X128451428Y-104654047D01*
X128330476Y-104714523D01*
X127967619Y-104714523D01*
X127846666Y-104654047D01*
X127786190Y-104593571D01*
%TO.C,135*%
X131233333Y-112334523D02*
X130507619Y-112334523D01*
X130870476Y-112334523D02*
X130870476Y-111064523D01*
X130749523Y-111245952D01*
X130628571Y-111366904D01*
X130507619Y-111427380D01*
X131656666Y-111064523D02*
X132442857Y-111064523D01*
X132019523Y-111548333D01*
X132200952Y-111548333D01*
X132321904Y-111608809D01*
X132382380Y-111669285D01*
X132442857Y-111790238D01*
X132442857Y-112092619D01*
X132382380Y-112213571D01*
X132321904Y-112274047D01*
X132200952Y-112334523D01*
X131838095Y-112334523D01*
X131717142Y-112274047D01*
X131656666Y-112213571D01*
X133591904Y-111064523D02*
X132987142Y-111064523D01*
X132926666Y-111669285D01*
X132987142Y-111608809D01*
X133108095Y-111548333D01*
X133410476Y-111548333D01*
X133531428Y-111608809D01*
X133591904Y-111669285D01*
X133652380Y-111790238D01*
X133652380Y-112092619D01*
X133591904Y-112213571D01*
X133531428Y-112274047D01*
X133410476Y-112334523D01*
X133108095Y-112334523D01*
X132987142Y-112274047D01*
X132926666Y-112213571D01*
%TO.C,18*%
X139458095Y-81854523D02*
X138732380Y-81854523D01*
X139095238Y-81854523D02*
X139095238Y-80584523D01*
X138974285Y-80765952D01*
X138853333Y-80886904D01*
X138732380Y-80947380D01*
X140183809Y-81128809D02*
X140062857Y-81068333D01*
X140002380Y-81007857D01*
X139941904Y-80886904D01*
X139941904Y-80826428D01*
X140002380Y-80705476D01*
X140062857Y-80645000D01*
X140183809Y-80584523D01*
X140425714Y-80584523D01*
X140546666Y-80645000D01*
X140607142Y-80705476D01*
X140667619Y-80826428D01*
X140667619Y-80886904D01*
X140607142Y-81007857D01*
X140546666Y-81068333D01*
X140425714Y-81128809D01*
X140183809Y-81128809D01*
X140062857Y-81189285D01*
X140002380Y-81249761D01*
X139941904Y-81370714D01*
X139941904Y-81612619D01*
X140002380Y-81733571D01*
X140062857Y-81794047D01*
X140183809Y-81854523D01*
X140425714Y-81854523D01*
X140546666Y-81794047D01*
X140607142Y-81733571D01*
X140667619Y-81612619D01*
X140667619Y-81370714D01*
X140607142Y-81249761D01*
X140546666Y-81189285D01*
X140425714Y-81128809D01*
%TO.C,112*%
X123613333Y-107254523D02*
X122887619Y-107254523D01*
X123250476Y-107254523D02*
X123250476Y-105984523D01*
X123129523Y-106165952D01*
X123008571Y-106286904D01*
X122887619Y-106347380D01*
X124822857Y-107254523D02*
X124097142Y-107254523D01*
X124460000Y-107254523D02*
X124460000Y-105984523D01*
X124339047Y-106165952D01*
X124218095Y-106286904D01*
X124097142Y-106347380D01*
X125306666Y-106105476D02*
X125367142Y-106045000D01*
X125488095Y-105984523D01*
X125790476Y-105984523D01*
X125911428Y-106045000D01*
X125971904Y-106105476D01*
X126032380Y-106226428D01*
X126032380Y-106347380D01*
X125971904Y-106528809D01*
X125246190Y-107254523D01*
X126032380Y-107254523D01*
%TO.C,142*%
X123613333Y-114874523D02*
X122887619Y-114874523D01*
X123250476Y-114874523D02*
X123250476Y-113604523D01*
X123129523Y-113785952D01*
X123008571Y-113906904D01*
X122887619Y-113967380D01*
X124701904Y-114027857D02*
X124701904Y-114874523D01*
X124399523Y-113544047D02*
X124097142Y-114451190D01*
X124883333Y-114451190D01*
X125306666Y-113725476D02*
X125367142Y-113665000D01*
X125488095Y-113604523D01*
X125790476Y-113604523D01*
X125911428Y-113665000D01*
X125971904Y-113725476D01*
X126032380Y-113846428D01*
X126032380Y-113967380D01*
X125971904Y-114148809D01*
X125246190Y-114874523D01*
X126032380Y-114874523D01*
%TO.C,124*%
X128693333Y-109794523D02*
X127967619Y-109794523D01*
X128330476Y-109794523D02*
X128330476Y-108524523D01*
X128209523Y-108705952D01*
X128088571Y-108826904D01*
X127967619Y-108887380D01*
X129177142Y-108645476D02*
X129237619Y-108585000D01*
X129358571Y-108524523D01*
X129660952Y-108524523D01*
X129781904Y-108585000D01*
X129842380Y-108645476D01*
X129902857Y-108766428D01*
X129902857Y-108887380D01*
X129842380Y-109068809D01*
X129116666Y-109794523D01*
X129902857Y-109794523D01*
X130991428Y-108947857D02*
X130991428Y-109794523D01*
X130689047Y-108464047D02*
X130386666Y-109371190D01*
X131172857Y-109371190D01*
%TO.C,59*%
X141937619Y-90744523D02*
X141332857Y-90744523D01*
X141272380Y-91349285D01*
X141332857Y-91288809D01*
X141453809Y-91228333D01*
X141756190Y-91228333D01*
X141877142Y-91288809D01*
X141937619Y-91349285D01*
X141998095Y-91470238D01*
X141998095Y-91772619D01*
X141937619Y-91893571D01*
X141877142Y-91954047D01*
X141756190Y-92014523D01*
X141453809Y-92014523D01*
X141332857Y-91954047D01*
X141272380Y-91893571D01*
X142602857Y-92014523D02*
X142844761Y-92014523D01*
X142965714Y-91954047D01*
X143026190Y-91893571D01*
X143147142Y-91712142D01*
X143207619Y-91470238D01*
X143207619Y-90986428D01*
X143147142Y-90865476D01*
X143086666Y-90805000D01*
X142965714Y-90744523D01*
X142723809Y-90744523D01*
X142602857Y-90805000D01*
X142542380Y-90865476D01*
X142481904Y-90986428D01*
X142481904Y-91288809D01*
X142542380Y-91409761D01*
X142602857Y-91470238D01*
X142723809Y-91530714D01*
X142965714Y-91530714D01*
X143086666Y-91470238D01*
X143147142Y-91409761D01*
X143207619Y-91288809D01*
%TO.C,69*%
X141877142Y-93284523D02*
X141635238Y-93284523D01*
X141514285Y-93345000D01*
X141453809Y-93405476D01*
X141332857Y-93586904D01*
X141272380Y-93828809D01*
X141272380Y-94312619D01*
X141332857Y-94433571D01*
X141393333Y-94494047D01*
X141514285Y-94554523D01*
X141756190Y-94554523D01*
X141877142Y-94494047D01*
X141937619Y-94433571D01*
X141998095Y-94312619D01*
X141998095Y-94010238D01*
X141937619Y-93889285D01*
X141877142Y-93828809D01*
X141756190Y-93768333D01*
X141514285Y-93768333D01*
X141393333Y-93828809D01*
X141332857Y-93889285D01*
X141272380Y-94010238D01*
X142602857Y-94554523D02*
X142844761Y-94554523D01*
X142965714Y-94494047D01*
X143026190Y-94433571D01*
X143147142Y-94252142D01*
X143207619Y-94010238D01*
X143207619Y-93526428D01*
X143147142Y-93405476D01*
X143086666Y-93345000D01*
X142965714Y-93284523D01*
X142723809Y-93284523D01*
X142602857Y-93345000D01*
X142542380Y-93405476D01*
X142481904Y-93526428D01*
X142481904Y-93828809D01*
X142542380Y-93949761D01*
X142602857Y-94010238D01*
X142723809Y-94070714D01*
X142965714Y-94070714D01*
X143086666Y-94010238D01*
X143147142Y-93949761D01*
X143207619Y-93828809D01*
%TO.C,113*%
X126153333Y-107254523D02*
X125427619Y-107254523D01*
X125790476Y-107254523D02*
X125790476Y-105984523D01*
X125669523Y-106165952D01*
X125548571Y-106286904D01*
X125427619Y-106347380D01*
X127362857Y-107254523D02*
X126637142Y-107254523D01*
X127000000Y-107254523D02*
X127000000Y-105984523D01*
X126879047Y-106165952D01*
X126758095Y-106286904D01*
X126637142Y-106347380D01*
X127786190Y-105984523D02*
X128572380Y-105984523D01*
X128149047Y-106468333D01*
X128330476Y-106468333D01*
X128451428Y-106528809D01*
X128511904Y-106589285D01*
X128572380Y-106710238D01*
X128572380Y-107012619D01*
X128511904Y-107133571D01*
X128451428Y-107194047D01*
X128330476Y-107254523D01*
X127967619Y-107254523D01*
X127846666Y-107194047D01*
X127786190Y-107133571D01*
%TO.C,146*%
X133773333Y-114874523D02*
X133047619Y-114874523D01*
X133410476Y-114874523D02*
X133410476Y-113604523D01*
X133289523Y-113785952D01*
X133168571Y-113906904D01*
X133047619Y-113967380D01*
X134861904Y-114027857D02*
X134861904Y-114874523D01*
X134559523Y-113544047D02*
X134257142Y-114451190D01*
X135043333Y-114451190D01*
X136071428Y-113604523D02*
X135829523Y-113604523D01*
X135708571Y-113665000D01*
X135648095Y-113725476D01*
X135527142Y-113906904D01*
X135466666Y-114148809D01*
X135466666Y-114632619D01*
X135527142Y-114753571D01*
X135587619Y-114814047D01*
X135708571Y-114874523D01*
X135950476Y-114874523D01*
X136071428Y-114814047D01*
X136131904Y-114753571D01*
X136192380Y-114632619D01*
X136192380Y-114330238D01*
X136131904Y-114209285D01*
X136071428Y-114148809D01*
X135950476Y-114088333D01*
X135708571Y-114088333D01*
X135587619Y-114148809D01*
X135527142Y-114209285D01*
X135466666Y-114330238D01*
%TO.C,J2*%
X116502380Y-73993333D02*
X117216666Y-73993333D01*
X117359523Y-74040952D01*
X117454761Y-74136190D01*
X117502380Y-74279047D01*
X117502380Y-74374285D01*
X116597619Y-73564761D02*
X116550000Y-73517142D01*
X116502380Y-73421904D01*
X116502380Y-73183809D01*
X116550000Y-73088571D01*
X116597619Y-73040952D01*
X116692857Y-72993333D01*
X116788095Y-72993333D01*
X116930952Y-73040952D01*
X117502380Y-73612380D01*
X117502380Y-72993333D01*
%TO.C,108*%
X138853333Y-104714523D02*
X138127619Y-104714523D01*
X138490476Y-104714523D02*
X138490476Y-103444523D01*
X138369523Y-103625952D01*
X138248571Y-103746904D01*
X138127619Y-103807380D01*
X139639523Y-103444523D02*
X139760476Y-103444523D01*
X139881428Y-103505000D01*
X139941904Y-103565476D01*
X140002380Y-103686428D01*
X140062857Y-103928333D01*
X140062857Y-104230714D01*
X140002380Y-104472619D01*
X139941904Y-104593571D01*
X139881428Y-104654047D01*
X139760476Y-104714523D01*
X139639523Y-104714523D01*
X139518571Y-104654047D01*
X139458095Y-104593571D01*
X139397619Y-104472619D01*
X139337142Y-104230714D01*
X139337142Y-103928333D01*
X139397619Y-103686428D01*
X139458095Y-103565476D01*
X139518571Y-103505000D01*
X139639523Y-103444523D01*
X140788571Y-103988809D02*
X140667619Y-103928333D01*
X140607142Y-103867857D01*
X140546666Y-103746904D01*
X140546666Y-103686428D01*
X140607142Y-103565476D01*
X140667619Y-103505000D01*
X140788571Y-103444523D01*
X141030476Y-103444523D01*
X141151428Y-103505000D01*
X141211904Y-103565476D01*
X141272380Y-103686428D01*
X141272380Y-103746904D01*
X141211904Y-103867857D01*
X141151428Y-103928333D01*
X141030476Y-103988809D01*
X140788571Y-103988809D01*
X140667619Y-104049285D01*
X140607142Y-104109761D01*
X140546666Y-104230714D01*
X140546666Y-104472619D01*
X140607142Y-104593571D01*
X140667619Y-104654047D01*
X140788571Y-104714523D01*
X141030476Y-104714523D01*
X141151428Y-104654047D01*
X141211904Y-104593571D01*
X141272380Y-104472619D01*
X141272380Y-104230714D01*
X141211904Y-104109761D01*
X141151428Y-104049285D01*
X141030476Y-103988809D01*
%TO.C,42*%
X124097142Y-88627857D02*
X124097142Y-89474523D01*
X123794761Y-88144047D02*
X123492380Y-89051190D01*
X124278571Y-89051190D01*
X124701904Y-88325476D02*
X124762380Y-88265000D01*
X124883333Y-88204523D01*
X125185714Y-88204523D01*
X125306666Y-88265000D01*
X125367142Y-88325476D01*
X125427619Y-88446428D01*
X125427619Y-88567380D01*
X125367142Y-88748809D01*
X124641428Y-89474523D01*
X125427619Y-89474523D01*
%TO.C,3*%
X126576666Y-78044523D02*
X127362857Y-78044523D01*
X126939523Y-78528333D01*
X127120952Y-78528333D01*
X127241904Y-78588809D01*
X127302380Y-78649285D01*
X127362857Y-78770238D01*
X127362857Y-79072619D01*
X127302380Y-79193571D01*
X127241904Y-79254047D01*
X127120952Y-79314523D01*
X126758095Y-79314523D01*
X126637142Y-79254047D01*
X126576666Y-79193571D01*
%TO.C,81*%
X121194285Y-98908809D02*
X121073333Y-98848333D01*
X121012857Y-98787857D01*
X120952380Y-98666904D01*
X120952380Y-98606428D01*
X121012857Y-98485476D01*
X121073333Y-98425000D01*
X121194285Y-98364523D01*
X121436190Y-98364523D01*
X121557142Y-98425000D01*
X121617619Y-98485476D01*
X121678095Y-98606428D01*
X121678095Y-98666904D01*
X121617619Y-98787857D01*
X121557142Y-98848333D01*
X121436190Y-98908809D01*
X121194285Y-98908809D01*
X121073333Y-98969285D01*
X121012857Y-99029761D01*
X120952380Y-99150714D01*
X120952380Y-99392619D01*
X121012857Y-99513571D01*
X121073333Y-99574047D01*
X121194285Y-99634523D01*
X121436190Y-99634523D01*
X121557142Y-99574047D01*
X121617619Y-99513571D01*
X121678095Y-99392619D01*
X121678095Y-99150714D01*
X121617619Y-99029761D01*
X121557142Y-98969285D01*
X121436190Y-98908809D01*
X122887619Y-99634523D02*
X122161904Y-99634523D01*
X122524761Y-99634523D02*
X122524761Y-98364523D01*
X122403809Y-98545952D01*
X122282857Y-98666904D01*
X122161904Y-98727380D01*
%TO.C,126*%
X133773333Y-109794523D02*
X133047619Y-109794523D01*
X133410476Y-109794523D02*
X133410476Y-108524523D01*
X133289523Y-108705952D01*
X133168571Y-108826904D01*
X133047619Y-108887380D01*
X134257142Y-108645476D02*
X134317619Y-108585000D01*
X134438571Y-108524523D01*
X134740952Y-108524523D01*
X134861904Y-108585000D01*
X134922380Y-108645476D01*
X134982857Y-108766428D01*
X134982857Y-108887380D01*
X134922380Y-109068809D01*
X134196666Y-109794523D01*
X134982857Y-109794523D01*
X136071428Y-108524523D02*
X135829523Y-108524523D01*
X135708571Y-108585000D01*
X135648095Y-108645476D01*
X135527142Y-108826904D01*
X135466666Y-109068809D01*
X135466666Y-109552619D01*
X135527142Y-109673571D01*
X135587619Y-109734047D01*
X135708571Y-109794523D01*
X135950476Y-109794523D01*
X136071428Y-109734047D01*
X136131904Y-109673571D01*
X136192380Y-109552619D01*
X136192380Y-109250238D01*
X136131904Y-109129285D01*
X136071428Y-109068809D01*
X135950476Y-109008333D01*
X135708571Y-109008333D01*
X135587619Y-109068809D01*
X135527142Y-109129285D01*
X135466666Y-109250238D01*
%TO.C,52*%
X124157619Y-90744523D02*
X123552857Y-90744523D01*
X123492380Y-91349285D01*
X123552857Y-91288809D01*
X123673809Y-91228333D01*
X123976190Y-91228333D01*
X124097142Y-91288809D01*
X124157619Y-91349285D01*
X124218095Y-91470238D01*
X124218095Y-91772619D01*
X124157619Y-91893571D01*
X124097142Y-91954047D01*
X123976190Y-92014523D01*
X123673809Y-92014523D01*
X123552857Y-91954047D01*
X123492380Y-91893571D01*
X124701904Y-90865476D02*
X124762380Y-90805000D01*
X124883333Y-90744523D01*
X125185714Y-90744523D01*
X125306666Y-90805000D01*
X125367142Y-90865476D01*
X125427619Y-90986428D01*
X125427619Y-91107380D01*
X125367142Y-91288809D01*
X124641428Y-92014523D01*
X125427619Y-92014523D01*
%TO.C,29*%
X141272380Y-83245476D02*
X141332857Y-83185000D01*
X141453809Y-83124523D01*
X141756190Y-83124523D01*
X141877142Y-83185000D01*
X141937619Y-83245476D01*
X141998095Y-83366428D01*
X141998095Y-83487380D01*
X141937619Y-83668809D01*
X141211904Y-84394523D01*
X141998095Y-84394523D01*
X142602857Y-84394523D02*
X142844761Y-84394523D01*
X142965714Y-84334047D01*
X143026190Y-84273571D01*
X143147142Y-84092142D01*
X143207619Y-83850238D01*
X143207619Y-83366428D01*
X143147142Y-83245476D01*
X143086666Y-83185000D01*
X142965714Y-83124523D01*
X142723809Y-83124523D01*
X142602857Y-83185000D01*
X142542380Y-83245476D01*
X142481904Y-83366428D01*
X142481904Y-83668809D01*
X142542380Y-83789761D01*
X142602857Y-83850238D01*
X142723809Y-83910714D01*
X142965714Y-83910714D01*
X143086666Y-83850238D01*
X143147142Y-83789761D01*
X143207619Y-83668809D01*
%TO.C,127*%
X136313333Y-109794523D02*
X135587619Y-109794523D01*
X135950476Y-109794523D02*
X135950476Y-108524523D01*
X135829523Y-108705952D01*
X135708571Y-108826904D01*
X135587619Y-108887380D01*
X136797142Y-108645476D02*
X136857619Y-108585000D01*
X136978571Y-108524523D01*
X137280952Y-108524523D01*
X137401904Y-108585000D01*
X137462380Y-108645476D01*
X137522857Y-108766428D01*
X137522857Y-108887380D01*
X137462380Y-109068809D01*
X136736666Y-109794523D01*
X137522857Y-109794523D01*
X137946190Y-108524523D02*
X138792857Y-108524523D01*
X138248571Y-109794523D01*
%TO.C,85*%
X131354285Y-98908809D02*
X131233333Y-98848333D01*
X131172857Y-98787857D01*
X131112380Y-98666904D01*
X131112380Y-98606428D01*
X131172857Y-98485476D01*
X131233333Y-98425000D01*
X131354285Y-98364523D01*
X131596190Y-98364523D01*
X131717142Y-98425000D01*
X131777619Y-98485476D01*
X131838095Y-98606428D01*
X131838095Y-98666904D01*
X131777619Y-98787857D01*
X131717142Y-98848333D01*
X131596190Y-98908809D01*
X131354285Y-98908809D01*
X131233333Y-98969285D01*
X131172857Y-99029761D01*
X131112380Y-99150714D01*
X131112380Y-99392619D01*
X131172857Y-99513571D01*
X131233333Y-99574047D01*
X131354285Y-99634523D01*
X131596190Y-99634523D01*
X131717142Y-99574047D01*
X131777619Y-99513571D01*
X131838095Y-99392619D01*
X131838095Y-99150714D01*
X131777619Y-99029761D01*
X131717142Y-98969285D01*
X131596190Y-98908809D01*
X132987142Y-98364523D02*
X132382380Y-98364523D01*
X132321904Y-98969285D01*
X132382380Y-98908809D01*
X132503333Y-98848333D01*
X132805714Y-98848333D01*
X132926666Y-98908809D01*
X132987142Y-98969285D01*
X133047619Y-99090238D01*
X133047619Y-99392619D01*
X132987142Y-99513571D01*
X132926666Y-99574047D01*
X132805714Y-99634523D01*
X132503333Y-99634523D01*
X132382380Y-99574047D01*
X132321904Y-99513571D01*
%TO.C,24*%
X128572380Y-83245476D02*
X128632857Y-83185000D01*
X128753809Y-83124523D01*
X129056190Y-83124523D01*
X129177142Y-83185000D01*
X129237619Y-83245476D01*
X129298095Y-83366428D01*
X129298095Y-83487380D01*
X129237619Y-83668809D01*
X128511904Y-84394523D01*
X129298095Y-84394523D01*
X130386666Y-83547857D02*
X130386666Y-84394523D01*
X130084285Y-83064047D02*
X129781904Y-83971190D01*
X130568095Y-83971190D01*
%TO.C,7*%
X136736666Y-78044523D02*
X137583333Y-78044523D01*
X137039047Y-79314523D01*
%TO.C,109*%
X141393333Y-104714523D02*
X140667619Y-104714523D01*
X141030476Y-104714523D02*
X141030476Y-103444523D01*
X140909523Y-103625952D01*
X140788571Y-103746904D01*
X140667619Y-103807380D01*
X142179523Y-103444523D02*
X142300476Y-103444523D01*
X142421428Y-103505000D01*
X142481904Y-103565476D01*
X142542380Y-103686428D01*
X142602857Y-103928333D01*
X142602857Y-104230714D01*
X142542380Y-104472619D01*
X142481904Y-104593571D01*
X142421428Y-104654047D01*
X142300476Y-104714523D01*
X142179523Y-104714523D01*
X142058571Y-104654047D01*
X141998095Y-104593571D01*
X141937619Y-104472619D01*
X141877142Y-104230714D01*
X141877142Y-103928333D01*
X141937619Y-103686428D01*
X141998095Y-103565476D01*
X142058571Y-103505000D01*
X142179523Y-103444523D01*
X143207619Y-104714523D02*
X143449523Y-104714523D01*
X143570476Y-104654047D01*
X143630952Y-104593571D01*
X143751904Y-104412142D01*
X143812380Y-104170238D01*
X143812380Y-103686428D01*
X143751904Y-103565476D01*
X143691428Y-103505000D01*
X143570476Y-103444523D01*
X143328571Y-103444523D01*
X143207619Y-103505000D01*
X143147142Y-103565476D01*
X143086666Y-103686428D01*
X143086666Y-103988809D01*
X143147142Y-104109761D01*
X143207619Y-104170238D01*
X143328571Y-104230714D01*
X143570476Y-104230714D01*
X143691428Y-104170238D01*
X143751904Y-104109761D01*
X143812380Y-103988809D01*
%TO.C,22*%
X123492380Y-83245476D02*
X123552857Y-83185000D01*
X123673809Y-83124523D01*
X123976190Y-83124523D01*
X124097142Y-83185000D01*
X124157619Y-83245476D01*
X124218095Y-83366428D01*
X124218095Y-83487380D01*
X124157619Y-83668809D01*
X123431904Y-84394523D01*
X124218095Y-84394523D01*
X124701904Y-83245476D02*
X124762380Y-83185000D01*
X124883333Y-83124523D01*
X125185714Y-83124523D01*
X125306666Y-83185000D01*
X125367142Y-83245476D01*
X125427619Y-83366428D01*
X125427619Y-83487380D01*
X125367142Y-83668809D01*
X124641428Y-84394523D01*
X125427619Y-84394523D01*
%TO.C,147*%
X136313333Y-114874523D02*
X135587619Y-114874523D01*
X135950476Y-114874523D02*
X135950476Y-113604523D01*
X135829523Y-113785952D01*
X135708571Y-113906904D01*
X135587619Y-113967380D01*
X137401904Y-114027857D02*
X137401904Y-114874523D01*
X137099523Y-113544047D02*
X136797142Y-114451190D01*
X137583333Y-114451190D01*
X137946190Y-113604523D02*
X138792857Y-113604523D01*
X138248571Y-114874523D01*
%TO.C,67*%
X136797142Y-93284523D02*
X136555238Y-93284523D01*
X136434285Y-93345000D01*
X136373809Y-93405476D01*
X136252857Y-93586904D01*
X136192380Y-93828809D01*
X136192380Y-94312619D01*
X136252857Y-94433571D01*
X136313333Y-94494047D01*
X136434285Y-94554523D01*
X136676190Y-94554523D01*
X136797142Y-94494047D01*
X136857619Y-94433571D01*
X136918095Y-94312619D01*
X136918095Y-94010238D01*
X136857619Y-93889285D01*
X136797142Y-93828809D01*
X136676190Y-93768333D01*
X136434285Y-93768333D01*
X136313333Y-93828809D01*
X136252857Y-93889285D01*
X136192380Y-94010238D01*
X137341428Y-93284523D02*
X138188095Y-93284523D01*
X137643809Y-94554523D01*
%TO.C,120*%
X118533333Y-109794523D02*
X117807619Y-109794523D01*
X118170476Y-109794523D02*
X118170476Y-108524523D01*
X118049523Y-108705952D01*
X117928571Y-108826904D01*
X117807619Y-108887380D01*
X119017142Y-108645476D02*
X119077619Y-108585000D01*
X119198571Y-108524523D01*
X119500952Y-108524523D01*
X119621904Y-108585000D01*
X119682380Y-108645476D01*
X119742857Y-108766428D01*
X119742857Y-108887380D01*
X119682380Y-109068809D01*
X118956666Y-109794523D01*
X119742857Y-109794523D01*
X120529047Y-108524523D02*
X120650000Y-108524523D01*
X120770952Y-108585000D01*
X120831428Y-108645476D01*
X120891904Y-108766428D01*
X120952380Y-109008333D01*
X120952380Y-109310714D01*
X120891904Y-109552619D01*
X120831428Y-109673571D01*
X120770952Y-109734047D01*
X120650000Y-109794523D01*
X120529047Y-109794523D01*
X120408095Y-109734047D01*
X120347619Y-109673571D01*
X120287142Y-109552619D01*
X120226666Y-109310714D01*
X120226666Y-109008333D01*
X120287142Y-108766428D01*
X120347619Y-108645476D01*
X120408095Y-108585000D01*
X120529047Y-108524523D01*
%TO.C,117*%
X136313333Y-107254523D02*
X135587619Y-107254523D01*
X135950476Y-107254523D02*
X135950476Y-105984523D01*
X135829523Y-106165952D01*
X135708571Y-106286904D01*
X135587619Y-106347380D01*
X137522857Y-107254523D02*
X136797142Y-107254523D01*
X137160000Y-107254523D02*
X137160000Y-105984523D01*
X137039047Y-106165952D01*
X136918095Y-106286904D01*
X136797142Y-106347380D01*
X137946190Y-105984523D02*
X138792857Y-105984523D01*
X138248571Y-107254523D01*
%TO.C,31*%
X120891904Y-85664523D02*
X121678095Y-85664523D01*
X121254761Y-86148333D01*
X121436190Y-86148333D01*
X121557142Y-86208809D01*
X121617619Y-86269285D01*
X121678095Y-86390238D01*
X121678095Y-86692619D01*
X121617619Y-86813571D01*
X121557142Y-86874047D01*
X121436190Y-86934523D01*
X121073333Y-86934523D01*
X120952380Y-86874047D01*
X120891904Y-86813571D01*
X122887619Y-86934523D02*
X122161904Y-86934523D01*
X122524761Y-86934523D02*
X122524761Y-85664523D01*
X122403809Y-85845952D01*
X122282857Y-85966904D01*
X122161904Y-86027380D01*
%TO.C,62*%
X124097142Y-93284523D02*
X123855238Y-93284523D01*
X123734285Y-93345000D01*
X123673809Y-93405476D01*
X123552857Y-93586904D01*
X123492380Y-93828809D01*
X123492380Y-94312619D01*
X123552857Y-94433571D01*
X123613333Y-94494047D01*
X123734285Y-94554523D01*
X123976190Y-94554523D01*
X124097142Y-94494047D01*
X124157619Y-94433571D01*
X124218095Y-94312619D01*
X124218095Y-94010238D01*
X124157619Y-93889285D01*
X124097142Y-93828809D01*
X123976190Y-93768333D01*
X123734285Y-93768333D01*
X123613333Y-93828809D01*
X123552857Y-93889285D01*
X123492380Y-94010238D01*
X124701904Y-93405476D02*
X124762380Y-93345000D01*
X124883333Y-93284523D01*
X125185714Y-93284523D01*
X125306666Y-93345000D01*
X125367142Y-93405476D01*
X125427619Y-93526428D01*
X125427619Y-93647380D01*
X125367142Y-93828809D01*
X124641428Y-94554523D01*
X125427619Y-94554523D01*
%TO.C,9*%
X141998095Y-79314523D02*
X142240000Y-79314523D01*
X142360952Y-79254047D01*
X142421428Y-79193571D01*
X142542380Y-79012142D01*
X142602857Y-78770238D01*
X142602857Y-78286428D01*
X142542380Y-78165476D01*
X142481904Y-78105000D01*
X142360952Y-78044523D01*
X142119047Y-78044523D01*
X141998095Y-78105000D01*
X141937619Y-78165476D01*
X141877142Y-78286428D01*
X141877142Y-78588809D01*
X141937619Y-78709761D01*
X141998095Y-78770238D01*
X142119047Y-78830714D01*
X142360952Y-78830714D01*
X142481904Y-78770238D01*
X142542380Y-78709761D01*
X142602857Y-78588809D01*
%TO.C,43*%
X126637142Y-88627857D02*
X126637142Y-89474523D01*
X126334761Y-88144047D02*
X126032380Y-89051190D01*
X126818571Y-89051190D01*
X127181428Y-88204523D02*
X127967619Y-88204523D01*
X127544285Y-88688333D01*
X127725714Y-88688333D01*
X127846666Y-88748809D01*
X127907142Y-88809285D01*
X127967619Y-88930238D01*
X127967619Y-89232619D01*
X127907142Y-89353571D01*
X127846666Y-89414047D01*
X127725714Y-89474523D01*
X127362857Y-89474523D01*
X127241904Y-89414047D01*
X127181428Y-89353571D01*
%TO.C,11*%
X121678095Y-81854523D02*
X120952380Y-81854523D01*
X121315238Y-81854523D02*
X121315238Y-80584523D01*
X121194285Y-80765952D01*
X121073333Y-80886904D01*
X120952380Y-80947380D01*
X122887619Y-81854523D02*
X122161904Y-81854523D01*
X122524761Y-81854523D02*
X122524761Y-80584523D01*
X122403809Y-80765952D01*
X122282857Y-80886904D01*
X122161904Y-80947380D01*
%TO.C,71*%
X120891904Y-95824523D02*
X121738571Y-95824523D01*
X121194285Y-97094523D01*
X122887619Y-97094523D02*
X122161904Y-97094523D01*
X122524761Y-97094523D02*
X122524761Y-95824523D01*
X122403809Y-96005952D01*
X122282857Y-96126904D01*
X122161904Y-96187380D01*
%TO.C,65*%
X131717142Y-93284523D02*
X131475238Y-93284523D01*
X131354285Y-93345000D01*
X131293809Y-93405476D01*
X131172857Y-93586904D01*
X131112380Y-93828809D01*
X131112380Y-94312619D01*
X131172857Y-94433571D01*
X131233333Y-94494047D01*
X131354285Y-94554523D01*
X131596190Y-94554523D01*
X131717142Y-94494047D01*
X131777619Y-94433571D01*
X131838095Y-94312619D01*
X131838095Y-94010238D01*
X131777619Y-93889285D01*
X131717142Y-93828809D01*
X131596190Y-93768333D01*
X131354285Y-93768333D01*
X131233333Y-93828809D01*
X131172857Y-93889285D01*
X131112380Y-94010238D01*
X132987142Y-93284523D02*
X132382380Y-93284523D01*
X132321904Y-93889285D01*
X132382380Y-93828809D01*
X132503333Y-93768333D01*
X132805714Y-93768333D01*
X132926666Y-93828809D01*
X132987142Y-93889285D01*
X133047619Y-94010238D01*
X133047619Y-94312619D01*
X132987142Y-94433571D01*
X132926666Y-94494047D01*
X132805714Y-94554523D01*
X132503333Y-94554523D01*
X132382380Y-94494047D01*
X132321904Y-94433571D01*
%TO.C,104*%
X128693333Y-104714523D02*
X127967619Y-104714523D01*
X128330476Y-104714523D02*
X128330476Y-103444523D01*
X128209523Y-103625952D01*
X128088571Y-103746904D01*
X127967619Y-103807380D01*
X129479523Y-103444523D02*
X129600476Y-103444523D01*
X129721428Y-103505000D01*
X129781904Y-103565476D01*
X129842380Y-103686428D01*
X129902857Y-103928333D01*
X129902857Y-104230714D01*
X129842380Y-104472619D01*
X129781904Y-104593571D01*
X129721428Y-104654047D01*
X129600476Y-104714523D01*
X129479523Y-104714523D01*
X129358571Y-104654047D01*
X129298095Y-104593571D01*
X129237619Y-104472619D01*
X129177142Y-104230714D01*
X129177142Y-103928333D01*
X129237619Y-103686428D01*
X129298095Y-103565476D01*
X129358571Y-103505000D01*
X129479523Y-103444523D01*
X130991428Y-103867857D02*
X130991428Y-104714523D01*
X130689047Y-103384047D02*
X130386666Y-104291190D01*
X131172857Y-104291190D01*
%TO.C,63*%
X126637142Y-93284523D02*
X126395238Y-93284523D01*
X126274285Y-93345000D01*
X126213809Y-93405476D01*
X126092857Y-93586904D01*
X126032380Y-93828809D01*
X126032380Y-94312619D01*
X126092857Y-94433571D01*
X126153333Y-94494047D01*
X126274285Y-94554523D01*
X126516190Y-94554523D01*
X126637142Y-94494047D01*
X126697619Y-94433571D01*
X126758095Y-94312619D01*
X126758095Y-94010238D01*
X126697619Y-93889285D01*
X126637142Y-93828809D01*
X126516190Y-93768333D01*
X126274285Y-93768333D01*
X126153333Y-93828809D01*
X126092857Y-93889285D01*
X126032380Y-94010238D01*
X127181428Y-93284523D02*
X127967619Y-93284523D01*
X127544285Y-93768333D01*
X127725714Y-93768333D01*
X127846666Y-93828809D01*
X127907142Y-93889285D01*
X127967619Y-94010238D01*
X127967619Y-94312619D01*
X127907142Y-94433571D01*
X127846666Y-94494047D01*
X127725714Y-94554523D01*
X127362857Y-94554523D01*
X127241904Y-94494047D01*
X127181428Y-94433571D01*
%TO.C,93*%
X126153333Y-102174523D02*
X126395238Y-102174523D01*
X126516190Y-102114047D01*
X126576666Y-102053571D01*
X126697619Y-101872142D01*
X126758095Y-101630238D01*
X126758095Y-101146428D01*
X126697619Y-101025476D01*
X126637142Y-100965000D01*
X126516190Y-100904523D01*
X126274285Y-100904523D01*
X126153333Y-100965000D01*
X126092857Y-101025476D01*
X126032380Y-101146428D01*
X126032380Y-101448809D01*
X126092857Y-101569761D01*
X126153333Y-101630238D01*
X126274285Y-101690714D01*
X126516190Y-101690714D01*
X126637142Y-101630238D01*
X126697619Y-101569761D01*
X126758095Y-101448809D01*
X127181428Y-100904523D02*
X127967619Y-100904523D01*
X127544285Y-101388333D01*
X127725714Y-101388333D01*
X127846666Y-101448809D01*
X127907142Y-101509285D01*
X127967619Y-101630238D01*
X127967619Y-101932619D01*
X127907142Y-102053571D01*
X127846666Y-102114047D01*
X127725714Y-102174523D01*
X127362857Y-102174523D01*
X127241904Y-102114047D01*
X127181428Y-102053571D01*
%TO.C,61*%
X121557142Y-93284523D02*
X121315238Y-93284523D01*
X121194285Y-93345000D01*
X121133809Y-93405476D01*
X121012857Y-93586904D01*
X120952380Y-93828809D01*
X120952380Y-94312619D01*
X121012857Y-94433571D01*
X121073333Y-94494047D01*
X121194285Y-94554523D01*
X121436190Y-94554523D01*
X121557142Y-94494047D01*
X121617619Y-94433571D01*
X121678095Y-94312619D01*
X121678095Y-94010238D01*
X121617619Y-93889285D01*
X121557142Y-93828809D01*
X121436190Y-93768333D01*
X121194285Y-93768333D01*
X121073333Y-93828809D01*
X121012857Y-93889285D01*
X120952380Y-94010238D01*
X122887619Y-94554523D02*
X122161904Y-94554523D01*
X122524761Y-94554523D02*
X122524761Y-93284523D01*
X122403809Y-93465952D01*
X122282857Y-93586904D01*
X122161904Y-93647380D01*
%TO.C,13*%
X126758095Y-81854523D02*
X126032380Y-81854523D01*
X126395238Y-81854523D02*
X126395238Y-80584523D01*
X126274285Y-80765952D01*
X126153333Y-80886904D01*
X126032380Y-80947380D01*
X127181428Y-80584523D02*
X127967619Y-80584523D01*
X127544285Y-81068333D01*
X127725714Y-81068333D01*
X127846666Y-81128809D01*
X127907142Y-81189285D01*
X127967619Y-81310238D01*
X127967619Y-81612619D01*
X127907142Y-81733571D01*
X127846666Y-81794047D01*
X127725714Y-81854523D01*
X127362857Y-81854523D01*
X127241904Y-81794047D01*
X127181428Y-81733571D01*
%TO.C,55*%
X131777619Y-90744523D02*
X131172857Y-90744523D01*
X131112380Y-91349285D01*
X131172857Y-91288809D01*
X131293809Y-91228333D01*
X131596190Y-91228333D01*
X131717142Y-91288809D01*
X131777619Y-91349285D01*
X131838095Y-91470238D01*
X131838095Y-91772619D01*
X131777619Y-91893571D01*
X131717142Y-91954047D01*
X131596190Y-92014523D01*
X131293809Y-92014523D01*
X131172857Y-91954047D01*
X131112380Y-91893571D01*
X132987142Y-90744523D02*
X132382380Y-90744523D01*
X132321904Y-91349285D01*
X132382380Y-91288809D01*
X132503333Y-91228333D01*
X132805714Y-91228333D01*
X132926666Y-91288809D01*
X132987142Y-91349285D01*
X133047619Y-91470238D01*
X133047619Y-91772619D01*
X132987142Y-91893571D01*
X132926666Y-91954047D01*
X132805714Y-92014523D01*
X132503333Y-92014523D01*
X132382380Y-91954047D01*
X132321904Y-91893571D01*
%TO.C,138*%
X138853333Y-112334523D02*
X138127619Y-112334523D01*
X138490476Y-112334523D02*
X138490476Y-111064523D01*
X138369523Y-111245952D01*
X138248571Y-111366904D01*
X138127619Y-111427380D01*
X139276666Y-111064523D02*
X140062857Y-111064523D01*
X139639523Y-111548333D01*
X139820952Y-111548333D01*
X139941904Y-111608809D01*
X140002380Y-111669285D01*
X140062857Y-111790238D01*
X140062857Y-112092619D01*
X140002380Y-112213571D01*
X139941904Y-112274047D01*
X139820952Y-112334523D01*
X139458095Y-112334523D01*
X139337142Y-112274047D01*
X139276666Y-112213571D01*
X140788571Y-111608809D02*
X140667619Y-111548333D01*
X140607142Y-111487857D01*
X140546666Y-111366904D01*
X140546666Y-111306428D01*
X140607142Y-111185476D01*
X140667619Y-111125000D01*
X140788571Y-111064523D01*
X141030476Y-111064523D01*
X141151428Y-111125000D01*
X141211904Y-111185476D01*
X141272380Y-111306428D01*
X141272380Y-111366904D01*
X141211904Y-111487857D01*
X141151428Y-111548333D01*
X141030476Y-111608809D01*
X140788571Y-111608809D01*
X140667619Y-111669285D01*
X140607142Y-111729761D01*
X140546666Y-111850714D01*
X140546666Y-112092619D01*
X140607142Y-112213571D01*
X140667619Y-112274047D01*
X140788571Y-112334523D01*
X141030476Y-112334523D01*
X141151428Y-112274047D01*
X141211904Y-112213571D01*
X141272380Y-112092619D01*
X141272380Y-111850714D01*
X141211904Y-111729761D01*
X141151428Y-111669285D01*
X141030476Y-111608809D01*
%TO.C,111*%
X121073333Y-107254523D02*
X120347619Y-107254523D01*
X120710476Y-107254523D02*
X120710476Y-105984523D01*
X120589523Y-106165952D01*
X120468571Y-106286904D01*
X120347619Y-106347380D01*
X122282857Y-107254523D02*
X121557142Y-107254523D01*
X121920000Y-107254523D02*
X121920000Y-105984523D01*
X121799047Y-106165952D01*
X121678095Y-106286904D01*
X121557142Y-106347380D01*
X123492380Y-107254523D02*
X122766666Y-107254523D01*
X123129523Y-107254523D02*
X123129523Y-105984523D01*
X123008571Y-106165952D01*
X122887619Y-106286904D01*
X122766666Y-106347380D01*
%TO.C,27*%
X136192380Y-83245476D02*
X136252857Y-83185000D01*
X136373809Y-83124523D01*
X136676190Y-83124523D01*
X136797142Y-83185000D01*
X136857619Y-83245476D01*
X136918095Y-83366428D01*
X136918095Y-83487380D01*
X136857619Y-83668809D01*
X136131904Y-84394523D01*
X136918095Y-84394523D01*
X137341428Y-83124523D02*
X138188095Y-83124523D01*
X137643809Y-84394523D01*
%TO.C,116*%
X133773333Y-107254523D02*
X133047619Y-107254523D01*
X133410476Y-107254523D02*
X133410476Y-105984523D01*
X133289523Y-106165952D01*
X133168571Y-106286904D01*
X133047619Y-106347380D01*
X134982857Y-107254523D02*
X134257142Y-107254523D01*
X134620000Y-107254523D02*
X134620000Y-105984523D01*
X134499047Y-106165952D01*
X134378095Y-106286904D01*
X134257142Y-106347380D01*
X136071428Y-105984523D02*
X135829523Y-105984523D01*
X135708571Y-106045000D01*
X135648095Y-106105476D01*
X135527142Y-106286904D01*
X135466666Y-106528809D01*
X135466666Y-107012619D01*
X135527142Y-107133571D01*
X135587619Y-107194047D01*
X135708571Y-107254523D01*
X135950476Y-107254523D01*
X136071428Y-107194047D01*
X136131904Y-107133571D01*
X136192380Y-107012619D01*
X136192380Y-106710238D01*
X136131904Y-106589285D01*
X136071428Y-106528809D01*
X135950476Y-106468333D01*
X135708571Y-106468333D01*
X135587619Y-106528809D01*
X135527142Y-106589285D01*
X135466666Y-106710238D01*
%TO.C,J3*%
X123257380Y-63908333D02*
X123971666Y-63908333D01*
X124114523Y-63955952D01*
X124209761Y-64051190D01*
X124257380Y-64194047D01*
X124257380Y-64289285D01*
X123257380Y-63527380D02*
X123257380Y-62908333D01*
X123638333Y-63241666D01*
X123638333Y-63098809D01*
X123685952Y-63003571D01*
X123733571Y-62955952D01*
X123828809Y-62908333D01*
X124066904Y-62908333D01*
X124162142Y-62955952D01*
X124209761Y-63003571D01*
X124257380Y-63098809D01*
X124257380Y-63384523D01*
X124209761Y-63479761D01*
X124162142Y-63527380D01*
%TO.C,91*%
X121073333Y-102174523D02*
X121315238Y-102174523D01*
X121436190Y-102114047D01*
X121496666Y-102053571D01*
X121617619Y-101872142D01*
X121678095Y-101630238D01*
X121678095Y-101146428D01*
X121617619Y-101025476D01*
X121557142Y-100965000D01*
X121436190Y-100904523D01*
X121194285Y-100904523D01*
X121073333Y-100965000D01*
X121012857Y-101025476D01*
X120952380Y-101146428D01*
X120952380Y-101448809D01*
X121012857Y-101569761D01*
X121073333Y-101630238D01*
X121194285Y-101690714D01*
X121436190Y-101690714D01*
X121557142Y-101630238D01*
X121617619Y-101569761D01*
X121678095Y-101448809D01*
X122887619Y-102174523D02*
X122161904Y-102174523D01*
X122524761Y-102174523D02*
X122524761Y-100904523D01*
X122403809Y-101085952D01*
X122282857Y-101206904D01*
X122161904Y-101267380D01*
%TO.C,94*%
X128693333Y-102174523D02*
X128935238Y-102174523D01*
X129056190Y-102114047D01*
X129116666Y-102053571D01*
X129237619Y-101872142D01*
X129298095Y-101630238D01*
X129298095Y-101146428D01*
X129237619Y-101025476D01*
X129177142Y-100965000D01*
X129056190Y-100904523D01*
X128814285Y-100904523D01*
X128693333Y-100965000D01*
X128632857Y-101025476D01*
X128572380Y-101146428D01*
X128572380Y-101448809D01*
X128632857Y-101569761D01*
X128693333Y-101630238D01*
X128814285Y-101690714D01*
X129056190Y-101690714D01*
X129177142Y-101630238D01*
X129237619Y-101569761D01*
X129298095Y-101448809D01*
X130386666Y-101327857D02*
X130386666Y-102174523D01*
X130084285Y-100844047D02*
X129781904Y-101751190D01*
X130568095Y-101751190D01*
%TO.C,6*%
X134861904Y-78044523D02*
X134620000Y-78044523D01*
X134499047Y-78105000D01*
X134438571Y-78165476D01*
X134317619Y-78346904D01*
X134257142Y-78588809D01*
X134257142Y-79072619D01*
X134317619Y-79193571D01*
X134378095Y-79254047D01*
X134499047Y-79314523D01*
X134740952Y-79314523D01*
X134861904Y-79254047D01*
X134922380Y-79193571D01*
X134982857Y-79072619D01*
X134982857Y-78770238D01*
X134922380Y-78649285D01*
X134861904Y-78588809D01*
X134740952Y-78528333D01*
X134499047Y-78528333D01*
X134378095Y-78588809D01*
X134317619Y-78649285D01*
X134257142Y-78770238D01*
%TO.C,149*%
X141393333Y-114874523D02*
X140667619Y-114874523D01*
X141030476Y-114874523D02*
X141030476Y-113604523D01*
X140909523Y-113785952D01*
X140788571Y-113906904D01*
X140667619Y-113967380D01*
X142481904Y-114027857D02*
X142481904Y-114874523D01*
X142179523Y-113544047D02*
X141877142Y-114451190D01*
X142663333Y-114451190D01*
X143207619Y-114874523D02*
X143449523Y-114874523D01*
X143570476Y-114814047D01*
X143630952Y-114753571D01*
X143751904Y-114572142D01*
X143812380Y-114330238D01*
X143812380Y-113846428D01*
X143751904Y-113725476D01*
X143691428Y-113665000D01*
X143570476Y-113604523D01*
X143328571Y-113604523D01*
X143207619Y-113665000D01*
X143147142Y-113725476D01*
X143086666Y-113846428D01*
X143086666Y-114148809D01*
X143147142Y-114269761D01*
X143207619Y-114330238D01*
X143328571Y-114390714D01*
X143570476Y-114390714D01*
X143691428Y-114330238D01*
X143751904Y-114269761D01*
X143812380Y-114148809D01*
%TO.C,58*%
X139397619Y-90744523D02*
X138792857Y-90744523D01*
X138732380Y-91349285D01*
X138792857Y-91288809D01*
X138913809Y-91228333D01*
X139216190Y-91228333D01*
X139337142Y-91288809D01*
X139397619Y-91349285D01*
X139458095Y-91470238D01*
X139458095Y-91772619D01*
X139397619Y-91893571D01*
X139337142Y-91954047D01*
X139216190Y-92014523D01*
X138913809Y-92014523D01*
X138792857Y-91954047D01*
X138732380Y-91893571D01*
X140183809Y-91288809D02*
X140062857Y-91228333D01*
X140002380Y-91167857D01*
X139941904Y-91046904D01*
X139941904Y-90986428D01*
X140002380Y-90865476D01*
X140062857Y-90805000D01*
X140183809Y-90744523D01*
X140425714Y-90744523D01*
X140546666Y-90805000D01*
X140607142Y-90865476D01*
X140667619Y-90986428D01*
X140667619Y-91046904D01*
X140607142Y-91167857D01*
X140546666Y-91228333D01*
X140425714Y-91288809D01*
X140183809Y-91288809D01*
X140062857Y-91349285D01*
X140002380Y-91409761D01*
X139941904Y-91530714D01*
X139941904Y-91772619D01*
X140002380Y-91893571D01*
X140062857Y-91954047D01*
X140183809Y-92014523D01*
X140425714Y-92014523D01*
X140546666Y-91954047D01*
X140607142Y-91893571D01*
X140667619Y-91772619D01*
X140667619Y-91530714D01*
X140607142Y-91409761D01*
X140546666Y-91349285D01*
X140425714Y-91288809D01*
%TO.C,99*%
X141393333Y-102174523D02*
X141635238Y-102174523D01*
X141756190Y-102114047D01*
X141816666Y-102053571D01*
X141937619Y-101872142D01*
X141998095Y-101630238D01*
X141998095Y-101146428D01*
X141937619Y-101025476D01*
X141877142Y-100965000D01*
X141756190Y-100904523D01*
X141514285Y-100904523D01*
X141393333Y-100965000D01*
X141332857Y-101025476D01*
X141272380Y-101146428D01*
X141272380Y-101448809D01*
X141332857Y-101569761D01*
X141393333Y-101630238D01*
X141514285Y-101690714D01*
X141756190Y-101690714D01*
X141877142Y-101630238D01*
X141937619Y-101569761D01*
X141998095Y-101448809D01*
X142602857Y-102174523D02*
X142844761Y-102174523D01*
X142965714Y-102114047D01*
X143026190Y-102053571D01*
X143147142Y-101872142D01*
X143207619Y-101630238D01*
X143207619Y-101146428D01*
X143147142Y-101025476D01*
X143086666Y-100965000D01*
X142965714Y-100904523D01*
X142723809Y-100904523D01*
X142602857Y-100965000D01*
X142542380Y-101025476D01*
X142481904Y-101146428D01*
X142481904Y-101448809D01*
X142542380Y-101569761D01*
X142602857Y-101630238D01*
X142723809Y-101690714D01*
X142965714Y-101690714D01*
X143086666Y-101630238D01*
X143147142Y-101569761D01*
X143207619Y-101448809D01*
%TO.C,128*%
X138853333Y-109794523D02*
X138127619Y-109794523D01*
X138490476Y-109794523D02*
X138490476Y-108524523D01*
X138369523Y-108705952D01*
X138248571Y-108826904D01*
X138127619Y-108887380D01*
X139337142Y-108645476D02*
X139397619Y-108585000D01*
X139518571Y-108524523D01*
X139820952Y-108524523D01*
X139941904Y-108585000D01*
X140002380Y-108645476D01*
X140062857Y-108766428D01*
X140062857Y-108887380D01*
X140002380Y-109068809D01*
X139276666Y-109794523D01*
X140062857Y-109794523D01*
X140788571Y-109068809D02*
X140667619Y-109008333D01*
X140607142Y-108947857D01*
X140546666Y-108826904D01*
X140546666Y-108766428D01*
X140607142Y-108645476D01*
X140667619Y-108585000D01*
X140788571Y-108524523D01*
X141030476Y-108524523D01*
X141151428Y-108585000D01*
X141211904Y-108645476D01*
X141272380Y-108766428D01*
X141272380Y-108826904D01*
X141211904Y-108947857D01*
X141151428Y-109008333D01*
X141030476Y-109068809D01*
X140788571Y-109068809D01*
X140667619Y-109129285D01*
X140607142Y-109189761D01*
X140546666Y-109310714D01*
X140546666Y-109552619D01*
X140607142Y-109673571D01*
X140667619Y-109734047D01*
X140788571Y-109794523D01*
X141030476Y-109794523D01*
X141151428Y-109734047D01*
X141211904Y-109673571D01*
X141272380Y-109552619D01*
X141272380Y-109310714D01*
X141211904Y-109189761D01*
X141151428Y-109129285D01*
X141030476Y-109068809D01*
%TO.C,19*%
X141998095Y-81854523D02*
X141272380Y-81854523D01*
X141635238Y-81854523D02*
X141635238Y-80584523D01*
X141514285Y-80765952D01*
X141393333Y-80886904D01*
X141272380Y-80947380D01*
X142602857Y-81854523D02*
X142844761Y-81854523D01*
X142965714Y-81794047D01*
X143026190Y-81733571D01*
X143147142Y-81552142D01*
X143207619Y-81310238D01*
X143207619Y-80826428D01*
X143147142Y-80705476D01*
X143086666Y-80645000D01*
X142965714Y-80584523D01*
X142723809Y-80584523D01*
X142602857Y-80645000D01*
X142542380Y-80705476D01*
X142481904Y-80826428D01*
X142481904Y-81128809D01*
X142542380Y-81249761D01*
X142602857Y-81310238D01*
X142723809Y-81370714D01*
X142965714Y-81370714D01*
X143086666Y-81310238D01*
X143147142Y-81249761D01*
X143207619Y-81128809D01*
%TO.C,84*%
X128814285Y-98908809D02*
X128693333Y-98848333D01*
X128632857Y-98787857D01*
X128572380Y-98666904D01*
X128572380Y-98606428D01*
X128632857Y-98485476D01*
X128693333Y-98425000D01*
X128814285Y-98364523D01*
X129056190Y-98364523D01*
X129177142Y-98425000D01*
X129237619Y-98485476D01*
X129298095Y-98606428D01*
X129298095Y-98666904D01*
X129237619Y-98787857D01*
X129177142Y-98848333D01*
X129056190Y-98908809D01*
X128814285Y-98908809D01*
X128693333Y-98969285D01*
X128632857Y-99029761D01*
X128572380Y-99150714D01*
X128572380Y-99392619D01*
X128632857Y-99513571D01*
X128693333Y-99574047D01*
X128814285Y-99634523D01*
X129056190Y-99634523D01*
X129177142Y-99574047D01*
X129237619Y-99513571D01*
X129298095Y-99392619D01*
X129298095Y-99150714D01*
X129237619Y-99029761D01*
X129177142Y-98969285D01*
X129056190Y-98908809D01*
X130386666Y-98787857D02*
X130386666Y-99634523D01*
X130084285Y-98304047D02*
X129781904Y-99211190D01*
X130568095Y-99211190D01*
%TO.C,110*%
X118533333Y-107254523D02*
X117807619Y-107254523D01*
X118170476Y-107254523D02*
X118170476Y-105984523D01*
X118049523Y-106165952D01*
X117928571Y-106286904D01*
X117807619Y-106347380D01*
X119742857Y-107254523D02*
X119017142Y-107254523D01*
X119380000Y-107254523D02*
X119380000Y-105984523D01*
X119259047Y-106165952D01*
X119138095Y-106286904D01*
X119017142Y-106347380D01*
X120529047Y-105984523D02*
X120650000Y-105984523D01*
X120770952Y-106045000D01*
X120831428Y-106105476D01*
X120891904Y-106226428D01*
X120952380Y-106468333D01*
X120952380Y-106770714D01*
X120891904Y-107012619D01*
X120831428Y-107133571D01*
X120770952Y-107194047D01*
X120650000Y-107254523D01*
X120529047Y-107254523D01*
X120408095Y-107194047D01*
X120347619Y-107133571D01*
X120287142Y-107012619D01*
X120226666Y-106770714D01*
X120226666Y-106468333D01*
X120287142Y-106226428D01*
X120347619Y-106105476D01*
X120408095Y-106045000D01*
X120529047Y-105984523D01*
%TO.C,16*%
X134378095Y-81854523D02*
X133652380Y-81854523D01*
X134015238Y-81854523D02*
X134015238Y-80584523D01*
X133894285Y-80765952D01*
X133773333Y-80886904D01*
X133652380Y-80947380D01*
X135466666Y-80584523D02*
X135224761Y-80584523D01*
X135103809Y-80645000D01*
X135043333Y-80705476D01*
X134922380Y-80886904D01*
X134861904Y-81128809D01*
X134861904Y-81612619D01*
X134922380Y-81733571D01*
X134982857Y-81794047D01*
X135103809Y-81854523D01*
X135345714Y-81854523D01*
X135466666Y-81794047D01*
X135527142Y-81733571D01*
X135587619Y-81612619D01*
X135587619Y-81310238D01*
X135527142Y-81189285D01*
X135466666Y-81128809D01*
X135345714Y-81068333D01*
X135103809Y-81068333D01*
X134982857Y-81128809D01*
X134922380Y-81189285D01*
X134861904Y-81310238D01*
%TO.C,123*%
X126153333Y-109794523D02*
X125427619Y-109794523D01*
X125790476Y-109794523D02*
X125790476Y-108524523D01*
X125669523Y-108705952D01*
X125548571Y-108826904D01*
X125427619Y-108887380D01*
X126637142Y-108645476D02*
X126697619Y-108585000D01*
X126818571Y-108524523D01*
X127120952Y-108524523D01*
X127241904Y-108585000D01*
X127302380Y-108645476D01*
X127362857Y-108766428D01*
X127362857Y-108887380D01*
X127302380Y-109068809D01*
X126576666Y-109794523D01*
X127362857Y-109794523D01*
X127786190Y-108524523D02*
X128572380Y-108524523D01*
X128149047Y-109008333D01*
X128330476Y-109008333D01*
X128451428Y-109068809D01*
X128511904Y-109129285D01*
X128572380Y-109250238D01*
X128572380Y-109552619D01*
X128511904Y-109673571D01*
X128451428Y-109734047D01*
X128330476Y-109794523D01*
X127967619Y-109794523D01*
X127846666Y-109734047D01*
X127786190Y-109673571D01*
%TO.C,26*%
X133652380Y-83245476D02*
X133712857Y-83185000D01*
X133833809Y-83124523D01*
X134136190Y-83124523D01*
X134257142Y-83185000D01*
X134317619Y-83245476D01*
X134378095Y-83366428D01*
X134378095Y-83487380D01*
X134317619Y-83668809D01*
X133591904Y-84394523D01*
X134378095Y-84394523D01*
X135466666Y-83124523D02*
X135224761Y-83124523D01*
X135103809Y-83185000D01*
X135043333Y-83245476D01*
X134922380Y-83426904D01*
X134861904Y-83668809D01*
X134861904Y-84152619D01*
X134922380Y-84273571D01*
X134982857Y-84334047D01*
X135103809Y-84394523D01*
X135345714Y-84394523D01*
X135466666Y-84334047D01*
X135527142Y-84273571D01*
X135587619Y-84152619D01*
X135587619Y-83850238D01*
X135527142Y-83729285D01*
X135466666Y-83668809D01*
X135345714Y-83608333D01*
X135103809Y-83608333D01*
X134982857Y-83668809D01*
X134922380Y-83729285D01*
X134861904Y-83850238D01*
%TO.C,131*%
X121073333Y-112334523D02*
X120347619Y-112334523D01*
X120710476Y-112334523D02*
X120710476Y-111064523D01*
X120589523Y-111245952D01*
X120468571Y-111366904D01*
X120347619Y-111427380D01*
X121496666Y-111064523D02*
X122282857Y-111064523D01*
X121859523Y-111548333D01*
X122040952Y-111548333D01*
X122161904Y-111608809D01*
X122222380Y-111669285D01*
X122282857Y-111790238D01*
X122282857Y-112092619D01*
X122222380Y-112213571D01*
X122161904Y-112274047D01*
X122040952Y-112334523D01*
X121678095Y-112334523D01*
X121557142Y-112274047D01*
X121496666Y-112213571D01*
X123492380Y-112334523D02*
X122766666Y-112334523D01*
X123129523Y-112334523D02*
X123129523Y-111064523D01*
X123008571Y-111245952D01*
X122887619Y-111366904D01*
X122766666Y-111427380D01*
%TO.C,141*%
X121073333Y-114874523D02*
X120347619Y-114874523D01*
X120710476Y-114874523D02*
X120710476Y-113604523D01*
X120589523Y-113785952D01*
X120468571Y-113906904D01*
X120347619Y-113967380D01*
X122161904Y-114027857D02*
X122161904Y-114874523D01*
X121859523Y-113544047D02*
X121557142Y-114451190D01*
X122343333Y-114451190D01*
X123492380Y-114874523D02*
X122766666Y-114874523D01*
X123129523Y-114874523D02*
X123129523Y-113604523D01*
X123008571Y-113785952D01*
X122887619Y-113906904D01*
X122766666Y-113967380D01*
%TO.C,97*%
X136313333Y-102174523D02*
X136555238Y-102174523D01*
X136676190Y-102114047D01*
X136736666Y-102053571D01*
X136857619Y-101872142D01*
X136918095Y-101630238D01*
X136918095Y-101146428D01*
X136857619Y-101025476D01*
X136797142Y-100965000D01*
X136676190Y-100904523D01*
X136434285Y-100904523D01*
X136313333Y-100965000D01*
X136252857Y-101025476D01*
X136192380Y-101146428D01*
X136192380Y-101448809D01*
X136252857Y-101569761D01*
X136313333Y-101630238D01*
X136434285Y-101690714D01*
X136676190Y-101690714D01*
X136797142Y-101630238D01*
X136857619Y-101569761D01*
X136918095Y-101448809D01*
X137341428Y-100904523D02*
X138188095Y-100904523D01*
X137643809Y-102174523D01*
%TO.C,35*%
X131051904Y-85664523D02*
X131838095Y-85664523D01*
X131414761Y-86148333D01*
X131596190Y-86148333D01*
X131717142Y-86208809D01*
X131777619Y-86269285D01*
X131838095Y-86390238D01*
X131838095Y-86692619D01*
X131777619Y-86813571D01*
X131717142Y-86874047D01*
X131596190Y-86934523D01*
X131233333Y-86934523D01*
X131112380Y-86874047D01*
X131051904Y-86813571D01*
X132987142Y-85664523D02*
X132382380Y-85664523D01*
X132321904Y-86269285D01*
X132382380Y-86208809D01*
X132503333Y-86148333D01*
X132805714Y-86148333D01*
X132926666Y-86208809D01*
X132987142Y-86269285D01*
X133047619Y-86390238D01*
X133047619Y-86692619D01*
X132987142Y-86813571D01*
X132926666Y-86874047D01*
X132805714Y-86934523D01*
X132503333Y-86934523D01*
X132382380Y-86874047D01*
X132321904Y-86813571D01*
%TO.C,53*%
X126697619Y-90744523D02*
X126092857Y-90744523D01*
X126032380Y-91349285D01*
X126092857Y-91288809D01*
X126213809Y-91228333D01*
X126516190Y-91228333D01*
X126637142Y-91288809D01*
X126697619Y-91349285D01*
X126758095Y-91470238D01*
X126758095Y-91772619D01*
X126697619Y-91893571D01*
X126637142Y-91954047D01*
X126516190Y-92014523D01*
X126213809Y-92014523D01*
X126092857Y-91954047D01*
X126032380Y-91893571D01*
X127181428Y-90744523D02*
X127967619Y-90744523D01*
X127544285Y-91228333D01*
X127725714Y-91228333D01*
X127846666Y-91288809D01*
X127907142Y-91349285D01*
X127967619Y-91470238D01*
X127967619Y-91772619D01*
X127907142Y-91893571D01*
X127846666Y-91954047D01*
X127725714Y-92014523D01*
X127362857Y-92014523D01*
X127241904Y-91954047D01*
X127181428Y-91893571D01*
%TO.C,125*%
X131233333Y-109794523D02*
X130507619Y-109794523D01*
X130870476Y-109794523D02*
X130870476Y-108524523D01*
X130749523Y-108705952D01*
X130628571Y-108826904D01*
X130507619Y-108887380D01*
X131717142Y-108645476D02*
X131777619Y-108585000D01*
X131898571Y-108524523D01*
X132200952Y-108524523D01*
X132321904Y-108585000D01*
X132382380Y-108645476D01*
X132442857Y-108766428D01*
X132442857Y-108887380D01*
X132382380Y-109068809D01*
X131656666Y-109794523D01*
X132442857Y-109794523D01*
X133591904Y-108524523D02*
X132987142Y-108524523D01*
X132926666Y-109129285D01*
X132987142Y-109068809D01*
X133108095Y-109008333D01*
X133410476Y-109008333D01*
X133531428Y-109068809D01*
X133591904Y-109129285D01*
X133652380Y-109250238D01*
X133652380Y-109552619D01*
X133591904Y-109673571D01*
X133531428Y-109734047D01*
X133410476Y-109794523D01*
X133108095Y-109794523D01*
X132987142Y-109734047D01*
X132926666Y-109673571D01*
%TO.C,101*%
X121073333Y-104714523D02*
X120347619Y-104714523D01*
X120710476Y-104714523D02*
X120710476Y-103444523D01*
X120589523Y-103625952D01*
X120468571Y-103746904D01*
X120347619Y-103807380D01*
X121859523Y-103444523D02*
X121980476Y-103444523D01*
X122101428Y-103505000D01*
X122161904Y-103565476D01*
X122222380Y-103686428D01*
X122282857Y-103928333D01*
X122282857Y-104230714D01*
X122222380Y-104472619D01*
X122161904Y-104593571D01*
X122101428Y-104654047D01*
X121980476Y-104714523D01*
X121859523Y-104714523D01*
X121738571Y-104654047D01*
X121678095Y-104593571D01*
X121617619Y-104472619D01*
X121557142Y-104230714D01*
X121557142Y-103928333D01*
X121617619Y-103686428D01*
X121678095Y-103565476D01*
X121738571Y-103505000D01*
X121859523Y-103444523D01*
X123492380Y-104714523D02*
X122766666Y-104714523D01*
X123129523Y-104714523D02*
X123129523Y-103444523D01*
X123008571Y-103625952D01*
X122887619Y-103746904D01*
X122766666Y-103807380D01*
%TO.C,134*%
X128693333Y-112334523D02*
X127967619Y-112334523D01*
X128330476Y-112334523D02*
X128330476Y-111064523D01*
X128209523Y-111245952D01*
X128088571Y-111366904D01*
X127967619Y-111427380D01*
X129116666Y-111064523D02*
X129902857Y-111064523D01*
X129479523Y-111548333D01*
X129660952Y-111548333D01*
X129781904Y-111608809D01*
X129842380Y-111669285D01*
X129902857Y-111790238D01*
X129902857Y-112092619D01*
X129842380Y-112213571D01*
X129781904Y-112274047D01*
X129660952Y-112334523D01*
X129298095Y-112334523D01*
X129177142Y-112274047D01*
X129116666Y-112213571D01*
X130991428Y-111487857D02*
X130991428Y-112334523D01*
X130689047Y-111004047D02*
X130386666Y-111911190D01*
X131172857Y-111911190D01*
%TO.C,132*%
X123613333Y-112334523D02*
X122887619Y-112334523D01*
X123250476Y-112334523D02*
X123250476Y-111064523D01*
X123129523Y-111245952D01*
X123008571Y-111366904D01*
X122887619Y-111427380D01*
X124036666Y-111064523D02*
X124822857Y-111064523D01*
X124399523Y-111548333D01*
X124580952Y-111548333D01*
X124701904Y-111608809D01*
X124762380Y-111669285D01*
X124822857Y-111790238D01*
X124822857Y-112092619D01*
X124762380Y-112213571D01*
X124701904Y-112274047D01*
X124580952Y-112334523D01*
X124218095Y-112334523D01*
X124097142Y-112274047D01*
X124036666Y-112213571D01*
X125306666Y-111185476D02*
X125367142Y-111125000D01*
X125488095Y-111064523D01*
X125790476Y-111064523D01*
X125911428Y-111125000D01*
X125971904Y-111185476D01*
X126032380Y-111306428D01*
X126032380Y-111427380D01*
X125971904Y-111608809D01*
X125246190Y-112334523D01*
X126032380Y-112334523D01*
%TO.C,51*%
X121617619Y-90744523D02*
X121012857Y-90744523D01*
X120952380Y-91349285D01*
X121012857Y-91288809D01*
X121133809Y-91228333D01*
X121436190Y-91228333D01*
X121557142Y-91288809D01*
X121617619Y-91349285D01*
X121678095Y-91470238D01*
X121678095Y-91772619D01*
X121617619Y-91893571D01*
X121557142Y-91954047D01*
X121436190Y-92014523D01*
X121133809Y-92014523D01*
X121012857Y-91954047D01*
X120952380Y-91893571D01*
X122887619Y-92014523D02*
X122161904Y-92014523D01*
X122524761Y-92014523D02*
X122524761Y-90744523D01*
X122403809Y-90925952D01*
X122282857Y-91046904D01*
X122161904Y-91107380D01*
%TO.C,115*%
X131233333Y-107254523D02*
X130507619Y-107254523D01*
X130870476Y-107254523D02*
X130870476Y-105984523D01*
X130749523Y-106165952D01*
X130628571Y-106286904D01*
X130507619Y-106347380D01*
X132442857Y-107254523D02*
X131717142Y-107254523D01*
X132080000Y-107254523D02*
X132080000Y-105984523D01*
X131959047Y-106165952D01*
X131838095Y-106286904D01*
X131717142Y-106347380D01*
X133591904Y-105984523D02*
X132987142Y-105984523D01*
X132926666Y-106589285D01*
X132987142Y-106528809D01*
X133108095Y-106468333D01*
X133410476Y-106468333D01*
X133531428Y-106528809D01*
X133591904Y-106589285D01*
X133652380Y-106710238D01*
X133652380Y-107012619D01*
X133591904Y-107133571D01*
X133531428Y-107194047D01*
X133410476Y-107254523D01*
X133108095Y-107254523D01*
X132987142Y-107194047D01*
X132926666Y-107133571D01*
%TO.C,83*%
X126274285Y-98908809D02*
X126153333Y-98848333D01*
X126092857Y-98787857D01*
X126032380Y-98666904D01*
X126032380Y-98606428D01*
X126092857Y-98485476D01*
X126153333Y-98425000D01*
X126274285Y-98364523D01*
X126516190Y-98364523D01*
X126637142Y-98425000D01*
X126697619Y-98485476D01*
X126758095Y-98606428D01*
X126758095Y-98666904D01*
X126697619Y-98787857D01*
X126637142Y-98848333D01*
X126516190Y-98908809D01*
X126274285Y-98908809D01*
X126153333Y-98969285D01*
X126092857Y-99029761D01*
X126032380Y-99150714D01*
X126032380Y-99392619D01*
X126092857Y-99513571D01*
X126153333Y-99574047D01*
X126274285Y-99634523D01*
X126516190Y-99634523D01*
X126637142Y-99574047D01*
X126697619Y-99513571D01*
X126758095Y-99392619D01*
X126758095Y-99150714D01*
X126697619Y-99029761D01*
X126637142Y-98969285D01*
X126516190Y-98908809D01*
X127181428Y-98364523D02*
X127967619Y-98364523D01*
X127544285Y-98848333D01*
X127725714Y-98848333D01*
X127846666Y-98908809D01*
X127907142Y-98969285D01*
X127967619Y-99090238D01*
X127967619Y-99392619D01*
X127907142Y-99513571D01*
X127846666Y-99574047D01*
X127725714Y-99634523D01*
X127362857Y-99634523D01*
X127241904Y-99574047D01*
X127181428Y-99513571D01*
%TO.C,36*%
X133591904Y-85664523D02*
X134378095Y-85664523D01*
X133954761Y-86148333D01*
X134136190Y-86148333D01*
X134257142Y-86208809D01*
X134317619Y-86269285D01*
X134378095Y-86390238D01*
X134378095Y-86692619D01*
X134317619Y-86813571D01*
X134257142Y-86874047D01*
X134136190Y-86934523D01*
X133773333Y-86934523D01*
X133652380Y-86874047D01*
X133591904Y-86813571D01*
X135466666Y-85664523D02*
X135224761Y-85664523D01*
X135103809Y-85725000D01*
X135043333Y-85785476D01*
X134922380Y-85966904D01*
X134861904Y-86208809D01*
X134861904Y-86692619D01*
X134922380Y-86813571D01*
X134982857Y-86874047D01*
X135103809Y-86934523D01*
X135345714Y-86934523D01*
X135466666Y-86874047D01*
X135527142Y-86813571D01*
X135587619Y-86692619D01*
X135587619Y-86390238D01*
X135527142Y-86269285D01*
X135466666Y-86208809D01*
X135345714Y-86148333D01*
X135103809Y-86148333D01*
X134982857Y-86208809D01*
X134922380Y-86269285D01*
X134861904Y-86390238D01*
%TO.C,122*%
X123613333Y-109794523D02*
X122887619Y-109794523D01*
X123250476Y-109794523D02*
X123250476Y-108524523D01*
X123129523Y-108705952D01*
X123008571Y-108826904D01*
X122887619Y-108887380D01*
X124097142Y-108645476D02*
X124157619Y-108585000D01*
X124278571Y-108524523D01*
X124580952Y-108524523D01*
X124701904Y-108585000D01*
X124762380Y-108645476D01*
X124822857Y-108766428D01*
X124822857Y-108887380D01*
X124762380Y-109068809D01*
X124036666Y-109794523D01*
X124822857Y-109794523D01*
X125306666Y-108645476D02*
X125367142Y-108585000D01*
X125488095Y-108524523D01*
X125790476Y-108524523D01*
X125911428Y-108585000D01*
X125971904Y-108645476D01*
X126032380Y-108766428D01*
X126032380Y-108887380D01*
X125971904Y-109068809D01*
X125246190Y-109794523D01*
X126032380Y-109794523D01*
%TO.C,54*%
X129237619Y-90744523D02*
X128632857Y-90744523D01*
X128572380Y-91349285D01*
X128632857Y-91288809D01*
X128753809Y-91228333D01*
X129056190Y-91228333D01*
X129177142Y-91288809D01*
X129237619Y-91349285D01*
X129298095Y-91470238D01*
X129298095Y-91772619D01*
X129237619Y-91893571D01*
X129177142Y-91954047D01*
X129056190Y-92014523D01*
X128753809Y-92014523D01*
X128632857Y-91954047D01*
X128572380Y-91893571D01*
X130386666Y-91167857D02*
X130386666Y-92014523D01*
X130084285Y-90684047D02*
X129781904Y-91591190D01*
X130568095Y-91591190D01*
%TO.C,145*%
X131233333Y-114874523D02*
X130507619Y-114874523D01*
X130870476Y-114874523D02*
X130870476Y-113604523D01*
X130749523Y-113785952D01*
X130628571Y-113906904D01*
X130507619Y-113967380D01*
X132321904Y-114027857D02*
X132321904Y-114874523D01*
X132019523Y-113544047D02*
X131717142Y-114451190D01*
X132503333Y-114451190D01*
X133591904Y-113604523D02*
X132987142Y-113604523D01*
X132926666Y-114209285D01*
X132987142Y-114148809D01*
X133108095Y-114088333D01*
X133410476Y-114088333D01*
X133531428Y-114148809D01*
X133591904Y-114209285D01*
X133652380Y-114330238D01*
X133652380Y-114632619D01*
X133591904Y-114753571D01*
X133531428Y-114814047D01*
X133410476Y-114874523D01*
X133108095Y-114874523D01*
X132987142Y-114814047D01*
X132926666Y-114753571D01*
%TO.C,129*%
X141393333Y-109794523D02*
X140667619Y-109794523D01*
X141030476Y-109794523D02*
X141030476Y-108524523D01*
X140909523Y-108705952D01*
X140788571Y-108826904D01*
X140667619Y-108887380D01*
X141877142Y-108645476D02*
X141937619Y-108585000D01*
X142058571Y-108524523D01*
X142360952Y-108524523D01*
X142481904Y-108585000D01*
X142542380Y-108645476D01*
X142602857Y-108766428D01*
X142602857Y-108887380D01*
X142542380Y-109068809D01*
X141816666Y-109794523D01*
X142602857Y-109794523D01*
X143207619Y-109794523D02*
X143449523Y-109794523D01*
X143570476Y-109734047D01*
X143630952Y-109673571D01*
X143751904Y-109492142D01*
X143812380Y-109250238D01*
X143812380Y-108766428D01*
X143751904Y-108645476D01*
X143691428Y-108585000D01*
X143570476Y-108524523D01*
X143328571Y-108524523D01*
X143207619Y-108585000D01*
X143147142Y-108645476D01*
X143086666Y-108766428D01*
X143086666Y-109068809D01*
X143147142Y-109189761D01*
X143207619Y-109250238D01*
X143328571Y-109310714D01*
X143570476Y-109310714D01*
X143691428Y-109250238D01*
X143751904Y-109189761D01*
X143812380Y-109068809D01*
%TO.C,143*%
X126153333Y-114874523D02*
X125427619Y-114874523D01*
X125790476Y-114874523D02*
X125790476Y-113604523D01*
X125669523Y-113785952D01*
X125548571Y-113906904D01*
X125427619Y-113967380D01*
X127241904Y-114027857D02*
X127241904Y-114874523D01*
X126939523Y-113544047D02*
X126637142Y-114451190D01*
X127423333Y-114451190D01*
X127786190Y-113604523D02*
X128572380Y-113604523D01*
X128149047Y-114088333D01*
X128330476Y-114088333D01*
X128451428Y-114148809D01*
X128511904Y-114209285D01*
X128572380Y-114330238D01*
X128572380Y-114632619D01*
X128511904Y-114753571D01*
X128451428Y-114814047D01*
X128330476Y-114874523D01*
X127967619Y-114874523D01*
X127846666Y-114814047D01*
X127786190Y-114753571D01*
%TO.C,70*%
X118351904Y-95824523D02*
X119198571Y-95824523D01*
X118654285Y-97094523D01*
X119924285Y-95824523D02*
X120045238Y-95824523D01*
X120166190Y-95885000D01*
X120226666Y-95945476D01*
X120287142Y-96066428D01*
X120347619Y-96308333D01*
X120347619Y-96610714D01*
X120287142Y-96852619D01*
X120226666Y-96973571D01*
X120166190Y-97034047D01*
X120045238Y-97094523D01*
X119924285Y-97094523D01*
X119803333Y-97034047D01*
X119742857Y-96973571D01*
X119682380Y-96852619D01*
X119621904Y-96610714D01*
X119621904Y-96308333D01*
X119682380Y-96066428D01*
X119742857Y-95945476D01*
X119803333Y-95885000D01*
X119924285Y-95824523D01*
%TO.C,75*%
X131051904Y-95824523D02*
X131898571Y-95824523D01*
X131354285Y-97094523D01*
X132987142Y-95824523D02*
X132382380Y-95824523D01*
X132321904Y-96429285D01*
X132382380Y-96368809D01*
X132503333Y-96308333D01*
X132805714Y-96308333D01*
X132926666Y-96368809D01*
X132987142Y-96429285D01*
X133047619Y-96550238D01*
X133047619Y-96852619D01*
X132987142Y-96973571D01*
X132926666Y-97034047D01*
X132805714Y-97094523D01*
X132503333Y-97094523D01*
X132382380Y-97034047D01*
X132321904Y-96973571D01*
%TO.C,76*%
X133591904Y-95824523D02*
X134438571Y-95824523D01*
X133894285Y-97094523D01*
X135466666Y-95824523D02*
X135224761Y-95824523D01*
X135103809Y-95885000D01*
X135043333Y-95945476D01*
X134922380Y-96126904D01*
X134861904Y-96368809D01*
X134861904Y-96852619D01*
X134922380Y-96973571D01*
X134982857Y-97034047D01*
X135103809Y-97094523D01*
X135345714Y-97094523D01*
X135466666Y-97034047D01*
X135527142Y-96973571D01*
X135587619Y-96852619D01*
X135587619Y-96550238D01*
X135527142Y-96429285D01*
X135466666Y-96368809D01*
X135345714Y-96308333D01*
X135103809Y-96308333D01*
X134982857Y-96368809D01*
X134922380Y-96429285D01*
X134861904Y-96550238D01*
%TO.C,98*%
X138853333Y-102174523D02*
X139095238Y-102174523D01*
X139216190Y-102114047D01*
X139276666Y-102053571D01*
X139397619Y-101872142D01*
X139458095Y-101630238D01*
X139458095Y-101146428D01*
X139397619Y-101025476D01*
X139337142Y-100965000D01*
X139216190Y-100904523D01*
X138974285Y-100904523D01*
X138853333Y-100965000D01*
X138792857Y-101025476D01*
X138732380Y-101146428D01*
X138732380Y-101448809D01*
X138792857Y-101569761D01*
X138853333Y-101630238D01*
X138974285Y-101690714D01*
X139216190Y-101690714D01*
X139337142Y-101630238D01*
X139397619Y-101569761D01*
X139458095Y-101448809D01*
X140183809Y-101448809D02*
X140062857Y-101388333D01*
X140002380Y-101327857D01*
X139941904Y-101206904D01*
X139941904Y-101146428D01*
X140002380Y-101025476D01*
X140062857Y-100965000D01*
X140183809Y-100904523D01*
X140425714Y-100904523D01*
X140546666Y-100965000D01*
X140607142Y-101025476D01*
X140667619Y-101146428D01*
X140667619Y-101206904D01*
X140607142Y-101327857D01*
X140546666Y-101388333D01*
X140425714Y-101448809D01*
X140183809Y-101448809D01*
X140062857Y-101509285D01*
X140002380Y-101569761D01*
X139941904Y-101690714D01*
X139941904Y-101932619D01*
X140002380Y-102053571D01*
X140062857Y-102114047D01*
X140183809Y-102174523D01*
X140425714Y-102174523D01*
X140546666Y-102114047D01*
X140607142Y-102053571D01*
X140667619Y-101932619D01*
X140667619Y-101690714D01*
X140607142Y-101569761D01*
X140546666Y-101509285D01*
X140425714Y-101448809D01*
%TO.C,J1*%
X150166666Y-56552380D02*
X150166666Y-57266666D01*
X150119047Y-57409523D01*
X150023809Y-57504761D01*
X149880952Y-57552380D01*
X149785714Y-57552380D01*
X151166666Y-57552380D02*
X150595238Y-57552380D01*
X150880952Y-57552380D02*
X150880952Y-56552380D01*
X150785714Y-56695238D01*
X150690476Y-56790476D01*
X150595238Y-56838095D01*
%TO.C,30*%
X118351904Y-85664523D02*
X119138095Y-85664523D01*
X118714761Y-86148333D01*
X118896190Y-86148333D01*
X119017142Y-86208809D01*
X119077619Y-86269285D01*
X119138095Y-86390238D01*
X119138095Y-86692619D01*
X119077619Y-86813571D01*
X119017142Y-86874047D01*
X118896190Y-86934523D01*
X118533333Y-86934523D01*
X118412380Y-86874047D01*
X118351904Y-86813571D01*
X119924285Y-85664523D02*
X120045238Y-85664523D01*
X120166190Y-85725000D01*
X120226666Y-85785476D01*
X120287142Y-85906428D01*
X120347619Y-86148333D01*
X120347619Y-86450714D01*
X120287142Y-86692619D01*
X120226666Y-86813571D01*
X120166190Y-86874047D01*
X120045238Y-86934523D01*
X119924285Y-86934523D01*
X119803333Y-86874047D01*
X119742857Y-86813571D01*
X119682380Y-86692619D01*
X119621904Y-86450714D01*
X119621904Y-86148333D01*
X119682380Y-85906428D01*
X119742857Y-85785476D01*
X119803333Y-85725000D01*
X119924285Y-85664523D01*
%TO.C,14*%
X129298095Y-81854523D02*
X128572380Y-81854523D01*
X128935238Y-81854523D02*
X128935238Y-80584523D01*
X128814285Y-80765952D01*
X128693333Y-80886904D01*
X128572380Y-80947380D01*
X130386666Y-81007857D02*
X130386666Y-81854523D01*
X130084285Y-80524047D02*
X129781904Y-81431190D01*
X130568095Y-81431190D01*
%TO.C,4*%
X129781904Y-78467857D02*
X129781904Y-79314523D01*
X129479523Y-77984047D02*
X129177142Y-78891190D01*
X129963333Y-78891190D01*
%TO.C,56*%
X134317619Y-90744523D02*
X133712857Y-90744523D01*
X133652380Y-91349285D01*
X133712857Y-91288809D01*
X133833809Y-91228333D01*
X134136190Y-91228333D01*
X134257142Y-91288809D01*
X134317619Y-91349285D01*
X134378095Y-91470238D01*
X134378095Y-91772619D01*
X134317619Y-91893571D01*
X134257142Y-91954047D01*
X134136190Y-92014523D01*
X133833809Y-92014523D01*
X133712857Y-91954047D01*
X133652380Y-91893571D01*
X135466666Y-90744523D02*
X135224761Y-90744523D01*
X135103809Y-90805000D01*
X135043333Y-90865476D01*
X134922380Y-91046904D01*
X134861904Y-91288809D01*
X134861904Y-91772619D01*
X134922380Y-91893571D01*
X134982857Y-91954047D01*
X135103809Y-92014523D01*
X135345714Y-92014523D01*
X135466666Y-91954047D01*
X135527142Y-91893571D01*
X135587619Y-91772619D01*
X135587619Y-91470238D01*
X135527142Y-91349285D01*
X135466666Y-91288809D01*
X135345714Y-91228333D01*
X135103809Y-91228333D01*
X134982857Y-91288809D01*
X134922380Y-91349285D01*
X134861904Y-91470238D01*
%TO.C,8*%
X139579047Y-78588809D02*
X139458095Y-78528333D01*
X139397619Y-78467857D01*
X139337142Y-78346904D01*
X139337142Y-78286428D01*
X139397619Y-78165476D01*
X139458095Y-78105000D01*
X139579047Y-78044523D01*
X139820952Y-78044523D01*
X139941904Y-78105000D01*
X140002380Y-78165476D01*
X140062857Y-78286428D01*
X140062857Y-78346904D01*
X140002380Y-78467857D01*
X139941904Y-78528333D01*
X139820952Y-78588809D01*
X139579047Y-78588809D01*
X139458095Y-78649285D01*
X139397619Y-78709761D01*
X139337142Y-78830714D01*
X139337142Y-79072619D01*
X139397619Y-79193571D01*
X139458095Y-79254047D01*
X139579047Y-79314523D01*
X139820952Y-79314523D01*
X139941904Y-79254047D01*
X140002380Y-79193571D01*
X140062857Y-79072619D01*
X140062857Y-78830714D01*
X140002380Y-78709761D01*
X139941904Y-78649285D01*
X139820952Y-78588809D01*
%TO.C,46*%
X134257142Y-88627857D02*
X134257142Y-89474523D01*
X133954761Y-88144047D02*
X133652380Y-89051190D01*
X134438571Y-89051190D01*
X135466666Y-88204523D02*
X135224761Y-88204523D01*
X135103809Y-88265000D01*
X135043333Y-88325476D01*
X134922380Y-88506904D01*
X134861904Y-88748809D01*
X134861904Y-89232619D01*
X134922380Y-89353571D01*
X134982857Y-89414047D01*
X135103809Y-89474523D01*
X135345714Y-89474523D01*
X135466666Y-89414047D01*
X135527142Y-89353571D01*
X135587619Y-89232619D01*
X135587619Y-88930238D01*
X135527142Y-88809285D01*
X135466666Y-88748809D01*
X135345714Y-88688333D01*
X135103809Y-88688333D01*
X134982857Y-88748809D01*
X134922380Y-88809285D01*
X134861904Y-88930238D01*
%TO.C,105*%
X131233333Y-104714523D02*
X130507619Y-104714523D01*
X130870476Y-104714523D02*
X130870476Y-103444523D01*
X130749523Y-103625952D01*
X130628571Y-103746904D01*
X130507619Y-103807380D01*
X132019523Y-103444523D02*
X132140476Y-103444523D01*
X132261428Y-103505000D01*
X132321904Y-103565476D01*
X132382380Y-103686428D01*
X132442857Y-103928333D01*
X132442857Y-104230714D01*
X132382380Y-104472619D01*
X132321904Y-104593571D01*
X132261428Y-104654047D01*
X132140476Y-104714523D01*
X132019523Y-104714523D01*
X131898571Y-104654047D01*
X131838095Y-104593571D01*
X131777619Y-104472619D01*
X131717142Y-104230714D01*
X131717142Y-103928333D01*
X131777619Y-103686428D01*
X131838095Y-103565476D01*
X131898571Y-103505000D01*
X132019523Y-103444523D01*
X133591904Y-103444523D02*
X132987142Y-103444523D01*
X132926666Y-104049285D01*
X132987142Y-103988809D01*
X133108095Y-103928333D01*
X133410476Y-103928333D01*
X133531428Y-103988809D01*
X133591904Y-104049285D01*
X133652380Y-104170238D01*
X133652380Y-104472619D01*
X133591904Y-104593571D01*
X133531428Y-104654047D01*
X133410476Y-104714523D01*
X133108095Y-104714523D01*
X132987142Y-104654047D01*
X132926666Y-104593571D01*
%TO.C,72*%
X123431904Y-95824523D02*
X124278571Y-95824523D01*
X123734285Y-97094523D01*
X124701904Y-95945476D02*
X124762380Y-95885000D01*
X124883333Y-95824523D01*
X125185714Y-95824523D01*
X125306666Y-95885000D01*
X125367142Y-95945476D01*
X125427619Y-96066428D01*
X125427619Y-96187380D01*
X125367142Y-96368809D01*
X124641428Y-97094523D01*
X125427619Y-97094523D01*
%TO.C,*%
%TO.C,49*%
X141877142Y-88627857D02*
X141877142Y-89474523D01*
X141574761Y-88144047D02*
X141272380Y-89051190D01*
X142058571Y-89051190D01*
X142602857Y-89474523D02*
X142844761Y-89474523D01*
X142965714Y-89414047D01*
X143026190Y-89353571D01*
X143147142Y-89172142D01*
X143207619Y-88930238D01*
X143207619Y-88446428D01*
X143147142Y-88325476D01*
X143086666Y-88265000D01*
X142965714Y-88204523D01*
X142723809Y-88204523D01*
X142602857Y-88265000D01*
X142542380Y-88325476D01*
X142481904Y-88446428D01*
X142481904Y-88748809D01*
X142542380Y-88869761D01*
X142602857Y-88930238D01*
X142723809Y-88990714D01*
X142965714Y-88990714D01*
X143086666Y-88930238D01*
X143147142Y-88869761D01*
X143207619Y-88748809D01*
%TO.C,89*%
X141514285Y-98908809D02*
X141393333Y-98848333D01*
X141332857Y-98787857D01*
X141272380Y-98666904D01*
X141272380Y-98606428D01*
X141332857Y-98485476D01*
X141393333Y-98425000D01*
X141514285Y-98364523D01*
X141756190Y-98364523D01*
X141877142Y-98425000D01*
X141937619Y-98485476D01*
X141998095Y-98606428D01*
X141998095Y-98666904D01*
X141937619Y-98787857D01*
X141877142Y-98848333D01*
X141756190Y-98908809D01*
X141514285Y-98908809D01*
X141393333Y-98969285D01*
X141332857Y-99029761D01*
X141272380Y-99150714D01*
X141272380Y-99392619D01*
X141332857Y-99513571D01*
X141393333Y-99574047D01*
X141514285Y-99634523D01*
X141756190Y-99634523D01*
X141877142Y-99574047D01*
X141937619Y-99513571D01*
X141998095Y-99392619D01*
X141998095Y-99150714D01*
X141937619Y-99029761D01*
X141877142Y-98969285D01*
X141756190Y-98908809D01*
X142602857Y-99634523D02*
X142844761Y-99634523D01*
X142965714Y-99574047D01*
X143026190Y-99513571D01*
X143147142Y-99332142D01*
X143207619Y-99090238D01*
X143207619Y-98606428D01*
X143147142Y-98485476D01*
X143086666Y-98425000D01*
X142965714Y-98364523D01*
X142723809Y-98364523D01*
X142602857Y-98425000D01*
X142542380Y-98485476D01*
X142481904Y-98606428D01*
X142481904Y-98908809D01*
X142542380Y-99029761D01*
X142602857Y-99090238D01*
X142723809Y-99150714D01*
X142965714Y-99150714D01*
X143086666Y-99090238D01*
X143147142Y-99029761D01*
X143207619Y-98908809D01*
%TO.C,25*%
X131112380Y-83245476D02*
X131172857Y-83185000D01*
X131293809Y-83124523D01*
X131596190Y-83124523D01*
X131717142Y-83185000D01*
X131777619Y-83245476D01*
X131838095Y-83366428D01*
X131838095Y-83487380D01*
X131777619Y-83668809D01*
X131051904Y-84394523D01*
X131838095Y-84394523D01*
X132987142Y-83124523D02*
X132382380Y-83124523D01*
X132321904Y-83729285D01*
X132382380Y-83668809D01*
X132503333Y-83608333D01*
X132805714Y-83608333D01*
X132926666Y-83668809D01*
X132987142Y-83729285D01*
X133047619Y-83850238D01*
X133047619Y-84152619D01*
X132987142Y-84273571D01*
X132926666Y-84334047D01*
X132805714Y-84394523D01*
X132503333Y-84394523D01*
X132382380Y-84334047D01*
X132321904Y-84273571D01*
%TO.C,107*%
X136313333Y-104714523D02*
X135587619Y-104714523D01*
X135950476Y-104714523D02*
X135950476Y-103444523D01*
X135829523Y-103625952D01*
X135708571Y-103746904D01*
X135587619Y-103807380D01*
X137099523Y-103444523D02*
X137220476Y-103444523D01*
X137341428Y-103505000D01*
X137401904Y-103565476D01*
X137462380Y-103686428D01*
X137522857Y-103928333D01*
X137522857Y-104230714D01*
X137462380Y-104472619D01*
X137401904Y-104593571D01*
X137341428Y-104654047D01*
X137220476Y-104714523D01*
X137099523Y-104714523D01*
X136978571Y-104654047D01*
X136918095Y-104593571D01*
X136857619Y-104472619D01*
X136797142Y-104230714D01*
X136797142Y-103928333D01*
X136857619Y-103686428D01*
X136918095Y-103565476D01*
X136978571Y-103505000D01*
X137099523Y-103444523D01*
X137946190Y-103444523D02*
X138792857Y-103444523D01*
X138248571Y-104714523D01*
%TO.C,90*%
X118533333Y-102174523D02*
X118775238Y-102174523D01*
X118896190Y-102114047D01*
X118956666Y-102053571D01*
X119077619Y-101872142D01*
X119138095Y-101630238D01*
X119138095Y-101146428D01*
X119077619Y-101025476D01*
X119017142Y-100965000D01*
X118896190Y-100904523D01*
X118654285Y-100904523D01*
X118533333Y-100965000D01*
X118472857Y-101025476D01*
X118412380Y-101146428D01*
X118412380Y-101448809D01*
X118472857Y-101569761D01*
X118533333Y-101630238D01*
X118654285Y-101690714D01*
X118896190Y-101690714D01*
X119017142Y-101630238D01*
X119077619Y-101569761D01*
X119138095Y-101448809D01*
X119924285Y-100904523D02*
X120045238Y-100904523D01*
X120166190Y-100965000D01*
X120226666Y-101025476D01*
X120287142Y-101146428D01*
X120347619Y-101388333D01*
X120347619Y-101690714D01*
X120287142Y-101932619D01*
X120226666Y-102053571D01*
X120166190Y-102114047D01*
X120045238Y-102174523D01*
X119924285Y-102174523D01*
X119803333Y-102114047D01*
X119742857Y-102053571D01*
X119682380Y-101932619D01*
X119621904Y-101690714D01*
X119621904Y-101388333D01*
X119682380Y-101146428D01*
X119742857Y-101025476D01*
X119803333Y-100965000D01*
X119924285Y-100904523D01*
%TO.C,73*%
X125971904Y-95824523D02*
X126818571Y-95824523D01*
X126274285Y-97094523D01*
X127181428Y-95824523D02*
X127967619Y-95824523D01*
X127544285Y-96308333D01*
X127725714Y-96308333D01*
X127846666Y-96368809D01*
X127907142Y-96429285D01*
X127967619Y-96550238D01*
X127967619Y-96852619D01*
X127907142Y-96973571D01*
X127846666Y-97034047D01*
X127725714Y-97094523D01*
X127362857Y-97094523D01*
X127241904Y-97034047D01*
X127181428Y-96973571D01*
%TO.C,J4*%
X124547380Y-122333333D02*
X125261666Y-122333333D01*
X125404523Y-122380952D01*
X125499761Y-122476190D01*
X125547380Y-122619047D01*
X125547380Y-122714285D01*
X124880714Y-121428571D02*
X125547380Y-121428571D01*
X124499761Y-121666666D02*
X125214047Y-121904761D01*
X125214047Y-121285714D01*
%TO.C,1*%
X122282857Y-79314523D02*
X121557142Y-79314523D01*
X121920000Y-79314523D02*
X121920000Y-78044523D01*
X121799047Y-78225952D01*
X121678095Y-78346904D01*
X121557142Y-78407380D01*
%TO.C,39*%
X141211904Y-85664523D02*
X141998095Y-85664523D01*
X141574761Y-86148333D01*
X141756190Y-86148333D01*
X141877142Y-86208809D01*
X141937619Y-86269285D01*
X141998095Y-86390238D01*
X141998095Y-86692619D01*
X141937619Y-86813571D01*
X141877142Y-86874047D01*
X141756190Y-86934523D01*
X141393333Y-86934523D01*
X141272380Y-86874047D01*
X141211904Y-86813571D01*
X142602857Y-86934523D02*
X142844761Y-86934523D01*
X142965714Y-86874047D01*
X143026190Y-86813571D01*
X143147142Y-86632142D01*
X143207619Y-86390238D01*
X143207619Y-85906428D01*
X143147142Y-85785476D01*
X143086666Y-85725000D01*
X142965714Y-85664523D01*
X142723809Y-85664523D01*
X142602857Y-85725000D01*
X142542380Y-85785476D01*
X142481904Y-85906428D01*
X142481904Y-86208809D01*
X142542380Y-86329761D01*
X142602857Y-86390238D01*
X142723809Y-86450714D01*
X142965714Y-86450714D01*
X143086666Y-86390238D01*
X143147142Y-86329761D01*
X143207619Y-86208809D01*
%TO.C,133*%
X126153333Y-112334523D02*
X125427619Y-112334523D01*
X125790476Y-112334523D02*
X125790476Y-111064523D01*
X125669523Y-111245952D01*
X125548571Y-111366904D01*
X125427619Y-111427380D01*
X126576666Y-111064523D02*
X127362857Y-111064523D01*
X126939523Y-111548333D01*
X127120952Y-111548333D01*
X127241904Y-111608809D01*
X127302380Y-111669285D01*
X127362857Y-111790238D01*
X127362857Y-112092619D01*
X127302380Y-112213571D01*
X127241904Y-112274047D01*
X127120952Y-112334523D01*
X126758095Y-112334523D01*
X126637142Y-112274047D01*
X126576666Y-112213571D01*
X127786190Y-111064523D02*
X128572380Y-111064523D01*
X128149047Y-111548333D01*
X128330476Y-111548333D01*
X128451428Y-111608809D01*
X128511904Y-111669285D01*
X128572380Y-111790238D01*
X128572380Y-112092619D01*
X128511904Y-112213571D01*
X128451428Y-112274047D01*
X128330476Y-112334523D01*
X127967619Y-112334523D01*
X127846666Y-112274047D01*
X127786190Y-112213571D01*
%TO.C,20*%
X118412380Y-83245476D02*
X118472857Y-83185000D01*
X118593809Y-83124523D01*
X118896190Y-83124523D01*
X119017142Y-83185000D01*
X119077619Y-83245476D01*
X119138095Y-83366428D01*
X119138095Y-83487380D01*
X119077619Y-83668809D01*
X118351904Y-84394523D01*
X119138095Y-84394523D01*
X119924285Y-83124523D02*
X120045238Y-83124523D01*
X120166190Y-83185000D01*
X120226666Y-83245476D01*
X120287142Y-83366428D01*
X120347619Y-83608333D01*
X120347619Y-83910714D01*
X120287142Y-84152619D01*
X120226666Y-84273571D01*
X120166190Y-84334047D01*
X120045238Y-84394523D01*
X119924285Y-84394523D01*
X119803333Y-84334047D01*
X119742857Y-84273571D01*
X119682380Y-84152619D01*
X119621904Y-83910714D01*
X119621904Y-83608333D01*
X119682380Y-83366428D01*
X119742857Y-83245476D01*
X119803333Y-83185000D01*
X119924285Y-83124523D01*
%TO.C,87*%
X136434285Y-98908809D02*
X136313333Y-98848333D01*
X136252857Y-98787857D01*
X136192380Y-98666904D01*
X136192380Y-98606428D01*
X136252857Y-98485476D01*
X136313333Y-98425000D01*
X136434285Y-98364523D01*
X136676190Y-98364523D01*
X136797142Y-98425000D01*
X136857619Y-98485476D01*
X136918095Y-98606428D01*
X136918095Y-98666904D01*
X136857619Y-98787857D01*
X136797142Y-98848333D01*
X136676190Y-98908809D01*
X136434285Y-98908809D01*
X136313333Y-98969285D01*
X136252857Y-99029761D01*
X136192380Y-99150714D01*
X136192380Y-99392619D01*
X136252857Y-99513571D01*
X136313333Y-99574047D01*
X136434285Y-99634523D01*
X136676190Y-99634523D01*
X136797142Y-99574047D01*
X136857619Y-99513571D01*
X136918095Y-99392619D01*
X136918095Y-99150714D01*
X136857619Y-99029761D01*
X136797142Y-98969285D01*
X136676190Y-98908809D01*
X137341428Y-98364523D02*
X138188095Y-98364523D01*
X137643809Y-99634523D01*
%TO.C,121*%
X121073333Y-109794523D02*
X120347619Y-109794523D01*
X120710476Y-109794523D02*
X120710476Y-108524523D01*
X120589523Y-108705952D01*
X120468571Y-108826904D01*
X120347619Y-108887380D01*
X121557142Y-108645476D02*
X121617619Y-108585000D01*
X121738571Y-108524523D01*
X122040952Y-108524523D01*
X122161904Y-108585000D01*
X122222380Y-108645476D01*
X122282857Y-108766428D01*
X122282857Y-108887380D01*
X122222380Y-109068809D01*
X121496666Y-109794523D01*
X122282857Y-109794523D01*
X123492380Y-109794523D02*
X122766666Y-109794523D01*
X123129523Y-109794523D02*
X123129523Y-108524523D01*
X123008571Y-108705952D01*
X122887619Y-108826904D01*
X122766666Y-108887380D01*
%TO.C,28*%
X138732380Y-83245476D02*
X138792857Y-83185000D01*
X138913809Y-83124523D01*
X139216190Y-83124523D01*
X139337142Y-83185000D01*
X139397619Y-83245476D01*
X139458095Y-83366428D01*
X139458095Y-83487380D01*
X139397619Y-83668809D01*
X138671904Y-84394523D01*
X139458095Y-84394523D01*
X140183809Y-83668809D02*
X140062857Y-83608333D01*
X140002380Y-83547857D01*
X139941904Y-83426904D01*
X139941904Y-83366428D01*
X140002380Y-83245476D01*
X140062857Y-83185000D01*
X140183809Y-83124523D01*
X140425714Y-83124523D01*
X140546666Y-83185000D01*
X140607142Y-83245476D01*
X140667619Y-83366428D01*
X140667619Y-83426904D01*
X140607142Y-83547857D01*
X140546666Y-83608333D01*
X140425714Y-83668809D01*
X140183809Y-83668809D01*
X140062857Y-83729285D01*
X140002380Y-83789761D01*
X139941904Y-83910714D01*
X139941904Y-84152619D01*
X140002380Y-84273571D01*
X140062857Y-84334047D01*
X140183809Y-84394523D01*
X140425714Y-84394523D01*
X140546666Y-84334047D01*
X140607142Y-84273571D01*
X140667619Y-84152619D01*
X140667619Y-83910714D01*
X140607142Y-83789761D01*
X140546666Y-83729285D01*
X140425714Y-83668809D01*
%TO.C,15*%
X131838095Y-81854523D02*
X131112380Y-81854523D01*
X131475238Y-81854523D02*
X131475238Y-80584523D01*
X131354285Y-80765952D01*
X131233333Y-80886904D01*
X131112380Y-80947380D01*
X132987142Y-80584523D02*
X132382380Y-80584523D01*
X132321904Y-81189285D01*
X132382380Y-81128809D01*
X132503333Y-81068333D01*
X132805714Y-81068333D01*
X132926666Y-81128809D01*
X132987142Y-81189285D01*
X133047619Y-81310238D01*
X133047619Y-81612619D01*
X132987142Y-81733571D01*
X132926666Y-81794047D01*
X132805714Y-81854523D01*
X132503333Y-81854523D01*
X132382380Y-81794047D01*
X132321904Y-81733571D01*
%TO.C,92*%
X123613333Y-102174523D02*
X123855238Y-102174523D01*
X123976190Y-102114047D01*
X124036666Y-102053571D01*
X124157619Y-101872142D01*
X124218095Y-101630238D01*
X124218095Y-101146428D01*
X124157619Y-101025476D01*
X124097142Y-100965000D01*
X123976190Y-100904523D01*
X123734285Y-100904523D01*
X123613333Y-100965000D01*
X123552857Y-101025476D01*
X123492380Y-101146428D01*
X123492380Y-101448809D01*
X123552857Y-101569761D01*
X123613333Y-101630238D01*
X123734285Y-101690714D01*
X123976190Y-101690714D01*
X124097142Y-101630238D01*
X124157619Y-101569761D01*
X124218095Y-101448809D01*
X124701904Y-101025476D02*
X124762380Y-100965000D01*
X124883333Y-100904523D01*
X125185714Y-100904523D01*
X125306666Y-100965000D01*
X125367142Y-101025476D01*
X125427619Y-101146428D01*
X125427619Y-101267380D01*
X125367142Y-101448809D01*
X124641428Y-102174523D01*
X125427619Y-102174523D01*
%TO.C,88*%
X138974285Y-98908809D02*
X138853333Y-98848333D01*
X138792857Y-98787857D01*
X138732380Y-98666904D01*
X138732380Y-98606428D01*
X138792857Y-98485476D01*
X138853333Y-98425000D01*
X138974285Y-98364523D01*
X139216190Y-98364523D01*
X139337142Y-98425000D01*
X139397619Y-98485476D01*
X139458095Y-98606428D01*
X139458095Y-98666904D01*
X139397619Y-98787857D01*
X139337142Y-98848333D01*
X139216190Y-98908809D01*
X138974285Y-98908809D01*
X138853333Y-98969285D01*
X138792857Y-99029761D01*
X138732380Y-99150714D01*
X138732380Y-99392619D01*
X138792857Y-99513571D01*
X138853333Y-99574047D01*
X138974285Y-99634523D01*
X139216190Y-99634523D01*
X139337142Y-99574047D01*
X139397619Y-99513571D01*
X139458095Y-99392619D01*
X139458095Y-99150714D01*
X139397619Y-99029761D01*
X139337142Y-98969285D01*
X139216190Y-98908809D01*
X140183809Y-98908809D02*
X140062857Y-98848333D01*
X140002380Y-98787857D01*
X139941904Y-98666904D01*
X139941904Y-98606428D01*
X140002380Y-98485476D01*
X140062857Y-98425000D01*
X140183809Y-98364523D01*
X140425714Y-98364523D01*
X140546666Y-98425000D01*
X140607142Y-98485476D01*
X140667619Y-98606428D01*
X140667619Y-98666904D01*
X140607142Y-98787857D01*
X140546666Y-98848333D01*
X140425714Y-98908809D01*
X140183809Y-98908809D01*
X140062857Y-98969285D01*
X140002380Y-99029761D01*
X139941904Y-99150714D01*
X139941904Y-99392619D01*
X140002380Y-99513571D01*
X140062857Y-99574047D01*
X140183809Y-99634523D01*
X140425714Y-99634523D01*
X140546666Y-99574047D01*
X140607142Y-99513571D01*
X140667619Y-99392619D01*
X140667619Y-99150714D01*
X140607142Y-99029761D01*
X140546666Y-98969285D01*
X140425714Y-98908809D01*
%TO.C,100*%
X118533333Y-104714523D02*
X117807619Y-104714523D01*
X118170476Y-104714523D02*
X118170476Y-103444523D01*
X118049523Y-103625952D01*
X117928571Y-103746904D01*
X117807619Y-103807380D01*
X119319523Y-103444523D02*
X119440476Y-103444523D01*
X119561428Y-103505000D01*
X119621904Y-103565476D01*
X119682380Y-103686428D01*
X119742857Y-103928333D01*
X119742857Y-104230714D01*
X119682380Y-104472619D01*
X119621904Y-104593571D01*
X119561428Y-104654047D01*
X119440476Y-104714523D01*
X119319523Y-104714523D01*
X119198571Y-104654047D01*
X119138095Y-104593571D01*
X119077619Y-104472619D01*
X119017142Y-104230714D01*
X119017142Y-103928333D01*
X119077619Y-103686428D01*
X119138095Y-103565476D01*
X119198571Y-103505000D01*
X119319523Y-103444523D01*
X120529047Y-103444523D02*
X120650000Y-103444523D01*
X120770952Y-103505000D01*
X120831428Y-103565476D01*
X120891904Y-103686428D01*
X120952380Y-103928333D01*
X120952380Y-104230714D01*
X120891904Y-104472619D01*
X120831428Y-104593571D01*
X120770952Y-104654047D01*
X120650000Y-104714523D01*
X120529047Y-104714523D01*
X120408095Y-104654047D01*
X120347619Y-104593571D01*
X120287142Y-104472619D01*
X120226666Y-104230714D01*
X120226666Y-103928333D01*
X120287142Y-103686428D01*
X120347619Y-103565476D01*
X120408095Y-103505000D01*
X120529047Y-103444523D01*
%TO.C,41*%
X121557142Y-88627857D02*
X121557142Y-89474523D01*
X121254761Y-88144047D02*
X120952380Y-89051190D01*
X121738571Y-89051190D01*
X122887619Y-89474523D02*
X122161904Y-89474523D01*
X122524761Y-89474523D02*
X122524761Y-88204523D01*
X122403809Y-88385952D01*
X122282857Y-88506904D01*
X122161904Y-88567380D01*
%TO.C,119*%
X141393333Y-107254523D02*
X140667619Y-107254523D01*
X141030476Y-107254523D02*
X141030476Y-105984523D01*
X140909523Y-106165952D01*
X140788571Y-106286904D01*
X140667619Y-106347380D01*
X142602857Y-107254523D02*
X141877142Y-107254523D01*
X142240000Y-107254523D02*
X142240000Y-105984523D01*
X142119047Y-106165952D01*
X141998095Y-106286904D01*
X141877142Y-106347380D01*
X143207619Y-107254523D02*
X143449523Y-107254523D01*
X143570476Y-107194047D01*
X143630952Y-107133571D01*
X143751904Y-106952142D01*
X143812380Y-106710238D01*
X143812380Y-106226428D01*
X143751904Y-106105476D01*
X143691428Y-106045000D01*
X143570476Y-105984523D01*
X143328571Y-105984523D01*
X143207619Y-106045000D01*
X143147142Y-106105476D01*
X143086666Y-106226428D01*
X143086666Y-106528809D01*
X143147142Y-106649761D01*
X143207619Y-106710238D01*
X143328571Y-106770714D01*
X143570476Y-106770714D01*
X143691428Y-106710238D01*
X143751904Y-106649761D01*
X143812380Y-106528809D01*
%TO.C,21*%
X120952380Y-83245476D02*
X121012857Y-83185000D01*
X121133809Y-83124523D01*
X121436190Y-83124523D01*
X121557142Y-83185000D01*
X121617619Y-83245476D01*
X121678095Y-83366428D01*
X121678095Y-83487380D01*
X121617619Y-83668809D01*
X120891904Y-84394523D01*
X121678095Y-84394523D01*
X122887619Y-84394523D02*
X122161904Y-84394523D01*
X122524761Y-84394523D02*
X122524761Y-83124523D01*
X122403809Y-83305952D01*
X122282857Y-83426904D01*
X122161904Y-83487380D01*
%TO.C,32*%
X123431904Y-85664523D02*
X124218095Y-85664523D01*
X123794761Y-86148333D01*
X123976190Y-86148333D01*
X124097142Y-86208809D01*
X124157619Y-86269285D01*
X124218095Y-86390238D01*
X124218095Y-86692619D01*
X124157619Y-86813571D01*
X124097142Y-86874047D01*
X123976190Y-86934523D01*
X123613333Y-86934523D01*
X123492380Y-86874047D01*
X123431904Y-86813571D01*
X124701904Y-85785476D02*
X124762380Y-85725000D01*
X124883333Y-85664523D01*
X125185714Y-85664523D01*
X125306666Y-85725000D01*
X125367142Y-85785476D01*
X125427619Y-85906428D01*
X125427619Y-86027380D01*
X125367142Y-86208809D01*
X124641428Y-86934523D01*
X125427619Y-86934523D01*
%TO.C,79*%
X141211904Y-95824523D02*
X142058571Y-95824523D01*
X141514285Y-97094523D01*
X142602857Y-97094523D02*
X142844761Y-97094523D01*
X142965714Y-97034047D01*
X143026190Y-96973571D01*
X143147142Y-96792142D01*
X143207619Y-96550238D01*
X143207619Y-96066428D01*
X143147142Y-95945476D01*
X143086666Y-95885000D01*
X142965714Y-95824523D01*
X142723809Y-95824523D01*
X142602857Y-95885000D01*
X142542380Y-95945476D01*
X142481904Y-96066428D01*
X142481904Y-96368809D01*
X142542380Y-96489761D01*
X142602857Y-96550238D01*
X142723809Y-96610714D01*
X142965714Y-96610714D01*
X143086666Y-96550238D01*
X143147142Y-96489761D01*
X143207619Y-96368809D01*
%TO.C,44*%
X129177142Y-88627857D02*
X129177142Y-89474523D01*
X128874761Y-88144047D02*
X128572380Y-89051190D01*
X129358571Y-89051190D01*
X130386666Y-88627857D02*
X130386666Y-89474523D01*
X130084285Y-88144047D02*
X129781904Y-89051190D01*
X130568095Y-89051190D01*
%TO.C,60*%
X119017142Y-93284523D02*
X118775238Y-93284523D01*
X118654285Y-93345000D01*
X118593809Y-93405476D01*
X118472857Y-93586904D01*
X118412380Y-93828809D01*
X118412380Y-94312619D01*
X118472857Y-94433571D01*
X118533333Y-94494047D01*
X118654285Y-94554523D01*
X118896190Y-94554523D01*
X119017142Y-94494047D01*
X119077619Y-94433571D01*
X119138095Y-94312619D01*
X119138095Y-94010238D01*
X119077619Y-93889285D01*
X119017142Y-93828809D01*
X118896190Y-93768333D01*
X118654285Y-93768333D01*
X118533333Y-93828809D01*
X118472857Y-93889285D01*
X118412380Y-94010238D01*
X119924285Y-93284523D02*
X120045238Y-93284523D01*
X120166190Y-93345000D01*
X120226666Y-93405476D01*
X120287142Y-93526428D01*
X120347619Y-93768333D01*
X120347619Y-94070714D01*
X120287142Y-94312619D01*
X120226666Y-94433571D01*
X120166190Y-94494047D01*
X120045238Y-94554523D01*
X119924285Y-94554523D01*
X119803333Y-94494047D01*
X119742857Y-94433571D01*
X119682380Y-94312619D01*
X119621904Y-94070714D01*
X119621904Y-93768333D01*
X119682380Y-93526428D01*
X119742857Y-93405476D01*
X119803333Y-93345000D01*
X119924285Y-93284523D01*
%TO.C,23*%
X126032380Y-83245476D02*
X126092857Y-83185000D01*
X126213809Y-83124523D01*
X126516190Y-83124523D01*
X126637142Y-83185000D01*
X126697619Y-83245476D01*
X126758095Y-83366428D01*
X126758095Y-83487380D01*
X126697619Y-83668809D01*
X125971904Y-84394523D01*
X126758095Y-84394523D01*
X127181428Y-83124523D02*
X127967619Y-83124523D01*
X127544285Y-83608333D01*
X127725714Y-83608333D01*
X127846666Y-83668809D01*
X127907142Y-83729285D01*
X127967619Y-83850238D01*
X127967619Y-84152619D01*
X127907142Y-84273571D01*
X127846666Y-84334047D01*
X127725714Y-84394523D01*
X127362857Y-84394523D01*
X127241904Y-84334047D01*
X127181428Y-84273571D01*
%TO.C,82*%
X123734285Y-98908809D02*
X123613333Y-98848333D01*
X123552857Y-98787857D01*
X123492380Y-98666904D01*
X123492380Y-98606428D01*
X123552857Y-98485476D01*
X123613333Y-98425000D01*
X123734285Y-98364523D01*
X123976190Y-98364523D01*
X124097142Y-98425000D01*
X124157619Y-98485476D01*
X124218095Y-98606428D01*
X124218095Y-98666904D01*
X124157619Y-98787857D01*
X124097142Y-98848333D01*
X123976190Y-98908809D01*
X123734285Y-98908809D01*
X123613333Y-98969285D01*
X123552857Y-99029761D01*
X123492380Y-99150714D01*
X123492380Y-99392619D01*
X123552857Y-99513571D01*
X123613333Y-99574047D01*
X123734285Y-99634523D01*
X123976190Y-99634523D01*
X124097142Y-99574047D01*
X124157619Y-99513571D01*
X124218095Y-99392619D01*
X124218095Y-99150714D01*
X124157619Y-99029761D01*
X124097142Y-98969285D01*
X123976190Y-98908809D01*
X124701904Y-98485476D02*
X124762380Y-98425000D01*
X124883333Y-98364523D01*
X125185714Y-98364523D01*
X125306666Y-98425000D01*
X125367142Y-98485476D01*
X125427619Y-98606428D01*
X125427619Y-98727380D01*
X125367142Y-98908809D01*
X124641428Y-99634523D01*
X125427619Y-99634523D01*
%TO.C,139*%
X141393333Y-112334523D02*
X140667619Y-112334523D01*
X141030476Y-112334523D02*
X141030476Y-111064523D01*
X140909523Y-111245952D01*
X140788571Y-111366904D01*
X140667619Y-111427380D01*
X141816666Y-111064523D02*
X142602857Y-111064523D01*
X142179523Y-111548333D01*
X142360952Y-111548333D01*
X142481904Y-111608809D01*
X142542380Y-111669285D01*
X142602857Y-111790238D01*
X142602857Y-112092619D01*
X142542380Y-112213571D01*
X142481904Y-112274047D01*
X142360952Y-112334523D01*
X141998095Y-112334523D01*
X141877142Y-112274047D01*
X141816666Y-112213571D01*
X143207619Y-112334523D02*
X143449523Y-112334523D01*
X143570476Y-112274047D01*
X143630952Y-112213571D01*
X143751904Y-112032142D01*
X143812380Y-111790238D01*
X143812380Y-111306428D01*
X143751904Y-111185476D01*
X143691428Y-111125000D01*
X143570476Y-111064523D01*
X143328571Y-111064523D01*
X143207619Y-111125000D01*
X143147142Y-111185476D01*
X143086666Y-111306428D01*
X143086666Y-111608809D01*
X143147142Y-111729761D01*
X143207619Y-111790238D01*
X143328571Y-111850714D01*
X143570476Y-111850714D01*
X143691428Y-111790238D01*
X143751904Y-111729761D01*
X143812380Y-111608809D01*
%TO.C,95*%
X131233333Y-102174523D02*
X131475238Y-102174523D01*
X131596190Y-102114047D01*
X131656666Y-102053571D01*
X131777619Y-101872142D01*
X131838095Y-101630238D01*
X131838095Y-101146428D01*
X131777619Y-101025476D01*
X131717142Y-100965000D01*
X131596190Y-100904523D01*
X131354285Y-100904523D01*
X131233333Y-100965000D01*
X131172857Y-101025476D01*
X131112380Y-101146428D01*
X131112380Y-101448809D01*
X131172857Y-101569761D01*
X131233333Y-101630238D01*
X131354285Y-101690714D01*
X131596190Y-101690714D01*
X131717142Y-101630238D01*
X131777619Y-101569761D01*
X131838095Y-101448809D01*
X132987142Y-100904523D02*
X132382380Y-100904523D01*
X132321904Y-101509285D01*
X132382380Y-101448809D01*
X132503333Y-101388333D01*
X132805714Y-101388333D01*
X132926666Y-101448809D01*
X132987142Y-101509285D01*
X133047619Y-101630238D01*
X133047619Y-101932619D01*
X132987142Y-102053571D01*
X132926666Y-102114047D01*
X132805714Y-102174523D01*
X132503333Y-102174523D01*
X132382380Y-102114047D01*
X132321904Y-102053571D01*
%TO.C,50*%
X119077619Y-90744523D02*
X118472857Y-90744523D01*
X118412380Y-91349285D01*
X118472857Y-91288809D01*
X118593809Y-91228333D01*
X118896190Y-91228333D01*
X119017142Y-91288809D01*
X119077619Y-91349285D01*
X119138095Y-91470238D01*
X119138095Y-91772619D01*
X119077619Y-91893571D01*
X119017142Y-91954047D01*
X118896190Y-92014523D01*
X118593809Y-92014523D01*
X118472857Y-91954047D01*
X118412380Y-91893571D01*
X119924285Y-90744523D02*
X120045238Y-90744523D01*
X120166190Y-90805000D01*
X120226666Y-90865476D01*
X120287142Y-90986428D01*
X120347619Y-91228333D01*
X120347619Y-91530714D01*
X120287142Y-91772619D01*
X120226666Y-91893571D01*
X120166190Y-91954047D01*
X120045238Y-92014523D01*
X119924285Y-92014523D01*
X119803333Y-91954047D01*
X119742857Y-91893571D01*
X119682380Y-91772619D01*
X119621904Y-91530714D01*
X119621904Y-91228333D01*
X119682380Y-90986428D01*
X119742857Y-90865476D01*
X119803333Y-90805000D01*
X119924285Y-90744523D01*
%TO.C,102*%
X123613333Y-104714523D02*
X122887619Y-104714523D01*
X123250476Y-104714523D02*
X123250476Y-103444523D01*
X123129523Y-103625952D01*
X123008571Y-103746904D01*
X122887619Y-103807380D01*
X124399523Y-103444523D02*
X124520476Y-103444523D01*
X124641428Y-103505000D01*
X124701904Y-103565476D01*
X124762380Y-103686428D01*
X124822857Y-103928333D01*
X124822857Y-104230714D01*
X124762380Y-104472619D01*
X124701904Y-104593571D01*
X124641428Y-104654047D01*
X124520476Y-104714523D01*
X124399523Y-104714523D01*
X124278571Y-104654047D01*
X124218095Y-104593571D01*
X124157619Y-104472619D01*
X124097142Y-104230714D01*
X124097142Y-103928333D01*
X124157619Y-103686428D01*
X124218095Y-103565476D01*
X124278571Y-103505000D01*
X124399523Y-103444523D01*
X125306666Y-103565476D02*
X125367142Y-103505000D01*
X125488095Y-103444523D01*
X125790476Y-103444523D01*
X125911428Y-103505000D01*
X125971904Y-103565476D01*
X126032380Y-103686428D01*
X126032380Y-103807380D01*
X125971904Y-103988809D01*
X125246190Y-104714523D01*
X126032380Y-104714523D01*
%TO.C,130*%
X118533333Y-112334523D02*
X117807619Y-112334523D01*
X118170476Y-112334523D02*
X118170476Y-111064523D01*
X118049523Y-111245952D01*
X117928571Y-111366904D01*
X117807619Y-111427380D01*
X118956666Y-111064523D02*
X119742857Y-111064523D01*
X119319523Y-111548333D01*
X119500952Y-111548333D01*
X119621904Y-111608809D01*
X119682380Y-111669285D01*
X119742857Y-111790238D01*
X119742857Y-112092619D01*
X119682380Y-112213571D01*
X119621904Y-112274047D01*
X119500952Y-112334523D01*
X119138095Y-112334523D01*
X119017142Y-112274047D01*
X118956666Y-112213571D01*
X120529047Y-111064523D02*
X120650000Y-111064523D01*
X120770952Y-111125000D01*
X120831428Y-111185476D01*
X120891904Y-111306428D01*
X120952380Y-111548333D01*
X120952380Y-111850714D01*
X120891904Y-112092619D01*
X120831428Y-112213571D01*
X120770952Y-112274047D01*
X120650000Y-112334523D01*
X120529047Y-112334523D01*
X120408095Y-112274047D01*
X120347619Y-112213571D01*
X120287142Y-112092619D01*
X120226666Y-111850714D01*
X120226666Y-111548333D01*
X120287142Y-111306428D01*
X120347619Y-111185476D01*
X120408095Y-111125000D01*
X120529047Y-111064523D01*
%TO.C,74*%
X128511904Y-95824523D02*
X129358571Y-95824523D01*
X128814285Y-97094523D01*
X130386666Y-96247857D02*
X130386666Y-97094523D01*
X130084285Y-95764047D02*
X129781904Y-96671190D01*
X130568095Y-96671190D01*
%TO.C,68*%
X139337142Y-93284523D02*
X139095238Y-93284523D01*
X138974285Y-93345000D01*
X138913809Y-93405476D01*
X138792857Y-93586904D01*
X138732380Y-93828809D01*
X138732380Y-94312619D01*
X138792857Y-94433571D01*
X138853333Y-94494047D01*
X138974285Y-94554523D01*
X139216190Y-94554523D01*
X139337142Y-94494047D01*
X139397619Y-94433571D01*
X139458095Y-94312619D01*
X139458095Y-94010238D01*
X139397619Y-93889285D01*
X139337142Y-93828809D01*
X139216190Y-93768333D01*
X138974285Y-93768333D01*
X138853333Y-93828809D01*
X138792857Y-93889285D01*
X138732380Y-94010238D01*
X140183809Y-93828809D02*
X140062857Y-93768333D01*
X140002380Y-93707857D01*
X139941904Y-93586904D01*
X139941904Y-93526428D01*
X140002380Y-93405476D01*
X140062857Y-93345000D01*
X140183809Y-93284523D01*
X140425714Y-93284523D01*
X140546666Y-93345000D01*
X140607142Y-93405476D01*
X140667619Y-93526428D01*
X140667619Y-93586904D01*
X140607142Y-93707857D01*
X140546666Y-93768333D01*
X140425714Y-93828809D01*
X140183809Y-93828809D01*
X140062857Y-93889285D01*
X140002380Y-93949761D01*
X139941904Y-94070714D01*
X139941904Y-94312619D01*
X140002380Y-94433571D01*
X140062857Y-94494047D01*
X140183809Y-94554523D01*
X140425714Y-94554523D01*
X140546666Y-94494047D01*
X140607142Y-94433571D01*
X140667619Y-94312619D01*
X140667619Y-94070714D01*
X140607142Y-93949761D01*
X140546666Y-93889285D01*
X140425714Y-93828809D01*
%TO.C,17*%
X136918095Y-81854523D02*
X136192380Y-81854523D01*
X136555238Y-81854523D02*
X136555238Y-80584523D01*
X136434285Y-80765952D01*
X136313333Y-80886904D01*
X136192380Y-80947380D01*
X137341428Y-80584523D02*
X138188095Y-80584523D01*
X137643809Y-81854523D01*
%TO.C,45*%
X131717142Y-88627857D02*
X131717142Y-89474523D01*
X131414761Y-88144047D02*
X131112380Y-89051190D01*
X131898571Y-89051190D01*
X132987142Y-88204523D02*
X132382380Y-88204523D01*
X132321904Y-88809285D01*
X132382380Y-88748809D01*
X132503333Y-88688333D01*
X132805714Y-88688333D01*
X132926666Y-88748809D01*
X132987142Y-88809285D01*
X133047619Y-88930238D01*
X133047619Y-89232619D01*
X132987142Y-89353571D01*
X132926666Y-89414047D01*
X132805714Y-89474523D01*
X132503333Y-89474523D01*
X132382380Y-89414047D01*
X132321904Y-89353571D01*
%TO.C,86*%
X133894285Y-98908809D02*
X133773333Y-98848333D01*
X133712857Y-98787857D01*
X133652380Y-98666904D01*
X133652380Y-98606428D01*
X133712857Y-98485476D01*
X133773333Y-98425000D01*
X133894285Y-98364523D01*
X134136190Y-98364523D01*
X134257142Y-98425000D01*
X134317619Y-98485476D01*
X134378095Y-98606428D01*
X134378095Y-98666904D01*
X134317619Y-98787857D01*
X134257142Y-98848333D01*
X134136190Y-98908809D01*
X133894285Y-98908809D01*
X133773333Y-98969285D01*
X133712857Y-99029761D01*
X133652380Y-99150714D01*
X133652380Y-99392619D01*
X133712857Y-99513571D01*
X133773333Y-99574047D01*
X133894285Y-99634523D01*
X134136190Y-99634523D01*
X134257142Y-99574047D01*
X134317619Y-99513571D01*
X134378095Y-99392619D01*
X134378095Y-99150714D01*
X134317619Y-99029761D01*
X134257142Y-98969285D01*
X134136190Y-98908809D01*
X135466666Y-98364523D02*
X135224761Y-98364523D01*
X135103809Y-98425000D01*
X135043333Y-98485476D01*
X134922380Y-98666904D01*
X134861904Y-98908809D01*
X134861904Y-99392619D01*
X134922380Y-99513571D01*
X134982857Y-99574047D01*
X135103809Y-99634523D01*
X135345714Y-99634523D01*
X135466666Y-99574047D01*
X135527142Y-99513571D01*
X135587619Y-99392619D01*
X135587619Y-99090238D01*
X135527142Y-98969285D01*
X135466666Y-98908809D01*
X135345714Y-98848333D01*
X135103809Y-98848333D01*
X134982857Y-98908809D01*
X134922380Y-98969285D01*
X134861904Y-99090238D01*
%TO.C,144*%
X128693333Y-114874523D02*
X127967619Y-114874523D01*
X128330476Y-114874523D02*
X128330476Y-113604523D01*
X128209523Y-113785952D01*
X128088571Y-113906904D01*
X127967619Y-113967380D01*
X129781904Y-114027857D02*
X129781904Y-114874523D01*
X129479523Y-113544047D02*
X129177142Y-114451190D01*
X129963333Y-114451190D01*
X130991428Y-114027857D02*
X130991428Y-114874523D01*
X130689047Y-113544047D02*
X130386666Y-114451190D01*
X131172857Y-114451190D01*
%TO.C,34*%
X128511904Y-85664523D02*
X129298095Y-85664523D01*
X128874761Y-86148333D01*
X129056190Y-86148333D01*
X129177142Y-86208809D01*
X129237619Y-86269285D01*
X129298095Y-86390238D01*
X129298095Y-86692619D01*
X129237619Y-86813571D01*
X129177142Y-86874047D01*
X129056190Y-86934523D01*
X128693333Y-86934523D01*
X128572380Y-86874047D01*
X128511904Y-86813571D01*
X130386666Y-86087857D02*
X130386666Y-86934523D01*
X130084285Y-85604047D02*
X129781904Y-86511190D01*
X130568095Y-86511190D01*
%TO.C,33*%
X125971904Y-85664523D02*
X126758095Y-85664523D01*
X126334761Y-86148333D01*
X126516190Y-86148333D01*
X126637142Y-86208809D01*
X126697619Y-86269285D01*
X126758095Y-86390238D01*
X126758095Y-86692619D01*
X126697619Y-86813571D01*
X126637142Y-86874047D01*
X126516190Y-86934523D01*
X126153333Y-86934523D01*
X126032380Y-86874047D01*
X125971904Y-86813571D01*
X127181428Y-85664523D02*
X127967619Y-85664523D01*
X127544285Y-86148333D01*
X127725714Y-86148333D01*
X127846666Y-86208809D01*
X127907142Y-86269285D01*
X127967619Y-86390238D01*
X127967619Y-86692619D01*
X127907142Y-86813571D01*
X127846666Y-86874047D01*
X127725714Y-86934523D01*
X127362857Y-86934523D01*
X127241904Y-86874047D01*
X127181428Y-86813571D01*
%TO.C,40*%
X119017142Y-88627857D02*
X119017142Y-89474523D01*
X118714761Y-88144047D02*
X118412380Y-89051190D01*
X119198571Y-89051190D01*
X119924285Y-88204523D02*
X120045238Y-88204523D01*
X120166190Y-88265000D01*
X120226666Y-88325476D01*
X120287142Y-88446428D01*
X120347619Y-88688333D01*
X120347619Y-88990714D01*
X120287142Y-89232619D01*
X120226666Y-89353571D01*
X120166190Y-89414047D01*
X120045238Y-89474523D01*
X119924285Y-89474523D01*
X119803333Y-89414047D01*
X119742857Y-89353571D01*
X119682380Y-89232619D01*
X119621904Y-88990714D01*
X119621904Y-88688333D01*
X119682380Y-88446428D01*
X119742857Y-88325476D01*
X119803333Y-88265000D01*
X119924285Y-88204523D01*
%TO.C,77*%
X136131904Y-95824523D02*
X136978571Y-95824523D01*
X136434285Y-97094523D01*
X137341428Y-95824523D02*
X138188095Y-95824523D01*
X137643809Y-97094523D01*
%TO.C,64*%
X129177142Y-93284523D02*
X128935238Y-93284523D01*
X128814285Y-93345000D01*
X128753809Y-93405476D01*
X128632857Y-93586904D01*
X128572380Y-93828809D01*
X128572380Y-94312619D01*
X128632857Y-94433571D01*
X128693333Y-94494047D01*
X128814285Y-94554523D01*
X129056190Y-94554523D01*
X129177142Y-94494047D01*
X129237619Y-94433571D01*
X129298095Y-94312619D01*
X129298095Y-94010238D01*
X129237619Y-93889285D01*
X129177142Y-93828809D01*
X129056190Y-93768333D01*
X128814285Y-93768333D01*
X128693333Y-93828809D01*
X128632857Y-93889285D01*
X128572380Y-94010238D01*
X130386666Y-93707857D02*
X130386666Y-94554523D01*
X130084285Y-93224047D02*
X129781904Y-94131190D01*
X130568095Y-94131190D01*
%TO.C,37*%
X136131904Y-85664523D02*
X136918095Y-85664523D01*
X136494761Y-86148333D01*
X136676190Y-86148333D01*
X136797142Y-86208809D01*
X136857619Y-86269285D01*
X136918095Y-86390238D01*
X136918095Y-86692619D01*
X136857619Y-86813571D01*
X136797142Y-86874047D01*
X136676190Y-86934523D01*
X136313333Y-86934523D01*
X136192380Y-86874047D01*
X136131904Y-86813571D01*
X137341428Y-85664523D02*
X138188095Y-85664523D01*
X137643809Y-86934523D01*
%TO.C,118*%
X138853333Y-107254523D02*
X138127619Y-107254523D01*
X138490476Y-107254523D02*
X138490476Y-105984523D01*
X138369523Y-106165952D01*
X138248571Y-106286904D01*
X138127619Y-106347380D01*
X140062857Y-107254523D02*
X139337142Y-107254523D01*
X139700000Y-107254523D02*
X139700000Y-105984523D01*
X139579047Y-106165952D01*
X139458095Y-106286904D01*
X139337142Y-106347380D01*
X140788571Y-106528809D02*
X140667619Y-106468333D01*
X140607142Y-106407857D01*
X140546666Y-106286904D01*
X140546666Y-106226428D01*
X140607142Y-106105476D01*
X140667619Y-106045000D01*
X140788571Y-105984523D01*
X141030476Y-105984523D01*
X141151428Y-106045000D01*
X141211904Y-106105476D01*
X141272380Y-106226428D01*
X141272380Y-106286904D01*
X141211904Y-106407857D01*
X141151428Y-106468333D01*
X141030476Y-106528809D01*
X140788571Y-106528809D01*
X140667619Y-106589285D01*
X140607142Y-106649761D01*
X140546666Y-106770714D01*
X140546666Y-107012619D01*
X140607142Y-107133571D01*
X140667619Y-107194047D01*
X140788571Y-107254523D01*
X141030476Y-107254523D01*
X141151428Y-107194047D01*
X141211904Y-107133571D01*
X141272380Y-107012619D01*
X141272380Y-106770714D01*
X141211904Y-106649761D01*
X141151428Y-106589285D01*
X141030476Y-106528809D01*
%TO.C,96*%
X133773333Y-102174523D02*
X134015238Y-102174523D01*
X134136190Y-102114047D01*
X134196666Y-102053571D01*
X134317619Y-101872142D01*
X134378095Y-101630238D01*
X134378095Y-101146428D01*
X134317619Y-101025476D01*
X134257142Y-100965000D01*
X134136190Y-100904523D01*
X133894285Y-100904523D01*
X133773333Y-100965000D01*
X133712857Y-101025476D01*
X133652380Y-101146428D01*
X133652380Y-101448809D01*
X133712857Y-101569761D01*
X133773333Y-101630238D01*
X133894285Y-101690714D01*
X134136190Y-101690714D01*
X134257142Y-101630238D01*
X134317619Y-101569761D01*
X134378095Y-101448809D01*
X135466666Y-100904523D02*
X135224761Y-100904523D01*
X135103809Y-100965000D01*
X135043333Y-101025476D01*
X134922380Y-101206904D01*
X134861904Y-101448809D01*
X134861904Y-101932619D01*
X134922380Y-102053571D01*
X134982857Y-102114047D01*
X135103809Y-102174523D01*
X135345714Y-102174523D01*
X135466666Y-102114047D01*
X135527142Y-102053571D01*
X135587619Y-101932619D01*
X135587619Y-101630238D01*
X135527142Y-101509285D01*
X135466666Y-101448809D01*
X135345714Y-101388333D01*
X135103809Y-101388333D01*
X134982857Y-101448809D01*
X134922380Y-101509285D01*
X134861904Y-101630238D01*
%TO.C,80*%
X118654285Y-98908809D02*
X118533333Y-98848333D01*
X118472857Y-98787857D01*
X118412380Y-98666904D01*
X118412380Y-98606428D01*
X118472857Y-98485476D01*
X118533333Y-98425000D01*
X118654285Y-98364523D01*
X118896190Y-98364523D01*
X119017142Y-98425000D01*
X119077619Y-98485476D01*
X119138095Y-98606428D01*
X119138095Y-98666904D01*
X119077619Y-98787857D01*
X119017142Y-98848333D01*
X118896190Y-98908809D01*
X118654285Y-98908809D01*
X118533333Y-98969285D01*
X118472857Y-99029761D01*
X118412380Y-99150714D01*
X118412380Y-99392619D01*
X118472857Y-99513571D01*
X118533333Y-99574047D01*
X118654285Y-99634523D01*
X118896190Y-99634523D01*
X119017142Y-99574047D01*
X119077619Y-99513571D01*
X119138095Y-99392619D01*
X119138095Y-99150714D01*
X119077619Y-99029761D01*
X119017142Y-98969285D01*
X118896190Y-98908809D01*
X119924285Y-98364523D02*
X120045238Y-98364523D01*
X120166190Y-98425000D01*
X120226666Y-98485476D01*
X120287142Y-98606428D01*
X120347619Y-98848333D01*
X120347619Y-99150714D01*
X120287142Y-99392619D01*
X120226666Y-99513571D01*
X120166190Y-99574047D01*
X120045238Y-99634523D01*
X119924285Y-99634523D01*
X119803333Y-99574047D01*
X119742857Y-99513571D01*
X119682380Y-99392619D01*
X119621904Y-99150714D01*
X119621904Y-98848333D01*
X119682380Y-98606428D01*
X119742857Y-98485476D01*
X119803333Y-98425000D01*
X119924285Y-98364523D01*
%TO.C,48*%
X139337142Y-88627857D02*
X139337142Y-89474523D01*
X139034761Y-88144047D02*
X138732380Y-89051190D01*
X139518571Y-89051190D01*
X140183809Y-88748809D02*
X140062857Y-88688333D01*
X140002380Y-88627857D01*
X139941904Y-88506904D01*
X139941904Y-88446428D01*
X140002380Y-88325476D01*
X140062857Y-88265000D01*
X140183809Y-88204523D01*
X140425714Y-88204523D01*
X140546666Y-88265000D01*
X140607142Y-88325476D01*
X140667619Y-88446428D01*
X140667619Y-88506904D01*
X140607142Y-88627857D01*
X140546666Y-88688333D01*
X140425714Y-88748809D01*
X140183809Y-88748809D01*
X140062857Y-88809285D01*
X140002380Y-88869761D01*
X139941904Y-88990714D01*
X139941904Y-89232619D01*
X140002380Y-89353571D01*
X140062857Y-89414047D01*
X140183809Y-89474523D01*
X140425714Y-89474523D01*
X140546666Y-89414047D01*
X140607142Y-89353571D01*
X140667619Y-89232619D01*
X140667619Y-88990714D01*
X140607142Y-88869761D01*
X140546666Y-88809285D01*
X140425714Y-88748809D01*
%TO.C,137*%
X136313333Y-112334523D02*
X135587619Y-112334523D01*
X135950476Y-112334523D02*
X135950476Y-111064523D01*
X135829523Y-111245952D01*
X135708571Y-111366904D01*
X135587619Y-111427380D01*
X136736666Y-111064523D02*
X137522857Y-111064523D01*
X137099523Y-111548333D01*
X137280952Y-111548333D01*
X137401904Y-111608809D01*
X137462380Y-111669285D01*
X137522857Y-111790238D01*
X137522857Y-112092619D01*
X137462380Y-112213571D01*
X137401904Y-112274047D01*
X137280952Y-112334523D01*
X136918095Y-112334523D01*
X136797142Y-112274047D01*
X136736666Y-112213571D01*
X137946190Y-111064523D02*
X138792857Y-111064523D01*
X138248571Y-112334523D01*
%TO.C,5*%
X132382380Y-78044523D02*
X131777619Y-78044523D01*
X131717142Y-78649285D01*
X131777619Y-78588809D01*
X131898571Y-78528333D01*
X132200952Y-78528333D01*
X132321904Y-78588809D01*
X132382380Y-78649285D01*
X132442857Y-78770238D01*
X132442857Y-79072619D01*
X132382380Y-79193571D01*
X132321904Y-79254047D01*
X132200952Y-79314523D01*
X131898571Y-79314523D01*
X131777619Y-79254047D01*
X131717142Y-79193571D01*
%TO.C,38*%
X138671904Y-85664523D02*
X139458095Y-85664523D01*
X139034761Y-86148333D01*
X139216190Y-86148333D01*
X139337142Y-86208809D01*
X139397619Y-86269285D01*
X139458095Y-86390238D01*
X139458095Y-86692619D01*
X139397619Y-86813571D01*
X139337142Y-86874047D01*
X139216190Y-86934523D01*
X138853333Y-86934523D01*
X138732380Y-86874047D01*
X138671904Y-86813571D01*
X140183809Y-86208809D02*
X140062857Y-86148333D01*
X140002380Y-86087857D01*
X139941904Y-85966904D01*
X139941904Y-85906428D01*
X140002380Y-85785476D01*
X140062857Y-85725000D01*
X140183809Y-85664523D01*
X140425714Y-85664523D01*
X140546666Y-85725000D01*
X140607142Y-85785476D01*
X140667619Y-85906428D01*
X140667619Y-85966904D01*
X140607142Y-86087857D01*
X140546666Y-86148333D01*
X140425714Y-86208809D01*
X140183809Y-86208809D01*
X140062857Y-86269285D01*
X140002380Y-86329761D01*
X139941904Y-86450714D01*
X139941904Y-86692619D01*
X140002380Y-86813571D01*
X140062857Y-86874047D01*
X140183809Y-86934523D01*
X140425714Y-86934523D01*
X140546666Y-86874047D01*
X140607142Y-86813571D01*
X140667619Y-86692619D01*
X140667619Y-86450714D01*
X140607142Y-86329761D01*
X140546666Y-86269285D01*
X140425714Y-86208809D01*
%TO.C,47*%
X136797142Y-88627857D02*
X136797142Y-89474523D01*
X136494761Y-88144047D02*
X136192380Y-89051190D01*
X136978571Y-89051190D01*
X137341428Y-88204523D02*
X138188095Y-88204523D01*
X137643809Y-89474523D01*
%TO.C,66*%
X134257142Y-93284523D02*
X134015238Y-93284523D01*
X133894285Y-93345000D01*
X133833809Y-93405476D01*
X133712857Y-93586904D01*
X133652380Y-93828809D01*
X133652380Y-94312619D01*
X133712857Y-94433571D01*
X133773333Y-94494047D01*
X133894285Y-94554523D01*
X134136190Y-94554523D01*
X134257142Y-94494047D01*
X134317619Y-94433571D01*
X134378095Y-94312619D01*
X134378095Y-94010238D01*
X134317619Y-93889285D01*
X134257142Y-93828809D01*
X134136190Y-93768333D01*
X133894285Y-93768333D01*
X133773333Y-93828809D01*
X133712857Y-93889285D01*
X133652380Y-94010238D01*
X135466666Y-93284523D02*
X135224761Y-93284523D01*
X135103809Y-93345000D01*
X135043333Y-93405476D01*
X134922380Y-93586904D01*
X134861904Y-93828809D01*
X134861904Y-94312619D01*
X134922380Y-94433571D01*
X134982857Y-94494047D01*
X135103809Y-94554523D01*
X135345714Y-94554523D01*
X135466666Y-94494047D01*
X135527142Y-94433571D01*
X135587619Y-94312619D01*
X135587619Y-94010238D01*
X135527142Y-93889285D01*
X135466666Y-93828809D01*
X135345714Y-93768333D01*
X135103809Y-93768333D01*
X134982857Y-93828809D01*
X134922380Y-93889285D01*
X134861904Y-94010238D01*
%TO.C,57*%
X136857619Y-90744523D02*
X136252857Y-90744523D01*
X136192380Y-91349285D01*
X136252857Y-91288809D01*
X136373809Y-91228333D01*
X136676190Y-91228333D01*
X136797142Y-91288809D01*
X136857619Y-91349285D01*
X136918095Y-91470238D01*
X136918095Y-91772619D01*
X136857619Y-91893571D01*
X136797142Y-91954047D01*
X136676190Y-92014523D01*
X136373809Y-92014523D01*
X136252857Y-91954047D01*
X136192380Y-91893571D01*
X137341428Y-90744523D02*
X138188095Y-90744523D01*
X137643809Y-92014523D01*
%TO.C,12*%
X124218095Y-81854523D02*
X123492380Y-81854523D01*
X123855238Y-81854523D02*
X123855238Y-80584523D01*
X123734285Y-80765952D01*
X123613333Y-80886904D01*
X123492380Y-80947380D01*
X124701904Y-80705476D02*
X124762380Y-80645000D01*
X124883333Y-80584523D01*
X125185714Y-80584523D01*
X125306666Y-80645000D01*
X125367142Y-80705476D01*
X125427619Y-80826428D01*
X125427619Y-80947380D01*
X125367142Y-81128809D01*
X124641428Y-81854523D01*
X125427619Y-81854523D01*
%TO.C,140*%
X118533333Y-114874523D02*
X117807619Y-114874523D01*
X118170476Y-114874523D02*
X118170476Y-113604523D01*
X118049523Y-113785952D01*
X117928571Y-113906904D01*
X117807619Y-113967380D01*
X119621904Y-114027857D02*
X119621904Y-114874523D01*
X119319523Y-113544047D02*
X119017142Y-114451190D01*
X119803333Y-114451190D01*
X120529047Y-113604523D02*
X120650000Y-113604523D01*
X120770952Y-113665000D01*
X120831428Y-113725476D01*
X120891904Y-113846428D01*
X120952380Y-114088333D01*
X120952380Y-114390714D01*
X120891904Y-114632619D01*
X120831428Y-114753571D01*
X120770952Y-114814047D01*
X120650000Y-114874523D01*
X120529047Y-114874523D01*
X120408095Y-114814047D01*
X120347619Y-114753571D01*
X120287142Y-114632619D01*
X120226666Y-114390714D01*
X120226666Y-114088333D01*
X120287142Y-113846428D01*
X120347619Y-113725476D01*
X120408095Y-113665000D01*
X120529047Y-113604523D01*
%TO.C,2*%
X124097142Y-78165476D02*
X124157619Y-78105000D01*
X124278571Y-78044523D01*
X124580952Y-78044523D01*
X124701904Y-78105000D01*
X124762380Y-78165476D01*
X124822857Y-78286428D01*
X124822857Y-78407380D01*
X124762380Y-78588809D01*
X124036666Y-79314523D01*
X124822857Y-79314523D01*
%TO.C,78*%
X138671904Y-95824523D02*
X139518571Y-95824523D01*
X138974285Y-97094523D01*
X140183809Y-96368809D02*
X140062857Y-96308333D01*
X140002380Y-96247857D01*
X139941904Y-96126904D01*
X139941904Y-96066428D01*
X140002380Y-95945476D01*
X140062857Y-95885000D01*
X140183809Y-95824523D01*
X140425714Y-95824523D01*
X140546666Y-95885000D01*
X140607142Y-95945476D01*
X140667619Y-96066428D01*
X140667619Y-96126904D01*
X140607142Y-96247857D01*
X140546666Y-96308333D01*
X140425714Y-96368809D01*
X140183809Y-96368809D01*
X140062857Y-96429285D01*
X140002380Y-96489761D01*
X139941904Y-96610714D01*
X139941904Y-96852619D01*
X140002380Y-96973571D01*
X140062857Y-97034047D01*
X140183809Y-97094523D01*
X140425714Y-97094523D01*
X140546666Y-97034047D01*
X140607142Y-96973571D01*
X140667619Y-96852619D01*
X140667619Y-96610714D01*
X140607142Y-96489761D01*
X140546666Y-96429285D01*
X140425714Y-96368809D01*
%TO.C,136*%
X133773333Y-112334523D02*
X133047619Y-112334523D01*
X133410476Y-112334523D02*
X133410476Y-111064523D01*
X133289523Y-111245952D01*
X133168571Y-111366904D01*
X133047619Y-111427380D01*
X134196666Y-111064523D02*
X134982857Y-111064523D01*
X134559523Y-111548333D01*
X134740952Y-111548333D01*
X134861904Y-111608809D01*
X134922380Y-111669285D01*
X134982857Y-111790238D01*
X134982857Y-112092619D01*
X134922380Y-112213571D01*
X134861904Y-112274047D01*
X134740952Y-112334523D01*
X134378095Y-112334523D01*
X134257142Y-112274047D01*
X134196666Y-112213571D01*
X136071428Y-111064523D02*
X135829523Y-111064523D01*
X135708571Y-111125000D01*
X135648095Y-111185476D01*
X135527142Y-111366904D01*
X135466666Y-111608809D01*
X135466666Y-112092619D01*
X135527142Y-112213571D01*
X135587619Y-112274047D01*
X135708571Y-112334523D01*
X135950476Y-112334523D01*
X136071428Y-112274047D01*
X136131904Y-112213571D01*
X136192380Y-112092619D01*
X136192380Y-111790238D01*
X136131904Y-111669285D01*
X136071428Y-111608809D01*
X135950476Y-111548333D01*
X135708571Y-111548333D01*
X135587619Y-111608809D01*
X135527142Y-111669285D01*
X135466666Y-111790238D01*
D13*
%TO.C,J2*%
X120650000Y-74990000D02*
X143570000Y-74990000D01*
X120650000Y-74990000D02*
X120650000Y-72330000D01*
X143570000Y-74990000D02*
X143570000Y-72330000D01*
X120650000Y-72330000D02*
X143570000Y-72330000D01*
X119380000Y-74990000D02*
X118050000Y-74990000D01*
X118050000Y-74990000D02*
X118050000Y-73660000D01*
%TO.C,J3*%
X125245000Y-63575000D02*
X125245000Y-62245000D01*
X140605000Y-64905000D02*
X140605000Y-62245000D01*
X127845000Y-64905000D02*
X140605000Y-64905000D01*
X127845000Y-64905000D02*
X127845000Y-62245000D01*
X127845000Y-62245000D02*
X140605000Y-62245000D01*
X125245000Y-62245000D02*
X126575000Y-62245000D01*
%TO.C,J1*%
X157205000Y-83435000D02*
X163205000Y-83435000D01*
X154545000Y-105405000D02*
X157205000Y-105405000D01*
X163205000Y-66415000D02*
X157205000Y-66415000D01*
X157205000Y-124075000D02*
X163205000Y-124075000D01*
X154147929Y-81655000D02*
X154545000Y-81655000D01*
X154545000Y-69845000D02*
X157205000Y-69845000D01*
X154147929Y-73275000D02*
X154545000Y-73275000D01*
X154147929Y-116455000D02*
X154545000Y-116455000D01*
X151835000Y-57145000D02*
X153105000Y-57145000D01*
X163205000Y-124835000D02*
X157205000Y-124835000D01*
X163205000Y-73275000D02*
X163205000Y-74035000D01*
X157205000Y-58095000D02*
X163205000Y-58095000D01*
X154545000Y-115565000D02*
X157205000Y-115565000D01*
X157205000Y-118995000D02*
X163205000Y-118995000D01*
X154545000Y-92705000D02*
X157205000Y-92705000D01*
X163205000Y-117215000D02*
X157205000Y-117215000D01*
X154545000Y-100325000D02*
X157205000Y-100325000D01*
X154147929Y-80895000D02*
X154545000Y-80895000D01*
X154147929Y-70735000D02*
X154545000Y-70735000D01*
X163205000Y-91815000D02*
X157205000Y-91815000D01*
X151835000Y-58415000D02*
X151835000Y-57145000D01*
X163205000Y-104515000D02*
X157205000Y-104515000D01*
X163205000Y-116455000D02*
X163205000Y-117215000D01*
X163205000Y-84195000D02*
X157205000Y-84195000D01*
X157205000Y-58455000D02*
X163205000Y-58455000D01*
X154147929Y-101975000D02*
X154545000Y-101975000D01*
X157205000Y-68195000D02*
X163205000Y-68195000D01*
X163205000Y-111375000D02*
X163205000Y-112135000D01*
X154147929Y-108835000D02*
X154545000Y-108835000D01*
X154545000Y-59685000D02*
X157205000Y-59685000D01*
X163205000Y-63115000D02*
X163205000Y-63875000D01*
X163205000Y-124075000D02*
X163205000Y-124835000D01*
X163205000Y-103755000D02*
X163205000Y-104515000D01*
X157205000Y-58215000D02*
X163205000Y-58215000D01*
X154545000Y-80005000D02*
X157205000Y-80005000D01*
X154147929Y-66415000D02*
X154545000Y-66415000D01*
X154545000Y-120645000D02*
X157205000Y-120645000D01*
X154147929Y-114675000D02*
X154545000Y-114675000D01*
X163205000Y-58035000D02*
X163205000Y-58795000D01*
X163205000Y-96135000D02*
X163205000Y-96895000D01*
X163205000Y-93595000D02*
X163205000Y-94355000D01*
X163205000Y-109595000D02*
X157205000Y-109595000D01*
X154147929Y-61335000D02*
X154545000Y-61335000D01*
X154147929Y-75815000D02*
X154545000Y-75815000D01*
X163205000Y-80895000D02*
X163205000Y-81655000D01*
X163205000Y-68955000D02*
X157205000Y-68955000D01*
X163205000Y-106295000D02*
X163205000Y-107055000D01*
X157205000Y-60575000D02*
X163205000Y-60575000D01*
X157205000Y-58575000D02*
X163205000Y-58575000D01*
X157205000Y-111375000D02*
X163205000Y-111375000D01*
X154147929Y-76575000D02*
X154545000Y-76575000D01*
X154147929Y-124835000D02*
X154545000Y-124835000D01*
X163205000Y-118995000D02*
X163205000Y-119755000D01*
X163205000Y-68195000D02*
X163205000Y-68955000D01*
X157205000Y-70735000D02*
X163205000Y-70735000D01*
X154147929Y-98675000D02*
X154545000Y-98675000D01*
X163205000Y-121535000D02*
X163205000Y-122295000D01*
X163205000Y-74035000D02*
X157205000Y-74035000D01*
X157205000Y-78355000D02*
X163205000Y-78355000D01*
X163205000Y-94355000D02*
X157205000Y-94355000D01*
X154147929Y-63115000D02*
X154545000Y-63115000D01*
X154545000Y-57085000D02*
X154545000Y-125785000D01*
X154545000Y-123185000D02*
X157205000Y-123185000D01*
X157205000Y-58335000D02*
X163205000Y-58335000D01*
X154147929Y-74035000D02*
X154545000Y-74035000D01*
X157205000Y-121535000D02*
X163205000Y-121535000D01*
X154147929Y-68195000D02*
X154545000Y-68195000D01*
X163205000Y-71495000D02*
X157205000Y-71495000D01*
X154147929Y-119755000D02*
X154545000Y-119755000D01*
X157205000Y-58035000D02*
X163205000Y-58035000D01*
X154147929Y-106295000D02*
X154545000Y-106295000D01*
X157205000Y-75815000D02*
X163205000Y-75815000D01*
X154147929Y-101215000D02*
X154545000Y-101215000D01*
X163205000Y-61335000D02*
X157205000Y-61335000D01*
X154147929Y-83435000D02*
X154545000Y-83435000D01*
X154147929Y-124075000D02*
X154545000Y-124075000D01*
X154147929Y-79115000D02*
X154545000Y-79115000D01*
X154147929Y-103755000D02*
X154545000Y-103755000D01*
X157205000Y-125785000D02*
X157205000Y-57085000D01*
X154545000Y-72385000D02*
X157205000Y-72385000D01*
X157205000Y-93595000D02*
X163205000Y-93595000D01*
X163205000Y-101215000D02*
X163205000Y-101975000D01*
X163205000Y-83435000D02*
X163205000Y-84195000D01*
X154215000Y-58795000D02*
X154545000Y-58795000D01*
X154147929Y-78355000D02*
X154545000Y-78355000D01*
X163205000Y-119755000D02*
X157205000Y-119755000D01*
X154147929Y-122295000D02*
X154545000Y-122295000D01*
X154147929Y-117215000D02*
X154545000Y-117215000D01*
X154147929Y-93595000D02*
X154545000Y-93595000D01*
X163205000Y-81655000D02*
X157205000Y-81655000D01*
X157205000Y-116455000D02*
X163205000Y-116455000D01*
X157205000Y-63115000D02*
X163205000Y-63115000D01*
X163205000Y-75815000D02*
X163205000Y-76575000D01*
X157205000Y-101215000D02*
X163205000Y-101215000D01*
X163205000Y-114675000D02*
X157205000Y-114675000D01*
X154545000Y-74925000D02*
X157205000Y-74925000D01*
X157205000Y-58695000D02*
X163205000Y-58695000D01*
X154545000Y-95245000D02*
X157205000Y-95245000D01*
X154147929Y-96895000D02*
X154545000Y-96895000D01*
X154545000Y-82545000D02*
X157205000Y-82545000D01*
X163205000Y-85975000D02*
X163205000Y-86735000D01*
X163205000Y-88515000D02*
X163205000Y-89275000D01*
X157205000Y-73275000D02*
X163205000Y-73275000D01*
X163205000Y-98675000D02*
X163205000Y-99435000D01*
X157205000Y-106295000D02*
X163205000Y-106295000D01*
X154147929Y-85975000D02*
X154545000Y-85975000D01*
X154147929Y-71495000D02*
X154545000Y-71495000D01*
X157205000Y-85975000D02*
X163205000Y-85975000D01*
X154545000Y-62225000D02*
X157205000Y-62225000D01*
X163205000Y-122295000D02*
X157205000Y-122295000D01*
X163205000Y-101975000D02*
X157205000Y-101975000D01*
X163205000Y-112135000D02*
X157205000Y-112135000D01*
X154147929Y-113915000D02*
X154545000Y-113915000D01*
X163205000Y-76575000D02*
X157205000Y-76575000D01*
X154147929Y-63875000D02*
X154545000Y-63875000D01*
X154545000Y-64765000D02*
X157205000Y-64765000D01*
X163205000Y-63875000D02*
X157205000Y-63875000D01*
X157205000Y-80895000D02*
X163205000Y-80895000D01*
X154147929Y-121535000D02*
X154545000Y-121535000D01*
X154147929Y-84195000D02*
X154545000Y-84195000D01*
X157205000Y-91055000D02*
X163205000Y-91055000D01*
X163205000Y-60575000D02*
X163205000Y-61335000D01*
X157205000Y-65655000D02*
X163205000Y-65655000D01*
X154215000Y-58035000D02*
X154545000Y-58035000D01*
X154545000Y-67305000D02*
X157205000Y-67305000D01*
X163205000Y-107055000D02*
X157205000Y-107055000D01*
X163205000Y-70735000D02*
X163205000Y-71495000D01*
X163205000Y-91055000D02*
X163205000Y-91815000D01*
X163205000Y-79115000D02*
X157205000Y-79115000D01*
X154147929Y-88515000D02*
X154545000Y-88515000D01*
X163205000Y-108835000D02*
X163205000Y-109595000D01*
X154147929Y-86735000D02*
X154545000Y-86735000D01*
X154545000Y-97785000D02*
X157205000Y-97785000D01*
X157205000Y-57085000D02*
X154545000Y-57085000D01*
X154545000Y-113025000D02*
X157205000Y-113025000D01*
X163205000Y-78355000D02*
X163205000Y-79115000D01*
X154147929Y-104515000D02*
X154545000Y-104515000D01*
X154147929Y-68955000D02*
X154545000Y-68955000D01*
X157205000Y-103755000D02*
X163205000Y-103755000D01*
X154147929Y-118995000D02*
X154545000Y-118995000D01*
X157205000Y-88515000D02*
X163205000Y-88515000D01*
X154147929Y-99435000D02*
X154545000Y-99435000D01*
X154147929Y-89275000D02*
X154545000Y-89275000D01*
X163205000Y-99435000D02*
X157205000Y-99435000D01*
X154147929Y-94355000D02*
X154545000Y-94355000D01*
X154545000Y-118105000D02*
X157205000Y-118105000D01*
X154147929Y-107055000D02*
X154545000Y-107055000D01*
X154147929Y-109595000D02*
X154545000Y-109595000D01*
X157205000Y-108835000D02*
X163205000Y-108835000D01*
X163205000Y-113915000D02*
X163205000Y-114675000D01*
X163205000Y-89275000D02*
X157205000Y-89275000D01*
X154147929Y-96135000D02*
X154545000Y-96135000D01*
X154545000Y-77465000D02*
X157205000Y-77465000D01*
X163205000Y-65655000D02*
X163205000Y-66415000D01*
X154147929Y-65655000D02*
X154545000Y-65655000D01*
X154545000Y-102865000D02*
X157205000Y-102865000D01*
X154545000Y-85085000D02*
X157205000Y-85085000D01*
X157205000Y-96135000D02*
X163205000Y-96135000D01*
X163205000Y-86735000D02*
X157205000Y-86735000D01*
X154147929Y-91815000D02*
X154545000Y-91815000D01*
X163205000Y-58795000D02*
X157205000Y-58795000D01*
X154147929Y-60575000D02*
X154545000Y-60575000D01*
X154545000Y-87625000D02*
X157205000Y-87625000D01*
X154545000Y-90165000D02*
X157205000Y-90165000D01*
X154147929Y-112135000D02*
X154545000Y-112135000D01*
X154545000Y-125785000D02*
X157205000Y-125785000D01*
X157205000Y-98675000D02*
X163205000Y-98675000D01*
X154545000Y-107945000D02*
X157205000Y-107945000D01*
X154545000Y-110485000D02*
X157205000Y-110485000D01*
X163205000Y-96895000D02*
X157205000Y-96895000D01*
X154147929Y-111375000D02*
X154545000Y-111375000D01*
X157205000Y-113915000D02*
X163205000Y-113915000D01*
X154147929Y-91055000D02*
X154545000Y-91055000D01*
%TO.C,J4*%
X136530000Y-120670000D02*
X126310000Y-120670000D01*
X136530000Y-120670000D02*
X136530000Y-123330000D01*
X139130000Y-123330000D02*
X137800000Y-123330000D01*
X126310000Y-120670000D02*
X126310000Y-123330000D01*
X136530000Y-123330000D02*
X126310000Y-123330000D01*
X139130000Y-122000000D02*
X139130000Y-123330000D01*
%TD*%
M02*
