M48
INCH,TZ
T1C0.0394
%
G90
G05
T1
X47000Y-29000
X47000Y-31000
X47000Y-32000
X47000Y-33000
X47000Y-34000
X47000Y-35000
X47000Y-36000
X47000Y-37000
X47000Y-38000
X47000Y-39000
X47000Y-40000
X47000Y-41000
X47000Y-42000
X47000Y-43000
X47000Y-44000
X47000Y-45000
X48000Y-29000
X48000Y-31000
X48000Y-32000
X48000Y-33000
X48000Y-34000
X48000Y-35000
X48000Y-36000
X48000Y-37000
X48000Y-38000
X48000Y-39000
X48000Y-40000
X48000Y-41000
X48000Y-42000
X48000Y-43000
X48000Y-44000
X48000Y-45000
X49000Y-29000
X49000Y-31000
X49000Y-32000
X49000Y-33000
X49000Y-34000
X49000Y-35000
X49000Y-36000
X49000Y-37000
X49000Y-38000
X49000Y-39000
X49000Y-40000
X49000Y-41000
X49000Y-42000
X49000Y-43000
X49000Y-44000
X49000Y-45000
X49833Y-25030
X50000Y-29000
X50000Y-31000
X50000Y-32000
X50000Y-33000
X50000Y-34000
X50000Y-35000
X50000Y-36000
X50000Y-37000
X50000Y-38000
X50000Y-39000
X50000Y-40000
X50000Y-41000
X50000Y-42000
X50000Y-43000
X50000Y-44000
X50000Y-45000
X50252Y-48031
X50833Y-25030
X51000Y-29000
X51000Y-31000
X51000Y-32000
X51000Y-33000
X51000Y-34000
X51000Y-35000
X51000Y-36000
X51000Y-37000
X51000Y-38000
X51000Y-39000
X51000Y-40000
X51000Y-41000
X51000Y-42000
X51000Y-43000
X51000Y-44000
X51000Y-45000
X51252Y-48031
X51833Y-25030
X52000Y-29000
X52000Y-31000
X52000Y-32000
X52000Y-33000
X52000Y-34000
X52000Y-35000
X52000Y-36000
X52000Y-37000
X52000Y-38000
X52000Y-39000
X52000Y-40000
X52000Y-41000
X52000Y-42000
X52000Y-43000
X52000Y-44000
X52000Y-45000
X52252Y-48031
X52833Y-25030
X53000Y-29000
X53000Y-31000
X53000Y-32000
X53000Y-33000
X53000Y-34000
X53000Y-35000
X53000Y-36000
X53000Y-37000
X53000Y-38000
X53000Y-39000
X53000Y-40000
X53000Y-41000
X53000Y-42000
X53000Y-43000
X53000Y-44000
X53000Y-45000
X53252Y-48031
X53833Y-25030
X54000Y-29000
X54000Y-31000
X54000Y-32000
X54000Y-33000
X54000Y-34000
X54000Y-35000
X54000Y-36000
X54000Y-37000
X54000Y-38000
X54000Y-39000
X54000Y-40000
X54000Y-41000
X54000Y-42000
X54000Y-43000
X54000Y-44000
X54000Y-45000
X54252Y-48031
X54833Y-25030
X55000Y-29000
X55000Y-31000
X55000Y-32000
X55000Y-33000
X55000Y-34000
X55000Y-35000
X55000Y-36000
X55000Y-37000
X55000Y-38000
X55000Y-39000
X55000Y-40000
X55000Y-41000
X55000Y-42000
X55000Y-43000
X55000Y-44000
X55000Y-45000
X56000Y-29000
X56000Y-31000
X56000Y-32000
X56000Y-33000
X56000Y-34000
X56000Y-35000
X56000Y-36000
X56000Y-37000
X56000Y-38000
X56000Y-39000
X56000Y-40000
X56000Y-41000
X56000Y-42000
X56000Y-43000
X56000Y-44000
X56000Y-45000
X60278Y-22998
X60278Y-23998
X60278Y-24998
X60278Y-25998
X60278Y-26998
X60278Y-27998
X60278Y-28998
X60278Y-29998
X60278Y-30998
X60278Y-31998
X60278Y-32998
X60278Y-33998
X60278Y-34998
X60278Y-35998
X60278Y-36998
X60278Y-37998
X60278Y-38998
X60278Y-39998
X60278Y-40998
X60278Y-41998
X60278Y-42998
X60278Y-43998
X60278Y-44998
X60278Y-45998
X60278Y-46998
X60278Y-47998
X60278Y-48998
T0
M30
