%TF.GenerationSoftware,KiCad,Pcbnew,(6.0.8)*%
%TF.CreationDate,2022-11-23T10:53:18-05:00*%
%TF.ProjectId,upper_v3,75707065-725f-4763-932e-6b696361645f,rev?*%
%TF.SameCoordinates,Original*%
%TF.FileFunction,Legend,Bot*%
%TF.FilePolarity,Positive*%
%FSLAX46Y46*%
G04 Gerber Fmt 4.6, Leading zero omitted, Abs format (unit mm)*
G04 Created by KiCad (PCBNEW (6.0.8)) date 2022-11-23 10:53:18*
%MOMM*%
%LPD*%
G01*
G04 APERTURE LIST*
%ADD10C,0.150000*%
G04 APERTURE END LIST*
D10*
X139255476Y-60412380D02*
X139731666Y-60412380D01*
X139779285Y-60888571D01*
X139731666Y-60840952D01*
X139636428Y-60793333D01*
X139398333Y-60793333D01*
X139303095Y-60840952D01*
X139255476Y-60888571D01*
X139207857Y-60983809D01*
X139207857Y-61221904D01*
X139255476Y-61317142D01*
X139303095Y-61364761D01*
X139398333Y-61412380D01*
X139636428Y-61412380D01*
X139731666Y-61364761D01*
X139779285Y-61317142D01*
X138922142Y-60412380D02*
X138588809Y-61412380D01*
X138255476Y-60412380D01*
X139890476Y-75652380D02*
X140366666Y-75652380D01*
X140414285Y-76128571D01*
X140366666Y-76080952D01*
X140271428Y-76033333D01*
X140033333Y-76033333D01*
X139938095Y-76080952D01*
X139890476Y-76128571D01*
X139842857Y-76223809D01*
X139842857Y-76461904D01*
X139890476Y-76557142D01*
X139938095Y-76604761D01*
X140033333Y-76652380D01*
X140271428Y-76652380D01*
X140366666Y-76604761D01*
X140414285Y-76557142D01*
X139557142Y-75652380D02*
X139223809Y-76652380D01*
X138890476Y-75652380D01*
X143001904Y-75700000D02*
X143097142Y-75652380D01*
X143240000Y-75652380D01*
X143382857Y-75700000D01*
X143478095Y-75795238D01*
X143525714Y-75890476D01*
X143573333Y-76080952D01*
X143573333Y-76223809D01*
X143525714Y-76414285D01*
X143478095Y-76509523D01*
X143382857Y-76604761D01*
X143240000Y-76652380D01*
X143144761Y-76652380D01*
X143001904Y-76604761D01*
X142954285Y-76557142D01*
X142954285Y-76223809D01*
X143144761Y-76223809D01*
X142525714Y-76652380D02*
X142525714Y-75652380D01*
X141954285Y-76652380D01*
X141954285Y-75652380D01*
X141478095Y-76652380D02*
X141478095Y-75652380D01*
X141240000Y-75652380D01*
X141097142Y-75700000D01*
X141001904Y-75795238D01*
X140954285Y-75890476D01*
X140906666Y-76080952D01*
X140906666Y-76223809D01*
X140954285Y-76414285D01*
X141001904Y-76509523D01*
X141097142Y-76604761D01*
X141240000Y-76652380D01*
X141478095Y-76652380D01*
X119570476Y-75652380D02*
X120046666Y-75652380D01*
X120094285Y-76128571D01*
X120046666Y-76080952D01*
X119951428Y-76033333D01*
X119713333Y-76033333D01*
X119618095Y-76080952D01*
X119570476Y-76128571D01*
X119522857Y-76223809D01*
X119522857Y-76461904D01*
X119570476Y-76557142D01*
X119618095Y-76604761D01*
X119713333Y-76652380D01*
X119951428Y-76652380D01*
X120046666Y-76604761D01*
X120094285Y-76557142D01*
X119237142Y-75652380D02*
X118903809Y-76652380D01*
X118570476Y-75652380D01*
X122681904Y-75700000D02*
X122777142Y-75652380D01*
X122920000Y-75652380D01*
X123062857Y-75700000D01*
X123158095Y-75795238D01*
X123205714Y-75890476D01*
X123253333Y-76080952D01*
X123253333Y-76223809D01*
X123205714Y-76414285D01*
X123158095Y-76509523D01*
X123062857Y-76604761D01*
X122920000Y-76652380D01*
X122824761Y-76652380D01*
X122681904Y-76604761D01*
X122634285Y-76557142D01*
X122634285Y-76223809D01*
X122824761Y-76223809D01*
X122205714Y-76652380D02*
X122205714Y-75652380D01*
X121634285Y-76652380D01*
X121634285Y-75652380D01*
X121158095Y-76652380D02*
X121158095Y-75652380D01*
X120920000Y-75652380D01*
X120777142Y-75700000D01*
X120681904Y-75795238D01*
X120634285Y-75890476D01*
X120586666Y-76080952D01*
X120586666Y-76223809D01*
X120634285Y-76414285D01*
X120681904Y-76509523D01*
X120777142Y-76604761D01*
X120920000Y-76652380D01*
X121158095Y-76652380D01*
X127126904Y-60460000D02*
X127222142Y-60412380D01*
X127365000Y-60412380D01*
X127507857Y-60460000D01*
X127603095Y-60555238D01*
X127650714Y-60650476D01*
X127698333Y-60840952D01*
X127698333Y-60983809D01*
X127650714Y-61174285D01*
X127603095Y-61269523D01*
X127507857Y-61364761D01*
X127365000Y-61412380D01*
X127269761Y-61412380D01*
X127126904Y-61364761D01*
X127079285Y-61317142D01*
X127079285Y-60983809D01*
X127269761Y-60983809D01*
X126650714Y-61412380D02*
X126650714Y-60412380D01*
X126079285Y-61412380D01*
X126079285Y-60412380D01*
X125603095Y-61412380D02*
X125603095Y-60412380D01*
X125365000Y-60412380D01*
X125222142Y-60460000D01*
X125126904Y-60555238D01*
X125079285Y-60650476D01*
X125031666Y-60840952D01*
X125031666Y-60983809D01*
X125079285Y-61174285D01*
X125126904Y-61269523D01*
X125222142Y-61364761D01*
X125365000Y-61412380D01*
X125603095Y-61412380D01*
X129111190Y-123912380D02*
X128492142Y-123912380D01*
X128825476Y-124293333D01*
X128682619Y-124293333D01*
X128587380Y-124340952D01*
X128539761Y-124388571D01*
X128492142Y-124483809D01*
X128492142Y-124721904D01*
X128539761Y-124817142D01*
X128587380Y-124864761D01*
X128682619Y-124912380D01*
X128968333Y-124912380D01*
X129063571Y-124864761D01*
X129111190Y-124817142D01*
X128063571Y-124817142D02*
X128015952Y-124864761D01*
X128063571Y-124912380D01*
X128111190Y-124864761D01*
X128063571Y-124817142D01*
X128063571Y-124912380D01*
X127682619Y-123912380D02*
X127063571Y-123912380D01*
X127396904Y-124293333D01*
X127254047Y-124293333D01*
X127158809Y-124340952D01*
X127111190Y-124388571D01*
X127063571Y-124483809D01*
X127063571Y-124721904D01*
X127111190Y-124817142D01*
X127158809Y-124864761D01*
X127254047Y-124912380D01*
X127539761Y-124912380D01*
X127635000Y-124864761D01*
X127682619Y-124817142D01*
X126777857Y-123912380D02*
X126444523Y-124912380D01*
X126111190Y-123912380D01*
X148716904Y-63000000D02*
X148812142Y-62952380D01*
X148955000Y-62952380D01*
X149097857Y-63000000D01*
X149193095Y-63095238D01*
X149240714Y-63190476D01*
X149288333Y-63380952D01*
X149288333Y-63523809D01*
X149240714Y-63714285D01*
X149193095Y-63809523D01*
X149097857Y-63904761D01*
X148955000Y-63952380D01*
X148859761Y-63952380D01*
X148716904Y-63904761D01*
X148669285Y-63857142D01*
X148669285Y-63523809D01*
X148859761Y-63523809D01*
X148240714Y-63952380D02*
X148240714Y-62952380D01*
X147669285Y-63952380D01*
X147669285Y-62952380D01*
X147193095Y-63952380D02*
X147193095Y-62952380D01*
X146955000Y-62952380D01*
X146812142Y-63000000D01*
X146716904Y-63095238D01*
X146669285Y-63190476D01*
X146621666Y-63380952D01*
X146621666Y-63523809D01*
X146669285Y-63714285D01*
X146716904Y-63809523D01*
X146812142Y-63904761D01*
X146955000Y-63952380D01*
X147193095Y-63952380D01*
M02*
